<svg xmlns="http://www.w3.org/2000/svg" xmlns:xlink="http://www.w3.org/1999/xlink" viewBox="0 0 1320.00003 85"><defs><style>.cls-1{fill:#fff;}.cls-2{fill:#81d4fa;}.cls-3{fill:#b3e5fc;}.cls-4{fill:url(#Orange_Yellow);}.cls-5{fill:url(#Orange_Yellow-2);}.cls-6{fill:url(#linear-gradient);}.cls-7{fill:url(#Analogous_5);}.cls-8{fill:url(#Analogous_5-2);}.cls-9{isolation:isolate;}.cls-10{fill:#ddecf7;}.cls-11,.cls-45{fill:#263238;}.cls-12{clip-path:url(#clip-path);}.cls-13{clip-path:url(#clip-path-2);}.cls-14{fill:#00415e;}.cls-15,.cls-22,.cls-23,.cls-27,.cls-31,.cls-32,.cls-38,.cls-57,.cls-61{fill:none;}.cls-15,.cls-22,.cls-27,.cls-31,.cls-32,.cls-38,.cls-57{stroke:#00415e;stroke-linecap:round;}.cls-15,.cls-22,.cls-23,.cls-27,.cls-31,.cls-32,.cls-57,.cls-61{stroke-miterlimit:10;}.cls-15{stroke-width:1.78846px;}.cls-16{clip-path:url(#clip-path-3);}.cls-17{clip-path:url(#clip-path-4);}.cls-18{fill:#e1f4fe;}.cls-19{clip-path:url(#clip-path-5);}.cls-20{clip-path:url(#clip-path-6);}.cls-21{fill:#78909c;opacity:0.22;}.cls-22{stroke-width:2.1496px;}.cls-23,.cls-61{stroke:#e6e6e6;}.cls-24{clip-path:url(#clip-path-7);}.cls-25{clip-path:url(#clip-path-8);}.cls-26{clip-path:url(#clip-path-9);}.cls-27{stroke-width:2px;}.cls-28{clip-path:url(#clip-path-10);}.cls-29{clip-path:url(#clip-path-11);}.cls-30{clip-path:url(#clip-path-12);}.cls-31{stroke-width:1.98791px;}.cls-32{stroke-width:1.76806px;}.cls-33{clip-path:url(#clip-path-13);}.cls-34{clip-path:url(#clip-path-14);}.cls-35{fill:url(#Orange_Yellow-4);}.cls-36{clip-path:url(#clip-path-15);}.cls-37{fill:#ffca28;}.cls-38{stroke-linejoin:round;stroke-width:2.02957px;}.cls-39{clip-path:url(#clip-path-16);}.cls-40{clip-path:url(#clip-path-17);}.cls-41{mix-blend-mode:multiply;}.cls-42{clip-path:url(#clip-path-18);}.cls-43{fill:url(#linear-gradient-3);}.cls-44{clip-path:url(#clip-path-19);}.cls-45{opacity:0.05;}.cls-46{clip-path:url(#clip-path-20);}.cls-47{clip-path:url(#clip-path-21);}.cls-48{clip-path:url(#clip-path-22);}.cls-49{clip-path:url(#clip-path-23);}.cls-50{clip-path:url(#clip-path-24);}.cls-51{clip-path:url(#clip-path-25);}.cls-52{clip-path:url(#clip-path-26);}.cls-53{clip-path:url(#clip-path-27);}.cls-54{fill:url(#Analogous_5-4);}.cls-55{clip-path:url(#clip-path-28);}.cls-56{fill:#c15737;}.cls-57{stroke-width:1.65225px;}.cls-58{clip-path:url(#clip-path-29);}.cls-59{clip-path:url(#clip-path-30);}.cls-60{clip-path:url(#clip-path-31);}.cls-61{stroke-width:0.82419px;}.cls-62{clip-path:url(#clip-path-32);}.cls-63{clip-path:url(#clip-path-33);}.cls-64{clip-path:url(#clip-path-34);}</style><linearGradient id="Orange_Yellow" x1="302.04122" y1="50.33555" x2="302.04122" y2="23.00212" gradientUnits="userSpaceOnUse"><stop offset="0" stop-color="#fff33b"/><stop offset="0.04011" stop-color="#fee72e"/><stop offset="0.11709" stop-color="#fed51b"/><stop offset="0.19641" stop-color="#fdca10"/><stop offset="0.2809" stop-color="#fdc70c"/><stop offset="0.66854" stop-color="#f3903f"/><stop offset="0.88764" stop-color="#ed683c"/><stop offset="1" stop-color="#e93e3a"/></linearGradient><linearGradient id="Orange_Yellow-2" x1="290.32568" y1="43.64387" x2="290.32568" y2="30.78824" xlink:href="#Orange_Yellow"/><linearGradient id="linear-gradient" x1="1139.36535" y1="49.96746" x2="1139.36535" y2="22.88682" gradientUnits="userSpaceOnUse"><stop offset="0" stop-color="#fff"/><stop offset="1" stop-color="#0091ea"/></linearGradient><linearGradient id="Analogous_5" x1="539.25358" y1="24.92406" x2="539.25358" y2="49.80071" gradientUnits="userSpaceOnUse"><stop offset="0" stop-color="#da2128"/><stop offset="0.52247" stop-color="#ed6c30"/><stop offset="1" stop-color="#f05123"/></linearGradient><linearGradient id="Analogous_5-2" x1="527.77853" y1="51.54468" x2="527.77853" y2="57.21549" xlink:href="#Analogous_5"/><clipPath id="clip-path"><rect id="_Rectangle_" data-name="&lt;Rectangle&gt;" class="cls-1" x="130.68458" y="14.7912" width="89.9269" height="63.5711" rx="26.65925" ry="26.65925"/></clipPath><clipPath id="clip-path-2"><rect id="_Rectangle_2" data-name="&lt;Rectangle&gt;" class="cls-2" x="143.46338" y="30.21065" width="63.08532" height="30.05412" rx="15.02704" ry="15.02704"/></clipPath><clipPath id="clip-path-3"><path id="_Clipping_Path_" data-name="&lt;Clipping Path&gt;" class="cls-3" d="M166.693,60.21589l-5.3956,5.43055a.698.698,0,0,1-1.19322-.492V60.1732Z"/></clipPath><clipPath id="clip-path-4"><rect id="_Clipping_Path_2" data-name="&lt;Clipping Path&gt;" class="cls-1" x="852.95103" y="14.97398" width="89.33347" height="63.15159" rx="26.48332" ry="26.48332"/></clipPath><clipPath id="clip-path-5"><rect id="_Rectangle_3" data-name="&lt;Rectangle&gt;" class="cls-2" x="865.6455" y="30.29167" width="62.66901" height="29.85579" rx="14.92788" ry="14.92788"/></clipPath><clipPath id="clip-path-6"><path id="_Clipping_Path_3" data-name="&lt;Clipping Path&gt;" class="cls-3" d="M889.42716,60.0989l-5.16458,5.198a.80775.80775,0,0,1-1.38075-.56932V60.0565Z"/></clipPath><clipPath id="clip-path-7"><rect id="_Clipping_Path_4" data-name="&lt;Clipping Path&gt;" class="cls-1" x="732.95103" y="14.97398" width="89.33347" height="63.15159" rx="26.48332" ry="26.48332"/></clipPath><clipPath id="clip-path-8"><rect id="_Rectangle_4" data-name="&lt;Rectangle&gt;" class="cls-2" x="745.6455" y="30.29167" width="62.66901" height="29.85579" rx="14.92788" ry="14.92788"/></clipPath><clipPath id="clip-path-9"><path id="_Clipping_Path_5" data-name="&lt;Clipping Path&gt;" class="cls-3" d="M769.42716,60.0989l-5.16458,5.198a.80775.80775,0,0,1-1.38075-.56932V60.0565Z"/></clipPath><clipPath id="clip-path-10"><rect id="_Rectangle_5" data-name="&lt;Rectangle&gt;" class="cls-1" x="1215.00348" y="15.1073" width="88.90102" height="62.84588" rx="26.35512" ry="26.35512"/></clipPath><clipPath id="clip-path-11"><rect id="_Rectangle_6" data-name="&lt;Rectangle&gt;" class="cls-2" x="1227.6365" y="30.35084" width="62.36564" height="29.71126" rx="14.85561" ry="14.85561"/></clipPath><clipPath id="clip-path-12"><path id="_Clipping_Path_6" data-name="&lt;Clipping Path&gt;" class="cls-3" d="M1250.6011,60.01378l-5.334,5.3686a.69008.69008,0,0,1-1.17961-.48638V59.97159Z"/></clipPath><clipPath id="clip-path-13"><rect id="_Rectangle_7" data-name="&lt;Rectangle&gt;" class="cls-1" x="257.3071" y="10.92013" width="90.76419" height="64.16299" rx="26.90747" ry="26.90747"/></clipPath><clipPath id="clip-path-14"><rect id="_Rectangle_8" data-name="&lt;Rectangle&gt;" class="cls-4" x="270.20487" y="26.48314" width="63.67269" height="30.33394" rx="15.16696" ry="15.16696"/></clipPath><linearGradient id="Orange_Yellow-4" x1="301.53296" y1="50.33555" x2="301.53296" y2="23.00212" xlink:href="#Orange_Yellow"/><clipPath id="clip-path-15"><path id="_Clipping_Path_7" data-name="&lt;Clipping Path&gt;" class="cls-5" d="M293.65076,56.76775l-5.44583,5.48111a.70454.70454,0,0,1-1.20433-.49657V56.72467Z"/></clipPath><clipPath id="clip-path-16"><rect id="_Rectangle_9" data-name="&lt;Rectangle&gt;" class="cls-1" x="1095.54952" y="11.56839" width="88.90102" height="62.84588" rx="26.35512" ry="26.35512"/></clipPath><clipPath id="clip-path-17"><rect id="_Rectangle_10" data-name="&lt;Rectangle&gt;" class="cls-2" x="1108.18254" y="26.81193" width="62.36564" height="29.71126" rx="14.85561" ry="14.85561"/></clipPath><clipPath id="clip-path-18"><rect id="_Rectangle_11" data-name="&lt;Rectangle&gt;" class="cls-6" x="1108.18254" y="26.81193" width="62.36564" height="29.71126" rx="14.85561" ry="14.85561"/></clipPath><linearGradient id="linear-gradient-3" x1="1138.86753" y1="49.96746" x2="1138.86753" y2="22.88682" xlink:href="#linear-gradient"/><clipPath id="clip-path-19"><path id="_Clipping_Path_8" data-name="&lt;Clipping Path&gt;" class="cls-3" d="M1131.14714,56.47486l-5.334,5.3686a.69008.69008,0,0,1-1.17961-.48638V56.43267Z"/></clipPath><clipPath id="clip-path-20"><rect id="_Rectangle_12" data-name="&lt;Rectangle&gt;" class="cls-1" x="976.24075" y="11.56839" width="88.90102" height="62.84588" rx="26.35512" ry="26.35512"/></clipPath><clipPath id="clip-path-21"><rect id="_Rectangle_13" data-name="&lt;Rectangle&gt;" class="cls-2" x="988.87377" y="26.81193" width="62.36564" height="29.71126" rx="14.85561" ry="14.85561"/></clipPath><clipPath id="clip-path-22"><path id="_Clipping_Path_9" data-name="&lt;Clipping Path&gt;" class="cls-3" d="M1011.83837,56.47486l-5.334,5.3686a.69008.69008,0,0,1-1.17961-.48638V56.43267Z"/></clipPath><clipPath id="clip-path-23"><rect id="_Rectangle_14" data-name="&lt;Rectangle&gt;" class="cls-1" x="15.50122" y="14.87988" width="88.90102" height="62.84588" rx="26.35512" ry="26.35512"/></clipPath><clipPath id="clip-path-24"><rect id="_Rectangle_15" data-name="&lt;Rectangle&gt;" class="cls-2" x="28.13424" y="30.12342" width="62.36564" height="29.71126" rx="14.85561" ry="14.85561"/></clipPath><clipPath id="clip-path-25"><path id="_Clipping_Path_10" data-name="&lt;Clipping Path&gt;" class="cls-3" d="M51.09884,59.78636l-5.334,5.3686a.69008.69008,0,0,1-1.17961-.48638V59.74416Z"/></clipPath><clipPath id="clip-path-26"><rect id="_Rectangle_16" data-name="&lt;Rectangle&gt;" class="cls-1" x="495.43774" y="11.38778" width="88.90102" height="62.84588" rx="26.35512" ry="26.35512"/></clipPath><clipPath id="clip-path-27"><rect id="_Rectangle_17" data-name="&lt;Rectangle&gt;" class="cls-7" x="508.07076" y="26.63132" width="62.36564" height="29.71126" rx="14.85561" ry="14.85561"/></clipPath><linearGradient id="Analogous_5-4" x1="538.75575" y1="24.92406" x2="538.75575" y2="49.80071" xlink:href="#Analogous_5"/><clipPath id="clip-path-28"><path id="_Clipping_Path_11" data-name="&lt;Clipping Path&gt;" class="cls-8" d="M531.03536,56.29426l-5.334,5.3686a.69008.69008,0,0,1-1.17961-.48638V56.25206Z"/></clipPath><clipPath id="clip-path-29"><rect id="_Rectangle_18" data-name="&lt;Rectangle&gt;" class="cls-1" x="615.53336" y="15.16604" width="88.71028" height="62.71104" rx="26.29858" ry="26.29858"/></clipPath><clipPath id="clip-path-30"><rect id="_Rectangle_19" data-name="&lt;Rectangle&gt;" class="cls-2" x="628.13927" y="30.37687" width="62.23183" height="29.64751" rx="14.82374" ry="14.82374"/></clipPath><clipPath id="clip-path-31"><path id="_Clipping_Path_12" data-name="&lt;Clipping Path&gt;" class="cls-3" d="M651.0546,59.97617l-5.3226,5.35708a.6886.6886,0,0,1-1.17708-.48534V59.93407Z"/></clipPath><clipPath id="clip-path-32"><rect id="_Rectangle_20" data-name="&lt;Rectangle&gt;" class="cls-1" x="375.43774" y="15.06049" width="88.90102" height="62.84588" rx="26.35512" ry="26.35512"/></clipPath><clipPath id="clip-path-33"><rect id="_Rectangle_21" data-name="&lt;Rectangle&gt;" class="cls-2" x="388.07075" y="30.30403" width="62.36564" height="29.71126" rx="14.85561" ry="14.85561"/></clipPath><clipPath id="clip-path-34"><path id="_Clipping_Path_13" data-name="&lt;Clipping Path&gt;" class="cls-3" d="M411.03535,59.967l-5.334,5.3686a.69008.69008,0,0,1-1.17961-.48638V59.92477Z"/></clipPath></defs><title>Artboard 31</title><g class="cls-9"><g id="Layer_1" data-name="Layer 1"><g id="_Group_" data-name="&lt;Group&gt;"><g id="_Group_2" data-name="&lt;Group&gt;"><g id="_Group_3" data-name="&lt;Group&gt;"><path id="_Rectangle_22" data-name="&lt;Rectangle&gt;" class="cls-10" d="M132.7509,47.82422h0a4.86438,4.86438,0,0,1,4.86438,4.86438V67.6578a4.86438,4.86438,0,0,1-4.86438,4.86438h0a4.86438,4.86438,0,0,1-4.86438-4.86438V52.68861A4.86439,4.86439,0,0,1,132.7509,47.82422Z" transform="translate(28.18307 -41.36095) rotate(19.77291)"/><g id="_Group_4" data-name="&lt;Group&gt;"><path id="_Path_" data-name="&lt;Path&gt;" class="cls-11" d="M177.95711,15.48025l-1.22263-5.30169a1.08567,1.08567,0,0,0-2.05038,0l-1.22263,5.30169a.79281.79281,0,0,0,.74865,1.05373h2.99834A.79281.79281,0,0,0,177.95711,15.48025Z"/><circle id="_Ellipse_" data-name="&lt;Ellipse&gt;" class="cls-11" cx="175.64803" cy="9.45454" r="2.81684"/></g><g id="_Clip_Group_" data-name="&lt;Clip Group&gt;"><rect id="_Rectangle_23" data-name="&lt;Rectangle&gt;" class="cls-1" x="130.68458" y="14.7912" width="89.9269" height="63.5711" rx="26.65925" ry="26.65925"/><g class="cls-12"><path id="_Path_2" data-name="&lt;Path&gt;" class="cls-10" d="M220.47752,48.50055V58.753c0,14.66409-11.60956,26.79876-26.27353,26.79876H157.59381c-14.664,0-27.11629-12.13467-27.11629-26.79876V48.50055c0,14.59327,12.50261,26.05118,27.11629,26.05118H194.204A25.96773,25.96773,0,0,0,220.47752,48.50055Z"/></g></g><g id="_Group_5" data-name="&lt;Group&gt;"><g id="_Clip_Group_2" data-name="&lt;Clip Group&gt;"><rect id="_Rectangle_24" data-name="&lt;Rectangle&gt;" class="cls-2" x="143.46338" y="30.21065" width="63.08532" height="30.05412" rx="15.02704" ry="15.02704"/><g class="cls-13"><rect id="_Rectangle_25" data-name="&lt;Rectangle&gt;" class="cls-3" x="142.95981" y="31.21779" width="63.08532" height="30.05412" rx="15.02704" ry="15.02704"/></g></g><circle id="_Path_3" data-name="&lt;Path&gt;" class="cls-14" cx="155.32125" cy="43.88792" r="2.20311" transform="translate(95.30272 193.71654) rotate(-83.94817)"/><circle id="_Path_4" data-name="&lt;Path&gt;" class="cls-14" cx="193.00306" cy="45.0082" r="2.20311" transform="translate(127.89776 232.19052) rotate(-83.94817)"/><path id="_Path_5" data-name="&lt;Path&gt;" class="cls-15" d="M183.96181,46.22488a9.93135,9.93135,0,0,1-6.54453,1.956"/></g><g id="_Clip_Group_3" data-name="&lt;Clip Group&gt;"><path id="_Clipping_Path_14" data-name="&lt;Clipping Path&gt;" class="cls-3" d="M166.693,60.21589l-5.3956,5.43055a.698.698,0,0,1-1.19322-.492V60.1732Z"/><g class="cls-16"><rect id="_Rectangle_26" data-name="&lt;Rectangle&gt;" class="cls-2" x="162.15628" y="58.95405" width="0.972" height="10.35702" transform="translate(230.08526 225.43024) rotate(-134.21129)"/></g></g><rect id="_Rectangle_27" data-name="&lt;Rectangle&gt;" class="cls-1" x="219.09756" y="33.8759" width="9.72877" height="24.69796" rx="4.86438" ry="4.86438" transform="translate(328.69209 249.51602) rotate(-128.91818)"/></g></g></g><g id="_Group_6" data-name="&lt;Group&gt;"><g id="_Group_7" data-name="&lt;Group&gt;"><g id="_Group_8" data-name="&lt;Group&gt;"><g id="_Group_12" data-name="&lt;Group&gt;"><g id="_Group_13" data-name="&lt;Group&gt;"><g id="_Group_14" data-name="&lt;Group&gt;"><path id="_Path_6" data-name="&lt;Path&gt;" class="cls-11" d="M899.9116,15.65848l-1.21456-5.2667a1.0785,1.0785,0,0,0-2.03685,0l-1.21456,5.2667a.78758.78758,0,0,0,.74371,1.04678h2.97855A.78758.78758,0,0,0,899.9116,15.65848Z"/><circle id="_Ellipse_2" data-name="&lt;Ellipse&gt;" class="cls-11" cx="897.61776" cy="9.67254" r="2.79825"/></g><g id="_Clip_Group_7" data-name="&lt;Clip Group&gt;"><rect id="_Clipping_Path_15" data-name="&lt;Clipping Path&gt;" class="cls-1" x="852.95103" y="14.97398" width="89.33347" height="63.15159" rx="26.48332" ry="26.48332"/><g class="cls-17"><g id="_Group_15" data-name="&lt;Group&gt;"><path id="_Path_7" data-name="&lt;Path&gt;" class="cls-18" d="M943.19966,48.46088V58.64564c0,14.56732-12.58119,24.75517-27.14839,24.75517H879.68268c-14.5672,0-27.57865-10.18785-27.57865-24.75517V48.46088c0,14.497,13.0614,26.39972,27.57865,26.39972h36.36859C930.56851,74.8606,943.19966,62.95785,943.19966,48.46088Z"/></g></g></g><g id="_Group_16" data-name="&lt;Group&gt;"><g id="_Clip_Group_8" data-name="&lt;Clip Group&gt;"><rect id="_Rectangle_28" data-name="&lt;Rectangle&gt;" class="cls-2" x="865.6455" y="30.29167" width="62.66901" height="29.85579" rx="14.92788" ry="14.92788"/><g class="cls-19"><rect id="_Rectangle_29" data-name="&lt;Rectangle&gt;" class="cls-3" x="865.14525" y="31.29217" width="62.66901" height="29.85579" rx="14.92788" ry="14.92788"/></g></g></g><g id="_Clip_Group_9" data-name="&lt;Clip Group&gt;"><path id="_Clipping_Path_16" data-name="&lt;Clipping Path&gt;" class="cls-3" d="M889.42716,60.0989l-5.16458,5.198a.80775.80775,0,0,1-1.38075-.56932V60.0565Z"/><g class="cls-20"><rect id="_Rectangle_30" data-name="&lt;Rectangle&gt;" class="cls-2" x="882.39903" y="60.0565" width="0.96558" height="6.63013" transform="translate(1765.76365 126.74314) rotate(-180)"/></g></g><path id="_Path_8" data-name="&lt;Path&gt;" class="cls-21" d="M871.48616,66.1942h0c-1.3433-2.70268,1.28742-5.61363,3.7021-6.81378l11.75624-6.99728c2.41468-1.20016,5.48939.02919,6.83269,2.73187h0c1.3433,2.70268.46672,5.89592-1.948,7.09607l-13.51038,6.715C875.90418,70.12622,872.82946,68.89688,871.48616,66.1942Z"/><g id="_Rectangle_31" data-name="&lt;Rectangle&gt;"><rect id="_Path_9" data-name="&lt;Path&gt;" class="cls-1" x="869.91248" y="56.33151" width="24.53498" height="9.66457" rx="4.83228" ry="4.83228" transform="translate(64.97318 399.03296) rotate(-26.42847)"/></g></g><path id="_Path_10" data-name="&lt;Path&gt;" class="cls-22" d="M901.53023,49.373a10.81166,10.81166,0,0,1,5.03416-2.52409"/><circle id="_Ellipse_3" data-name="&lt;Ellipse&gt;" class="cls-14" cx="878.43713" cy="46.29373" r="1.81718"/><circle id="_Ellipse_4" data-name="&lt;Ellipse&gt;" class="cls-14" cx="918.99773" cy="46.29373" r="1.81718"/></g></g><path id="_Rectangle_32" data-name="&lt;Rectangle&gt;" class="cls-1" d="M939.57026,49.693h0a4.83229,4.83229,0,0,1,4.83229,4.83229v14.8704a4.83228,4.83228,0,0,1-4.83228,4.83228h0a4.83228,4.83228,0,0,1-4.83228-4.83228V54.52528A4.83227,4.83227,0,0,1,939.57026,49.693Z" transform="translate(39.53601 338.67285) rotate(-20.8628)"/><g id="_Group_20" data-name="&lt;Group&gt;"><path id="_Path_11" data-name="&lt;Path&gt;" class="cls-23" d="M946.7338,67.18724l-4.66455-12.23877a26.403,26.403,0,0,0,.21533-3.30615V41.45726a26.56119,26.56119,0,0,0-26.4834-26.4834h-36.3667a26.56119,26.56119,0,0,0-26.4834,26.4834V51.64232a26.56119,26.56119,0,0,0,26.4834,26.4834h36.3667A26.46942,26.46942,0,0,0,936.662,67.89818l1.041,2.731a4.83222,4.83222,0,0,0,9.03076-3.44189Z"/><line id="_Path_12" data-name="&lt;Path&gt;" class="cls-23" x1="933.67328" y1="60.0565" x2="936.66202" y2="67.89818"/></g></g></g><g id="_Group_21" data-name="&lt;Group&gt;"><g id="_Group_22" data-name="&lt;Group&gt;"><g id="_Group_23" data-name="&lt;Group&gt;"><g id="_Group_24" data-name="&lt;Group&gt;"><g id="_Group_28" data-name="&lt;Group&gt;"><g id="_Group_29" data-name="&lt;Group&gt;"><g id="_Group_30" data-name="&lt;Group&gt;"><path id="_Path_13" data-name="&lt;Path&gt;" class="cls-11" d="M779.9116,15.65848l-1.21456-5.2667a1.0785,1.0785,0,0,0-2.03685,0l-1.21456,5.2667a.78758.78758,0,0,0,.74371,1.04678h2.97855A.78758.78758,0,0,0,779.9116,15.65848Z"/><circle id="_Ellipse_5" data-name="&lt;Ellipse&gt;" class="cls-11" cx="777.61776" cy="9.67254" r="2.79825"/></g><g id="_Clip_Group_16" data-name="&lt;Clip Group&gt;"><rect id="_Clipping_Path_17" data-name="&lt;Clipping Path&gt;" class="cls-1" x="732.95103" y="14.97398" width="89.33347" height="63.15159" rx="26.48332" ry="26.48332"/><g class="cls-24"><g id="_Group_31" data-name="&lt;Group&gt;"><path id="_Path_14" data-name="&lt;Path&gt;" class="cls-18" d="M823.19965,48.46088V58.64564c0,14.56732-12.58119,24.75517-27.14839,24.75517H759.68268c-14.5672,0-27.57865-10.18785-27.57865-24.75517V48.46088c0,14.497,13.0614,26.39972,27.57865,26.39972h36.36859C810.56851,74.8606,823.19965,62.95785,823.19965,48.46088Z"/></g></g></g><g id="_Group_32" data-name="&lt;Group&gt;"><g id="_Clip_Group_17" data-name="&lt;Clip Group&gt;"><rect id="_Rectangle_33" data-name="&lt;Rectangle&gt;" class="cls-2" x="745.6455" y="30.29167" width="62.66901" height="29.85579" rx="14.92788" ry="14.92788"/><g class="cls-25"><rect id="_Rectangle_34" data-name="&lt;Rectangle&gt;" class="cls-3" x="745.14525" y="31.29217" width="62.66901" height="29.85579" rx="14.92788" ry="14.92788"/></g></g></g><g id="_Clip_Group_18" data-name="&lt;Clip Group&gt;"><path id="_Clipping_Path_18" data-name="&lt;Clipping Path&gt;" class="cls-3" d="M769.42716,60.0989l-5.16458,5.198a.80775.80775,0,0,1-1.38075-.56932V60.0565Z"/><g class="cls-26"><rect id="_Rectangle_35" data-name="&lt;Rectangle&gt;" class="cls-2" x="762.39903" y="60.0565" width="0.96558" height="6.63013" transform="translate(1525.76365 126.74314) rotate(-180)"/></g></g><path id="_Path_15" data-name="&lt;Path&gt;" class="cls-21" d="M751.48616,66.1942h0c-1.3433-2.70268,1.28742-5.61363,3.7021-6.81378l11.75624-6.99728c2.41468-1.20016,5.48939.02919,6.83269,2.73187h0c1.3433,2.70268.46672,5.89592-1.948,7.09607l-13.51038,6.715C755.90417,70.12622,752.82946,68.89688,751.48616,66.1942Z"/><g id="_Rectangle_36" data-name="&lt;Rectangle&gt;"><rect id="_Path_16" data-name="&lt;Path&gt;" class="cls-1" x="749.91248" y="56.33151" width="24.53498" height="9.66457" rx="4.83228" ry="4.83228" transform="translate(52.43203 345.62324) rotate(-26.42846)"/></g></g><path id="_Path_17" data-name="&lt;Path&gt;" class="cls-22" d="M777.22815,43.87785a10.81166,10.81166,0,0,1,5.45582,1.39566"/><circle id="_Ellipse_6" data-name="&lt;Ellipse&gt;" class="cls-14" cx="762.17991" cy="42.50581" r="1.81718"/><circle id="_Ellipse_7" data-name="&lt;Ellipse&gt;" class="cls-14" cx="798.41911" cy="42.50581" r="1.81718"/></g></g><path id="_Rectangle_37" data-name="&lt;Rectangle&gt;" class="cls-1" d="M819.57026,49.693h0a4.83229,4.83229,0,0,1,4.83229,4.83229v14.8704a4.83228,4.83228,0,0,1-4.83228,4.83228h0a4.83228,4.83228,0,0,1-4.83228-4.83228V54.52528A4.83227,4.83227,0,0,1,819.57026,49.693Z" transform="translate(31.6683 295.93702) rotate(-20.8628)"/><g id="_Group_36" data-name="&lt;Group&gt;"><path id="_Path_18" data-name="&lt;Path&gt;" class="cls-23" d="M826.73379,67.18724l-4.66455-12.23877a26.403,26.403,0,0,0,.21533-3.30615V41.45726a26.56119,26.56119,0,0,0-26.4834-26.4834h-36.3667a26.56119,26.56119,0,0,0-26.4834,26.4834V51.64232a26.56119,26.56119,0,0,0,26.4834,26.4834h36.3667A26.46942,26.46942,0,0,0,816.662,67.89818l1.041,2.731a4.83222,4.83222,0,1,0,9.03076-3.44189Z"/><line id="_Path_19" data-name="&lt;Path&gt;" class="cls-23" x1="813.67328" y1="60.0565" x2="816.66202" y2="67.89818"/></g></g><line id="_Path_20" data-name="&lt;Path&gt;" class="cls-27" x1="763.31723" y1="36.05992" x2="758.92489" y2="36.79048"/><line id="_Path_21" data-name="&lt;Path&gt;" class="cls-27" x1="795.49345" y1="37.37806" x2="799.92113" y2="37.8492"/></g></g><g id="_Group_37" data-name="&lt;Group&gt;"><g id="_Group_38" data-name="&lt;Group&gt;"><g id="_Group_39" data-name="&lt;Group&gt;"><g id="_Group_40" data-name="&lt;Group&gt;"><circle id="_Ellipse_8" data-name="&lt;Ellipse&gt;" class="cls-11" cx="1264.11619" cy="9.83153" r="2.78471"/><g id="_Group_41" data-name="&lt;Group&gt;"><path id="_Path_22" data-name="&lt;Path&gt;" class="cls-11" d="M1264.22534,10.55176s-.2727.417-.68188,1.04248c-.19556.29639-.40772.6416-.61108.99512-.21289.34668-.39868.71924-.56934,1.06592-.06787.18262-.165.34668-.21875.5166-.0603.16895-.12817.32666-.16772.481a4.55794,4.55794,0,0,0-.19019.81641,2.41183,2.41183,0,0,0-.05981.56641c.01611.03516-.03979.062-.19263.085-.12622.02295-.40967.042-.54907.0625-.55322.04443-.84814.06836-.84814.06836h-.49707c.01978-.001-.35034-.02881-.83667-.10352a4.012,4.012,0,0,1-.5354-.14307c-.14746-.05859-.197-.12451-.17407-.19336a5.60036,5.60036,0,0,1,.18115-1.146,5.74773,5.74773,0,0,1,.61865-1.48779,5.91511,5.91511,0,0,1,1.09155-1.38184,6.34113,6.34113,0,0,1,2.65747-1.50293,4.67282,4.67282,0,0,1,.54736-.12109,3.274,3.274,0,0,1,.43091-.05518,2.69089,2.69089,0,0,1,.38648-.01123Z"/></g></g><rect id="_Rectangle_38" data-name="&lt;Rectangle&gt;" class="cls-10" x="1208.23734" y="30.01349" width="9.61779" height="24.41621" rx="4.80889" ry="4.80889" transform="translate(2197.62795 -667.61125) rotate(142.21689)"/><g id="_Clip_Group_22" data-name="&lt;Clip Group&gt;"><rect id="_Rectangle_39" data-name="&lt;Rectangle&gt;" class="cls-1" x="1215.00348" y="15.1073" width="88.90102" height="62.84588" rx="26.35512" ry="26.35512"/><g class="cls-28"><path id="_Path_23" data-name="&lt;Path&gt;" class="cls-10" d="M1304.04327,48.4321V58.56756c0,14.4968-11.74833,26.663-26.245,26.663h-36.19253a26.87454,26.87454,0,0,1-26.56246-26.663V48.4321c0,14.42679,12.11549,24.79841,26.56246,24.79841h36.19253C1292.24523,73.23051,1304.04327,62.85889,1304.04327,48.4321Z"/></g></g><g id="_Clip_Group_23" data-name="&lt;Clip Group&gt;"><rect id="_Rectangle_40" data-name="&lt;Rectangle&gt;" class="cls-2" x="1227.6365" y="30.35084" width="62.36564" height="29.71126" rx="14.85561" ry="14.85561"/><g class="cls-29"><rect id="_Rectangle_41" data-name="&lt;Rectangle&gt;" class="cls-3" x="1227.13867" y="31.3465" width="62.36564" height="29.71126" rx="14.85561" ry="14.85561"/></g></g><g id="_Clip_Group_24" data-name="&lt;Clip Group&gt;"><path id="_Clipping_Path_19" data-name="&lt;Clipping Path&gt;" class="cls-3" d="M1250.6011,60.01378l-5.334,5.3686a.69008.69008,0,0,1-1.17961-.48638V59.97159Z"/><g class="cls-30"><rect id="_Rectangle_42" data-name="&lt;Rectangle&gt;" class="cls-2" x="1246.11615" y="58.76635" width="0.96091" height="10.23886" transform="translate(2070.06468 1001.96084) rotate(-134.21129)"/></g></g><rect id="_Rectangle_43" data-name="&lt;Rectangle&gt;" class="cls-1" x="1300.41266" y="35.0733" width="9.61779" height="24.41621" rx="4.80889" ry="4.80889" transform="translate(650.66886 -1082.93963) rotate(57.84866)"/><path id="_Path_24" data-name="&lt;Path&gt;" class="cls-31" d="M1260.87529,45.6349a.99907.99907,0,0,1,.92657,1.39725,3.29418,3.29418,0,0,1-5.96508,0,.99907.99907,0,0,1,.92657-1.39725Z"/></g><path id="_Path_25" data-name="&lt;Path&gt;" class="cls-32" d="M1275.15893,41.03113a4.69166,4.69166,0,0,1,4.35717.00153"/><path id="_Path_26" data-name="&lt;Path&gt;" class="cls-32" d="M1238.12241,41.03113a4.69166,4.69166,0,0,1,4.35717.00153"/><path id="_Path_27" data-name="&lt;Path&gt;" class="cls-23" d="M1315.55755,40.78477a5.11221,5.11221,0,0,0-6.871-1.51221l-5.26282,3.15674v-.9668c0-14.49561-11.37915-26.76318-25.87439-26.76318h-36.1908a26.63179,26.63179,0,0,0-26.0249,22.41992l-3.02014-3.79395a4.83255,4.83255,0,0,0-7.60126,5.96912l9.06665,11.70856a4.28283,4.28283,0,0,0,1.23773.979,26.32634,26.32634,0,0,0,26.34192,25.71732h36.1908a26.32939,26.32939,0,0,0,26.25122-23.97168l10.24451-6.376A4.74824,4.74824,0,0,0,1315.55755,40.78477Z"/></g></g><g id="_Group_42" data-name="&lt;Group&gt;"><g id="_Group_43" data-name="&lt;Group&gt;"><g id="_Group_44" data-name="&lt;Group&gt;"><rect id="_Rectangle_44" data-name="&lt;Rectangle&gt;" class="cls-10" x="254.48298" y="44.26071" width="9.81936" height="24.92792" rx="4.90967" ry="4.90967" transform="matrix(0.94104, 0.33829, -0.33829, 0.94104, 34.48315, -84.40631)"/><g id="_Clip_Group_25" data-name="&lt;Clip Group&gt;"><rect id="_Rectangle_45" data-name="&lt;Rectangle&gt;" class="cls-1" x="257.3071" y="10.92013" width="90.76419" height="64.16299" rx="26.90747" ry="26.90747"/><g class="cls-33"><path id="_Path_28" data-name="&lt;Path&gt;" class="cls-10" d="M348.28081,44.94334V55.29122c0,14.80062-12.0624,27.51105-26.86289,27.51105h-36.951c-14.8005,0-28.18606-12.71043-28.18606-27.51105V44.94334c0,14.72915,13.43631,25.85893,28.18606,25.85893h36.951C336.16766,70.80227,348.28081,59.67248,348.28081,44.94334Z"/></g></g><g id="_Clip_Group_26" data-name="&lt;Clip Group&gt;"><rect id="_Rectangle_46" data-name="&lt;Rectangle&gt;" class="cls-4" x="270.20487" y="26.48314" width="63.67269" height="30.33394" rx="15.16696" ry="15.16696"/><g class="cls-34"><rect id="_Rectangle_47" data-name="&lt;Rectangle&gt;" class="cls-35" x="269.69661" y="27.49966" width="63.67269" height="30.33394" rx="15.16696" ry="15.16696"/></g></g><g id="_Clip_Group_27" data-name="&lt;Clip Group&gt;"><path id="_Clipping_Path_20" data-name="&lt;Clipping Path&gt;" class="cls-5" d="M293.65076,56.76775l-5.44583,5.48111a.70454.70454,0,0,1-1.20433-.49657V56.72467Z"/><g class="cls-36"><rect id="_Rectangle_48" data-name="&lt;Rectangle&gt;" class="cls-37" x="289.07182" y="55.49417" width="0.98105" height="10.45345" transform="translate(447.95288 310.6125) rotate(-134.21129)"/></g></g><polyline id="_Path_29" data-name="&lt;Path&gt;" class="cls-38" points="293.089 46.908 296.132 48.43 299.176 46.908 302.218 48.43 305.262 46.908 308.309 48.43 311.355 46.908"/><g id="_Group_45" data-name="&lt;Group&gt;"><line id="_Path_30" data-name="&lt;Path&gt;" class="cls-38" x1="284.73673" y1="39.76171" x2="289.18433" y2="41.22"/><line id="_Path_31" data-name="&lt;Path&gt;" class="cls-38" x1="289.18433" y1="41.28389" x2="284.73673" y2="42.74218"/></g><g id="_Group_46" data-name="&lt;Group&gt;"><line id="_Path_32" data-name="&lt;Path&gt;" class="cls-38" x1="320.6427" y1="42.74218" x2="316.1951" y2="41.28389"/><line id="_Path_33" data-name="&lt;Path&gt;" class="cls-38" x1="316.1951" y1="41.22" x2="320.6427" y2="39.76171"/></g></g><path id="_Path_34" data-name="&lt;Path&gt;" class="cls-23" d="M321.16375,10.71468H284.21453c-14.79907,0-26.55322,12.314-26.55322,27.11279V48.013L252.394,62.17269a4.84773,4.84773,0,1,0,9.1076,3.32178l.68251-2.14453a26.71807,26.71807,0,0,0,22.03041,11.36475h36.94922A26.32414,26.32414,0,0,0,347.6613,48.17562V37.82747C347.6613,23.02865,335.96294,10.71468,321.16375,10.71468Z"/><g id="_Group_47" data-name="&lt;Group&gt;"><circle id="_Ellipse_9" data-name="&lt;Ellipse&gt;" class="cls-11" cx="302.68919" cy="14.9105" r="2.84307"/><g id="_Group_48" data-name="&lt;Group&gt;"><path id="_Path_35" data-name="&lt;Path&gt;" class="cls-11" d="M302.43555,14.91064s-.07007-.07812-.17041-.21484a5.30945,5.30945,0,0,1-.36475-.56543,6.99872,6.99872,0,0,1-.69727-1.7168,8.26052,8.26052,0,0,1-.26025-1.71631l-.01-.31934c.00317-.04785-.01465-.09229.0127-.1333a.47749.47749,0,0,1,.20752-.11328,4.92284,4.92284,0,0,1,.81128-.1582l.47119-.05615h.50732l.47095.05615a4.921,4.921,0,0,1,.81152.1582.47749.47749,0,0,1,.20752.11328c.02734.041.00952.08545.0127.1333l-.01.31934a8.26053,8.26053,0,0,1-.26025,1.71631,6.99872,6.99872,0,0,1-.69727,1.7168,5.30947,5.30947,0,0,1-.36475.56543c-.10034.13672-.17041.21484-.17041.21484Z"/></g></g><path id="_Path_36" data-name="&lt;Path&gt;" class="cls-21" d="M341.41436,56.82253h0c-2.40916,1.3432-5.18034-.93246-6.3804-3.08489l-6.89631-10.42953a4.78465,4.78465,0,0,1,2.19835-6.3557h0a4.78465,4.78465,0,0,1,6.56223,1.47134l6.71448,12.04309A4.78465,4.78465,0,0,1,341.41436,56.82253Z"/><path id="_Rectangle_49" data-name="&lt;Rectangle&gt;" class="cls-1" d="M336.90241,34.44429h0a4.90968,4.90968,0,0,1,4.90968,4.90968V54.46253a4.90967,4.90967,0,0,1-4.90967,4.90967h0a4.90967,4.90967,0,0,1-4.90967-4.90967V39.354a4.90967,4.90967,0,0,1,4.90967-4.90967Z" transform="translate(14.37614 154.98426) rotate(-26.45215)"/></g></g><g id="_Group_49" data-name="&lt;Group&gt;"><g id="_Group_50" data-name="&lt;Group&gt;"><g id="_Group_51" data-name="&lt;Group&gt;"><g id="_Clip_Group_28" data-name="&lt;Clip Group&gt;"><rect id="_Rectangle_50" data-name="&lt;Rectangle&gt;" class="cls-1" x="1095.54952" y="11.56839" width="88.90102" height="62.84588" rx="26.35512" ry="26.35512"/><g class="cls-39"><path id="_Path_37" data-name="&lt;Path&gt;" class="cls-10" d="M1184,44.88979V55.02525a26.16949,26.16949,0,0,1-26.13324,26.271h-36.19253C1107.17757,81.29625,1096,69.522,1096,55.02525V44.88979c0,14.42679,11.22726,25.40647,25.67422,25.40647h36.19253C1172.31375,70.29625,1184,59.31658,1184,44.88979Z"/></g></g><g id="_Clip_Group_29" data-name="&lt;Clip Group&gt;"><rect id="_Rectangle_51" data-name="&lt;Rectangle&gt;" class="cls-2" x="1108.18254" y="26.81193" width="62.36564" height="29.71126" rx="14.85561" ry="14.85561"/><g class="cls-40"><rect id="_Rectangle_52" data-name="&lt;Rectangle&gt;" class="cls-3" x="1107.68471" y="27.80758" width="62.36564" height="29.71126" rx="14.85561" ry="14.85561"/></g></g><g id="_Clip_Group_30" data-name="&lt;Clip Group&gt;" class="cls-41"><rect id="_Rectangle_53" data-name="&lt;Rectangle&gt;" class="cls-6" x="1108.18254" y="26.81193" width="62.36564" height="29.71126" rx="14.85561" ry="14.85561"/><g class="cls-42"><rect id="_Rectangle_54" data-name="&lt;Rectangle&gt;" class="cls-43" x="1107.68471" y="27.80758" width="62.36564" height="29.71126" rx="14.85561" ry="14.85561"/></g></g><g id="_Clip_Group_31" data-name="&lt;Clip Group&gt;"><path id="_Clipping_Path_21" data-name="&lt;Clipping Path&gt;" class="cls-3" d="M1131.14714,56.47486l-5.334,5.3686a.69008.69008,0,0,1-1.17961-.48638V56.43267Z"/><g class="cls-44"><rect id="_Rectangle_55" data-name="&lt;Rectangle&gt;" class="cls-2" x="1126.66218" y="55.22743" width="0.96091" height="10.23886" transform="translate(1869.85131 910.33281) rotate(-134.21129)"/></g></g><circle id="_Path_38" data-name="&lt;Path&gt;" class="cls-14" cx="1124.59424" cy="41.8241" r="2.17797" transform="translate(964.43952 1155.74147) rotate(-83.94817)"/><circle id="_Path_39" data-name="&lt;Path&gt;" class="cls-14" cx="1154.41288" cy="41.8241" r="2.17797" transform="translate(991.11445 1185.39394) rotate(-83.94817)"/><line id="_Path_40" data-name="&lt;Path&gt;" class="cls-27" x1="1130.47754" y1="48.29965" x2="1149.47754" y2="48.29965"/><path id="_Rectangle_56" data-name="&lt;Rectangle&gt;" class="cls-45" d="M1170.37412,37.74912h0a4.8089,4.8089,0,0,1,4.8089,4.8089V57.35643a4.80889,4.80889,0,0,1-4.80889,4.80889h0a4.80888,4.80888,0,0,1-4.80888-4.80888V42.558a4.80888,4.80888,0,0,1,4.80888-4.80888Z" transform="translate(626.36216 1087.41677) rotate(-64.77304)"/><path id="_Rectangle_57" data-name="&lt;Rectangle&gt;" class="cls-1" d="M1170.87116,38.74318h0a4.80889,4.80889,0,0,1,4.80889,4.80889V58.35049a4.80889,4.80889,0,0,1-4.80889,4.80889h0a4.80888,4.80888,0,0,1-4.80888-4.80888V43.55206a4.80889,4.80889,0,0,1,4.80889-4.80889Z" transform="translate(625.74619 1088.43577) rotate(-64.77293)"/><rect id="_Rectangle_58" data-name="&lt;Rectangle&gt;" class="cls-10" x="1103.4097" y="39.23506" width="9.61779" height="24.41621" rx="4.80889" ry="4.80889" transform="translate(1534.01122 1075.89204) rotate(-115.22703)"/><path id="_Path_41" data-name="&lt;Path&gt;" class="cls-10" d="M1095.58558,48.578s1.56562,2.94232,6.73512.328.229,4.87524.229,4.87524-3.96815,1.314-4.047,1.314-1.94465-1.41907-1.94465-1.41907l-.6307-2.233Z"/><polygon id="_Path_42" data-name="&lt;Path&gt;" class="cls-10" points="1106.196 57.712 1100.132 60.578 1098.887 58.61 1101.432 57.039 1105.538 56.936 1106.196 57.712"/></g><rect id="_Rectangle_59" data-name="&lt;Rectangle&gt;" class="cls-23" x="1095.54952" y="11.56839" width="88.90102" height="62.84588" rx="26.35512" ry="26.35512"/><g id="_Group_52" data-name="&lt;Group&gt;"><circle id="_Ellipse_10" data-name="&lt;Ellipse&gt;" class="cls-11" cx="1140.06058" cy="15.47685" r="2.78471"/><g id="_Group_53" data-name="&lt;Group&gt;"><path id="_Path_43" data-name="&lt;Path&gt;" class="cls-11" d="M1139.812,15.47705a5.24363,5.24363,0,0,1-.52417-.76465,6.85957,6.85957,0,0,1-.68286-1.68115,8.089,8.089,0,0,1-.25488-1.68115c-.00366-.11475-.00684-.21973-.00977-.313.00293-.04639-.0144-.09033.01245-.13037a.46116.46116,0,0,1,.20313-.11084,4.80374,4.80374,0,0,1,.79492-.15527l.46118-.05469h.49707l.46143.05469a4.80554,4.80554,0,0,1,.79468.15527.46235.46235,0,0,1,.20337.11084c.02661.04.00928.084.01221.13037-.00293.09326-.0061.19824-.00952.313a8.10752,8.10752,0,0,1-.25513,1.68115,6.85,6.85,0,0,1-.68286,1.68115,5.24363,5.24363,0,0,1-.52417.76465Z"/></g></g></g></g><g id="_Group_54" data-name="&lt;Group&gt;"><g id="_Group_55" data-name="&lt;Group&gt;"><g id="_Group_56" data-name="&lt;Group&gt;"><rect id="_Rectangle_60" data-name="&lt;Rectangle&gt;" class="cls-10" x="975.31616" y="45.78578" width="9.61779" height="24.41621" rx="4.80889" ry="4.80889" transform="translate(5.46725 -60.54126) rotate(3.54786)"/><g id="_Clip_Group_32" data-name="&lt;Clip Group&gt;"><rect id="_Rectangle_61" data-name="&lt;Rectangle&gt;" class="cls-1" x="976.24075" y="11.56839" width="88.90102" height="62.84588" rx="26.35512" ry="26.35512"/><g class="cls-46"><path id="_Path_44" data-name="&lt;Path&gt;" class="cls-10" d="M1065.28054,44.89318V55.02864c0,14.4968-11.74833,28.09953-26.245,28.09953H1002.843c-14.49668,0-26.56246-13.60273-26.56246-28.09953V44.89318c0,14.42679,12.11549,26.235,26.56246,26.235h36.19253A26.31084,26.31084,0,0,0,1065.28054,44.89318Z"/></g></g><g id="_Clip_Group_33" data-name="&lt;Clip Group&gt;"><rect id="_Rectangle_62" data-name="&lt;Rectangle&gt;" class="cls-2" x="988.87377" y="26.81193" width="62.36564" height="29.71126" rx="14.85561" ry="14.85561"/><g class="cls-47"><rect id="_Rectangle_63" data-name="&lt;Rectangle&gt;" class="cls-3" x="988.37594" y="27.80758" width="62.36564" height="29.71126" rx="14.85561" ry="14.85561"/></g></g><circle id="_Path_45" data-name="&lt;Path&gt;" class="cls-14" cx="1000.59637" cy="47.42362" r="2.17797" transform="translate(847.94618 1037.44383) rotate(-83.94817)"/><circle id="_Path_46" data-name="&lt;Path&gt;" class="cls-14" cx="1037.8483" cy="47.42362" r="2.17797" transform="translate(881.27072 1074.48815) rotate(-83.94817)"/><g id="_Clip_Group_34" data-name="&lt;Clip Group&gt;"><path id="_Clipping_Path_22" data-name="&lt;Clipping Path&gt;" class="cls-3" d="M1011.83837,56.47486l-5.334,5.3686a.69008.69008,0,0,1-1.17961-.48638V56.43267Z"/><g class="cls-48"><rect id="_Rectangle_64" data-name="&lt;Rectangle&gt;" class="cls-2" x="1007.35342" y="55.22743" width="0.96091" height="10.23886" transform="translate(1667.34779 824.81547) rotate(-134.21129)"/></g></g><path id="_Path_47" data-name="&lt;Path&gt;" class="cls-32" d="M1015.59392,50.1813a4.68378,4.68378,0,0,1,7.25682.0677"/><path id="_Path_48" data-name="&lt;Path&gt;" class="cls-1" d="M1060.35671,69.82356h0a4.823,4.823,0,0,0,4.785-4.83267l-.07338-17.61746c-.01311-2.64486-2.18782-1.97889-4.83267-1.96577h0a4.823,4.823,0,0,0-4.785,4.83268l.07338,14.79825A4.823,4.823,0,0,0,1060.35671,69.82356Z"/></g><path id="_Path_49" data-name="&lt;Path&gt;" class="cls-23" d="M1064.661,37.9234a25.62331,25.62331,0,0,0-25.87439-25.88281h-36.1908A25.67418,25.67418,0,0,0,976.661,37.9234V48.05915c0,.15967-.20087.31738-.198.47656a4.87934,4.87934,0,0,0-.57468,1.77539L974.92,65.08161a4.80224,4.80224,0,0,0,4.47581,5.09717,4.956,4.956,0,0,0,4.82866-3.47485,26.06828,26.06828,0,0,0,18.37133,7.33667h36.1908a26.0754,26.0754,0,0,0,17.55017-6.554,4.89736,4.89736,0,0,0,4.0199,2.24377,4.7833,4.7833,0,0,0,4.785-4.78632l-.30371-15.18027c.03748-.57227-.177-1.12363-.177-1.70468Z"/><path id="_Path_50" data-name="&lt;Path&gt;" class="cls-23" d="M1055.161,60.97809c0,2.1875-.28214,6.06836,2.64545,7.96754"/><g id="_Group_57" data-name="&lt;Group&gt;"><circle id="_Ellipse_11" data-name="&lt;Ellipse&gt;" class="cls-11" cx="1020.69126" cy="15.47685" r="2.78471"/><g id="_Group_58" data-name="&lt;Group&gt;"><path id="_Path_51" data-name="&lt;Path&gt;" class="cls-11" d="M1020.44287,15.47705a5.23232,5.23232,0,0,1-.52441-.76465,6.86915,6.86915,0,0,1-.68286-1.68115,8.08912,8.08912,0,0,1-.25488-1.68115c-.00366-.11475-.00684-.21973-.00977-.313.00317-.04639-.0144-.09033.01245-.13037a.46087.46087,0,0,1,.20337-.11084,4.79538,4.79538,0,0,1,.79468-.15527l.46143-.05469h.49683l.46143.05469a4.80047,4.80047,0,0,1,.79468.15527.46086.46086,0,0,1,.20337.11084c.02661.04.00928.084.01221.13037-.00269.09326-.0061.19824-.00952.313a8.10544,8.10544,0,0,1-.25488,1.68115,6.85974,6.85974,0,0,1-.68311,1.68115,5.22092,5.22092,0,0,1-.52417.76465Z"/></g></g></g></g><g id="_Group_59" data-name="&lt;Group&gt;"><g id="_Group_60" data-name="&lt;Group&gt;"><g id="_Group_61" data-name="&lt;Group&gt;"><g id="_Group_62" data-name="&lt;Group&gt;"><path id="_Path_52" data-name="&lt;Path&gt;" class="cls-10" d="M7.84522,67.6446A4.97275,4.97275,0,0,1,3.313,60.6402C10.59522,44.40046,23.03272,41.805,23.55811,41.70246a4.96984,4.96984,0,0,1,1.9668,9.74292c-.44824.10486-8.11523,2.05249-13.1416,13.26172A4.97141,4.97141,0,0,1,7.84522,67.6446Z"/></g><circle id="_Ellipse_12" data-name="&lt;Ellipse&gt;" class="cls-11" cx="63.85298" cy="9.6041" r="2.78471"/><g id="_Group_63" data-name="&lt;Group&gt;"><path id="_Path_53" data-name="&lt;Path&gt;" class="cls-11" d="M63.96216,10.32422s-.27271.417-.68188,1.04248c-.19556.29639-.40771.6416-.61108.99512-.21289.34668-.39868.71924-.56934,1.06641-.06787.18213-.16528.34619-.219.51611-.06006.16895-.12793.32666-.16748.48145a4.54424,4.54424,0,0,0-.19019.81592,2.41425,2.41425,0,0,0-.05981.56641c.01587.03516-.03979.062-.19263.085-.12622.02344-.40967.042-.54907.0625-.55322.04443-.84814.06836-.84814.06836h-.49707c.01978-.00049-.35034-.02832-.83667-.10352a4.012,4.012,0,0,1-.5354-.14307c-.14746-.05811-.197-.12451-.17407-.19336a5.61021,5.61021,0,0,1,.18115-1.146,5.73924,5.73924,0,0,1,.61865-1.48779,5.90874,5.90874,0,0,1,1.09155-1.38184,6.34114,6.34114,0,0,1,2.65747-1.50293,4.77439,4.77439,0,0,1,.54736-.12109,3.35887,3.35887,0,0,1,.43091-.05518,2.69089,2.69089,0,0,1,.38647-.01123Z"/></g><g id="_Clip_Group_35" data-name="&lt;Clip Group&gt;"><rect id="_Rectangle_65" data-name="&lt;Rectangle&gt;" class="cls-1" x="15.50122" y="14.87988" width="88.90102" height="62.84588" rx="26.35512" ry="26.35512"/><g class="cls-49"><path id="_Path_54" data-name="&lt;Path&gt;" class="cls-10" d="M105.39246,48.20467V58.34013c0,14.4968-12.59979,26.92806-27.09646,26.92806H42.10347c-14.49668,0-26.711-12.43126-26.711-26.92806V48.20467c0,14.42679,12.264,25.06352,26.711,25.06352H78.296C92.743,73.26819,105.39246,62.63146,105.39246,48.20467Z"/></g></g><g id="_Clip_Group_36" data-name="&lt;Clip Group&gt;"><rect id="_Rectangle_66" data-name="&lt;Rectangle&gt;" class="cls-2" x="28.13424" y="30.12342" width="62.36564" height="29.71126" rx="14.85561" ry="14.85561"/><g class="cls-50"><rect id="_Rectangle_67" data-name="&lt;Rectangle&gt;" class="cls-3" x="27.63641" y="31.11907" width="62.36564" height="29.71126" rx="14.85561" ry="14.85561"/></g></g><g id="_Clip_Group_37" data-name="&lt;Clip Group&gt;"><path id="_Clipping_Path_23" data-name="&lt;Clipping Path&gt;" class="cls-3" d="M51.09884,59.78636l-5.334,5.3686a.69008.69008,0,0,1-1.17961-.48638V59.74416Z"/><g class="cls-51"><rect id="_Rectangle_68" data-name="&lt;Rectangle&gt;" class="cls-2" x="46.61389" y="58.53892" width="0.96091" height="10.23886" transform="translate(34.30493 141.80369) rotate(-134.21129)"/></g></g><path id="_Path_55" data-name="&lt;Path&gt;" class="cls-32" d="M74.93019,46.89705a4.69166,4.69166,0,0,1,4.35717.00153"/><rect id="_Rectangle_69" data-name="&lt;Rectangle&gt;" class="cls-32" x="53.21286" y="47.77382" width="9.06591" height="3.41221" rx="1.7061" ry="1.7061"/><line id="_Path_56" data-name="&lt;Path&gt;" class="cls-32" x1="42.25084" y1="42.63257" x2="37.89367" y2="43.54987"/><line id="_Path_57" data-name="&lt;Path&gt;" class="cls-32" x1="75.36615" y1="42.63257" x2="79.72332" y2="43.54987"/><path id="_Path_58" data-name="&lt;Path&gt;" class="cls-32" d="M37.89367,46.89705a4.69166,4.69166,0,0,1,4.35717.00153"/><g id="_Group_64" data-name="&lt;Group&gt;"><path id="_Path_59" data-name="&lt;Path&gt;" class="cls-1" d="M111.98487,67.6446a4.97121,4.97121,0,0,1-4.53809-2.9375c-5.06836-11.30444-12.82324-13.18933-13.15137-13.264-2.69336-.52527-1.54785-2.38776-1.02246-5.08173s.30664-5.18389,2.999-4.65887c.52539.10254,12.96289,2.698,20.24512,18.93774a4.97275,4.97275,0,0,1-4.53223,7.00439Z"/></g></g><path id="_Path_60" data-name="&lt;Path&gt;" class="cls-23" d="M116.70246,60.64008c-3.48218-7.76514-7.9295-12.40576-11.9295-15.15088V41.23481c0-14.49512-12.23047-26.0542-26.72583-26.0542H41.85633A25.94458,25.94458,0,0,0,15.773,41.23481v4.2041A35.65141,35.65141,0,0,0,3.44886,60.64008a4.94124,4.94124,0,0,0,2.434,6.56836,4.79985,4.79985,0,0,0,1.99631.436,4.94743,4.94743,0,0,0,4.5211-2.9375,28.39526,28.39526,0,0,1,3.98309-6.40137,26.65213,26.65213,0,0,0,25.473,19.875h36.1908A26.66109,26.66109,0,0,0,103.50819,58.3769a29.39632,29.39632,0,0,1,3.9386,6.44385,4.91808,4.91808,0,0,0,4.53809,2.88062,5.42223,5.42223,0,0,0,2.123-.46448A5.0428,5.0428,0,0,0,116.70246,60.64008Z"/></g></g><g id="_Group_65" data-name="&lt;Group&gt;"><g id="_Group_66" data-name="&lt;Group&gt;"><g id="_Group_67" data-name="&lt;Group&gt;"><rect id="_Rectangle_70" data-name="&lt;Rectangle&gt;" class="cls-10" x="492.67159" y="44.04396" width="9.61779" height="24.41621" rx="4.80889" ry="4.80889" transform="translate(48.36092 -164.97801) rotate(19.77296)"/><g id="_Clip_Group_38" data-name="&lt;Clip Group&gt;"><rect id="_Rectangle_71" data-name="&lt;Rectangle&gt;" class="cls-1" x="495.43774" y="11.38778" width="88.90102" height="62.84588" rx="26.35512" ry="26.35512"/><g class="cls-52"><path id="_Path_61" data-name="&lt;Path&gt;" class="cls-10" d="M585.47752,44.71257V54.848c0,14.4968-12.74833,26.83442-27.245,26.83442H522.04c-14.49668,0-27.56246-12.33763-27.56246-26.83442V44.71257c0,14.42679,13.11549,24.96988,27.56246,24.96988h36.19253C572.67948,69.68246,585.47752,59.13937,585.47752,44.71257Z"/></g></g><g id="_Clip_Group_39" data-name="&lt;Clip Group&gt;"><rect id="_Rectangle_72" data-name="&lt;Rectangle&gt;" class="cls-7" x="508.07076" y="26.63132" width="62.36564" height="29.71126" rx="14.85561" ry="14.85561"/><g class="cls-53"><rect id="_Rectangle_73" data-name="&lt;Rectangle&gt;" class="cls-54" x="507.57293" y="27.62697" width="62.36564" height="29.71126" rx="14.85561" ry="14.85561"/></g></g><g id="_Clip_Group_40" data-name="&lt;Clip Group&gt;"><path id="_Clipping_Path_24" data-name="&lt;Clipping Path&gt;" class="cls-8" d="M531.03536,56.29426l-5.334,5.3686a.69008.69008,0,0,1-1.17961-.48638V56.25206Z"/><g class="cls-55"><rect id="_Rectangle_74" data-name="&lt;Rectangle&gt;" class="cls-56" x="526.55041" y="55.04682" width="0.96091" height="10.23886" transform="translate(851.40725 479.88219) rotate(-134.21129)"/></g></g><path id="_Rectangle_75" data-name="&lt;Rectangle&gt;" class="cls-1" d="M582.51953,44.044h0a4.80889,4.80889,0,0,1,4.80889,4.80889V63.65128a4.80888,4.80888,0,0,1-4.80888,4.80888h0a4.80889,4.80889,0,0,1-4.80889-4.80889V48.85285a4.80889,4.80889,0,0,1,4.80889-4.80889Z" transform="translate(1149.72379 -87.87509) rotate(160.22706)"/><g id="_Group_68" data-name="&lt;Group&gt;"><path id="_Path_62" data-name="&lt;Path&gt;" class="cls-57" d="M535.05625,47.81311h0a1.59435,1.59435,0,0,1,1.59435-1.59435h5.2834a1.59435,1.59435,0,0,1,1.59435,1.59435h0"/><line id="_Path_63" data-name="&lt;Path&gt;" class="cls-57" x1="520.74045" y1="41.41425" x2="524.81223" y2="42.27147"/><g id="_Group_69" data-name="&lt;Group&gt;"><path id="_Path_64" data-name="&lt;Path&gt;" class="cls-14" d="M524.806,42.12618h0a2.03276,2.03276,0,0,1-2.03276,2.03276h0a2.03276,2.03276,0,0,1-2.03276-2.03276h0"/><path id="_Path_65" data-name="&lt;Path&gt;" class="cls-14" d="M559.618,42.12618h0a2.03276,2.03276,0,0,1-2.03276,2.03276h0a2.03276,2.03276,0,0,1-2.03276-2.03276h0"/></g><line id="_Path_66" data-name="&lt;Path&gt;" class="cls-57" x1="559.64419" y1="41.41425" x2="555.57241" y2="42.27147"/></g></g><path id="_Path_67" data-name="&lt;Path&gt;" class="cls-23" d="M589.548,61.588,584.3015,47.66226c-.0542-.15088-.28693-.42432-.44348-.42432V37.74282a25.84781,25.84781,0,0,0-25.87439-26.14795h-36.1908A25.8986,25.8986,0,0,0,495.858,37.74282v9.97656L490.66216,61.588a4.73557,4.73557,0,1,0,8.89311,3.25391l.66392-1.73926a26.48612,26.48612,0,0,0,21.57365,11.49219h36.1908a26.54224,26.54224,0,0,0,21.74854-11.70068l.76514,2.03809a4.80018,4.80018,0,0,0,6.15222,2.85327A4.87269,4.87269,0,0,0,589.548,61.588Z"/><g id="_Group_70" data-name="&lt;Group&gt;"><circle id="_Ellipse_13" data-name="&lt;Ellipse&gt;" class="cls-11" cx="539.88825" cy="15.29624" r="2.78471"/><g id="_Group_71" data-name="&lt;Group&gt;"><path id="_Path_68" data-name="&lt;Path&gt;" class="cls-11" d="M539.63965,15.29639a5.25384,5.25384,0,0,1-.52417-.76416,6.88092,6.88092,0,0,1-.68286-1.68164,8.08908,8.08908,0,0,1-.25488-1.68115c-.00366-.11475-.00684-.21973-.00977-.313.00293-.04639-.0144-.09033.01245-.13037a.4658.4658,0,0,1,.20337-.11084,4.84625,4.84625,0,0,1,.79468-.15527l.46118-.05469h.49707l.46143.05469a4.8566,4.8566,0,0,1,.79468.15527.46731.46731,0,0,1,.20337.11084c.02661.04.00928.084.01221.13037-.00269.09326-.0061.19824-.00952.313a8.10549,8.10549,0,0,1-.25488,1.68115,6.87149,6.87149,0,0,1-.68311,1.68164,5.231,5.231,0,0,1-.52417.76416Z"/></g></g><path id="_Path_69" data-name="&lt;Path&gt;" class="cls-23" d="M579.358,58.321c0,2.1875-.12221,5.09665,1.97036,7.96754"/></g></g><g id="_Group_72" data-name="&lt;Group&gt;"><g id="_Group_73" data-name="&lt;Group&gt;"><g id="_Group_74" data-name="&lt;Group&gt;"><g id="_Group_75" data-name="&lt;Group&gt;"><g id="_Group_76" data-name="&lt;Group&gt;"><g id="_Group_77" data-name="&lt;Group&gt;"><circle id="_Ellipse_14" data-name="&lt;Ellipse&gt;" class="cls-11" cx="664.5407" cy="9.90158" r="2.77873"/><g id="_Group_78" data-name="&lt;Group&gt;"><path id="_Path_70" data-name="&lt;Path&gt;" class="cls-11" d="M664.64966,10.62012s-.27222.416-.68042,1.04053c-.19531.29541-.40674.64014-.60986.99268-.2124.34619-.39771.71777-.56812,1.064-.06763.18164-.1648.3457-.21826.51514-.0603.16895-.12793.32617-.16724.48047a4.55,4.55,0,0,0-.18994.81445,2.41151,2.41151,0,0,0-.05957.56494c.01587.03516-.03979.062-.19238.085-.12573.02295-.40845.042-.54761.0625-.552.04395-.84644.06787-.84644.06787h-.49609c.01978-.00049-.34961-.02832-.835-.103a4.00407,4.00407,0,0,1-.53418-.14307c-.147-.05811-.19653-.124-.17358-.19287a5.5797,5.5797,0,0,1,.18066-1.14355,5.73091,5.73091,0,0,1,.61743-1.48437,5.88434,5.88434,0,0,1,1.08936-1.37891,6.32391,6.32391,0,0,1,2.65161-1.5,4.73806,4.73806,0,0,1,.54614-.12061,3.2614,3.2614,0,0,1,.42993-.05518,2.67722,2.67722,0,0,1,.3855-.01123Z"/></g></g><rect id="_Rectangle_76" data-name="&lt;Rectangle&gt;" class="cls-10" x="612.77314" y="47.75216" width="9.59715" height="24.36382" rx="4.79857" ry="4.79857" transform="translate(56.68684 -205.38664) rotate(19.77292)"/><g id="_Clip_Group_41" data-name="&lt;Clip Group&gt;"><rect id="_Rectangle_77" data-name="&lt;Rectangle&gt;" class="cls-1" x="615.53336" y="15.16604" width="88.71028" height="62.71104" rx="26.29858" ry="26.29858"/><g class="cls-58"><path id="_Path_71" data-name="&lt;Path&gt;" class="cls-10" d="M705.47753,48.41934V58.53305c0,14.4657-12.81854,26.5278-27.28412,26.5278H642.07853c-14.46558,0-27.601-12.0621-27.601-26.5278V48.41934c0,14.39584,13.185,24.64151,27.601,24.64151h36.11488C692.60938,73.06085,705.47753,62.81518,705.47753,48.41934Z"/></g></g><g id="_Clip_Group_42" data-name="&lt;Clip Group&gt;"><rect id="_Rectangle_78" data-name="&lt;Rectangle&gt;" class="cls-2" x="628.13927" y="30.37687" width="62.23183" height="29.64751" rx="14.82374" ry="14.82374"/><g class="cls-59"><rect id="_Rectangle_79" data-name="&lt;Rectangle&gt;" class="cls-3" x="627.64251" y="31.37039" width="62.23183" height="29.64751" rx="14.82374" ry="14.82374"/></g></g><g id="_Clip_Group_43" data-name="&lt;Clip Group&gt;"><path id="_Clipping_Path_25" data-name="&lt;Clipping Path&gt;" class="cls-3" d="M651.0546,59.97617l-5.3226,5.35708a.6886.6886,0,0,1-1.17708-.48534V59.93407Z"/><g class="cls-60"><rect id="_Rectangle_80" data-name="&lt;Rectangle&gt;" class="cls-2" x="646.57927" y="58.73141" width="0.95885" height="10.2169" transform="translate(1052.49811 572.15016) rotate(-134.21129)"/></g></g><rect id="_Rectangle_81" data-name="&lt;Rectangle&gt;" class="cls-1" x="697.62974" y="47.75216" width="9.59715" height="24.36382" rx="4.79857" ry="4.79857" transform="translate(1383.71723 -121.29248) rotate(160.22706)"/><circle id="_Path_72" data-name="&lt;Path&gt;" class="cls-14" cx="644.51576" cy="45.35684" r="2.1733" transform="translate(531.4617 681.49879) rotate(-83.94817)"/><circle id="_Path_73" data-name="&lt;Path&gt;" class="cls-14" cx="678.27043" cy="45.35684" r="2.1733" transform="translate(561.65768 715.06534) rotate(-83.94817)"/></g><path id="_Path_74" data-name="&lt;Path&gt;" class="cls-61" d="M709.44154,65.2588l-4.99543-13.89609a4.81321,4.81321,0,0,0-.20243-.47709v-9.421a26.37586,26.37586,0,0,0-26.29874-26.29854H641.832a26.37586,26.37586,0,0,0-26.29874,26.29854v9.95484l-4.9749,13.83935a4.79864,4.79864,0,0,0,9.03145,3.24665l.68857-1.91579A26.31382,26.31382,0,0,0,641.832,77.87715h36.11293a26.32222,26.32222,0,0,0,21.70213-11.49556l.76342,2.12385a4.79845,4.79845,0,1,0,9.031-3.24665Z"/></g><path id="_Path_75" data-name="&lt;Path&gt;" class="cls-22" d="M662.43125,48.804c2.06559-.61691,3.60848-1.30311,5.49684-1.22417"/></g><line id="_Path_76" data-name="&lt;Path&gt;" class="cls-61" x1="697.57677" y1="60.62303" x2="699.79552" y2="67.03576"/></g></g><g id="_Group_79" data-name="&lt;Group&gt;"><g id="_Group_80" data-name="&lt;Group&gt;"><g id="_Group_81" data-name="&lt;Group&gt;"><g id="_Group_82" data-name="&lt;Group&gt;"><circle id="_Ellipse_15" data-name="&lt;Ellipse&gt;" class="cls-11" cx="424.55045" cy="9.78471" r="2.78471"/><g id="_Group_83" data-name="&lt;Group&gt;"><path id="_Path_77" data-name="&lt;Path&gt;" class="cls-11" d="M424.65967,10.50488s-.27271.417-.68213,1.04248c-.19531.29639-.40747.6416-.61084.99512-.21289.34668-.39868.71924-.56934,1.06641-.06787.18213-.16528.34619-.219.51611-.06006.16895-.12793.32666-.16748.481a4.558,4.558,0,0,0-.19019.81641,2.41425,2.41425,0,0,0-.05981.56641c.01587.03516-.03979.062-.19263.085-.12622.02344-.40967.042-.54907.0625-.55322.04443-.84814.06836-.84814.06836H420.074c.01978-.001-.35059-.02832-.83691-.10352a4.01833,4.01833,0,0,1-.53516-.14307c-.14746-.05811-.197-.12451-.17407-.19336a5.57621,5.57621,0,0,1,.18115-1.146,5.73076,5.73076,0,0,1,.61865-1.48779,5.90874,5.90874,0,0,1,1.09155-1.38184,6.34114,6.34114,0,0,1,2.65747-1.50293,4.68042,4.68042,0,0,1,.54712-.12109,3.27711,3.27711,0,0,1,.43115-.05518,2.68736,2.68736,0,0,1,.38623-.01123Z"/></g></g><rect id="_Rectangle_82" data-name="&lt;Rectangle&gt;" class="cls-10" x="372.67159" y="47.71667" width="9.61779" height="24.41621" rx="4.80889" ry="4.80889" transform="translate(42.52825 -124.16623) rotate(19.77297)"/><g id="_Clip_Group_44" data-name="&lt;Clip Group&gt;"><rect id="_Rectangle_83" data-name="&lt;Rectangle&gt;" class="cls-1" x="375.43774" y="15.06049" width="88.90102" height="62.84588" rx="26.35512" ry="26.35512"/><g class="cls-62"><path id="_Path_78" data-name="&lt;Path&gt;" class="cls-10" d="M464.47752,48.38528V58.52074c0,14.4968-11.74833,26.663-26.245,26.663H402.04a26.87454,26.87454,0,0,1-26.56246-26.663V48.38528c0,14.42679,12.11549,24.79841,26.56246,24.79841h36.19253C452.67948,73.18369,464.47752,62.81207,464.47752,48.38528Z"/></g></g><g id="_Clip_Group_45" data-name="&lt;Clip Group&gt;"><rect id="_Rectangle_84" data-name="&lt;Rectangle&gt;" class="cls-2" x="388.07075" y="30.30403" width="62.36564" height="29.71126" rx="14.85561" ry="14.85561"/><g class="cls-63"><rect id="_Rectangle_85" data-name="&lt;Rectangle&gt;" class="cls-3" x="387.57293" y="31.29968" width="62.36564" height="29.71126" rx="14.85561" ry="14.85561"/></g></g><g id="_Clip_Group_46" data-name="&lt;Clip Group&gt;"><path id="_Clipping_Path_26" data-name="&lt;Clipping Path&gt;" class="cls-3" d="M411.03535,59.967l-5.334,5.3686a.69008.69008,0,0,1-1.17961-.48638V59.92477Z"/><g class="cls-64"><rect id="_Rectangle_86" data-name="&lt;Rectangle&gt;" class="cls-2" x="406.5504" y="58.71953" width="0.96091" height="10.23886" transform="translate(645.09799 400.1031) rotate(-134.21129)"/></g></g><rect id="_Rectangle_87" data-name="&lt;Rectangle&gt;" class="cls-1" x="457.71064" y="47.71667" width="9.61779" height="24.41621" rx="4.80889" ry="4.80889" transform="translate(918.04133 -40.15112) rotate(160.22704)"/><circle id="_Path_79" data-name="&lt;Path&gt;" class="cls-14" cx="404.48246" cy="45.3162" r="2.17797" transform="translate(316.77504 442.76685) rotate(-83.94817)"/><circle id="_Path_80" data-name="&lt;Path&gt;" class="cls-14" cx="434.3011" cy="45.3162" r="2.17797" transform="translate(343.44996 472.41932) rotate(-83.94817)"/><path id="_Path_81" data-name="&lt;Path&gt;" class="cls-31" d="M421.30954,45.58808a.99906.99906,0,0,1,.92657,1.39725,3.29418,3.29418,0,0,1-5.96508,0,.99906.99906,0,0,1,.92657-1.39725Z"/></g><g id="_Group_84" data-name="&lt;Group&gt;"><path id="_Path_82" data-name="&lt;Path&gt;" class="cls-61" d="M469.44153,65.38164l-4.99543-13.89609a4.81323,4.81323,0,0,0-.20242-.47709v-9.421a26.37586,26.37586,0,0,0-26.29874-26.29854H401.832a26.37586,26.37586,0,0,0-26.29874,26.29854V51.5423l-4.9749,13.83935a4.79864,4.79864,0,0,0,9.03145,3.24665l.68857-1.91579A26.31382,26.31382,0,0,0,401.832,78h36.11293a26.32222,26.32222,0,0,0,21.70213-11.49556l.76342,2.12385a4.79845,4.79845,0,1,0,9.031-3.24665Z"/><line id="_Path_83" data-name="&lt;Path&gt;" class="cls-61" x1="457.96595" y1="61.08472" x2="460.1847" y2="67.49745"/></g></g></g><path id="_Path_84" data-name="&lt;Path&gt;" class="cls-23" d="M233.52917,38.30575a4.73154,4.73154,0,0,0-6.71729-.729l-5.99463,4.93994V41.28914A27.232,27.232,0,0,0,193.9115,14.30282H157.3031c-14.6626,0-26.48584,12.32373-26.48584,26.98633V51.38045l-5.13,14.0293a4.83389,4.83389,0,1,0,9.09013,3.291l.68734-1.89087A26.7005,26.7005,0,0,0,157.3031,78.30282h36.6084A26.79516,26.79516,0,0,0,220.326,55.14a5.00344,5.00344,0,0,0,.82764-.56458l11.64673-9.41608A4.89436,4.89436,0,0,0,233.52917,38.30575Z"/></g></g></svg>