<svg xmlns="http://www.w3.org/2000/svg" xmlns:xlink="http://www.w3.org/1999/xlink" width="1812" height="849" viewBox="0 0 1812.55023 849"><defs><style>.cls-1{fill:#c4d36e;}.cls-2{fill:#f1eec5;}.cls-3{fill:url(#linear-gradient);}.cls-4{fill:#c1e096;}.cls-5,.cls-6,.cls-7,.cls-9{fill:none;stroke:#3b1a2f;stroke-miterlimit:10;}.cls-5{stroke-width:0.80963px;}.cls-6{stroke-width:1.3085px;}.cls-7{stroke-width:0.70141px;}.cls-8{fill:#e2f0cf;}.cls-9{stroke-width:1.07177px;}</style><linearGradient id="linear-gradient" x1="908.38037" y1="491.18722" x2="908.38037" y2="307.24722" gradientUnits="userSpaceOnUse"><stop offset="0" stop-color="#e2f0cf"/><stop offset="0.30141" stop-color="#deeec9"/><stop offset="0.71764" stop-color="#d3e9b7"/><stop offset="0.89614" stop-color="#cde6ad"/></linearGradient></defs><title>Artboard 34 copy</title><g id="Layer_2" data-name="Layer 2"><g id="_Group_" data-name="&lt;Group&gt;"><path id="_Path_" data-name="&lt;Path&gt;" class="cls-1" d="M301.02867,352.63624c4.436-2.25487,1.27019-5.35341,4.8747-6.4907,4.96117-1.56532,12.3858,3.85629,20.88528,2.625,8.66189-1.25554,8.09917-7.92216,16.87824-9.37812,8.77715-1.45584,13.91532,4.44852,23.2343,3.41336,12.26445-1.36211,12.71626-12.62862,24.16862-13.99845,11.30686-1.35295,17.42847,8.84109,31.40019,7.88442,12.814-.87742,17.2375-10.10787,28.67878-10.08412,6.70588.01376,10.97181,3.19721,14.84032,6.08573,1.28745.96084,14.2335,10.89459,9.45324,20.5105-8.56428,17.22632-70.37306,26.08725-106.92353,27.62749-15.732.66337-71.857,4.53466-92.93115-3.341-16.95472-6.33606,2.91464-19.85068,8.1378-22.57941C287.167,353.11234,295.78807,355.29883,301.02867,352.63624Z"/><path id="_Path_2" data-name="&lt;Path&gt;" class="cls-2" d="M397.94252,340.71549c3.64721-1.85391,1.04433-4.40147,4.00788-5.33653,4.079-1.287,10.18337,3.17056,17.17147,2.15822,7.12164-1.03228,6.659-6.51344,13.877-7.71051,7.2164-1.197,11.4409,3.65749,19.10279,2.8064,10.08359-1.1199,10.45506-10.383,19.871-11.50925,9.29628-1.11237,14.32935,7.269,25.81663,6.48242,10.5354-.7214,14.17234-8.31049,23.57914-8.291,5.51345.01132,9.02081,2.62869,12.20142,5.00357,1.05852.79,11.70251,8.95732,7.77227,16.86333-7.04139,14.16315-57.85937,21.44843-87.91046,22.71479-12.93458.54541-59.07947,3.72831-76.40619-2.74692-13.93984-5.20938,2.39636-16.32084,6.69074-18.56435C386.54573,341.10694,393.6338,342.90462,397.94252,340.71549Z"/><path id="_Path_3" data-name="&lt;Path&gt;" class="cls-2" d="M1402.06111,345.9062c3.25153-.64054,1.7847-3.20019,4.30073-3.27536,3.463-.10345,7.23767,4.71711,12.90749,5.46932,5.7783.76613,6.62658-3.60794,12.51631-2.949,5.88847.65867,8.1104,5.374,14.2698,6.40047,8.10617,1.3511,10.43869-5.78666,18.02587-4.58776,7.49088,1.18333,9.56514,8.82582,18.69183,10.74632,8.37042,1.76134,12.87885-3.35148,20.20622-1.26158,4.2947,1.22482,6.45108,4.03836,8.40627,6.59084.65078.84917,7.14541,9.56237,2.33849,14.85751-8.61178,9.4858-49.82622,3.956-73.52741-1.68485-10.20153-2.42765-46.869-10.12423-58.94533-18.99248-9.71581-7.13466,5.46732-12.192,9.30918-12.99345C1393.09209,343.69771,1398.22007,346.66212,1402.06111,345.9062Z"/><path id="_Path_4" data-name="&lt;Path&gt;" class="cls-1" d="M1356.17333,331.6804c3.25153-.64054,1.7847-3.20019,4.30074-3.27536,3.463-.10345,7.23767,4.71711,12.90749,5.46932,5.77829.76613,6.62658-3.60794,12.5163-2.949,5.88847.65867,8.1104,5.374,14.2698,6.40047,8.10617,1.3511,10.43869-5.78666,18.02587-4.58776,7.49088,1.18333,9.56515,8.82582,18.69183,10.74632,8.37042,1.76134,12.87885-3.35148,20.20622-1.26158,4.2947,1.22482,6.45108,4.03836,8.40627,6.59084.65078.84917,7.14541,9.56237,2.33849,14.85751-8.61178,9.4858-49.82622,3.956-73.52741-1.68485-10.20153-2.42765-46.869-10.12423-58.94534-18.99248-9.71581-7.13466,5.46732-12.192,9.30918-12.99345C1347.20431,329.4719,1352.33228,332.43631,1356.17333,331.6804Z"/><path id="_Path_5" data-name="&lt;Path&gt;" class="cls-3" d="M1782.58545,491.18722H34.17529c89.14014-105.25,446.7002-183.94,874.21045-183.94C1335.89551,307.24722,1693.4458,385.93722,1782.58545,491.18722Z"/><g id="_Group_2" data-name="&lt;Group&gt;"><g id="_Group_3" data-name="&lt;Group&gt;"><path id="_Path_6" data-name="&lt;Path&gt;" class="cls-4" d="M345.0874,405.37939s-.09033-1.447-.29541-3.63452c-.20215-2.18311-.5249-5.092-.96924-7.98364-.21924-1.44629-.46826-2.88843-.74756-4.23047-.271-1.34424-.5708-2.58936-.874-3.6438-.13525-.5332-.30225-1.00659-.44385-1.42993a10.59915,10.59915,0,0,0-.39648-1.085c-.248-.59277-.38965-.93164-.38965-.93164s.16992.32593.46777.896a10.685,10.685,0,0,1,.49023,1.05371c.17822.41235.3877.87622.56885,1.39844.395,1.03394.80371,2.26074,1.19092,3.58887.39648,1.32666.77051,2.75537,1.11475,4.19043,1.397,5.73975,2.272,11.59766,2.272,11.59766Z"/></g><g id="_Group_4" data-name="&lt;Group&gt;"><path id="_Path_7" data-name="&lt;Path&gt;" class="cls-4" d="M341.85693,406.52612s-.873-3.09595-1.84082-6.16772c-.48242-1.53613-.98828-3.0647-1.40088-4.19946-.40771-1.13672-.73291-1.87622-.73291-1.87622s.43555.68066,1.01758,1.74707c.58594,1.06372,1.32617,2.50439,2.04395,3.95557,1.438,2.90161,2.78955,5.84888,2.78955,5.84888Z"/></g><g id="_Group_5" data-name="&lt;Group&gt;"><path id="_Path_8" data-name="&lt;Path&gt;" class="cls-4" d="M349.31787,405.62549s.38525-3.19336.67432-6.40088c.146-1.60352.2666-3.20923.32275-4.41528.061-1.20605.04541-2.01367.04541-2.01367s.14014.79565.26709,2.00391c.13135,1.20728.26074,2.822.36475,4.43774.21094,3.23145.32422,6.47192.32422,6.47192Z"/></g><g id="_Group_6" data-name="&lt;Group&gt;"><path id="_Path_9" data-name="&lt;Path&gt;" class="cls-4" d="M344.167,405.11255s1.46826-4.24756,2.52588-8.6228a45.12315,45.12315,0,0,0,1.11182-6.0769,10.428,10.428,0,0,0,.0752-1.14771,7.29181,7.29181,0,0,0,.00293-.8877c-.03271-.49292-.05127-.77466-.05127-.77466s.04443.27954.12207.76855a7.35019,7.35019,0,0,1,.0791.89136,10.56329,10.56329,0,0,1,.03027,1.16235,45.60771,45.60771,0,0,1-.55762,6.22314c-.66064,4.50073-1.75,8.92944-1.75,8.92944Z"/></g></g><g id="_Group_7" data-name="&lt;Group&gt;"><g id="_Group_8" data-name="&lt;Group&gt;"><path id="_Path_10" data-name="&lt;Path&gt;" class="cls-4" d="M1275.3125,373.16553s.875-5.85791,2.272-11.59766c.34424-1.43506.71826-2.86377,1.11475-4.19043.38769-1.32812.7959-2.55493,1.19092-3.58887.18164-.52222.39063-.98608.56885-1.39844a10.68507,10.68507,0,0,1,.49023-1.05371c.29785-.57007.46777-.896.46777-.896s-.1416.33887-.38916.93164a10.475,10.475,0,0,0-.397,1.085c-.14111.42334-.30859.89673-.44385,1.42993-.30322,1.05444-.603,2.29956-.874,3.6438-.2793,1.342-.52832,2.78418-.74707,4.23047-.44434,2.8916-.76758,5.80054-.96973,7.98364-.20459,2.1875-.29492,3.63452-.29492,3.63452Z"/></g><g id="_Group_9" data-name="&lt;Group&gt;"><path id="_Path_11" data-name="&lt;Path&gt;" class="cls-4" d="M1278.65479,373.83423s1.35156-2.94727,2.78955-5.84888c.71777-1.45117,1.458-2.89185,2.04394-3.95557.582-1.06641,1.01758-1.74707,1.01758-1.74707s-.3252.7395-.73291,1.87622c-.41211,1.13477-.91846,2.66333-1.40088,4.19946-.96777,3.07178-1.84082,6.16772-1.84082,6.16772Z"/></g><g id="_Group_10" data-name="&lt;Group&gt;"><path id="_Path_12" data-name="&lt;Path&gt;" class="cls-4" d="M1271.07227,373.70923s.11328-3.24048.32373-6.47192c.104-1.61572.2334-3.23047.36475-4.43774.127-1.20825.26709-2.00391.26709-2.00391s-.01562.80762.04541,2.01367c.05615,1.20605.17725,2.81177.32275,4.41528.28906,3.20752.67432,6.40088.67432,6.40088Z"/></g><g id="_Group_11" data-name="&lt;Group&gt;"><path id="_Path_13" data-name="&lt;Path&gt;" class="cls-4" d="M1276.63281,373.57764s-1.08936-4.42871-1.74951-8.92944a45.52991,45.52991,0,0,1-.55762-6.22314,10.45145,10.45145,0,0,1,.02979-1.16235,7.43989,7.43989,0,0,1,.07959-.89136c.07715-.489.12158-.76855.12158-.76855s-.01855.28174-.05078.77466a7.28106,7.28106,0,0,0,.00244.8877,10.31809,10.31809,0,0,0,.07568,1.14771,45.03811,45.03811,0,0,0,1.11133,6.0769c1.05811,4.37524,2.52588,8.6228,2.52588,8.6228Z"/></g></g><g id="_Group_12" data-name="&lt;Group&gt;"><g id="_Group_13" data-name="&lt;Group&gt;"><path id="_Path_14" data-name="&lt;Path&gt;" class="cls-4" d="M855.3125,366.16553s.875-5.85791,2.272-11.59766c.34424-1.43506.71826-2.86377,1.11475-4.19043.3877-1.32812.7959-2.55493,1.19092-3.58887.18164-.52222.39063-.98608.56885-1.39844a10.685,10.685,0,0,1,.49023-1.05371c.29785-.57007.46777-.896.46777-.896s-.1416.33887-.38916.93164a10.47486,10.47486,0,0,0-.397,1.085c-.14111.42334-.30859.89673-.44385,1.42993-.30322,1.05444-.603,2.29956-.874,3.6438-.2793,1.342-.52832,2.78418-.74707,4.23047-.44434,2.8916-.76758,5.80054-.96973,7.98364-.20459,2.1875-.29492,3.63452-.29492,3.63452Z"/></g><g id="_Group_14" data-name="&lt;Group&gt;"><path id="_Path_15" data-name="&lt;Path&gt;" class="cls-4" d="M858.65479,366.83423s1.35156-2.94727,2.78955-5.84888c.71777-1.45117,1.458-2.89185,2.04395-3.95557.582-1.06641,1.01758-1.74707,1.01758-1.74707s-.3252.7395-.73291,1.87622c-.41211,1.13477-.91846,2.66333-1.40088,4.19946-.96777,3.07178-1.84082,6.16772-1.84082,6.16772Z"/></g><g id="_Group_15" data-name="&lt;Group&gt;"><path id="_Path_16" data-name="&lt;Path&gt;" class="cls-4" d="M851.07227,366.70923s.11328-3.24048.32373-6.47192c.104-1.61572.2334-3.23047.36475-4.43774.127-1.20825.26709-2.00391.26709-2.00391s-.01562.80762.04541,2.01367c.05615,1.20605.17725,2.81177.32275,4.41528.28906,3.20752.67432,6.40088.67432,6.40088Z"/></g><g id="_Group_16" data-name="&lt;Group&gt;"><path id="_Path_17" data-name="&lt;Path&gt;" class="cls-4" d="M856.63281,366.57764s-1.08936-4.42871-1.74951-8.92944a45.53,45.53,0,0,1-.55762-6.22314,10.45154,10.45154,0,0,1,.02979-1.16235,7.44,7.44,0,0,1,.07959-.89136c.07715-.489.12158-.76855.12158-.76855s-.01855.28174-.05078.77466a7.28087,7.28087,0,0,0,.00244.8877,10.318,10.318,0,0,0,.07568,1.14771,45.038,45.038,0,0,0,1.11133,6.0769c1.05811,4.37524,2.52588,8.6228,2.52588,8.6228Z"/></g></g><g id="_Group_17" data-name="&lt;Group&gt;"><g id="_Group_18" data-name="&lt;Group&gt;"><path id="_Path_18" data-name="&lt;Path&gt;" class="cls-4" d="M450.28369,399.718s-.105-.96533-.33545-2.43115c-.22656-1.46118-.58887-3.40332-1.06689-5.3186a31.03814,31.03814,0,0,0-1.70312-5.14844c-.13672-.34668-.31543-.635-.44727-.907a5.18624,5.18624,0,0,0-.38965-.67676c-.23584-.36572-.37012-.575-.37012-.575s.15527.19458.42676.53516a5.15832,5.15832,0,0,1,.46045.6394c.16016.2583.37207.53516.54443.86841a31.54354,31.54354,0,0,1,2.252,5.02832c.68115,1.88794,1.248,3.81543,1.62842,5.27344.38281,1.45239.59619,2.44971.59619,2.44971Z"/></g><g id="_Group_19" data-name="&lt;Group&gt;"><path id="_Path_19" data-name="&lt;Path&gt;" class="cls-4" d="M447.09082,400.57739s-.94678-2.09277-1.978-4.15015c-.51416-1.02905-1.04932-2.04785-1.47852-2.79663-.42578-.75049-.752-1.228-.752-1.228s.40479.41333.95947,1.084c.55762.66772,1.26807,1.58545,1.95947,2.51685,1.38525,1.86084,2.69824,3.77954,2.69824,3.77954Z"/></g><g id="_Group_20" data-name="&lt;Group&gt;"><path id="_Path_20" data-name="&lt;Path&gt;" class="cls-4" d="M454.51025,399.79346s.33691-2.07324.57764-4.16455c.12207-1.04517.21924-2.093.25732-2.88135.04248-.78809.01514-1.31714.01514-1.31714s.12793.5144.2373,1.30518c.11328.78955.21875,1.84863.29883,2.90918.1626,2.12061.22754,4.25171.22754,4.25171Z"/></g><g id="_Group_21" data-name="&lt;Group&gt;"><path id="_Path_21" data-name="&lt;Path&gt;" class="cls-4" d="M449.35059,399.36084s.34131-.65479.81738-1.67822c.47314-1.019,1.08008-2.394,1.58838-3.80518a20.29691,20.29691,0,0,0,1.07031-3.97144,4.79487,4.79487,0,0,0,.06836-.76294,3.29863,3.29863,0,0,0-.00439-.59131l-.05908-.51587s.04248.18481.11621.5083a3.33649,3.33649,0,0,1,.0708.59644,4.88262,4.88262,0,0,1,.0166.78125,20.70565,20.70565,0,0,1-.6377,4.14844,52.91662,52.91662,0,0,1-1.82568,5.83765Z"/></g></g><g id="_Group_22" data-name="&lt;Group&gt;"><g id="_Group_23" data-name="&lt;Group&gt;"><path id="_Path_22" data-name="&lt;Path&gt;" class="cls-4" d="M1408.28369,414.718s-.105-.96533-.33545-2.43115c-.22656-1.46118-.58887-3.40332-1.06689-5.3186a31.03814,31.03814,0,0,0-1.70312-5.14844c-.13672-.34668-.31543-.635-.44727-.907a5.18632,5.18632,0,0,0-.38965-.67676c-.23584-.36572-.37012-.575-.37012-.575s.15527.19458.42676.53516a5.15822,5.15822,0,0,1,.46045.6394c.16016.2583.37207.53516.54443.86841a31.54355,31.54355,0,0,1,2.252,5.02832c.68115,1.88794,1.248,3.81543,1.62842,5.27344.38281,1.45239.59619,2.44971.59619,2.44971Z"/></g><g id="_Group_24" data-name="&lt;Group&gt;"><path id="_Path_23" data-name="&lt;Path&gt;" class="cls-4" d="M1405.09082,415.57739s-.94678-2.09277-1.978-4.15015c-.51416-1.02905-1.04932-2.04785-1.47852-2.79663-.42578-.75049-.752-1.228-.752-1.228s.40479.41333.95947,1.084c.55762.66772,1.26807,1.58545,1.95947,2.51685,1.38525,1.86084,2.69824,3.77954,2.69824,3.77954Z"/></g><g id="_Group_25" data-name="&lt;Group&gt;"><path id="_Path_24" data-name="&lt;Path&gt;" class="cls-4" d="M1412.51025,414.79346s.33691-2.07324.57764-4.16455c.12207-1.04517.21924-2.093.25732-2.88135.04248-.78809.01514-1.31714.01514-1.31714s.12793.5144.2373,1.30518c.11328.78955.21875,1.84863.29883,2.90918.1626,2.12061.22754,4.25171.22754,4.25171Z"/></g><g id="_Group_26" data-name="&lt;Group&gt;"><path id="_Path_25" data-name="&lt;Path&gt;" class="cls-4" d="M1407.35059,414.36084s.34131-.65479.81738-1.67822c.47314-1.019,1.08008-2.394,1.58838-3.80518a20.29691,20.29691,0,0,0,1.07031-3.97144,4.7949,4.7949,0,0,0,.06836-.76294,3.29872,3.29872,0,0,0-.00439-.59131l-.05908-.51587s.04248.18481.11621.5083a3.33649,3.33649,0,0,1,.0708.59644,4.88254,4.88254,0,0,1,.0166.78125,20.7057,20.7057,0,0,1-.63769,4.14844,52.91655,52.91655,0,0,1-1.82568,5.83765Z"/></g></g></g><g id="_Group_27" data-name="&lt;Group&gt;"><path id="_Path_26" data-name="&lt;Path&gt;" class="cls-1" d="M488.19145,331.0876l.00452-.0023-17.47482-46.2557L453.57353,330.325a18.65849,18.65849,0,0,0-.83395,2.21255l-.00667.0177.00156.00022a18.79819,18.79819,0,1,0,35.457-1.46785Z"/><line id="_Path_27" data-name="&lt;Path&gt;" class="cls-5" x1="470.72115" y1="332.5081" x2="470.72115" y2="367.24921"/><line id="_Path_28" data-name="&lt;Path&gt;" class="cls-5" x1="470.72115" y1="345.85675" x2="479.72428" y2="336.85361"/><line id="_Path_29" data-name="&lt;Path&gt;" class="cls-5" x1="470.72115" y1="348.89036" x2="459.3413" y2="337.51051"/></g><g id="_Group_28" data-name="&lt;Group&gt;"><circle id="_Path_30" data-name="&lt;Path&gt;" class="cls-1" cx="1326.49546" cy="315.93549" r="27.57137"/><line id="_Path_31" data-name="&lt;Path&gt;" class="cls-6" x1="1326.49546" y1="309.32574" x2="1326.49546" y2="370.48591"/><line id="_Path_32" data-name="&lt;Path&gt;" class="cls-6" x1="1326.49546" y1="332.82545" x2="1342.34508" y2="316.97583"/><line id="_Path_33" data-name="&lt;Path&gt;" class="cls-6" x1="1326.49546" y1="338.16598" x2="1306.46175" y2="318.13227"/></g><g id="_Group_29" data-name="&lt;Group&gt;"><circle id="_Path_34" data-name="&lt;Path&gt;" class="cls-2" cx="343" cy="343.37538" r="14.77932"/><line id="_Path_35" data-name="&lt;Path&gt;" class="cls-7" x1="343" y1="339.8323" x2="343" y2="372.61652"/><line id="_Path_36" data-name="&lt;Path&gt;" class="cls-7" x1="343" y1="352.42905" x2="351.496" y2="343.93304"/><line id="_Path_37" data-name="&lt;Path&gt;" class="cls-7" x1="343" y1="355.29178" x2="332.26115" y2="344.55294"/></g><g id="_Group_30" data-name="&lt;Group&gt;"><circle id="_Path_38" data-name="&lt;Path&gt;" class="cls-8" cx="1378.50073" cy="349.45179" r="17.85595"/><line id="_Path_39" data-name="&lt;Path&gt;" class="cls-9" x1="1378.50073" y1="345.17115" x2="1378.50073" y2="384.78009"/><line id="_Path_40" data-name="&lt;Path&gt;" class="cls-9" x1="1378.50073" y1="360.39018" x2="1388.76536" y2="350.12554"/><line id="_Path_41" data-name="&lt;Path&gt;" class="cls-9" x1="1378.50073" y1="363.84885" x2="1365.52636" y2="350.87449"/></g></g><g id="Layer_1" data-name="Layer 1"><rect class="cls-8" x="34.45557" y="490.5" width="1748" height="358.5"/></g></svg>