<svg version="1.1"
     xmlns="http://www.w3.org/2000/svg" xmlns:xlink="http://www.w3.org/1999/xlink" xmlns:a="http://ns.adobe.com/AdobeSVGViewerExtensions/3.0/"
     x="0px" y="0px" width="40.9px" height="36.1px" viewBox="0 0 40.9 36.1" style="enable-background:new 0 0 40.9 36.1;"
     xml:space="preserve">
<style type="text/css">
    .st0{fill:#FFFFFF ;}
</style>
<defs>
</defs>
<path class="st0" d="M40.3,29.7L23.9,1.9c-1.6-2.5-5.3-2.5-6.9,0L0.7,29.7c-1.8,2.7,0.2,6.3,3.5,6.3h32.7
    C40.1,36.1,42,32.5,40.3,29.7z M21.7,13.2l-0.4,10.7h-2.1l-0.4-10.7H21.7z M20.2,28.9c-0.9,0-1.6-0.7-1.6-1.6c0-0.9,0.7-1.6,1.6-1.6
    c0.9,0,1.6,0.7,1.6,1.6C21.8,28.1,21.1,28.9,20.2,28.9z"/>
</svg>