<svg version="1.1"
     xmlns="http://www.w3.org/2000/svg" xmlns:xlink="http://www.w3.org/1999/xlink" xmlns:a="http://ns.adobe.com/AdobeSVGViewerExtensions/3.0/"
     x="0px" y="0px" width="41px" height="36.1px" viewBox="0 0 41 36.1" style="enable-background:new 0 0 41 36.1;"
     xml:space="preserve">
<style type="text/css">
    .st0{fill:#F25E5A ;}
    .st1{fill:#FFFFFF ;}
</style>
<defs>
</defs>
<g id="XMLID_1_">
    <path id="XMLID_5_" class="st0" d="M40.4,29.8L24,1.9c-1.6-2.5-5.3-2.5-6.9,0L0.7,29.8c-1.8,2.7,0.2,6.3,3.5,6.3h32.8
        C40.2,36.1,42.1,32.5,40.4,29.8z"/>
    <path id="XMLID_2_" class="st1" d="M20.3,25.7c0.9,0,1.6,0.7,1.6,1.6c0,0.9-0.7,1.6-1.6,1.6c-0.9,0-1.6-0.7-1.6-1.6
        C18.7,26.4,19.4,25.7,20.3,25.7 M18.8,13.3h3L21.3,24h-2.1L18.8,13.3z"/>
</g>
</svg>