<?xml version="1.0" encoding="utf-8"?>
<!-- Generator: Adobe Illustrator 19.0.0, SVG Export Plug-In . SVG Version: 6.00 Build 0)  -->
<svg version="1.1" id="Layer_1" xmlns="http://www.w3.org/2000/svg" xmlns:xlink="http://www.w3.org/1999/xlink" x="0px" y="0px"
	 viewBox="0 0 35 29.3" style="enable-background:new 0 0 35 29.3;" xml:space="preserve" width="35" height="29.3">
<style type="text/css">
	.st0{fill:#E6E7E8;}
</style>
<g id="XMLID_1892_">
	<path id="XMLID_1893_" class="st0" d="M15.2,6.2c-2.7,1.4-5.9,5-6.6,8.1c0.3-0.2,1-0.3,1.7-0.3c3.2,0,5.8,2.5,5.8,6.1
		c0,3.7-3.1,6.7-6.7,6.7c-4,0-7.6-3.1-7.6-8.7c0-6.4,3.5-12.1,8.8-15.7L15.2,6.2z M32.5,6.2c-2.7,1.4-6,5-6.6,8.1
		c0.3-0.2,1-0.3,1.7-0.3c3.1,0,5.7,2.5,5.7,6.1c0,3.7-3,6.7-6.7,6.7c-4,0-7.5-3.1-7.5-8.7c0-6.4,3.4-12.1,8.7-15.7L32.5,6.2z"/>
</g>
</svg>
