<svg xmlns="http://www.w3.org/2000/svg" xmlns:xlink="http://www.w3.org/1999/xlink" width="1143" height="152" viewBox="0 0 1143 152"><defs><style>.cls-1,.cls-63{fill:#841827;}.cls-2{fill:#ceae95;}.cls-3{fill:#ffffde;}.cls-4{fill:#383535;}.cls-5{fill:#db4958;}.cls-6{isolation:isolate;}.cls-7{fill:url(#linear-gradient);}.cls-18,.cls-22,.cls-23,.cls-36,.cls-43,.cls-55,.cls-56,.cls-60,.cls-62,.cls-8{fill:none;}.cls-8{stroke:#ffedd9;stroke-width:5.8px;}.cls-18,.cls-22,.cls-23,.cls-36,.cls-43,.cls-55,.cls-56,.cls-60,.cls-8{stroke-linecap:round;}.cls-22,.cls-23,.cls-36,.cls-60,.cls-62,.cls-8{stroke-miterlimit:10;}.cls-9{fill:#f4ca94;}.cls-10{fill:#fadfbf;}.cls-11{fill:#b298d7;}.cls-12{fill:#4b413b;}.cls-13{fill:#ffedd9;}.cls-14{fill:#f1be8a;}.cls-15,.cls-25{fill:#3b1a2f;}.cls-16{fill:#fff;}.cls-17{fill:#ff7bac;}.cls-18{stroke:#d8ba9a;stroke-width:1.09px;}.cls-18,.cls-43,.cls-55,.cls-56{stroke-linejoin:round;}.cls-19{fill:#6550a7;}.cls-20,.cls-40,.cls-55{opacity:0.3;}.cls-21,.cls-40,.cls-50{fill:#f25e5a;}.cls-22{stroke:#83919c;stroke-width:0.61px;}.cls-23{stroke:#ac2e3d;stroke-width:1.84px;}.cls-24{fill:#83919c;}.cls-25,.cls-50,.cls-52{opacity:0.1;}.cls-26{fill:gray;}.cls-27{fill:#333;}.cls-28{clip-path:url(#clip-path);}.cls-29{fill-opacity:0.15;}.cls-30{fill:#720f22;}.cls-31{fill:#1a1a1a;}.cls-32{clip-path:url(#clip-path-2);}.cls-33{fill:#685b53;}.cls-34{clip-path:url(#clip-path-3);}.cls-35{clip-path:url(#clip-path-4);}.cls-36{stroke:#9b6741;stroke-width:4.33px;}.cls-37{fill:#9b6741;}.cls-38{fill:#fdefb2;}.cls-39{fill:#e68e63;}.cls-40,.cls-50,.cls-58{mix-blend-mode:multiply;}.cls-41{fill:#e38159;}.cls-42{fill:#9b3f25;}.cls-43{stroke:#915c37;stroke-width:1.08px;}.cls-44{fill:#755641;}.cls-45{fill:#fae3a8;}.cls-46{fill:#ac2e3d;}.cls-47{clip-path:url(#clip-path-5);}.cls-48{clip-path:url(#clip-path-6);}.cls-49{fill:#bd906b;}.cls-51{fill:#e06572;}.cls-53{fill:#ddd8d4;}.cls-54,.cls-58{opacity:0.06;}.cls-55,.cls-56{stroke:#685b53;stroke-width:1.14px;}.cls-57{clip-path:url(#clip-path-7);}.cls-59{fill:#353232;}.cls-60{stroke:#3b1a2f;stroke-width:1.46px;}.cls-61{clip-path:url(#clip-path-8);}.cls-62{stroke:#942130;stroke-width:0.23px;}.cls-63{fill-rule:evenodd;}</style><linearGradient id="linear-gradient" x1="572.72" y1="152.24" x2="572.72" y2="52.26" gradientUnits="userSpaceOnUse"><stop offset="0" stop-color="#e2f0cf"/><stop offset="0.3" stop-color="#deeec9"/><stop offset="0.72" stop-color="#d3e9b7"/><stop offset="0.9" stop-color="#cde6ad"/></linearGradient><clipPath id="clip-path"><path class="cls-1" d="M512.38,67.88a24.84,24.84,0,0,1-49.67,0Z"/></clipPath><clipPath id="clip-path-2"><rect class="cls-2" x="486.25" y="65.53" width="18.6" height="2.01" rx="0.87" transform="translate(7.84 -43.61) rotate(5.08)"/></clipPath><clipPath id="clip-path-3"><rect class="cls-2" x="476.32" y="66.36" width="18.6" height="2.01" rx="0.87" transform="translate(7.87 -42.73) rotate(5.08)"/></clipPath><clipPath id="clip-path-4"><rect class="cls-2" x="470.09" y="67.54" width="18.6" height="2.01" rx="0.87" transform="translate(7.95 -42.18) rotate(5.08)"/></clipPath><clipPath id="clip-path-5"><path class="cls-3" d="M610.55,67.56,594.74,69a.59.59,0,0,1-.55-.93l6.53-9.37a.6.6,0,0,1,.88-.12l9.29,8A.6.6,0,0,1,610.55,67.56Z"/></clipPath><clipPath id="clip-path-6"><path class="cls-3" d="M586.35,69.05l-15.88-.28a.6.6,0,0,1-.44-1l7.48-8.63a.61.61,0,0,1,.89,0l8.4,8.9A.6.6,0,0,1,586.35,69.05Z"/></clipPath><clipPath id="clip-path-7"><path class="cls-4" d="M673.12,68.85l-13.86-3.34a1.45,1.45,0,0,0-1.76,1.14l-2.08,11.07a1.45,1.45,0,0,0,1.27,1.7l13.23,1.4a1.46,1.46,0,0,0,1.54-1l2.71-9.12A1.45,1.45,0,0,0,673.12,68.85Z"/></clipPath><clipPath id="clip-path-8"><ellipse class="cls-5" cx="726.08" cy="77.54" rx="7.92" ry="13.43" transform="translate(543.87 784.65) rotate(-81.65)"/></clipPath></defs><g class="cls-6"><g id="Layer_1" data-name="Layer 1"><path class="cls-7" d="M570.28,52.26c-142.42,0-273.87,19.36-377.67,46.6C100.1,123.14,2.09,152.24,2.09,152.24H1143.34S830.55,52.26,570.28,52.26Z"/></g></g></svg>