<svg xmlns="http://www.w3.org/2000/svg" xmlns:xlink="http://www.w3.org/1999/xlink" width="1143" height="152" viewBox="0 0 1143 152"><defs><style>.cls-1,.cls-63{fill:#841827;}.cls-2{fill:#ceae95;}.cls-3{fill:#ffffde;}.cls-4{fill:#383535;}.cls-5{fill:#db4958;}.cls-6{isolation:isolate;}.cls-7{fill:url(#linear-gradient);}.cls-18,.cls-22,.cls-23,.cls-36,.cls-43,.cls-55,.cls-56,.cls-60,.cls-62,.cls-8{fill:none;}.cls-8{stroke:#ffedd9;stroke-width:5.8px;}.cls-18,.cls-22,.cls-23,.cls-36,.cls-43,.cls-55,.cls-56,.cls-60,.cls-8{stroke-linecap:round;}.cls-22,.cls-23,.cls-36,.cls-60,.cls-62,.cls-8{stroke-miterlimit:10;}.cls-9{fill:#f4ca94;}.cls-10{fill:#fadfbf;}.cls-11{fill:#b298d7;}.cls-12{fill:#4b413b;}.cls-13{fill:#ffedd9;}.cls-14{fill:#f1be8a;}.cls-15,.cls-25{fill:#3b1a2f;}.cls-16{fill:#fff;}.cls-17{fill:#ff7bac;}.cls-18{stroke:#d8ba9a;stroke-width:1.09px;}.cls-18,.cls-43,.cls-55,.cls-56{stroke-linejoin:round;}.cls-19{fill:#6550a7;}.cls-20,.cls-40,.cls-55{opacity:0.3;}.cls-21,.cls-40,.cls-50{fill:#f25e5a;}.cls-22{stroke:#83919c;stroke-width:0.61px;}.cls-23{stroke:#ac2e3d;stroke-width:1.84px;}.cls-24{fill:#83919c;}.cls-25,.cls-50,.cls-52{opacity:0.1;}.cls-26{fill:gray;}.cls-27{fill:#333;}.cls-28{clip-path:url(#clip-path);}.cls-29{fill-opacity:0.15;}.cls-30{fill:#720f22;}.cls-31{fill:#1a1a1a;}.cls-32{clip-path:url(#clip-path-2);}.cls-33{fill:#685b53;}.cls-34{clip-path:url(#clip-path-3);}.cls-35{clip-path:url(#clip-path-4);}.cls-36{stroke:#9b6741;stroke-width:4.33px;}.cls-37{fill:#9b6741;}.cls-38{fill:#fdefb2;}.cls-39{fill:#e68e63;}.cls-40,.cls-50,.cls-58{mix-blend-mode:multiply;}.cls-41{fill:#e38159;}.cls-42{fill:#9b3f25;}.cls-43{stroke:#915c37;stroke-width:1.08px;}.cls-44{fill:#755641;}.cls-45{fill:#fae3a8;}.cls-46{fill:#ac2e3d;}.cls-47{clip-path:url(#clip-path-5);}.cls-48{clip-path:url(#clip-path-6);}.cls-49{fill:#bd906b;}.cls-51{fill:#e06572;}.cls-53{fill:#ddd8d4;}.cls-54,.cls-58{opacity:0.06;}.cls-55,.cls-56{stroke:#685b53;stroke-width:1.14px;}.cls-57{clip-path:url(#clip-path-7);}.cls-59{fill:#353232;}.cls-60{stroke:#3b1a2f;stroke-width:1.46px;}.cls-61{clip-path:url(#clip-path-8);}.cls-62{stroke:#942130;stroke-width:0.23px;}.cls-63{fill-rule:evenodd;}</style><linearGradient id="linear-gradient" x1="572.72" y1="152.24" x2="572.72" y2="52.26" gradientUnits="userSpaceOnUse"><stop offset="0" stop-color="#e2f0cf"/><stop offset="0.3" stop-color="#deeec9"/><stop offset="0.72" stop-color="#d3e9b7"/><stop offset="0.9" stop-color="#cde6ad"/></linearGradient><clipPath id="clip-path"><path class="cls-1" d="M512.38,67.88a24.84,24.84,0,0,1-49.67,0Z"/></clipPath><clipPath id="clip-path-2"><rect class="cls-2" x="486.25" y="65.53" width="18.6" height="2.01" rx="0.87" transform="translate(7.84 -43.61) rotate(5.08)"/></clipPath><clipPath id="clip-path-3"><rect class="cls-2" x="476.32" y="66.36" width="18.6" height="2.01" rx="0.87" transform="translate(7.87 -42.73) rotate(5.08)"/></clipPath><clipPath id="clip-path-4"><rect class="cls-2" x="470.09" y="67.54" width="18.6" height="2.01" rx="0.87" transform="translate(7.95 -42.18) rotate(5.08)"/></clipPath><clipPath id="clip-path-5"><path class="cls-3" d="M610.55,67.56,594.74,69a.59.59,0,0,1-.55-.93l6.53-9.37a.6.6,0,0,1,.88-.12l9.29,8A.6.6,0,0,1,610.55,67.56Z"/></clipPath><clipPath id="clip-path-6"><path class="cls-3" d="M586.35,69.05l-15.88-.28a.6.6,0,0,1-.44-1l7.48-8.63a.61.61,0,0,1,.89,0l8.4,8.9A.6.6,0,0,1,586.35,69.05Z"/></clipPath><clipPath id="clip-path-7"><path class="cls-4" d="M673.12,68.85l-13.86-3.34a1.45,1.45,0,0,0-1.76,1.14l-2.08,11.07a1.45,1.45,0,0,0,1.27,1.7l13.23,1.4a1.46,1.46,0,0,0,1.54-1l2.71-9.12A1.45,1.45,0,0,0,673.12,68.85Z"/></clipPath><clipPath id="clip-path-8"><ellipse class="cls-5" cx="726.08" cy="77.54" rx="7.92" ry="13.43" transform="translate(543.87 784.65) rotate(-81.65)"/></clipPath></defs><g class="cls-6"><g id="Layer_1" data-name="Layer 1"><path class="cls-8" d="M376.23,70.41c-4.44,6.12-6.4,9.33-6.81,14.28"/><path class="cls-8" d="M430.41,69.61s11.06-8.3,22.07-8.71"/><path class="cls-9" d="M432.8,72.8A46.52,46.52,0,0,1,437.15,70l-1.9-4.5L434,62.64a58,58,0,0,0-5.12,3.14c-.51.35-.82.58-.89.63a4,4,0,0,0-1.59,3.35,4,4,0,0,0,6.38,3Z"/><circle class="cls-10" cx="432.64" cy="55.32" r="3.4"/><circle class="cls-10" cx="379.34" cy="55.32" r="3.4"/><rect class="cls-10" x="413.49" y="82.11" width="3.81" height="15.06"/><rect class="cls-11" x="413.49" y="89.87" width="3.81" height="7.31"/><rect class="cls-10" x="394.73" y="82.11" width="3.81" height="15.06" transform="translate(793.27 179.29) rotate(-180)"/><rect class="cls-11" x="394.73" y="89.87" width="3.81" height="7.31" transform="translate(793.27 187.05) rotate(-180)"/><path class="cls-12" d="M413.49,93.53h4.25a3.16,3.16,0,0,1,3.16,3.16v.49a0,0,0,0,1,0,0h-7.41a0,0,0,0,1,0,0V93.53A0,0,0,0,1,413.49,93.53Z"/><path class="cls-12" d="M391.13,93.53h7.41a0,0,0,0,1,0,0V94a3.16,3.16,0,0,1-3.16,3.16h-4.25a0,0,0,0,1,0,0V93.53A0,0,0,0,1,391.13,93.53Z" transform="translate(789.67 190.71) rotate(-180)"/><path class="cls-13" d="M379.34,52.92v11.3h53.35V52.92a27.09,27.09,0,0,0-.43-4.79c-.13-.69-.27-1.36-.45-2a26.78,26.78,0,0,0-.83-2.58c-.12-.33-.26-.66-.39-1s-.31-.7-.47-1.05a24.75,24.75,0,0,0-1.41-2.58c-.35-.56-.71-1.11-1.1-1.64l-.3-.39a26.57,26.57,0,0,0-18.83-10.51c-.81-.07-1.64-.11-2.47-.11a26.56,26.56,0,0,0-15.84,5.2l-.37.28a28,28,0,0,0-2.65,2.33,25.21,25.21,0,0,0-2.44,2.81,23.48,23.48,0,0,0-1.39,2l-.22.35c-.43.72-.83,1.47-1.19,2.23-.05.11-.11.23-.16.35-.26.55-.49,1.11-.71,1.69l-.21.58c-.23.66-.43,1.32-.61,2s-.33,1.34-.45,2A26.92,26.92,0,0,0,379.34,52.92Z"/><path class="cls-14" d="M384.76,64.21h42.61a5.31,5.31,0,0,1,5.31,5.31V82.18a0,0,0,0,1,0,0H379.34a0,0,0,0,1,0,0V69.64A5.43,5.43,0,0,1,384.76,64.21Z" transform="translate(812.02 146.39) rotate(-180)"/><path class="cls-13" d="M405,57c0,4.78,5,8.65,11.14,8.65s11.14-3.87,11.14-8.65"/><path class="cls-15" d="M412.23,55.41a.71.71,0,0,0-.72.81,4.72,4.72,0,0,0,2.76,3.51,4.59,4.59,0,0,0,1.9.41,4.67,4.67,0,0,0,1.91-.41,4.72,4.72,0,0,0,2.74-3.45.73.73,0,0,0-.71-.87Z"/><path class="cls-16" d="M414.2,56.64h3.94a.87.87,0,0,0,.88-.88v-.35h-5.7v.35A.88.88,0,0,0,414.2,56.64Z"/><path class="cls-17" d="M414.27,59.73a4.59,4.59,0,0,0,1.9.41,4.67,4.67,0,0,0,1.91-.41,1.95,1.95,0,0,0-3.81,0Z"/><rect class="cls-15" x="420.64" y="47.37" width="2.28" height="4.05" rx="0.99"/><rect class="cls-15" x="409.05" y="47.37" width="2.28" height="4.05" rx="0.99"/><path class="cls-15" d="M416.13,24l-2.95-.65a33.34,33.34,0,0,0-14.34,0l-2.95.65a1.34,1.34,0,0,0-1.06,1.31v5.13A1.12,1.12,0,0,0,396,31.57h20.12a1.12,1.12,0,0,0,1.12-1.12V25.32A1.34,1.34,0,0,0,416.13,24Z"/><line class="cls-18" x1="406.95" y1="48.34" x2="403.8" y2="47.85"/><line class="cls-18" x1="406.96" y1="50.54" x2="403.79" y2="50.73"/><path class="cls-19" d="M432.69,73.64v5.64a2.9,2.9,0,0,1-2.9,2.9h-8.87a2.54,2.54,0,0,0-2.54,2.54v5.21A1.08,1.08,0,0,1,417.3,91h-3.81a1.09,1.09,0,0,1-1.09-1.09V84.72a2.54,2.54,0,0,0-2.54-2.54h-7.69a2.54,2.54,0,0,0-2.54,2.54v5.21A1.09,1.09,0,0,1,398.54,91h-3.81a1.09,1.09,0,0,1-1.09-1.09V84.72a2.54,2.54,0,0,0-2.54-2.54h-8.86a2.9,2.9,0,0,1-2.9-2.9V73.64Z"/><line class="cls-18" x1="424.6" y1="50.61" x2="427.74" y2="51.09"/><line class="cls-18" x1="424.58" y1="48.4" x2="427.75" y2="48.22"/><g class="cls-20"><path class="cls-21" d="M373.1,69.79l4.51,6.36,5.9-3.8a4.28,4.28,0,0,0,1.89-2.74c0-.13.05-.25.07-.38a4.35,4.35,0,0,0-4.32-3.8,4.39,4.39,0,0,0-2.36.69Z"/></g><path class="cls-9" d="M372.37,68.71l4.51,6.36,5.9-3.81a4.31,4.31,0,0,0,1.9-2.73,2.85,2.85,0,0,0,.06-.39,4.22,4.22,0,0,0-.66-1.8,4.33,4.33,0,0,0-3.66-2,4.28,4.28,0,0,0-2.35.7Z"/><path class="cls-22" d="M460.34,40.87l-8.61,18.34a1.33,1.33,0,0,0,1.89,1.71L472,49.9"/><path class="cls-23" d="M454.69,52.91l-3,6.3a1.33,1.33,0,0,0,1.89,1.71l5.62-3.37"/><path class="cls-24" d="M458.52,45c-.52-.22-.52-1.38,0-2.58s1.36-2,1.88-1.78"/><path class="cls-24" d="M472.12,49.88c.29.49-.38,1.43-1.5,2.12s-2.26.84-2.56.36"/><circle class="cls-13" cx="451.67" cy="61.24" r="1.73"/><rect class="cls-16" x="400.55" y="64" width="2.75" height="6"/><rect class="cls-16" x="424.05" y="64" width="1.84" height="6.41"/><path class="cls-16" d="M425.93,70.43h0a.92.92,0,0,0-.92-.92H400.54a1.09,1.09,0,0,1,0,.18,6.64,6.64,0,0,1-5.82,6.58.89.89,0,0,0-.8.88V87a1.9,1.9,0,0,0,1.9,1.9h33.11a1.9,1.9,0,0,0,1.9-1.9V77.14a.88.88,0,0,0-.63-.84A6.17,6.17,0,0,1,425.93,70.43Z"/><path class="cls-25" d="M375.59,93.43h40.53a0,0,0,0,1,0,0v3.74a0,0,0,0,1,0,0H375.59A1.62,1.62,0,0,1,374,95.55V95a1.62,1.62,0,0,1,1.62-1.62Z"/><path class="cls-25" d="M466.28,117.94h40.53a0,0,0,0,1,0,0v3.74a0,0,0,0,1,0,0H466.28a1.62,1.62,0,0,1-1.62-1.62v-.5A1.62,1.62,0,0,1,466.28,117.94Z"/><path class="cls-25" d="M430.4,119.57h40.53a0,0,0,0,1,0,0v3.74a0,0,0,0,1,0,0H430.4a1.62,1.62,0,0,1-1.62-1.62v-.5A1.62,1.62,0,0,1,430.4,119.57Z"/><ellipse class="cls-26" cx="488.07" cy="100.87" rx="17.17" ry="3.09"/><rect class="cls-24" x="459.1" y="67.88" width="4.21" height="1.59" rx="0.69"/><rect class="cls-24" x="511.65" y="67.88" width="4.21" height="1.59" rx="0.69"/><rect class="cls-24" x="473.34" y="85.37" width="3.53" height="32.04" rx="1.53" transform="translate(36.52 -107.53) rotate(13.42)"/><rect class="cls-24" x="499.8" y="77.6" width="3.53" height="43.06" rx="1.53" transform="translate(-7.12 150.48) rotate(-16.94)"/><circle class="cls-27" cx="471.96" cy="116.4" r="7.45"/><circle class="cls-24" cx="471.96" cy="116.4" r="5.04"/><rect class="cls-27" x="504.62" y="115.09" width="5.42" height="6.37" rx="2.35" transform="translate(-12.89 145.45) rotate(-16.11)"/><path class="cls-1" d="M512.38,67.88a24.84,24.84,0,0,1-49.67,0Z"/><g class="cls-28"><path class="cls-29" d="M505.24,57.62c-.92,8.61-1.46,30.57-19.93,39s56.86-1.16,56.86-1.16l7.39-43.93Z"/></g><circle class="cls-1" cx="458.22" cy="68.68" r="1.74"/><circle class="cls-1" cx="515.86" cy="68.68" r="1.74"/><ellipse class="cls-30" cx="487.48" cy="68.02" rx="24.96" ry="3.41"/><path class="cls-31" d="M489.21,71.09a157,157,0,0,1-18.78-.76,30.86,30.86,0,0,1-5-.92c-2.6-.75-2.26-1.77,1.2-2.49a62.94,62.94,0,0,1,6.82-1c2.19-.22,4.46-.33,6.7-.47,1.5-.1,3.13-.1,4.7-.15,4.81-.15,9.49,0,14.09.18a72,72,0,0,1,8.43.83c2.05.34,3.84.79,3.94,1.47s-1.56,1.27-3.82,1.74a61,61,0,0,1-7.44,1C496.69,70.83,493.23,71,489.21,71.09Zm3.51-.32V70.7l-24.57-1a23.9,23.9,0,0,0,4.69.48l15.62.65C489.86,70.88,491.3,70.79,492.72,70.77ZM507.86,69c.64,0,1,0,1-.13s-.48-.11-.82-.12l-17.15-.57c-.53,0-1.07,0-1.2.12s.54.11.88.12l10.62.36Zm-1.6.44c.44,0,.95-.06,1-.17s-.49-.08-.79-.09L493,68.74c-1.2,0-2.4-.09-3.61-.12-.42,0-.92,0-1,.13s.44.09.76.11l12.82.45Zm-1,.21-.45,0-7.7-.29-8.8-.32c-.46,0-1,0-1.09.13s.47.1.8.11l15.16.59A7.33,7.33,0,0,0,505.24,69.67Zm4.51-1.52c.4,0,.71,0,.79-.13s-.27-.11-.56-.12l-.4,0c-5.05-.15-10.13-.28-15.13-.48-.43,0-.88,0-1.32,0a1.75,1.75,0,0,0-1,.15c-.12.13.45.08.72.09l7.42.25Zm-.34.44c.22,0,.53,0,.59-.12s-.27-.11-.58-.12l-5.31-.17-8.63-.28-3.62-.12a1.51,1.51,0,0,0-.81.12c-.11.11.31.09.59.11l2.09.08,11.24.37Zm-7.32,1.49a4.26,4.26,0,0,0-1-.07l-9.57-.38-4.81-.17a1.78,1.78,0,0,0-1,.13c-.17.14.37.12.71.13l13.17.51A11.23,11.23,0,0,0,502.09,70.08Zm-36.26-2.37a2.29,2.29,0,0,0-.89.11c-.15.11.31.09.57.11l1.08,0,7.56.3,6.67.26c.47,0,1.11,0,1.19-.13s-.58-.09-.94-.11c-3.58-.14-7.16-.29-10.75-.42ZM494.41,67c-.49,0-.87.05-.92.15s.44.07.69.08l6.11.2,9.51.31a1.36,1.36,0,0,0,.55,0c.12,0,0-.09-.11-.13a6.27,6.27,0,0,0-1.26-.11L496.85,67Zm9.91-.73a189.58,189.58,0,0,0-19.26-.62C491.39,65.86,497.77,66,504.32,66.23Zm-21.81,1.9c.27,0,.65,0,.71-.14s-.39-.08-.68-.09l-12.47-.47-3.2-.13a2.2,2.2,0,0,0-.95.12c-.16.12.41.09.68.1,3.18.13,6.36.27,9.56.39Zm-17.5,0c-.06,0-.37,0-.44.08s.09.12.37.14l1,.06,13.62.55a2.28,2.28,0,0,0,1.12-.11c.17-.15-.48-.12-.81-.13q-4.36-.2-8.75-.36Zm2.39-1.08a2.77,2.77,0,0,0,.81.08l13.35.52c.67,0,1.35,0,2,.06a1.84,1.84,0,0,0,.86-.11c.15-.11-.36-.08-.59-.1l-1.59-.07-12.85-.51A6.13,6.13,0,0,0,467.4,67.06Zm17.28.27c.6,0,.94-.06,1-.16s-.25-.07-.48-.08l-14.3-.53a6.3,6.3,0,0,0-1,0c-.21,0-.5.05-.46.12s.3,0,.5.06l13,.48Zm-6.12,2.06c.43,0,.75,0,.82-.14s-.34-.09-.62-.1l-7.47-.31-5.69-.22c-.26,0-.66-.05-.79,0s.12.16.45.19l.77,0,8.76.35Zm19.94,1-.56-.05-12.39-.48a2.37,2.37,0,0,0-1.18.15c-.15.12.45.11.76.12,3.22.14,6.46.25,9.67.4A34,34,0,0,0,498.5,70.43Zm-26.57-4.07a2.32,2.32,0,0,0,.73.09l8.52.3,4.6.17a2.34,2.34,0,0,0,1.11-.13c.11-.13-.47-.09-.81-.1-3.7-.14-7.43-.25-11.1-.41A14.91,14.91,0,0,0,471.93,66.36Zm37.66.88a2.87,2.87,0,0,0-1.37-.28L504,66.85l-8.31-.28a1.85,1.85,0,0,0-.93.11c-.16.12.29.12.62.13Zm-43.76,1.9a2.79,2.79,0,0,0,1.39.3l9.64.39a2.64,2.64,0,0,0,1.21-.12c.16-.16-.57-.12-.92-.14l-9.46-.38C467.11,69.17,466.55,69.11,465.83,69.14Zm9.12-3,9.48.33,2.6.1c.44,0,.86,0,1-.11s-.38-.1-.66-.12-.47,0-.7,0c-3-.12-6-.18-8.88-.33A13.75,13.75,0,0,0,475,66.1Zm32.85.66a8,8,0,0,0-2.21-.31l-8.15-.24h-1c-.29,0-.58.05-.59.12s.33.06.55.07l6.33.2Zm-28.85-1c.31,0,.38.08.47.08l8.8.31c.46,0,.89,0,1-.14s-.44-.09-.74-.11c-2-.07-4.06-.15-6.1-.21C481.3,65.67,480.25,65.71,479,65.77Zm1,3.89a2.44,2.44,0,0,0-1.08.16c-.15.13.39.1.66.11l2.76.13a3.51,3.51,0,0,0,1.12-.09c.21-.06.26-.12-.12-.14Zm1.25-.43a1.53,1.53,0,0,0-.93.18c-.07.11.45.08.75.09.49,0,1,0,1.48.06l1.71,0a1.49,1.49,0,0,0,.79-.14c.11-.07-.12-.09-.37-.1Zm.95-.41a1.65,1.65,0,0,0-.63.13c-.09,0,0,.08.21.09l3.77.15a1.37,1.37,0,0,0,.76-.15c.12-.07-.07-.1-.33-.11Zm5.62-.46c.57,0,1-.06,1.08-.17s-.46-.07-.73-.09c-1-.08-2.15,0-3.17-.12a1.62,1.62,0,0,0-.82.12c-.15.07.06.1.3.12C485.55,68.27,486.75,68.28,487.75,68.36Zm2.59-.83a2.42,2.42,0,0,0,1-.11c.13,0,.08-.1-.16-.11-1.32,0-2.65-.1-4-.13a1.13,1.13,0,0,0-.59.12c-.11.08.18.09.4.1Zm-1.54-.75a2.37,2.37,0,0,0-1,.12c-.08.06.1.09.3.1,1.27,0,2.53.09,3.8.12a1,1,0,0,0,.65-.13c.07-.09-.28-.09-.52-.1C491,66.81,489.84,66.83,488.8,66.78Zm-5.21,1.62c-.26,0-.6,0-.69.13s.35.1.66.11c.49,0,1,0,1.49.06l1.81,0a1.48,1.48,0,0,0,.71-.12c.1-.06-.05-.09-.27-.1Zm10.61-2.07c.27,0,.61,0,.68-.1s-.27-.11-.58-.12l-1.31,0c-.67,0-1.32-.07-2-.09a1.77,1.77,0,0,0-.88.15c-.13.08.19.09.41.09Zm-1.29.39a2,2,0,0,0,.78-.09c.15-.08-.05-.11-.3-.12l-3.65-.14a1.14,1.14,0,0,0-.68.12c-.12.09.21.1.47.11Zm-3.73,1.21a1.87,1.87,0,0,0,.84-.12c.1-.06-.12-.09-.31-.09l-3.8-.13a.93.93,0,0,0-.59.12c-.06.07.17.08.37.08Z"/><rect class="cls-2" x="486.25" y="65.53" width="18.6" height="2.01" rx="0.87" transform="translate(7.84 -43.61) rotate(5.08)"/><g class="cls-32"><ellipse class="cls-33" cx="495.89" cy="65.6" rx="0.61" ry="7.97" transform="translate(383.36 552.98) rotate(-84.53)"/></g><rect class="cls-2" x="476.32" y="66.36" width="18.6" height="2.01" rx="0.87" transform="translate(7.87 -42.73) rotate(5.08)"/><g class="cls-34"><ellipse class="cls-33" cx="485.96" cy="66.43" rx="0.61" ry="7.97" transform="translate(373.55 543.86) rotate(-84.53)"/></g><rect class="cls-2" x="470.09" y="67.54" width="18.6" height="2.01" rx="0.87" transform="translate(7.95 -42.18) rotate(5.08)"/><g class="cls-35"><ellipse class="cls-33" cx="479.73" cy="67.61" rx="0.61" ry="7.97" transform="translate(366.74 538.72) rotate(-84.53)"/></g><rect class="cls-25" x="558.56" y="86.44" width="43.8" height="3.63" rx="1.81" transform="translate(1160.92 176.5) rotate(180)"/><path class="cls-36" d="M589,63.61a49.92,49.92,0,0,0,13.39,5.85"/><rect class="cls-37" x="558.58" y="74.97" width="3.79" height="12.56"/><rect class="cls-38" x="558.58" y="85.22" width="3.79" height="1.74"/><rect class="cls-37" x="577.58" y="74.97" width="3.79" height="13.14"/><rect class="cls-38" x="577.58" y="85.22" width="3.79" height="2.32"/><path class="cls-37" d="M595.6,48.44V59.69H542.52V48.44c0-.52,0-1,0-1.54a30.78,30.78,0,0,1,.38-3.22c.13-.69.28-1.36.45-2a26.55,26.55,0,0,1,.82-2.57c.26-.69.55-1.37.87-2a23.71,23.71,0,0,1,1.4-2.57c.34-.55.71-1.1,1.09-1.63l.29-.39c.27-.35.55-.7.83-1l.29-.33a26.54,26.54,0,0,1,5.25-4.67c.69-.46,1.4-.9,2.13-1.3a27.86,27.86,0,0,1,3.13-1.45A26.28,26.28,0,0,1,566,22.07a26.64,26.64,0,0,1,11.73,1.29q1.17.41,2.31.93a27.06,27.06,0,0,1,4.74,2.79l.37.28A26.36,26.36,0,0,1,590,32.18l.22.29c.49.65,1,1.33,1.38,2l.22.35A23.58,23.58,0,0,1,593,37.06a3.73,3.73,0,0,1,.16.35c.26.54.49,1.11.7,1.68a24.09,24.09,0,0,1,.83,2.57c.17.66.32,1.33.44,2A25.78,25.78,0,0,1,595.6,48.44Z"/><path class="cls-39" d="M542.52,59.68h53.09a0,0,0,0,1,0,0V69.74a5.3,5.3,0,0,1-5.3,5.3H547.93a5.41,5.41,0,0,1-5.41-5.41V59.68a0,0,0,0,1,0,0Z"/><rect class="cls-15" x="582.17" y="39.67" width="2.27" height="4.03" rx="1.13"/><rect class="cls-15" x="571.15" y="39.67" width="2.27" height="4.03" rx="1.13"/><path class="cls-39" d="M575.59,62.93c0,4.07-3.29,4.83-7.36,4.83s-7.36-.76-7.36-4.83a7.36,7.36,0,0,1,14.72,0Z"/><path class="cls-39" d="M593.13,62.93c0,4.07-3.3,4.83-7.36,4.83s-7.36-.76-7.36-4.83a7.36,7.36,0,0,1,14.72,0Z"/><rect class="cls-40" x="558.58" y="75.04" width="3.79" height="1.48"/><rect class="cls-40" x="577.58" y="75.04" width="3.79" height="1.48"/><path class="cls-41" d="M595.61,68a65.77,65.77,0,0,0,1.61,12.15,1.4,1.4,0,0,1-1.36,1.76h-53.6a1.41,1.41,0,0,1-1.36-1.76A65.26,65.26,0,0,0,542.52,68Z"/><path class="cls-15" d="M574.14,47a.71.71,0,0,0-.71.81,4.7,4.7,0,0,0,2.74,3.5,4.57,4.57,0,0,0,1.89.4,4.62,4.62,0,0,0,1.9-.4,4.7,4.7,0,0,0,2.72-3.44A.72.72,0,0,0,582,47Z"/><path class="cls-16" d="M576.11,48.22H580a.88.88,0,0,0,.88-.88V47h-5.67v.34A.87.87,0,0,0,576.11,48.22Z"/><path class="cls-17" d="M576.17,51.3a4.57,4.57,0,0,0,1.89.4,4.62,4.62,0,0,0,1.9-.4,1.94,1.94,0,0,0-3.79,0Z"/><path class="cls-36" d="M554.87,63.61a37.66,37.66,0,0,0,11.39,5.1c4.38,1.06,8.8.72,13.27.7h.58"/><path class="cls-15" d="M546.07,35.16c0-2.16,1.45-2.16,1.45-4.31s-1.45-2.16-1.45-4.32,1.45-2.16,1.45-4.32-1.45-2.16-1.45-4.32,1.45-2.16,1.45-4.32-1.45-2.16-1.45-4.32h0a3.41,3.41,0,0,1,3.41-3.41h39a3.41,3.41,0,0,1,3.41,3.41h0c0,2.16-1.44,2.16-1.44,4.32s1.44,2.16,1.44,4.32-1.44,2.16-1.44,4.32,1.44,2.16,1.44,4.32-1.44,2.16-1.44,4.32,1.55,2.15,1.55,4.31l-19.76-6.64A1,1,0,0,0,571,29.86h0a1,1,0,0,1-1.22,1.35h0a22.78,22.78,0,0,0-14.85.53Z"/><path class="cls-42" d="M582.85,86.33h-5.27V90h1.72V88.25l2,1.71H585V88.44A2.11,2.11,0,0,0,582.85,86.33Z"/><path class="cls-42" d="M563.85,86.33h-5.27V90h1.82V88.25l2,1.71H566V88.44A2.11,2.11,0,0,0,563.85,86.33Z"/><line class="cls-43" x1="569.06" y1="40.79" x2="565.54" y2="40.03"/><line class="cls-43" x1="569.06" y1="42.64" x2="565.54" y2="42.96"/><line class="cls-43" x1="586.16" y1="42.87" x2="589.68" y2="43.63"/><line class="cls-43" x1="586.16" y1="41.03" x2="589.68" y2="40.71"/><circle class="cls-44" cx="567.77" cy="48.07" r="0.46"/><circle class="cls-44" cx="586.66" cy="48.54" r="0.46"/><circle class="cls-44" cx="587.12" cy="50.18" r="0.46"/><circle class="cls-44" cx="588.58" cy="48.22" r="0.46"/><circle class="cls-44" cx="565.07" cy="48.33" r="0.46"/><circle class="cls-44" cx="566.84" cy="50.18" r="0.46"/><path class="cls-45" d="M609.75,67.42l-15.82,1.41a.6.6,0,0,1-.54-.94l6.53-9.37a.6.6,0,0,1,.88-.11l9.29,8A.6.6,0,0,1,609.75,67.42Z"/><rect class="cls-2" x="591.62" y="64.31" width="21.45" height="2.32" rx="1.16" transform="translate(1208.12 77.35) rotate(174.92)"/><path class="cls-46" d="M611.52,64.08v0a.23.23,0,0,0-.11-.27c-.26-.19-.51-.49-.86-.46a1.44,1.44,0,0,0-.88.59c-.37.43-.4.52-1,.34s-1-.33-1.53-.48-1.55-.68-2-.24c-.26.23-.35.49-.75.54-.16,0-.32,0-.47,0-.59,0-1.17,0-1.75,0s-1.12-.16-1.67-.18a.86.86,0,0,0-.72.3,1.06,1.06,0,0,1-.67.32,2.13,2.13,0,0,0-.67.1c-.64.24-.75.75-1.59.34-.28-.13-.49-.33-.82-.28s-.55.49-.87.36-.22-.28-.49-.29a1.22,1.22,0,0,0-.82.37c-.24.21.11.55.34.34.41-.37.51-.05.85.11a.6.6,0,0,0,.59-.07c.33-.19.21-.4.82-.21.17.06.33.2.49.27a1.11,1.11,0,0,0,.82,0,3.3,3.3,0,0,0,.51-.31,2.1,2.1,0,0,1,.84-.29,1.72,1.72,0,0,0,.79-.23c.27-.2.22-.36.7-.38.17,0,.35,0,.52.06.54.06,1.09.12,1.63.15a4.5,4.5,0,0,0,2.22-.16c.33-.19.37-.58.78-.52a12.05,12.05,0,0,1,1.31.35l1.53.48a1.84,1.84,0,0,0,.83.16c.29,0,.41-.28.57-.49s.27-.4.45-.47.57.12.79.28l-.11-.28,0,.05c-.09.3.38.43.48.13Z"/><path class="cls-3" d="M610.55,67.56,594.74,69a.59.59,0,0,1-.55-.93l6.53-9.37a.6.6,0,0,1,.88-.12l9.29,8A.6.6,0,0,1,610.55,67.56Z"/><g class="cls-47"><path class="cls-38" d="M611.59,67.47l-9.51-7.85a.93.93,0,0,0-1.34.17L594.14,69l-2.8-1.15,3-14,7.44-1.33,6.75,6Z"/></g><path class="cls-45" d="M585.57,68.83l-15.88-.29a.59.59,0,0,1-.44-1l7.48-8.62a.6.6,0,0,1,.89,0L586,67.82A.6.6,0,0,1,585.57,68.83Z"/><rect class="cls-2" x="567.69" y="64.94" width="21.45" height="2.32" rx="1.16" transform="translate(1155.54 142.54) rotate(-178.97)"/><path class="cls-46" d="M587.66,65.73l0,0a.24.24,0,0,0,0-.29c-.58-.51-.9-.78-1.6-.23-.3.23-.42.57-.81.55a3.7,3.7,0,0,1-1-.43l-.63-.28c-.43-.18-.88-.36-1.32-.52-.26-.09-.54-.25-.81-.13s-.22.21-.33.3a1.14,1.14,0,0,1-.92.23,14.61,14.61,0,0,1-1.73-.22l-1.59-.33a1,1,0,0,0-.81,0c-.3.16-.05.27-.64.39-.22,0-.46,0-.69,0-.61.07-1,.69-1.68.3-.28-.17-.51-.46-.87-.47s-.63.41-1,.25-.2-.27-.45-.32a1.25,1.25,0,0,0-.83.26c-.25.18,0,.6.25.42a.47.47,0,0,1,.66,0c.06,0,.1.13.16.17a.66.66,0,0,0,.64,0c.12,0,.22-.2.34-.24.3-.11.45.09.65.24a1.41,1.41,0,0,0,1,.35c.41-.06.7-.38,1.11-.44a3.75,3.75,0,0,0,1.15-.15c.19-.1.28-.25.49-.31a1.51,1.51,0,0,1,.78.09c.49.11,1,.21,1.49.29a4.78,4.78,0,0,0,2.37.11c.24-.11.42-.45.65-.49s.66.23.84.3l.63.25,1.48.65a1.8,1.8,0,0,0,.81.23c.28,0,.42-.26.61-.45a1.41,1.41,0,0,1,.5-.41c.33-.1.49.16.71.35l0-.29,0,0c-.13.29.3.54.42.25Z"/><path class="cls-3" d="M586.35,69.05l-15.88-.28a.6.6,0,0,1-.44-1l7.48-8.63a.61.61,0,0,1,.89,0l8.4,8.9A.6.6,0,0,1,586.35,69.05Z"/><g class="cls-48"><path class="cls-38" d="M587.39,69.07l-8.63-8.82a.92.92,0,0,0-1.34,0l-7.55,8.48-2.66-1.45,4.49-13.55,7.54-.53,6.08,6.64Z"/></g><circle class="cls-37" cx="600.87" cy="68.75" r="1.48"/><path class="cls-10" d="M658.42,59.11a4.23,4.23,0,0,0,.62.37,3.9,3.9,0,1,0,3.39-7,3.79,3.79,0,0,0-1.48-.39h0a3.9,3.9,0,0,0-2.53,7Z"/><path class="cls-49" d="M658.42,59.11a4.23,4.23,0,0,0,.62.37,3.9,3.9,0,1,0,3.39-7,3.79,3.79,0,0,0-1.48-.39h0a3.9,3.9,0,0,0-2.53,7Z"/><path class="cls-10" d="M635.76,78.74a2.63,2.63,0,0,0,3.68.46,23.57,23.57,0,0,1,15.2-4.73,27.28,27.28,0,0,1,4.25.45,10.18,10.18,0,0,1,1.19.26,2.63,2.63,0,1,0,1.47-5.05c-.11,0-.73-.2-1.73-.39a32.89,32.89,0,0,0-4.24-.49,28.85,28.85,0,0,0-19.36,5.8A2.62,2.62,0,0,0,635.76,78.74Z"/><path class="cls-50" d="M654.64,73.77a27.28,27.28,0,0,1,4.25.45l.93-5.18a32.89,32.89,0,0,0-4.24-.49Z"/><path class="cls-21" d="M692.17,75.39a2.27,2.27,0,0,0,.85,2.55,2.31,2.31,0,0,0,.63.31l10,3.2,1.23-3.79.28-.51L695,73.91A2.27,2.27,0,0,0,692.17,75.39Z"/><path class="cls-49" d="M700.85,81l.92.29,5,1.6,1.58.51.3.09,4,1.27,1.31.41L722.85,88a2.28,2.28,0,0,0,2.83-1.38l0-.09,0-.08a2.2,2.2,0,0,0,.06-.37,2.17,2.17,0,0,0,0-.36c0-.06,0-.12,0-.18a2,2,0,0,0-.14-.55,2.31,2.31,0,0,0-1.43-1.33l-1-.3-7.89-2.51h0l-4.25-1.36L710,79.14l-2.21-.71-5-1.59-.42-.13-.28.5Z"/><polygon class="cls-50" points="704.61 81.74 709.62 83.34 710.63 78.88 705.62 77.28 704.61 81.74"/><path class="cls-25" d="M660,104.63h30.26a0,0,0,0,1,0,0v3.52a0,0,0,0,1,0,0H660a1.76,1.76,0,0,1-1.76-1.76v0a1.76,1.76,0,0,1,1.76-1.76Z"/><path class="cls-4" d="M693.15,100.68v3.73h1.52a2.17,2.17,0,0,1,2.17,2.17v1.57H689.3v-7.47Z"/><path class="cls-51" d="M689.3,100.68h3.85V93.34A17.17,17.17,0,0,0,686,79.45l-3.1-2.23-2.25,3.13,3.1,2.23a13.28,13.28,0,0,1,5.51,10.76Z"/><path class="cls-51" d="M667.71,100.68h3.85V93.34a17.38,17.38,0,0,0-.5-4.14,1.93,1.93,0,0,0-2.57-1.33h0a1.92,1.92,0,0,0-1.18,2.23,13,13,0,0,1,.4,3.24Z"/><path class="cls-4" d="M671.56,100.68v3.73h1.52a2.17,2.17,0,0,1,2.16,2.17v1.57h-7.53v-7.47Z"/><path class="cls-4" d="M721.65,82.54a1.27,1.27,0,0,0-.85-1.5L709,77.45l-2.21-.7-6.51-2.07-.56,1-.29.52-.07.12-1.7,5.25,21,6.51.31.1a1.26,1.26,0,0,0,1.61-.92Z"/><path class="cls-52" d="M658.42,59.11a4.23,4.23,0,0,0,.62.37,3.9,3.9,0,1,0,3.39-7,3.79,3.79,0,0,0-1.48-.39h0q-.32.6-.6,1.23c-.3.63-.57,1.28-.82,2A27.21,27.21,0,0,0,658.42,59.11Z"/><path class="cls-49" d="M658.26,67.4l10.2,1.81L709,76.4l1.34-7.55a27,27,0,0,0,.4-4.62c0-.68,0-1.35-.09-2-.07-.88-.19-1.75-.34-2.6,0-.07,0-.14,0-.22-.12-.62-.27-1.24-.44-1.86a25.72,25.72,0,0,0-.9-2.69c-.24-.59-.49-1.17-.77-1.74l-.21-.43a26,26,0,0,0-5.06-6.85,25.56,25.56,0,0,0-12.09-6.57c-.43-.1-.87-.19-1.31-.27a26,26,0,0,0-6.5-.33c-.7.06-1.39.14-2.07.25a25.7,25.7,0,0,0-7.34,2.34l0,0-.4.2a25.41,25.41,0,0,0-2.92,1.76,26.24,26.24,0,0,0-2.79,2.26c-.58.54-1.14,1.11-1.67,1.7l-.26.3A23.62,23.62,0,0,0,664,49.41c-.07.1-.15.2-.21.3s-.13.18-.19.28c-.27.39-.52.8-.77,1.21-.44.74-.85,1.52-1.22,2.31-.28.61-.54,1.23-.77,1.86a26.15,26.15,0,0,0-1.22,4.48Z"/><rect class="cls-15" x="699.82" y="57.83" width="3.91" height="2.2" rx="1.1" transform="translate(521.12 739.61) rotate(-79.94)"/><rect class="cls-15" x="688.8" y="55.87" width="3.91" height="2.2" rx="1.1" transform="translate(513.96 727.15) rotate(-79.94)"/><path class="cls-53" d="M657.9,88.24l6.64,1.18,37.87,6.72a2.87,2.87,0,0,0,3.49-2.38l1.36-7.62L709,76.4l-40.53-7.19-10.2-1.81-1.78,10-1.3,7.33A3.1,3.1,0,0,0,657.9,88.24Z"/><circle class="cls-10" cx="643.15" cy="73.69" r="1.73"/><polyline class="cls-10" points="643.88 75.26 645.75 74.22 644.9 73.22 643.57 73.68"/><polygon class="cls-10" points="642.3 72.19 644.6 71.34 645.09 72.16 643.33 73.67 642.3 72.19"/><path class="cls-1" d="M655.18,84.74l1.43-8,50.65,9.42-1.36,7.62a2.88,2.88,0,0,1-3.49,2.38L695,94.84a1,1,0,0,0-1.16,1v1a.7.7,0,0,1-.7.7h-3.93a.71.71,0,0,1-.7-.7V94.51a1,1,0,0,0-.81-1l-29.81-5.3A3.12,3.12,0,0,1,655.18,84.74Z"/><path class="cls-1" d="M668.15,89.53H671a1.24,1.24,0,0,1,1.24,1.24v6.72a0,0,0,0,1,0,0h-5.33a0,0,0,0,1,0,0V90.77A1.24,1.24,0,0,1,668.15,89.53Z" transform="translate(1339.15 187.02) rotate(-180)"/><path class="cls-1" d="M674,91.1s-1.75-.18-1.75,1.94-2.29-.13-2.29-.79a28.55,28.55,0,0,1,1.53-4.14s1-1.4,1.92.22.82,1.87.82,1.87Z"/><path class="cls-1" d="M666.91,92.3s-.29-2.51-2.36-2.88.45-2.09.45-2.09l3.49.54.21,2.18Z"/><path class="cls-54" d="M657.9,88.24l6.64,1.18,3.59-18.67c.1-.52.2-1,.33-1.54a45.22,45.22,0,0,1,18-26.87l4.35-3.08c-.43-.1-.87-.19-1.31-.27a26,26,0,0,0-6.5-.33c-.7.06-1.39.14-2.07.25a25.7,25.7,0,0,0-7.34,2.34l0,0-.4.2a25.41,25.41,0,0,0-2.92,1.76,26.24,26.24,0,0,0-2.79,2.26c-.58.54-1.14,1.11-1.67,1.7l-.26.3A23.62,23.62,0,0,0,664,49.41c-.07.1-.15.2-.21.3s-.13.18-.19.28c-.27.39-.52.8-.77,1.21-.44.74-.85,1.52-1.22,2.31-.28.61-.54,1.23-.77,1.86a26.15,26.15,0,0,0-1.22,4.48l-1.34,7.55-1.78,10-1.3,7.33A3.1,3.1,0,0,0,657.9,88.24Z"/><line class="cls-55" x1="687.09" y1="57.42" x2="684.47" y2="57.42"/><g class="cls-20"><line class="cls-56" x1="704.98" y1="58.9" x2="707.23" y2="59.38"/><line class="cls-56" x1="704.77" y1="61.1" x2="706.77" y2="62.21"/></g><circle class="cls-53" cx="681.47" cy="73.68" r="5.48"/><circle class="cls-53" cx="697.14" cy="76.84" r="5.48"/><path class="cls-52" d="M707.32,75.65l-2.81-.5a1.29,1.29,0,0,0-1.43.79l-4,10.44A1.25,1.25,0,0,0,700,88l5.18,1.1a1.28,1.28,0,0,0,1.53-1l1.63-11A1.25,1.25,0,0,0,707.32,75.65Z"/><path class="cls-4" d="M673.12,68.85l-13.86-3.34a1.45,1.45,0,0,0-1.76,1.14l-2.08,11.07a1.45,1.45,0,0,0,1.27,1.7l13.23,1.4a1.46,1.46,0,0,0,1.54-1l2.71-9.12A1.45,1.45,0,0,0,673.12,68.85Z"/><g class="cls-57"><path class="cls-58" d="M657,88.24l6.64,1.18,3.59-18.67c.1-.52.2-1,.33-1.54a45.22,45.22,0,0,1,18-26.87l4.35-3.08c-.43-.1-.87-.19-1.31-.27a26,26,0,0,0-6.5-.33c-.7.06-1.39.14-2.07.25a25.7,25.7,0,0,0-7.34,2.34l0,0-.4.2a25.41,25.41,0,0,0-2.92,1.76,26.24,26.24,0,0,0-2.79,2.26c-.58.54-1.14,1.11-1.67,1.7l-.26.3a23.62,23.62,0,0,0-1.51,1.92l-.21.3c-.06.09-.13.18-.19.28-.27.39-.52.8-.77,1.21-.44.74-.85,1.52-1.22,2.31-.28.61-.53,1.23-.77,1.86a25.25,25.25,0,0,0-1.21,4.48l-1.35,7.55-1.78,10-1.3,7.33A3.11,3.11,0,0,0,657,88.24Z"/></g><path class="cls-15" d="M695.75,26.65l2.8,8.11a1.24,1.24,0,0,0,2,.53h0a1.23,1.23,0,0,1,2,.63l3.31,13.64a21.23,21.23,0,0,0-7.12,4.23,2.17,2.17,0,0,1-3.05-.18,24,24,0,0,0-32.6-2.9L673,34.25a1.22,1.22,0,0,1,2-.09l.73,1a1.23,1.23,0,0,0,2,0l4.4-5.94a1.23,1.23,0,0,1,2,.1l2.31,3.86a1.23,1.23,0,0,0,2,.09l5-6.93A1.23,1.23,0,0,1,695.75,26.65Z"/><path class="cls-49" d="M635.76,78.74a2.63,2.63,0,0,0,3.68.46,23.57,23.57,0,0,1,15.2-4.73,27.28,27.28,0,0,1,4.25.45,10.18,10.18,0,0,1,1.19.26,2.63,2.63,0,1,0,1.47-5.05c-.11,0-.73-.2-1.73-.39a32.89,32.89,0,0,0-4.24-.49,28.85,28.85,0,0,0-19.36,5.8A2.62,2.62,0,0,0,635.76,78.74Z"/><path class="cls-59" d="M638,72a30.76,30.76,0,0,1,15.9-4.28c.57,0,1.16,0,1.74,0a32.43,32.43,0,0,1,4.44.51c.94.18,1.57.34,1.88.43a4.12,4.12,0,0,1,2.47,2,4.08,4.08,0,0,1,.35,3.15,4.16,4.16,0,0,1-5.14,2.84h0s-.41-.11-1-.22a25.19,25.19,0,0,0-4-.42H654a22.51,22.51,0,0,0-11.8,3.18Z"/><line class="cls-55" x1="687.8" y1="54.74" x2="685.17" y2="54.04"/><path class="cls-4" d="M708.41,75.14l-2.81-.52a1.28,1.28,0,0,0-1.43.81l-4,10.71a1.29,1.29,0,0,0,.93,1.7L706.28,89a1.27,1.27,0,0,0,1.53-1.06l1.63-11.32A1.28,1.28,0,0,0,708.41,75.14Z"/><circle class="cls-49" cx="669.58" cy="105.65" r="0.59"/><circle class="cls-49" cx="691.1" cy="105.65" r="0.59"/><ellipse class="cls-49" cx="723.89" cy="86.26" rx="1.89" ry="1.83"/><path class="cls-60" d="M693.21,61.86a3.63,3.63,0,0,0,4.22,1.1"/><ellipse class="cls-5" cx="726.08" cy="77.54" rx="7.92" ry="13.43" transform="translate(543.87 784.65) rotate(-81.65)"/><g class="cls-61"><path class="cls-62" d="M741.12,77.8c-.52,3.55-7.55,5.46-15.7,4.27s-14.34-5-13.81-8.61"/><path class="cls-52" d="M711.65,81.31c10.51,2,25.89,4.39,31.41-5.11l4.24,16.36-27.93,6.07Z"/></g><rect class="cls-16" x="723.75" y="69.01" width="0.71" height="0.97" rx="0.35" transform="translate(17.78 -104.47) rotate(8.35)"/><rect class="cls-16" x="725.37" y="69.05" width="0.71" height="0.97" rx="0.35" transform="translate(17.8 -104.71) rotate(8.35)"/><rect class="cls-16" x="726.98" y="69.19" width="0.71" height="0.97" rx="0.35" transform="translate(17.84 -104.94) rotate(8.35)"/><rect class="cls-16" x="728.56" y="69.52" width="0.71" height="0.97" rx="0.35" transform="translate(17.91 -105.16) rotate(8.35)"/><rect class="cls-16" x="730.12" y="69.95" width="0.71" height="0.97" rx="0.35" transform="matrix(0.99, 0.15, -0.15, 0.99, 17.98, -105.39)"/><path class="cls-63" d="M723.12,73.94c-.07,0,0-.08,0-.11s.28-.12.32-.21a.47.47,0,0,1,.23-.19l.35-.14c.11-.06.21-.23.33-.31s.13,0,.13,0a.46.46,0,0,1-.2.42s.2.33.25.42a.15.15,0,0,0,.16.1.68.68,0,0,0,.33-.09,2.59,2.59,0,0,1,1.92-.43,2.45,2.45,0,0,1,1.47,1.2c.69,1.42-.25,2.8,1.09,3.59.1.06.07.13,0,.09-1.5-.42-1-2-1.45-3a.09.09,0,0,0-.13-.06,2.55,2.55,0,0,1-.67.12.22.22,0,0,0-.21.18,1.51,1.51,0,0,0,.13,1.4.23.23,0,0,1,0,.28l-1,.92a.35.35,0,0,1-.4,0s0,0,0,0a2.4,2.4,0,0,1,.77-.75.48.48,0,0,0,.17-.48,4.42,4.42,0,0,0-.19-.87,6.14,6.14,0,0,1-.36-.78c0-.11-.1-.15-.2-.14a2.81,2.81,0,0,1-.56,0,1.76,1.76,0,0,0,.06.52.39.39,0,0,0,.37.23c.22,0,.08.3-.13.27a.54.54,0,0,1-.47-.43c0-.08-.06-.5-.25-.6a1.43,1.43,0,0,1-.67-.45c-.24-.31-.31-.49-.42-.5a1.81,1.81,0,0,0-.31,0C723.41,74.1,723.11,74.08,723.12,73.94Z"/></g></g></svg>