<svg xmlns="http://www.w3.org/2000/svg" xmlns:xlink="http://www.w3.org/1999/xlink" width="256" height="133.33" viewBox="0 0 256 133.33"><defs><style>.cls-1,.cls-17,.cls-18,.cls-19,.cls-23,.cls-3{fill:none;}.cls-2{isolation:isolate;}.cls-3{stroke:#bd906b;stroke-width:8.26px;}.cls-17,.cls-18,.cls-23,.cls-3{stroke-linecap:round;}.cls-17,.cls-18,.cls-19,.cls-3{stroke-miterlimit:10;}.cls-4,.cls-5{fill:#3b1a2f;}.cls-12,.cls-16,.cls-4{opacity:0.1;}.cls-6{fill:#fff;}.cls-7{fill:#ff7bac;}.cls-8{fill:#bd906b;}.cls-9{fill:#1389b8;}.cls-10{fill:#0d719a;}.cls-11{fill:#919191;}.cls-12{fill:#2d2a2a;}.cls-13{fill:#9b6741;}.cls-14{fill:#0a6990;}.cls-15{fill:#913920;}.cls-16{fill:#f25e5a;mix-blend-mode:multiply;}.cls-17{stroke:#a87451;}.cls-17,.cls-18{stroke-width:2px;}.cls-18{stroke:#3b1a2f;}.cls-19{stroke:#e38159;stroke-width:11.79px;}.cls-20{fill:#e68e63;}.cls-21{fill:#8c5937;}.cls-22{fill:#e38159;}.cls-23{stroke:#e8d9cd;stroke-linejoin:round;stroke-width:2.16px;}.cls-24{fill:#fe0000;}.cls-25{fill:#fdfd00;}.cls-26{fill:#036748;}.cls-27{fill:#22305e;}.cls-28{clip-path:url(#clip-path);}.cls-29{fill:#012169;}.cls-30{clip-path:url(#clip-path-2);}.cls-31,.cls-34{stroke:#fff;}.cls-31,.cls-33,.cls-34,.cls-35{stroke-miterlimit:426.67;}.cls-31,.cls-35{stroke-width:1.63px;}.cls-32{clip-path:url(#clip-path-3);}.cls-33,.cls-35{stroke:#e4002b;}.cls-33{stroke-width:1.08px;}.cls-34{stroke-width:2.71px;}</style><clipPath id="clip-path"><path class="cls-1" d="M56.94,78.22,54.29,90.61A1.78,1.78,0,0,1,52.2,92l-26.67-5.7a1.78,1.78,0,0,1-1.34-2.13l2.64-12.4a1.78,1.78,0,0,1,2.1-1.4L55.6,76.08A1.78,1.78,0,0,1,56.94,78.22Z"/></clipPath><clipPath id="clip-path-2"><rect class="cls-1" x="30.24" y="67.53" width="8.13" height="16.27" transform="translate(-46.9 93.2) rotate(-77.79)"/></clipPath><clipPath id="clip-path-3"><path class="cls-1" d="M27.22,70l-.86,4,15.9,3.44-.86,4h0Zm15.9,3.44-7.95-1.72-1.72,8-8-1.72h0Z"/></clipPath></defs><g class="cls-2"><g id="Layer_1" data-name="Layer 1"><path class="cls-3" d="M182.44,78.58l-6.76,1.15c-6.1,1-8.32.17-11-3.45-3.34-4.49-2.51-16.3-2.51-16.3"/><rect class="cls-4" x="161.99" y="125.87" width="90.65" height="4.87" rx="2.43" transform="translate(414.63 256.6) rotate(180)"/><polygon class="cls-5" points="173.26 66.86 173.26 74.36 183.81 74.36 184.27 66.86 173.26 66.86"/><path class="cls-6" d="M171.57,64.71h12.71a0,0,0,0,1,0,0v2.15a0,0,0,0,1,0,0h-11a1.75,1.75,0,0,1-1.75-1.75v-.4A0,0,0,0,1,171.57,64.71Z"/><circle class="cls-7" cx="176.04" cy="73.72" r="4.18"/><path class="cls-8" d="M225,122.86h-6.14v-17.6a27.46,27.46,0,0,1,.8-6.59,3.08,3.08,0,0,1,4.1-2.13h0a3.06,3.06,0,0,1,1.88,3.55,20.92,20.92,0,0,0-.64,5.17Z"/><path class="cls-5" d="M218.87,122.86v.06h-2.42a3.45,3.45,0,0,0-3.45,3.46v2.49h12v-6Z"/><path class="cls-8" d="M199.4,122.86h-6.14v-17.6a27,27,0,0,1,.81-6.59,3.08,3.08,0,0,1,4.1-2.13h0a3,3,0,0,1,1.87,3.55,21.41,21.41,0,0,0-.64,5.17Z"/><path class="cls-5" d="M193.27,122.86v.06h-2.42a3.46,3.46,0,0,0-3.46,3.46v2.49h12v-6Z"/><path class="cls-8" d="M251,81.47v-2l-16.92,2-44.21.09-21,0v-7.7a1.77,1.77,0,0,1,2.27-1.68,7.8,7.8,0,0,0,9.67-5.75,1.46,1.46,0,0,0-1.41-1.79h-8.05a2.5,2.5,0,0,1-2.5-2.5V61.7a41.77,41.77,0,0,1,.65-7.38c.19-1.06.42-2.1.69-3.13a28,28,0,0,1,1.26-3.43c0-.11.08-.22.13-.34.36-1,.77-1.88,1.2-2.79a36.47,36.47,0,0,1,2.16-4c.53-.85,1.09-1.7,1.69-2.53l.45-.6a41.11,41.11,0,0,1,40.84-15.64c.74.15,1.48.31,2.21.5,1.08.28,2.15.6,3.19,1A40.48,40.48,0,0,1,234.15,29l0,0,.57.43a41.17,41.17,0,0,1,7.86,7.89c.76,1,1.48,2,2.14,3.13.12.18.23.36.34.54.66,1.11,1.28,2.25,1.83,3.42a4.34,4.34,0,0,1,.25.54c.07.16.16.32.23.48.31.7.59,1.4.86,2.12a40,40,0,0,1,1.29,4c.27,1,.5,2.07.69,3.13a39.77,39.77,0,0,1,.68,7.37Z"/><path class="cls-9" d="M251,102.41c0,2.78-2.45,4.72-5.22,4.73l-11.75,0-43,.09-17.39,0a4.6,4.6,0,0,1-4.83-4.71l0-22.93h0l21,0,44.22-.09,16.92,0h0Z"/><rect class="cls-4" x="195.16" y="105.33" width="2.35" height="6.14" transform="translate(87.93 304.74) rotate(-90)"/><rect class="cls-4" x="220.76" y="105.33" width="2.35" height="6.14" transform="translate(113.53 330.34) rotate(-90)"/><rect class="cls-5" x="177.47" y="51.46" width="3.51" height="6.23" rx="1.75" transform="translate(-0.11 0.35) rotate(-0.11)"/><path class="cls-10" d="M168.86,92.86H251a0,0,0,0,1,0,0v10.93a3.5,3.5,0,0,1-3.5,3.5H172.36a3.5,3.5,0,0,1-3.5-3.5V92.86A0,0,0,0,1,168.86,92.86Z"/><path class="cls-10" d="M216.51,105.76h11.58a0,0,0,0,1,0,0v2.73a3.64,3.64,0,0,1-3.64,3.64h-4.31a3.64,3.64,0,0,1-3.64-3.64v-2.73A0,0,0,0,1,216.51,105.76Z"/><path class="cls-10" d="M190.56,105.76h11.58a0,0,0,0,1,0,0v2.73a3.64,3.64,0,0,1-3.64,3.64H194.2a3.64,3.64,0,0,1-3.64-3.64v-2.73A0,0,0,0,1,190.56,105.76Z"/><path class="cls-11" d="M187.37,29.9a1,1,0,0,1-.54-1.73l0,0a41.14,41.14,0,0,1,31-6.28c.74.15,1.48.31,2.21.5,1.08.28,2.15.6,3.19,1A40.77,40.77,0,0,1,234.15,29l0,0,.57.43a41.17,41.17,0,0,1,7.86,7.89c.76,1,1.48,2,2.14,3.13.12.18.23.36.34.54.66,1.11,1.28,2.25,1.83,3.42a4.34,4.34,0,0,1,.25.54c.07.16.16.32.23.48.31.7.59,1.4.86,2.12a40,40,0,0,1,1.29,4c.26,1,.48,2,.67,3H209.85a7.94,7.94,0,0,1-7.94-7.94h0a7.93,7.93,0,0,1,7.94-7.94h2.28a4.4,4.4,0,0,0,4.4-4.4h0a4.4,4.4,0,0,0-4.4-4.4Z"/><path class="cls-12" d="M168.83,73.93a1.77,1.77,0,0,1,2.27-1.68,7.8,7.8,0,0,0,9.67-5.75,1.46,1.46,0,0,0-1.41-1.79h-8.05a2.5,2.5,0,0,1-2.5-2.5V61.7c0-.38,0-.75,0-1.12h15.46a5,5,0,0,1,4.89,4L189.9,68a5,5,0,0,1-1.35,4.56l-4.13,4.13a5,5,0,0,1-3.53,1.46h-12Z"/><path class="cls-3" d="M215,86.21l-3.35,5.41a16.64,16.64,0,0,1-14.15,7.88H184.66"/><path class="cls-13" d="M107.32,81.19a4.87,4.87,0,0,0,4.87,4.86,25.24,25.24,0,0,0,3.41-.25c9.75-1.34,24.77-8.51,28.57-29.18a4.88,4.88,0,1,0-9.61-1.76c-1.62,8.81-5.8,15.07-12.42,18.6a25.21,25.21,0,0,1-6.54,2.36,21.14,21.14,0,0,1-3.41.46h0A4.89,4.89,0,0,0,107.32,81.19Z"/><path class="cls-13" d="M36,86a4.89,4.89,0,0,0,0-9.77c-.82,0-18.56-.51-22.39-21.41A4.88,4.88,0,1,0,4,56.62C8.26,79.89,26.77,86,36,86Z"/><path class="cls-4" d="M30.44,116.18h60.2a0,0,0,0,1,0,0v5.49a0,0,0,0,1,0,0H30.44a1.73,1.73,0,0,1-1.73-1.73v-2a1.73,1.73,0,0,1,1.73-1.73Z"/><path class="cls-5" d="M32.19,31h0a2.26,2.26,0,0,0,2.1-1.41,40.7,40.7,0,0,1,75.45-.09,3.91,3.91,0,0,0,3.64,2.42h0a4,4,0,0,1,4,4V52.3a3.61,3.61,0,0,1-3.62,3.61h-2.54a40.69,40.69,0,0,1-78.31,0h0a3,3,0,0,1-3-3V33.28A2.28,2.28,0,0,1,32.19,31Z"/><rect class="cls-14" x="56.18" y="99" width="5.74" height="22.67"/><rect class="cls-14" x="84.92" y="99" width="5.74" height="22.67"/><path class="cls-15" d="M56.18,116.18h7.71a3.46,3.46,0,0,1,3.46,3.46v2a0,0,0,0,1,0,0H56.18a0,0,0,0,1,0,0v-5.5A0,0,0,0,1,56.18,116.18Z"/><path class="cls-15" d="M84.92,116.18h7.71a3.46,3.46,0,0,1,3.46,3.46v2a0,0,0,0,1,0,0H84.92a0,0,0,0,1,0,0v-5.5A0,0,0,0,1,84.92,116.18Z"/><path class="cls-13" d="M112.19,55.05v17H31.88v-17c0-.79,0-1.56.07-2.34a41.23,41.23,0,0,1,.57-4.87q.28-1.56.69-3.06a38.28,38.28,0,0,1,1.23-3.89c.4-1,.83-2.06,1.31-3.06a37.46,37.46,0,0,1,2.12-3.89c.52-.84,1.07-1.66,1.66-2.46.14-.21.29-.4.44-.6.4-.53.82-1.06,1.25-1.57.14-.17.28-.34.44-.5a39.31,39.31,0,0,1,7.94-7.06c1-.7,2.12-1.36,3.22-2a40.19,40.19,0,0,1,14.64-4.63A40.68,40.68,0,0,1,72,14.89a41.15,41.15,0,0,1,6.89.59A39.49,39.49,0,0,1,85.2,17.1a36.53,36.53,0,0,1,3.5,1.41,40.25,40.25,0,0,1,7.18,4.22l.56.42a40.29,40.29,0,0,1,4,3.5,38.8,38.8,0,0,1,3.34,3.8c.12.14.23.29.34.43.74,1,1.44,2,2.09,3.06l.32.53q1,1.64,1.8,3.36l.24.52c.38.83.74,1.68,1.06,2.54a36.68,36.68,0,0,1,1.24,3.89c.27,1,.5,2,.68,3.06A39.87,39.87,0,0,1,112.19,55.05Z"/><rect class="cls-16" x="56.18" y="99.1" width="5.74" height="2.25"/><rect class="cls-16" x="84.92" y="99.1" width="5.74" height="2.25"/><path class="cls-5" d="M31.15,31h6.19l-.55-4.42L49.52,17l16.84-6.83,24.85,4.68,7.08,8.41h7.33V31H55.77a3.26,3.26,0,0,0-3.26,3.26v18.2a3.26,3.26,0,0,1-3.26,3.26H31.15a4.44,4.44,0,0,1-4.44-4.44V35.46A4.44,4.44,0,0,1,31.15,31Z"/><path class="cls-16" d="M112.19,76.28v9.77a25.24,25.24,0,0,0,3.41-.25v-10A21.14,21.14,0,0,1,112.19,76.28Z"/><rect class="cls-5" x="92.22" y="42" width="3.26" height="5.79" rx="1.02"/><rect class="cls-5" x="74.37" y="42" width="3.26" height="5.79" rx="1.02" transform="translate(151.99 89.78) rotate(-180)"/><path class="cls-17" d="M97.05,49.43a12,12,0,0,0-6.29,0"/><path class="cls-17" d="M79.14,49.43a12,12,0,0,0-6.29,0"/><path class="cls-18" d="M80.69,55.74a13.27,13.27,0,0,0,9.76,0"/><path class="cls-19" d="M37.69,82.56s-19.9-2.14-24.88-16.33"/><path class="cls-19" d="M107.32,81.19s17.6,3.47,28.45-15"/><path class="cls-20" d="M31.88,72H112.2a0,0,0,0,1,0,0V94.8a4.3,4.3,0,0,1-4.3,4.3H36.38a4.5,4.5,0,0,1-4.5-4.5V72a0,0,0,0,1,0,0Z"/><circle class="cls-21" cx="65.56" cy="55.78" r="0.98"/><circle class="cls-21" cx="104.55" cy="58.08" r="0.98"/><circle class="cls-21" cx="99.29" cy="55.8" r="0.98"/><circle class="cls-21" cx="69.8" cy="53.65" r="0.98"/><circle class="cls-21" cx="70.78" cy="58.19" r="0.98"/><circle class="cls-21" cx="105.52" cy="53.65" r="0.98"/><polygon class="cls-22" points="31.92 72.04 80.77 80.47 94 71.89 102.12 80.47 112.31 72.04 31.92 72.04"/><path class="cls-23" d="M11.71,76.78s.71-4.12.18-6.26a35.24,35.24,0,0,1-1.08-6.81c0-1.61,3.43-11.2,4-8.6,2,8.53,11.5,21.12,60.31,21.12S134.6,55.78,134.6,55.78s2.6,1.57,2.51,8.42c0,1.6-1.61,13.42-1.79,15.39"/><circle class="cls-13" cx="14.2" cy="58.2" r="2.34"/><circle class="cls-13" cx="133.92" cy="57.91" r="2.34"/><rect class="cls-24" x="67.14" y="72.87" width="16.86" height="24.36" rx="1.87" transform="translate(-10.1 159.93) rotate(-89.53)"/><path d="M87.81,78.59l-.06,6.56L63.39,85l.06-6.55a1.87,1.87,0,0,1,1.89-1.86L86,76.71A1.87,1.87,0,0,1,87.81,78.59Z"/><circle class="cls-25" cx="75.57" cy="85.05" r="3.94"/><rect class="cls-26" x="95.43" y="72.68" width="24.03" height="16.64" rx="1.85" transform="translate(-16.69 29.08) rotate(-14.31)"/><rect class="cls-27" x="95.43" y="76.01" width="24.03" height="9.98" transform="translate(-16.69 29.08) rotate(-14.31)"/><rect x="94.33" y="76.15" width="24.03" height="1.11" transform="translate(-15.66 28.67) rotate(-14.31)"/><rect x="96.52" y="84.75" width="24.03" height="1.11" transform="translate(-17.72 29.48) rotate(-14.31)"/><path class="cls-6" d="M111.44,83.16l-1.41-.7.08-1.64a3.48,3.48,0,0,0-.24-1.51c-.82-1.38-2.94-1.36-2.94-1.36l0,1.17-.53-1s-1.87,1-1.93,2.6a3.46,3.46,0,0,0,.52,1.44l.86,1.4L105,84.81l1.8-1.21-.63-2.46a.51.51,0,0,1,0-.3l0-.09a1.51,1.51,0,0,1,.64-.66h0a1.53,1.53,0,0,1,.66-.16h0a1.47,1.47,0,0,1,.88.26l.08.06a.44.44,0,0,1,.17.25l.63,2.46Z"/><polygon class="cls-6" points="107.2 80.06 107.7 80.84 108.59 80.62 108 81.33 108.5 82.11 107.64 81.77 107.05 82.47 107.11 81.55 106.25 81.21 107.14 80.98 107.2 80.06"/><g class="cls-28"><rect class="cls-29" x="33.27" y="65.09" width="16.27" height="32.54" transform="translate(-46.87 104.62) rotate(-77.79)"/><g class="cls-30"><path class="cls-31" d="M27.22,70,41.4,81.36m1.72-8L25.5,77.92"/></g><g class="cls-32"><path class="cls-33" d="M27.22,70,41.4,81.36m1.72-8L25.5,77.92"/></g><path class="cls-34" d="M35.17,71.69l-1.72,8M26.36,74l15.9,3.44"/><path class="cls-35" d="M35.17,71.69l-1.72,8M26.36,74l15.9,3.44"/><g id="Comwlth"><g id="Cstar"><path id="Star7" class="cls-6" d="M33.11,81.23l.15,1.53,1.52-.23-1.1,1.07,1.12,1.05-1.52-.19L33.16,86l-.8-1.31-1.27.86.53-1.44-1.47-.46,1.46-.48-.56-1.43,1.29.83Z"/></g></g><g id="αCrucis"><path id="Star7-2" data-name="Star7" class="cls-6" d="M48.45,87.25l.07.72.73-.1-.53.51.54.49-.73-.09-.05.73-.38-.62-.61.41.25-.69-.7-.22.7-.23-.27-.68.62.4Z"/></g><g id="βCrucis"><path id="Star7-3" data-name="Star7" class="cls-6" d="M45.84,80.09l.07.73.72-.11-.52.51.54.5-.73-.09-.06.73-.38-.63-.6.41.25-.68-.7-.22.69-.23-.26-.68.61.4Z"/></g><g id="γCrucis"><path id="Star7-4" data-name="Star7" class="cls-6" d="M50.75,76.65l.07.72.72-.1-.52.51.53.49-.72-.09-.06.73-.38-.62-.6.41L50,78l-.7-.22.69-.23-.27-.68.62.4Z"/></g><g id="δCrucis"><path id="Star7-5" data-name="Star7" class="cls-6" d="M53.58,80.66l.07.72.72-.1-.52.51.53.49-.72-.09-.06.73-.38-.62-.6.41.25-.69-.7-.21.69-.24-.26-.68.61.4Z"/></g><g id="εCrucis"><path id="Star5" class="cls-6" d="M50.94,83.43l.08.46.45.13-.41.22v.47l-.33-.33-.45.16.21-.42-.29-.37.47.06Z"/></g></g></g></g></svg>