<svg xmlns="http://www.w3.org/2000/svg" width="186" height="117" viewBox="0 0 186 117"><defs><style>.cls-1{isolation:isolate;}.cls-2,.cls-4{fill:#3b1a2f;}.cls-3,.cls-8{fill:#f25e5a;}.cls-3,.cls-7{opacity:0.3;}.cls-17,.cls-3,.cls-7,.cls-9{mix-blend-mode:multiply;}.cls-17,.cls-4{opacity:0.1;}.cls-5{fill:#9b6741;}.cls-6{fill:#d46340;}.cls-17,.cls-9{fill:#020202;}.cls-9{opacity:0.2;}.cls-10{fill:#fadfbf;}.cls-11{fill:#e6e6e6;}.cls-12{fill:#fff;}.cls-13{fill:#7d6ab7;}.cls-14,.cls-15{fill:none;stroke:#3b1a2f;stroke-miterlimit:10;stroke-width:1.08px;}.cls-15{stroke-linecap:round;}.cls-16{fill:#f2f2f2;}.cls-18{fill:#7b5693;}</style></defs><g class="cls-1"><g id="Layer_1" data-name="Layer 1"><path class="cls-2" d="M173.71,54.7l-.32,1.15a.06.06,0,0,1,0,0,.41.41,0,0,1,0,.08l-1.53,5.49-6.09,21.78L165,85.79,163.4,91.6a5.06,5.06,0,0,1-4.11,3.63,4.89,4.89,0,0,1-2.11-.13l-14.44-4-2.19-.62-3.17-.88-2.3-.65-.21,0-10.77-3-12.3-3.44-7-2L89.6,76.21a4.91,4.91,0,0,1-1.11-.46l-.21-.13-.37-.25-.25-.2a5.21,5.21,0,0,1-.68-.73,2,2,0,0,1-.17-.23,3.73,3.73,0,0,1-.25-.39,2.12,2.12,0,0,0-.11-.21,5.24,5.24,0,0,1-.4-1.11c0-.11,0-.22-.07-.32s0-.26,0-.39A5,5,0,0,1,86.1,70l1.16-4.15L89.18,59l5.17-18.48,1.73-6.2.33-1.19h0l1,.29,2.35.65,1.27.36.23.06,6.39,1.79L117,38.85l2,.56L167.77,53l2.09.59,1.7.47,2.13.6Z"/><path class="cls-3" d="M165.75,83.24l-2,6.89c-.48,0-1-.11-1.45-.19L157,89.07a3.49,3.49,0,0,1-2.13-1.22l.89-5.24a3.45,3.45,0,0,1,2.37-.46l5.33.87A17.59,17.59,0,0,0,165.75,83.24Z"/><path class="cls-4" d="M77.37,108.25h58.76a0,0,0,0,1,0,0v5.43a0,0,0,0,1,0,0H77.37a2.49,2.49,0,0,1-2.49-2.49v-.45a2.49,2.49,0,0,1,2.49-2.49Z"/><path class="cls-5" d="M141.14,86.77a2.89,2.89,0,0,1-.08.65,19.56,19.56,0,0,0-.51,3c-.05.56-.07,1.12-.07,1.68v10.69h-5.61V92.13a24.93,24.93,0,0,1,.74-6,2.68,2.68,0,0,1,.41-.91,2.86,2.86,0,0,1,1.36-1,2.76,2.76,0,0,1,2,0,2.82,2.82,0,0,1,1,.64A2.76,2.76,0,0,1,141.14,86.77Z"/><path class="cls-2" d="M140.47,102.82v5.43h2.21a3.15,3.15,0,0,1,3.15,3.15v2.28h-11V102.82Z"/><rect class="cls-3" x="134.87" y="83.99" width="2.51" height="29.68"/><path class="cls-5" d="M112.68,86.77a2.36,2.36,0,0,1-.08.65c-.07.3-.14.59-.2.89A18.47,18.47,0,0,0,112,92.1v10.72h-5.59V92.13a25.16,25.16,0,0,1,.57-5.34c.05-.22.1-.44.16-.67a2.81,2.81,0,0,1,5.53.65Z"/><path class="cls-2" d="M112,102.82v5.43h2.21a3.15,3.15,0,0,1,3.15,3.15v2.28h-11V102.82Z"/><rect class="cls-3" x="106.42" y="83.99" width="2.51" height="29.68"/><path class="cls-2" d="M173.74,54.5c0,.06,0,.13-.05.2-.09.38-.19.76-.3,1.15a.06.06,0,0,1,0,0,.41.41,0,0,1,0,.08,41.36,41.36,0,0,1-2.06,5.69,39.32,39.32,0,0,1-4.88,8.07A40,40,0,0,1,160.3,76l-.23.18a38.82,38.82,0,0,1-3.62,2.63,40.24,40.24,0,0,1-14.1,5.66c-.67.14-1.34.25-2,.34-1,.14-2,.25-3,.31l-1.36.07-1.15,0A40.48,40.48,0,0,1,124,83.75l-.07,0a40.09,40.09,0,0,1-27.1-25.44h0c-.36-1-.68-2.09-1-3.15s-.52-2.16-.71-3.27c0-.09,0-.17,0-.25h0a42.84,42.84,0,0,1-.48-4.54c0-.62,0-1.24,0-1.85a42.79,42.79,0,0,1,.23-4.37c.09-.84.21-1.67.35-2.51a41.22,41.22,0,0,1,.91-4c.12-.4.23-.8.35-1.18s.18-.56.27-.83l.15-.45.29-.8c.1-.26.2-.52.31-.79s.2-.52.31-.78l.33-.77c.12-.25.23-.51.35-.76s.23-.47.34-.7.26-.53.41-.79.25-.49.39-.73a39.53,39.53,0,0,1,7.57-9.78,40.32,40.32,0,0,1,4.31-3.54l.63-.44.65-.43.64-.41q1.32-.84,2.7-1.56c.44-.23.89-.46,1.34-.67s1-.48,1.55-.7,1.33-.55,2-.79l.73-.26.73-.24.74-.24c.49-.15,1-.29,1.49-.41l1.51-.37.76-.15a37.59,37.59,0,0,1,3.85-.58l.78-.07C132.7,5,133.86,4.94,135,5a39.92,39.92,0,0,1,10.51,1.49c.33.09.67.18,1,.29l.62.19.69.23,1.1.4c1.14.43,2.25.9,3.33,1.43l.87.44c.36.18.73.37,1.08.57A40.15,40.15,0,0,1,173.74,54.5Z"/><path class="cls-3" d="M99.33,49.11l-1.55,5.55a4,4,0,0,1-3,.32l-2.21-.61,2.15-7.7,2.21.62A4,4,0,0,1,99.33,49.11Z"/><path class="cls-5" d="M101.84,38.17a4.68,4.68,0,0,1-3.76,3.35,4.5,4.5,0,0,1-1.75-.06,1.14,1.14,0,0,1-.25-.06,4.48,4.48,0,0,1-1.26-.56,4.25,4.25,0,0,1-.43-.31l0,0a4.63,4.63,0,0,1-1.51-4.84,4.35,4.35,0,0,1,.28-.74,3.59,3.59,0,0,1,.17-.34c.06-.11.13-.21.19-.31s.17-.23.27-.34a2.85,2.85,0,0,1,.23-.26l.21-.21a4.4,4.4,0,0,1,1.41-.88,1,1,0,0,1,.21-.08l.24-.07a1,1,0,0,1,.23-.06,2.27,2.27,0,0,1,.25-.06h.17a4.58,4.58,0,0,1,1.43,0,3.41,3.41,0,0,1,.46.1,4.72,4.72,0,0,1,1.63.82,5.25,5.25,0,0,1,1,1l.14.22A4.66,4.66,0,0,1,101.84,38.17Z"/><path class="cls-5" d="M174.42,58.45a4.67,4.67,0,0,1-3.92,3.38,4.75,4.75,0,0,1-1.83-.14,4.67,4.67,0,1,1,2.51-9l.4.13A4.67,4.67,0,0,1,174.42,58.45Z"/><path class="cls-3" d="M101.84,38.16a4.67,4.67,0,0,1-5.76,3.24,4.53,4.53,0,0,1-1.69-.87,38.49,38.49,0,0,1,2-5.14c.44-.91.91-1.79,1.42-2.65l.27-.44.47.1A4.68,4.68,0,0,1,101.84,38.16Z"/><path class="cls-3" d="M170.5,61.83a4.75,4.75,0,0,1-1.83-.14,4.67,4.67,0,1,1,2.51-9l.4.13v.52c0,1-.07,2-.17,3A38.91,38.91,0,0,1,170.5,61.83Z"/><path class="cls-5" d="M168.53,62.18l-4.19,15L93.62,57.39l4.19-15a36.74,36.74,0,0,1,2.34-6.19q.63-1.29,1.35-2.52a35.72,35.72,0,0,1,2-3.12c.6-.82,1.24-1.61,1.9-2.38a36.91,36.91,0,0,1,2.83-2.9c.66-.61,1.35-1.2,2.06-1.76l.54-.42c.49-.37,1-.73,1.49-1.07a36.61,36.61,0,0,1,9.24-4.6A36.62,36.62,0,0,1,139,16a37.56,37.56,0,0,1,10,3.11,35.47,35.47,0,0,1,5.12,3c1,.65,1.86,1.35,2.74,2.09a36.53,36.53,0,0,1,5.28,5.49q.19.24.39.51a36.26,36.26,0,0,1,2.65,4.06,34.66,34.66,0,0,1,2,4.17c.07.15.13.31.2.46a32.7,32.7,0,0,1,1.08,3.21c.06.18.11.37.16.55a32.52,32.52,0,0,1,.75,3.39,4.71,4.71,0,0,1,.09.52c.13.83.24,1.66.31,2.5.11,1.23.15,2.48.14,3.73,0,.95-.07,1.9-.16,2.86A37.37,37.37,0,0,1,168.53,62.18Z"/><path class="cls-6" d="M164.35,77.15l-1.61,5.75-1.9,6.8-1.55,5.53-.47,1.67a4.44,4.44,0,0,1-5.64,2.81l-12.7-3.55-2.63-.74-.47-.13-2.51-.7-1.61-.45-6.37-1.78-14.49-4-3.48-1L107,86.79l-.57-.15-3.13-.88-12.17-3.4A4.51,4.51,0,0,1,89,81.11a2.62,2.62,0,0,1-.22-.25h0a5.63,5.63,0,0,1-.36-.54,2.1,2.1,0,0,1-.15-.3c0-.11-.09-.22-.13-.32a.19.19,0,0,0,0-.07,1.8,1.8,0,0,0-.05-.19.35.35,0,0,1,0-.11l0-.17a.15.15,0,0,1,0-.09A.5.5,0,0,1,88,79l0-.23v0a4.5,4.5,0,0,1,.17-1.53l.38-1.39,2.35-8.4,1.9-6.79.28-1v0l.6-2.13,3.2.89h0L110.19,62h0l6.79,1.9,1.46.41.58.16h0l17,4.74.64.18L142.44,71l13.19,3.69L160,76l.27.07,4,1.13Z"/><circle class="cls-6" cx="126.67" cy="71.29" r="10.18"/><circle class="cls-6" cx="150.03" cy="77.81" r="10.18"/><path class="cls-2" d="M169.5,30s-16.08,13.39-44.21,5.53S93,59.55,93,59.55s.15-11.09.25-11.44,10.46-22.53,10.84-22.8,18-16.2,18-16.2,14.18-3.5,18.34-2.62,13.31,5.54,14.89,7S169.5,30,169.5,30Z"/><path class="cls-3" d="M154.21,10l-1.23.49-1.5.61a69.31,69.31,0,0,0-10.29,5.38A68.53,68.53,0,0,0,122,34.77q-1.61,2.25-3,4.64c-.4.69-.8,1.38-1.18,2.08a68.61,68.61,0,0,0-5.63,13.67l-2,6.86h0l-3.44,11.84-1.93,6.6-1.53,5.3-12.17-3.4A4.51,4.51,0,0,1,89,81.11a2.62,2.62,0,0,1-.22-.25h0a5.63,5.63,0,0,1-.36-.54,2.1,2.1,0,0,1-.15-.3,4.21,4.21,0,0,1-.17-2.88l.39-1.39-.21-.13-.37-.25-.25-.2a5.21,5.21,0,0,1-.68-.73,2,2,0,0,1-.17-.23,3.73,3.73,0,0,1-.25-.39,2.12,2.12,0,0,0-.11-.21,5.24,5.24,0,0,1-.4-1.11c0-.11,0-.22-.07-.32s0-.26,0-.39A5,5,0,0,1,86.1,70l1.16-4.15L89.18,59l5.17-18.48a4.75,4.75,0,0,1-1.51-2.31,4.63,4.63,0,0,1,0-2.53,3.67,3.67,0,0,1,.29-.74,3.59,3.59,0,0,1,.17-.34c.06-.11.13-.21.19-.31s.17-.23.27-.34a2.85,2.85,0,0,1,.23-.26l.21-.21a4.4,4.4,0,0,1,1.41-.88,1,1,0,0,1,.21-.08l.24-.07a1,1,0,0,1,.23-.06,2.27,2.27,0,0,1,.25-.06h.07l.1,0,.15-.44.29-.8c.1-.26.2-.52.31-.79s.2-.52.31-.78l.33-.77c.12-.25.23-.51.35-.76s.23-.47.34-.7.26-.53.41-.79.25-.49.39-.73a39.53,39.53,0,0,1,7.57-9.78,40.32,40.32,0,0,1,4.31-3.54l.63-.44.65-.43.64-.41q1.32-.84,2.7-1.56c.44-.23.89-.45,1.34-.67s1-.48,1.55-.7,1.33-.54,2-.79l.73-.26.73-.24.74-.24c.49-.15,1-.29,1.49-.41l1.51-.37.76-.15a38,38,0,0,1,3.85-.58l.78-.07a40.05,40.05,0,0,1,14,1.37c.33.09.67.18,1,.29l.62.19.69.23,1.1.4c1.14.43,2.25.9,3.33,1.43l.87.44C153.49,9.6,153.86,9.79,154.21,10Z"/><path class="cls-3" d="M97.29,61.14l-.21.78L95.27,68.7l-.11.44a1.3,1.3,0,0,1-1.26,1,1.17,1.17,0,0,1-.32,0,1.3,1.3,0,0,1-.93-1.58l.13-.48,1.77-6.8.19-.73a1.29,1.29,0,0,1,1.53-.94h0A1.31,1.31,0,0,1,97.29,61.14Z"/><path class="cls-5" d="M97.08,61.92,95.27,68.7c-.84-.2-1.67-.44-2.5-.7-.65-.2-1.29-.42-1.93-.65-1.22-.45-2.41-.95-3.58-1.5A44.38,44.38,0,0,1,68,48.28,3.51,3.51,0,0,1,74,44.73,37.28,37.28,0,0,0,89.18,59c1.16.59,2.35,1.12,3.56,1.59.59.23,1.2.44,1.81.64C95.38,61.47,96.22,61.71,97.08,61.92Z"/><g class="cls-7"><path class="cls-8" d="M97.08,61.92,95.27,68.7c-.84-.2-1.67-.44-2.5-.7-.65-.2-1.29-.42-1.93-.65-1.22-.45-2.41-.95-3.58-1.5A44.38,44.38,0,0,1,68,48.28,3.51,3.51,0,0,1,74,44.73,37.28,37.28,0,0,0,89.18,59c1.16.59,2.35,1.12,3.56,1.59.59.23,1.2.44,1.81.64C95.38,61.47,96.22,61.71,97.08,61.92Z"/></g><rect class="cls-2" x="133.81" y="45.29" width="3.13" height="5.57" rx="1.44" transform="translate(252.81 130.82) rotate(-164.38)"/><rect class="cls-2" x="148.25" y="49.33" width="3.13" height="5.57" rx="1.44" transform="translate(280.08 142.63) rotate(-164.38)"/><path class="cls-9" d="M156.45,78.83l-.09.09-9.58,8.54-4,3.61-2.26,2-2.63,2.34-.24.21a1.13,1.13,0,0,1-.23.17,2.23,2.23,0,0,1-2.51,0V94.59l-1.61-.45-.36-.4,0,0L130.46,91a24.24,24.24,0,0,1-2.81,1.13l-.76.24-14.49-4A18.47,18.47,0,0,0,112,92.1l-.68-.25h0l-1-.38-1-.45-.46,1.61-1.17,4.16a3.85,3.85,0,0,1-1.33,2V86.64l-3.13-.88-12.17-3.4A4.51,4.51,0,0,1,89,81.11a2.62,2.62,0,0,1-.22-.25h0a5.63,5.63,0,0,1-.36-.54,2.1,2.1,0,0,1-.15-.3c0-.11-.09-.22-.13-.32a.19.19,0,0,0,0-.07,1.8,1.8,0,0,0-.05-.19l0-.11a.47.47,0,0,1,0-.17.15.15,0,0,1,0-.09,2.51,2.51,0,0,1,0-.27.19.19,0,0,1,0-.08v0c0-.11,0-.21,0-.32a4.48,4.48,0,0,1,.18-1.24l.39-1.39-.21-.13-.37-.25-.25-.2a5.21,5.21,0,0,1-.68-.73,2,2,0,0,1-.17-.23,3.73,3.73,0,0,1-.25-.39,2.12,2.12,0,0,0-.11-.21,5.24,5.24,0,0,1-.4-1.11c0-.11,0-.22-.07-.32s0-.26,0-.39A5,5,0,0,1,86.1,70l1.16-4.15A44.38,44.38,0,0,1,68,48.28,3.51,3.51,0,0,1,74,44.73,37.28,37.28,0,0,0,89.18,59l5.17-18.48a4.75,4.75,0,0,1-1.51-2.31,4.63,4.63,0,0,1,0-2.53,3.67,3.67,0,0,1,.29-.74,3.59,3.59,0,0,1,.17-.34c.06-.11.13-.21.19-.31s.17-.23.27-.34a2.85,2.85,0,0,1,.23-.26l.21-.21a4.4,4.4,0,0,1,1.41-.88,1,1,0,0,1,.21-.08l.24-.07a1,1,0,0,1,.23-.06,2.27,2.27,0,0,1,.25-.06h.07l.1,0,.15-.44.29-.8c.1-.26.2-.52.31-.79s.2-.52.31-.78l.33-.77c.12-.25.23-.51.35-.76s.23-.47.34-.7.26-.53.41-.79.25-.49.39-.73a39.53,39.53,0,0,1,7.57-9.78,1.36,1.36,0,0,1-.08.68l-.55,1.46A6.06,6.06,0,0,0,108,24.55c.12.13.26.25.37.38s.12.11.17.17l0,0c.25.24.48.5.71.75a2.05,2.05,0,0,1,.25.27c.24.26.47.53.7.8a1.63,1.63,0,0,1,.17.2c.29.34.57.68.85,1,0,0,0,0,0,0,.13.17.26.35.39.51a39,39,0,0,1,2.71,4.16c.17.31.34.62.5.93.08.14.15.29.22.44a.59.59,0,0,0,0,.08c.14.27.28.54.41.82a1,1,0,0,0,.07.15c.17.36.34.73.49,1.1a.08.08,0,0,0,0,0q.26.59.48,1.17c.16.4.31.81.45,1.22.24.68.45,1.36.64,2.06a1.18,1.18,0,0,1,.07.2c0,.12.07.24.1.35v0a31.37,31.37,0,0,1,.76,3.43c0,.19.07.37.09.54s0,.32.07.48c.1.69.18,1.38.23,2.07a37,37,0,0,1,.15,3.81c0,1-.08,1.94-.17,2.92q-.12,1.14-.3,2.28a1.43,1.43,0,0,1,.62,1.48,1.45,1.45,0,0,1-.24,1.11,6.44,6.44,0,0,1-1.18,1.21c0,.19-.09.37-.14.55L117,63.92h0l-3.58,12.72h0l-.59,2.09-1,3.68-.49,1.73,2,.93c.33.13.67.26,1,.37a17.58,17.58,0,0,0,5.54.92h0a17,17,0,0,0,4.28-.51l.7-.19.71-.22L124,83.75l-.39-.43a2.24,2.24,0,0,1-.35-2.44,2.1,2.1,0,0,1,.54-.73L136,69.25h0l.5-.44,6-5.36a2.24,2.24,0,0,1,3.17.18l1.53,1.71,0,0,2.06,2.31,6.3,7.06.91,1A2.26,2.26,0,0,1,156.45,78.83Z"/><path class="cls-10" d="M134,85c-.52.59-1.06,1.15-1.63,1.68a24.68,24.68,0,0,1-17,6.68,3,3,0,0,1-1-.15,3.51,3.51,0,0,1,1-6.87,17.11,17.11,0,0,0,5-.69,17.73,17.73,0,0,0,6.24-3.28h0a17.67,17.67,0,0,0,2.07-2A3.51,3.51,0,0,1,134,85Z"/><path class="cls-10" d="M118.92,89.9a3.51,3.51,0,0,1-3.53,3.48,24,24,0,0,1-7-1c-.49-.14-1-.31-1.46-.49h0l-1-.38c-.45-.19-.88-.39-1.32-.6l-4.85-2.38a3.46,3.46,0,0,1-1.42-1.28,4,4,0,0,1-.27-.5,3.55,3.55,0,0,1,.09-2.92A3.48,3.48,0,0,1,100.52,82a3.42,3.42,0,0,1,2.4.25l1.33.65h0l3.49,1.71c.36.18.74.34,1.11.5s.67.26,1,.37a17.52,17.52,0,0,0,5.53.92A3.53,3.53,0,0,1,118.92,89.9Z"/><path class="cls-3" d="M108.88,85.07,107,91.85l-1-.38c-.45-.19-.88-.39-1.32-.6l-4.85-2.38a3.46,3.46,0,0,1-1.42-1.28l.87-4.59a2.89,2.89,0,0,1,2.4-.45l2.57.68h0Z"/><rect class="cls-11" x="127.27" y="65.59" width="18.42" height="29.61" rx="3.46" transform="translate(105.69 -74.98) rotate(48.29)"/><rect class="cls-12" x="125.72" y="63.86" width="18.42" height="29.61" rx="3.46" transform="translate(103.88 -74.4) rotate(48.29)"/><rect class="cls-11" x="129.54" y="67.46" width="13" height="20.64" rx="3.27" transform="translate(103.59 -75.53) rotate(48.29)"/><circle class="cls-11" cx="126.34" cy="86.54" r="1.18"/><path class="cls-4" d="M22,108.17H80.74a0,0,0,0,1,0,0v5.43a0,0,0,0,1,0,0H22a2.49,2.49,0,0,1-2.49-2.49v-.45A2.49,2.49,0,0,1,22,108.17Z"/><path class="cls-10" d="M85.09,102.74H79.48V92.06a24.87,24.87,0,0,1,.74-6A2.8,2.8,0,0,1,84,84.11h0a2.78,2.78,0,0,1,1.71,3.24,19,19,0,0,0-.58,4.71Z"/><path class="cls-13" d="M85.08,102.74v5.43h2.21a3.15,3.15,0,0,1,3.15,3.15v2.28h-11V102.74Z"/><rect class="cls-3" x="79.48" y="83.92" width="2.51" height="29.68"/><path class="cls-10" d="M53.69,102.74h-5.6V81.87c0-8,3.86-5.34,10.35-10L63,68.62l3.27,4.55-4.51,3.24c-5,3.61-8-.72-8,5.46Z"/><path class="cls-13" d="M53.69,102.74v5.43h2.2A3.15,3.15,0,0,1,59,111.32v2.28H48.09V102.74Z"/><rect class="cls-3" x="48.09" y="83.92" width="2.51" height="29.68"/><path class="cls-13" d="M109.05,76.64l-3.56,12.64-2.11,7.51a4.53,4.53,0,0,1-5.76,2.85L57.8,88.43h0l-7.15-2-6-1.68h0L34.32,81.82a4.18,4.18,0,0,1-3.06-5.33l1.61-5.75.6-2.12,3.46-12.27,16.86,4.74L109,76.64Z"/><path class="cls-10" d="M114.6,48c0-.7-.13-1.38-.23-2.07,0-.16-.05-.32-.08-.48s-.05-.35-.08-.53c-.2-1.17-.46-2.33-.76-3.47,0-.12-.07-.24-.11-.35a.66.66,0,0,0-.06-.2,31.56,31.56,0,0,0-1.1-3.28c-.15-.39-.3-.78-.47-1.17a.08.08,0,0,1,0-.05c-.16-.36-.7-.55-.88-.92,0,0-37.32-21.55-38-21.46l-.48.07-.66.1a3.4,3.4,0,0,0-.46.07l-1,.17h0l-1.05.22-.12,0L67.87,15l-.21,0-1,.28-1.14.35L64.49,16c-1,.37-2.06.8-3.07,1.27h0a37.54,37.54,0,0,0-3.9,2.11c-.44.27-.88.56-1.31.85l-.26.18c-.46.32-.92.65-1.36,1l-.25.19-.3.24c-.37.28-.72.58-1.07.88l-.06,0-.44.39-.55.48-.14.13-.11.11A37.52,37.52,0,0,0,49,26.6c-.61.69-1.19,1.41-1.75,2.15L47.1,29A36.24,36.24,0,0,0,45,32.19q-.73,1.26-1.38,2.58c-.11.21-.21.43-.31.64a37.51,37.51,0,0,0-2.09,5.67l-.73,2.6L36.92,56.35h0L53.78,61.1l5.94,1.67a36.22,36.22,0,0,1,13.41,7l3.81,3.42a27.64,27.64,0,0,0,32.11,3.47h0l4.3-15.27a37.84,37.84,0,0,0,1.23-6.63c.1-1,.16-2,.17-2.92A34.48,34.48,0,0,0,114.6,48Z"/><path class="cls-2" d="M111.71,36.46a18.09,18.09,0,0,1-10.54,1.25l-2-.56a1.27,1.27,0,0,1-.78-1.85,1.29,1.29,0,0,0-1.28-1.94l-2,.29a1.27,1.27,0,0,1-1.36-1.77l.45-1a1.28,1.28,0,0,0-1.47-1.76l-2.67.64a37.35,37.35,0,0,1-11.68.91,39.39,39.39,0,0,0-15.67,1.86,35.87,35.87,0,0,0-13.06,7.71c-.53.49-1.06,1-1.59,1.54-2.78,2.78-5.33,3.1-7.6,1.91l.73-2.6a37.51,37.51,0,0,1,2.09-5.67c.1-.21.2-.43.31-.64q.65-1.32,1.38-2.58A36.24,36.24,0,0,1,47.1,29l.19-.27c.56-.74,1.14-1.46,1.75-2.15a37.52,37.52,0,0,1,2.63-2.72h0l.11-.11.14-.13.55-.48.44-.39.06,0c.35-.3.7-.6,1.07-.88l.3-.24.25-.19c.44-.34.9-.67,1.36-1l.26-.18.27-.17.78-.52.26-.16h0a37.39,37.39,0,0,1,3.89-2.11h0c1-.46,2-.89,3.07-1.27l1.05-.37,1.14-.35,1-.28.21,0L69,14.69l.12,0,1.05-.22h0l1-.17a3.4,3.4,0,0,1,.46-.07l.66-.1.4,0,.08,0c.73-.08,1.45-.15,2.18-.19h0l4.55-.64,14-1.93a1.42,1.42,0,0,1,1.54,1.84A1.42,1.42,0,0,0,96.48,15l4.82-.27a1.42,1.42,0,0,1,1.4,1.91l-.55,1.47a6.1,6.1,0,0,0,1.44,6.48l.37.38.19.19.71.76.25.27c.24.26.47.53.7.8.06.06.11.13.16.19.3.35.58.69.85,1.05,0,0,0,0,0,0,.14.17.27.34.4.52A37.81,37.81,0,0,1,110,32.9c.18.31.34.62.51.93l.22.44c.15.3.3.6.44.9a1,1,0,0,1,.07.15c.18.36.34.73.5,1.09A.08.08,0,0,0,111.71,36.46Z"/><path class="cls-2" d="M106.39,70.36a3.7,3.7,0,0,1-2.34-2.42l-.69-2.22h0a3.52,3.52,0,0,0-5.48-2.31A3.53,3.53,0,0,0,92,62.55h0L90.26,64.1A3.75,3.75,0,0,1,87,65a.15.15,0,0,0-.14.26l.5.44a11,11,0,0,0,7,2.71h0a3.57,3.57,0,0,0,2.26-.62,3.56,3.56,0,0,0,1.62,1.7h0a11,11,0,0,0,7.43,1.32l.65-.12A.15.15,0,0,0,106.39,70.36Z"/><path class="cls-2" d="M104.89,91.4l-1.51,5.39a4.53,4.53,0,0,1-5.76,2.85L57.8,88.43h0A1.67,1.67,0,0,0,55.68,90v.47A1.66,1.66,0,0,1,54,92.16H47.46A1.66,1.66,0,0,1,45.8,90.5V86.32a1.67,1.67,0,0,0-1.19-1.6h0L34.32,81.82a4.18,4.18,0,0,1-3.06-5.33l1.61-5.75h0L50.6,75.83Z"/><path class="cls-3" d="M79.5,13.2l-.7.59-8.1,6.79a25.64,25.64,0,0,0-8,11.94h0l-9,28.57h0A69.68,69.68,0,0,0,50.6,81.92V92.16H47.46A1.67,1.67,0,0,1,45.8,90.5V86.32a1.67,1.67,0,0,0-1.19-1.6h0L34.32,81.82a4.18,4.18,0,0,1-3.06-5.33l1.61-5.75h0l.6-2.12,3.46-12.27h0l3.57-12.67.73-2.6a37.51,37.51,0,0,1,2.09-5.67c.1-.21.2-.43.31-.64q.65-1.32,1.38-2.58A36.24,36.24,0,0,1,47.1,29l.19-.27c.56-.74,1.14-1.46,1.75-2.15a37.52,37.52,0,0,1,2.63-2.72h0l.11-.11.14-.13.55-.48.44-.39.06,0c.35-.3.7-.6,1.07-.88l.3-.24.25-.19c.44-.34.9-.67,1.36-1l.26-.18c.43-.29.87-.58,1.31-.85a37.54,37.54,0,0,1,3.9-2.11h0c1-.47,2-.9,3.07-1.27l1.05-.37,1.14-.35,1-.28.21,0L69,14.69l.12,0,1.05-.22h0l1-.17a3.4,3.4,0,0,1,.46-.07l.66-.1.4,0h.07c.45-.07,2.2-.2,2.2-.2Z"/><path class="cls-3" d="M40.65,60.57l-2,8a1.29,1.29,0,0,1-1.61.93H37a1.31,1.31,0,0,1-.9-1.57l2.07-8A1.29,1.29,0,0,1,39.72,59h0A1.29,1.29,0,0,1,40.65,60.57Z"/><path class="cls-10" d="M41.89,61.48a3.44,3.44,0,0,0-.79-.32l-.42-.11A44.3,44.3,0,0,0,6.76,65.64a3.51,3.51,0,0,0,3.56,6,37.29,37.29,0,0,1,28.53-3.87l.42.12a3.51,3.51,0,0,0,2.62-6.46Z"/><g class="cls-7"><path class="cls-8" d="M41.89,61.48a3.44,3.44,0,0,0-.79-.32l-.42-.11A44.3,44.3,0,0,0,6.76,65.64a3.51,3.51,0,0,0,3.56,6,37.29,37.29,0,0,1,28.53-3.87l.42.12a3.51,3.51,0,0,0,2.62-6.46Z"/></g><rect class="cls-2" x="87.28" y="46.69" width="6.03" height="3.39" rx="1.69" transform="translate(22.95 125.58) rotate(-77.08)"/><rect class="cls-2" x="105.72" y="52.17" width="6.03" height="3.39" rx="1.69" transform="translate(31.92 147.8) rotate(-77.08)"/><path class="cls-14" d="M94,53.23l.9,0c5.45.38,6.88,1.72,8.69,2.5"/><line class="cls-15" x1="84.36" y1="49.24" x2="47.59" y2="39.5"/><circle class="cls-10" cx="42.71" cy="42.47" r="7.06"/><circle class="cls-3" cx="42.71" cy="42.47" r="7.06"/><path class="cls-3" d="M113,59.61a6.12,6.12,0,0,1-4.13,2.46,5.86,5.86,0,0,1-2.71-.24l-.39-.14A6.11,6.11,0,0,1,102,56c0-.69.68-.71,1.29-.86.25-.06.32-.59.59-.5l2,.64,3.1,1,3.41,1.12A1.44,1.44,0,0,1,113,59.61Z"/><path class="cls-3" d="M93.05,53.57A6.07,6.07,0,0,1,88.92,56a5.87,5.87,0,0,1-2.71-.24l-.38-.14A6.1,6.1,0,0,1,82,50a1.44,1.44,0,0,1,1.88-1.37l2,.64,3.09,1,3.42,1.11A1.43,1.43,0,0,1,93.05,53.57Z"/><path class="cls-12" d="M114.66,59.61a6.12,6.12,0,0,1-4.13,2.46,5.86,5.86,0,0,1-2.71-.24l-.39-.14A6.11,6.11,0,0,1,103.6,56a1.44,1.44,0,0,1,1.88-1.36l2,.64,3.1,1,3.41,1.12A1.44,1.44,0,0,1,114.66,59.61Z"/><path class="cls-16" d="M110.53,55.74v5.79a5.86,5.86,0,0,1-2.71-.24l-.39-.14V54.74Z"/><path class="cls-12" d="M95.21,53.57A6.09,6.09,0,0,1,91.08,56a5.87,5.87,0,0,1-2.71-.24L88,55.65A6.1,6.1,0,0,1,84.16,50,1.44,1.44,0,0,1,86,48.6l1.95.64,3.09,1,3.42,1.11A1.43,1.43,0,0,1,95.21,53.57Z"/><path class="cls-16" d="M91.08,50.25V56a5.87,5.87,0,0,1-2.71-.24L88,55.65V49.24Z"/><path class="cls-15" d="M114.66,59.07a6.12,6.12,0,0,1-4.13,2.46,5.86,5.86,0,0,1-2.71-.24l-.39-.14a6.11,6.11,0,0,1-3.83-5.69,1.44,1.44,0,0,1,1.88-1.36l2,.64,3.1,1,3.41,1.12A1.44,1.44,0,0,1,114.66,59.07Z"/><path class="cls-15" d="M95.21,53.57A6.09,6.09,0,0,1,91.08,56a5.87,5.87,0,0,1-2.71-.24L88,55.65A6.1,6.1,0,0,1,84.16,50,1.44,1.44,0,0,1,86,48.6l1.95.64,3.09,1,3.42,1.11A1.43,1.43,0,0,1,95.21,53.57Z"/><path class="cls-5" d="M174.39,88.37l-5.74,3.08a3.6,3.6,0,0,1-3.51,6,6.28,6.28,0,0,1-1.31-11.59L171,82a2,2,0,0,0-.44-3.78L165.91,77l-1.9-.52-.38-.13,1.9-6.9.38.08,1.9.53,4.65,1.27a9.25,9.25,0,0,1,1.93,17.07Z"/><path class="cls-3" d="M168.59,70.28l-1.91,6.94-1.9-.52a2.84,2.84,0,0,1-.38-.13l1.9-6.89.39.08Z"/><rect class="cls-17" x="36.74" y="46.93" width="8.21" height="10.3" rx="3.76" transform="translate(-24.58 62.12) rotate(-60.62)"/><rect class="cls-5" x="35.27" y="46.07" width="8.21" height="10.3" rx="3.76" transform="translate(-24.58 60.4) rotate(-60.62)"/><circle class="cls-2" cx="141.14" cy="56.84" r="1.41"/><path class="cls-18" d="M40.86,59.76,38.21,70.34l6.58.29s4.47-1.7,4.41-2.41-.56-4.34-.88-4.65a3.69,3.69,0,0,0-2.13-1.9C44.32,60.86,40.86,59.76,40.86,59.76Z"/></g></g></svg>