<svg id="Layer_1" data-name="Layer 1" xmlns="http://www.w3.org/2000/svg" width="650" height="254" viewBox="0 0 650 254"><defs><style>.cls-1,.cls-5{opacity:0.5;}.cls-2{fill:#9c82d4;}.cls-3,.cls-5{fill:#866dd1;}.cls-4{fill:#bda3d8;}.cls-6{opacity:0.2;}.cls-7{fill:#b39ddb;}.cls-8{fill:#d3b8db;}.cls-9{fill:#9eb7af;}.cls-10{fill:#f9f1db;}.cls-11{fill:#eeb280;}</style></defs><g class="cls-1"><path class="cls-2" d="M300.63,102.54q.35-9,.66-18.09l-6.67-.29,0-1.06-.88,0c0-.32,0-.64,0-1l-2.61-.1,0,1-3-.1,0,1.06-2-.06q-.23,11-.51,22l-2.17-.07q.39-16.71.68-33.42l-1.8,0c0-1,0-2.07,0-3.11l-7-.17,0,3.1q-6.19-.13-12.4-.2,0,14.43,0,28.85l-2,0V96l-4.3,0c0-.94,0-1.89,0-2.84l-4.57-2.06L252,80.77h-4.73c0-.53,0-1.06,0-1.59-1.46-.38-2.92-.75-4.39-1.11-3.27,0-6.55.06-9.82.12,0,.9.05,1.81.07,2.72l-4.71.09q.34,11.34.66,22.69l-1.71,0L227,94.55l-4.6.11.18,5.43-1.84,0q-.57-16-1.22-32Q211.3,66,203,63.86q1,17.37,1.86,34.74l-2.74.12q-.16-3.12-.34-6.23l.6,0-.07-1.24-2.08.09c0-.41-.05-.82-.07-1.24-3.06.15-6.11.3-9.17.47,0,.42.06.83.08,1.25L189,91.9c0,.42.06.83.08,1.24l.6,0,.45,6.92q-4.65.27-9.28.57c-.16.43-.33.85-.49,1.28l.78,0c.16,2.18.32,4.37.47,6.55l-1.72.11q-.83-11.3-1.69-22.58l.66,0-.12-1.62-6.71.47c0-.42-.07-.84-.11-1.26q-3.91.28-7.83.6c0,.42.07.84.11,1.26l-2.5.2.15,1.62.66,0q.56,6.12,1.1,12.23l-2.07.17q-.85-9.39-1.74-18.79l-1.44.12c-.06-.6-.11-1.2-.17-1.8l-1,.09c-.08-.79-.15-1.58-.23-2.37-2.1-1.58-4.2-3.16-6.32-4.73-1.75,1.92-3.49,3.86-5.22,5.79.08.79.17,1.58.25,2.37l-1,.1c.07.6.13,1.2.2,1.8l-1.44.14q1.29,11.85,2.55,23.72l-1.68.17q-.51-4.77-1-9.54l-3.45.35-1.46-1.18-4.92.53c0,.44.11.88.16,1.32l-4.91.55c.33,2.68.65,5.36,1,8l-1.3.15-.45-3.73c-2.6.3-5.19.61-7.79.93.16,1.24.33,2.49.49,3.73l-1.29.16c.29,2.27.59,4.55.88,6.82l-1.4.18q-1.55-11.79-3.14-23.56l-2.2.28-1.53-2.34c-4,.51-8,1-11.91,1.6L99.15,93l-2.2.31q1.51,9.89,3,19.78l-2.19.31Q95.41,98,93,82.54l.83-.12-.21-1.32-2,.29c0-.21-.06-.41-.1-.62L90.1,81q-1-6.13-2-12.26l.48-.07c-.06-.35-.12-.7-.17-1l-3,.44-.09-.58-.61.09c0-.22-.07-.45-.11-.67l-1.27.19Q82.26,62,81.15,57l1.2,10.28-1.28.19.12.68-.61.09c0,.19.07.39.1.58l-3,.47.18,1.06.47-.08q1.05,6.12,2.08,12.24L79,82.7c0,.2.07.41.11.61l-2,.32c.08.44.15.88.23,1.31l.82-.13q2,11.86,4,23.73l-2.63.43Q77.82,98.88,76.08,88.8l-2.46.4-.24-1.33-3.7.61-.21-1.21-3.25.55c.08.41.15.81.22,1.22l-1.1.19.24,1.33q-2.82.48-5.64,1,2.79,14.85,5.51,29.71l-1.91.35c-.48-2.65-1-5.29-1.47-7.94l.91-.16c-.32-.44-.63-.88-.95-1.31q-5.36,1-10.69,2c-.53-2.66-1.05-5.33-1.58-8l.68-.13c-.09-.48-.19-1-.28-1.43l-2.4.46c-.09-.48-.19-1-.28-1.44q-5.28,1-10.55,2.08l.3,1.43-2.39.49c.11.48.21,1,.31,1.43l.68-.14q1.37,6.43,2.71,12.88l-1.76.36q3.21,15.15,6.34,30.32a1034.09,1034.09,0,0,1,257.44-20q.66-15,1.24-29.92Z"/><path class="cls-3" d="M177.32,26.15l-2,.08q-.49-3.59-1-7.17l-3.48.15-.54-9.16a1.07,1.07,0,0,0,.56-1A1.22,1.22,0,0,0,169.5,8a1.17,1.17,0,0,0-1.19,1.17,1.11,1.11,0,0,0,.66.92c.19,3.05.37,6.11.55,9.16l-3.4.17c-.08,2.41-.15,4.82-.23,7.23l-2,.1q.63,3.89,1.24,7.77l4.57-.23q2,34.21,3.76,68.45l2.57-.12q-1.67-34.23-3.59-68.45L176.3,34Z"/></g><g class="cls-1"><path class="cls-4" d="M321.86,145.15s10.41-31.31,30.05-29.74,9.67-11.89,29.38-10,22.3,3.71,30.6,12.16S421,119.13,429.94,130s7.91,8.88,11.48,15.75-6.18,7.43-6.18,7.43-53.66-4.65-72.83-5.71S321.86,145.15,321.86,145.15Z"/><path class="cls-2" d="M469.14,168.17c-26.39-4.28-37.89-1.85-50.64-12.08-3.41-2.73-6.78-5.55-9.89-8.22-6.5-5.59-11.87-10.5-14.06-12.52l-1.06-1,.26-.75c2-5.73,15.94-42.63,37.57-43.71,19.55-1,5.07-15.46,27.12-16.62a102.11,102.11,0,0,1,18.19,1.12c47.38,6.3,44.19,3.45,56.86,22s31.36,9.33,43.19,22.39,32.89,35,36.71,47.41S495.52,172.43,469.14,168.17Z"/><path class="cls-5" d="M462.06,146.49l-4.39,10.22L421,155.07l-12.4-7.2-11.27-6.56-2.79-6-.8-1.75c2-5.73,15.94-42.63,37.57-43.71,19.55-1,5.07-15.46,27.12-16.62l-2.82,22.56a11,11,0,0,1-5.73,8.32h0a11,11,0,0,0-2.5,17.56,9.07,9.07,0,0,1,1.83,2c0,.39.26,3.9.52,6.81a11,11,0,0,0,3.19,6.82Z"/></g><g class="cls-6"><path class="cls-7" d="M371.13,78.49a7.16,7.16,0,0,0,2.46,3.79,7.14,7.14,0,0,0-2.15-8.3A7.13,7.13,0,0,0,371.13,78.49Z"/><path class="cls-8" d="M408,60l-.76-.51-.15.16-.43.44c-.19.19-.41.42-.68.68s-.56.54-.89.85l-.53.47-.56.5c-.39.35-.81.7-1.25,1.06l-.66.55-.69.56L400,65.86c-.48.38-1,.73-1.44,1.1l-.1.07c.38-.91.74-1.79,1-2.64l1-2.62c.59-1.64,1.11-3.07,1.54-4.24L398.6,56.3l-1.55,4.24c-.3.81-.62,1.68-.95,2.59s-.71,1.81-1.12,2.76a57.55,57.55,0,0,1-3.07,6c-.3.51-.63,1-1,1.53l-1,1.6c-.36.56-.73,1.12-1.07,1.71s-.71,1.17-1,1.78a58.07,58.07,0,0,0-3.19,6.69L385,55.5l-3.91,0L381,64.91c-.29-.5-.57-1-.87-1.52s-.61-1-.92-1.56l-.46-.76-.46-.74c-.3-.48-.6-.94-.89-1.38s-.55-.86-.81-1.23-.5-.73-.72-1-.4-.57-.56-.79l-.51-.67-.57.29s.09.3.26.81c.08.25.18.56.3.91s.27.75.42,1.18.34.89.52,1.38.39,1,.61,1.53l.33.8L377,63c.23.56.47,1.11.72,1.67s.49,1.1.73,1.65.5,1.07.73,1.59l.7,1.47.63,1.32.4.83-.16,13a57.84,57.84,0,0,0-2.8-6.17c-.31-.62-.65-1.21-1-1.81s-.69-1.16-1-1.73l-1-1.63c-.31-.51-.61-1-.9-1.56a54,54,0,0,1-2.92-6c-.4-1-.74-1.9-1-2.79s-.61-1.8-.89-2.62l-1.45-4.27-3.38,1.14c.39,1.18.88,2.62,1.43,4.28.28.83.58,1.71.89,2.64s.65,1.82,1,2.77l-.24-.18c-.46-.37-.95-.74-1.41-1.13s-.94-.77-1.4-1.15l-.68-.57-.65-.56-1.22-1.1-.55-.51-.51-.49-.88-.87c-.26-.26-.47-.5-.66-.69l-.41-.46-.15-.16-1,.62.09.21c.07.13.16.33.29.58s.14.27.23.41l.27.48c.1.17.21.35.33.53l.38.58c.13.2.28.4.43.61s.31.43.48.65.35.43.52.66l.57.67.6.69.64.68c.43.45.88.9,1.33,1.34l.69.65.7.64,1.38,1.19c.46.37.9.74,1.33,1.07l1.21.93a6.31,6.31,0,0,0,.56.39,4.64,4.64,0,0,0,.44.23l.38.72q.45.82,1,1.68c.17.29.33.54.49.82l.48.82c.32.54.64,1.08.94,1.64s.61,1.12.89,1.71a56.37,56.37,0,0,1,3.05,7.37l.31,1c.11.33.2.66.29,1s.19.66.29,1l.25,1,.24,1,.21,1c.07.34.15.67.2,1l.18,1c.12.68.21,1.36.3,2s.15,1.37.22,2c.12,1.37.19,2.74.21,4,0,.17,0,.33,0,.5v.47c0,.34,0,.68-.05,1l0,1.08,0,1-.14,4.08c-.09,2.68-.18,5.27-.27,7.73s-.19,4.78-.28,6.92-.18,4.11-.26,5.85-.15,3.26-.21,4.51l-.22,3.92h.06l6.47.08h.05l-.11-3.94c0-1.25-.07-2.77-.11-4.51s-.09-3.71-.11-5.85S385,122,385,119.55s-.05-5-.08-7.73c0-1.34,0-2.7,0-4.08,0-.34,0-.69,0-1s0-.72,0-1.08,0-.68,0-1v-.46c0-.18,0-.34,0-.5.06-1.32.16-2.68.32-4,.08-.68.15-1.36.27-2s.21-1.36.35-2l.2-1c.06-.33.15-.67.23-1l.23-1,.27-1,.27-1c.11-.32.21-.65.31-1s.2-.66.32-1l.34-1a53.47,53.47,0,0,1,3.23-7.29c.29-.58.62-1.13.93-1.69s.65-1.09,1-1.62l.51-.8c.17-.28.34-.53.51-.82.35-.56.68-1.1,1-1.65l.44-.78.31-.15c.18-.11.37-.24.56-.38.38-.27.8-.57,1.23-.9s.89-.67,1.36-1,.93-.76,1.41-1.16l.71-.62.71-.63c.47-.43.92-.87,1.37-1.31l.65-.67c.21-.22.42-.44.62-.67l.58-.66c.19-.22.37-.43.54-.65s.34-.42.5-.63l.45-.6.39-.57.34-.52c.11-.16.2-.32.29-.47l.23-.4.3-.58h0A.26.26,0,0,0,408,60Z"/><path class="cls-7" d="M375,73.7a2.75,2.75,0,0,0,1.36-.52.19.19,0,0,0,0-.34,2.79,2.79,0,0,0-1.44-.25,2.83,2.83,0,0,0-1.37.52.2.2,0,0,0,0,.34A2.69,2.69,0,0,0,375,73.7Z"/><path class="cls-7" d="M362.11,83.28a23.74,23.74,0,0,1,3.67-7.43,5,5,0,0,1,4-1.86h.12a.3.3,0,0,1,0,.1,5,5,0,0,1-1.07,4.32,23.81,23.81,0,0,1-6.62,5A.11.11,0,0,1,362.11,83.28Z"/><path class="cls-7" d="M358.84,73.6A5.75,5.75,0,0,1,362,70.91c2.4-.88,5.95-1.12,7.71,1.1l.18.26.06.08-.06.07a4.44,4.44,0,0,1-3.64,1.47,15,15,0,0,1-2.58-.46h-.1a6.36,6.36,0,0,0-4.44.46A.19.19,0,0,1,358.84,73.6Z"/><path class="cls-9" d="M362.86,70.62h0Z"/><path class="cls-7" d="M413.2,54.27h0a3,3,0,0,0-2.94-3l-6.56-.08a1.5,1.5,0,0,1-1.47-1.52V48.42a4.73,4.73,0,0,0-4.68-4.8L370,43.28a4.75,4.75,0,0,0-4.8,4.68v1.26a1.49,1.49,0,0,1-1.51,1.47L357,50.61a2.85,2.85,0,0,0-2.89,2.81v.38a1.5,1.5,0,0,1-1.52,1.47l-2.95,0a3.45,3.45,0,0,0-3.48,3.4v1.19a3.38,3.38,0,0,0,3.34,3.43l8.59.1a1.49,1.49,0,0,0,1.51-1.47v-.26a1.49,1.49,0,0,1,1.51-1.47l9.23.11a2.11,2.11,0,0,0,2.14-2.09h0a2.13,2.13,0,0,1,2.15-2.09l18,.23a2.11,2.11,0,0,1,2.09,2.14h0a2.11,2.11,0,0,0,2.09,2.14l7.57.09a1.5,1.5,0,0,1,1.47,1.52h0a1.5,1.5,0,0,0,1.48,1.51l10.28.12A3.38,3.38,0,0,0,421,60.49l0-1.66a3,3,0,0,0-2.93-3l-3.46,0A1.49,1.49,0,0,1,413.2,54.27Z"/><path class="cls-7" d="M394.56,67.29v-.37a2.05,2.05,0,0,0-2-2.07L379,64.69a2,2,0,0,0-2.06,2l0,3.07a2,2,0,0,0,2,2.06l5.85.07a2.05,2.05,0,0,1,2,2.07h0a2,2,0,0,0,2,2.07l11.43.14a2.05,2.05,0,0,0,2.07-2l0-2.69a2.05,2.05,0,0,0-2-2.07l-3.75,0A2.05,2.05,0,0,1,394.56,67.29Z"/><path class="cls-7" d="M374.63,86.86a21.49,21.49,0,0,1,7.07-2.28A4.52,4.52,0,0,1,385.43,86l.07.08-.05.08a4.5,4.5,0,0,1-3.46,2A20.94,20.94,0,0,1,374.65,87,.1.1,0,0,1,374.63,86.86Z"/><path class="cls-7" d="M387.44,82.63a4.83,4.83,0,0,1,0,2.56.35.35,0,0,1-.58.16,4.84,4.84,0,0,1-1.27-4.78.34.34,0,0,1,.58-.15A4.91,4.91,0,0,1,387.44,82.63Z"/><path class="cls-7" d="M394.29,95.1A19.34,19.34,0,0,0,391.46,89a4,4,0,0,0-3.24-1.6h-.1l0,.08a4.09,4.09,0,0,0,.79,3.53,19.2,19.2,0,0,0,5.27,4.17A.09.09,0,0,0,394.29,95.1Z"/><path class="cls-7" d="M400,87.29a6.17,6.17,0,0,0-3.28-3c-2.53-1-6.32-1.35-8.25,1l-.21.26-.06.09.06.08a4.73,4.73,0,0,0,3.85,1.66,15.85,15.85,0,0,0,2.76-.42H395a6.79,6.79,0,0,1,4.73.6A.2.2,0,0,0,400,87.29Z"/><path class="cls-9" d="M395.77,84h0Z"/><path class="cls-7" d="M385.63,93.27a3.1,3.1,0,0,0,1.48-1.61c.51-1.26.7-3.14-.46-4.11l-.13-.1,0,0,0,0a2.34,2.34,0,0,0-.84,1.9,8.06,8.06,0,0,0,.2,1.38v0h0v0a3.35,3.35,0,0,1-.31,2.35A.1.1,0,0,0,385.63,93.27Z"/><path class="cls-9" d="M387.28,91.19h0Z"/><path class="cls-7" d="M375.07,68.27a3.13,3.13,0,0,0-2.14.5c-1.13.75-2.35,2.19-1.95,3.64,0,0,0,.11,0,.16l0,.05h.05a2.36,2.36,0,0,0,1.77-1.1,7.56,7.56,0,0,0,.62-1.24v0h0v0a3.33,3.33,0,0,1,1.59-1.75A.11.11,0,0,0,375.07,68.27Z"/><path class="cls-9" d="M372.53,69.06h0Z"/></g><path class="cls-10" d="M.5,150.5c55,2,35.5-20.88,183.69-20.88,39.73,0,80-1.41,120.79-1.41,58.89,0,77.59-2.71,171,2.93C623,140,583.5,150.5,650,150.5c.71,0,0,103,0,103H0Z"/><path class="cls-11" d="M195.78,247.67s-.09-1.63-.3-4.1-.56-5.75-1-9c-.24-1.64-.51-3.26-.81-4.78s-.63-2.93-1-4.12c-.15-.6-.33-1.14-.49-1.61a10.49,10.49,0,0,0-.44-1.23l-.43-1.06.53,1a12.52,12.52,0,0,1,.56,1.19c.21.46.45,1,.66,1.57.45,1.17.92,2.55,1.37,4.05s.89,3.11,1.29,4.72c.81,3.24,1.48,6.51,1.94,9s.72,4.12.72,4.12Z"/><path class="cls-11" d="M192.15,249s-1-3.51-2-7c-.53-1.74-1.08-3.48-1.53-4.76s-.8-2.13-.8-2.13.5.76,1.18,2,1.53,2.81,2.36,4.44c1.67,3.26,3.24,6.57,3.24,6.57Z"/><path class="cls-11" d="M200.56,247.92s.48-3.6.85-7.22c.18-1.8.34-3.62.42-5s.08-2.27.08-2.27.17.9.33,2.26.34,3.19.48,5c.28,3.65.45,7.31.45,7.31Z"/><path class="cls-11" d="M194.56,247.24s.43-1.17,1-3,1.36-4.22,2-6.68a50.23,50.23,0,0,0,1.38-6.82,10.69,10.69,0,0,0,.11-1.29,7,7,0,0,0,0-1l0-.88s.06.31.15.87a6.34,6.34,0,0,1,.11,1,13.19,13.19,0,0,1,.06,1.32,52.63,52.63,0,0,1-.5,7.05c-.33,2.56-.78,5.09-1.15,7s-.65,3.16-.65,3.16Z"/><path class="cls-11" d="M419.89,156.64c.35-3,.79-5.92,1.35-8.85.28-1.47.6-2.92,1-4.37a23.31,23.31,0,0,1,1.46-4.21,22.64,22.64,0,0,0-1.15,4.29c-.28,1.45-.49,2.92-.66,4.39-.35,2.93-.57,5.9-.71,8.84Z"/><path class="cls-11" d="M422.2,157.13q.87-2.28,1.8-4.53c.63-1.49,1.25-3,2-4.43-.55,1.52-1,3.08-1.39,4.64s-.81,3.13-1.19,4.7Z"/><path class="cls-11" d="M417,157.1c0-1.65,0-3.29.09-4.93s.12-3.28.31-4.91c0,1.64.18,3.26.33,4.89s.35,3.25.55,4.87Z"/><path class="cls-11" d="M420.8,156.87c-.55-2.25-1-4.49-1.37-6.76q-.27-1.7-.42-3.42a14.57,14.57,0,0,1,0-3.43,14.89,14.89,0,0,0,.22,3.4c.19,1.13.41,2.24.68,3.35.53,2.21,1.17,4.41,1.87,6.56Z"/></svg>