<svg xmlns="http://www.w3.org/2000/svg" xmlns:xlink="http://www.w3.org/1999/xlink" width="2200" height="306" viewBox="0 0 2200 306"><defs><style>.cls-1,.cls-14,.cls-19,.cls-28,.cls-29,.cls-31,.cls-36,.cls-42,.cls-44,.cls-51,.cls-54,.cls-55,.cls-67,.cls-73,.cls-83,.cls-84,.cls-88,.cls-90,.cls-96{fill:none;}.cls-2{fill:#ffffde;}.cls-3,.cls-91{fill:#841827;}.cls-4{fill:#ceae95;}.cls-5{fill:#383535;}.cls-6{fill:#db4958;}.cls-7{isolation:isolate;}.cls-8{clip-path:url(#clip-path);}.cls-9{fill:url(#linear-gradient);}.cls-10{fill:#bbcc9b;}.cls-11{fill:#e0c09b;}.cls-12,.cls-17,.cls-18,.cls-20,.cls-35,.cls-92,.cls-95{fill:#f25e5a;}.cls-12,.cls-13,.cls-24,.cls-35,.cls-42,.cls-43{opacity:0.1;}.cls-12,.cls-13,.cls-17,.cls-18,.cls-34,.cls-42,.cls-86{mix-blend-mode:multiply;}.cls-13{fill:#a78dd5;}.cls-14{stroke:#fff;stroke-width:1.85px;}.cls-14,.cls-19,.cls-29,.cls-31,.cls-36,.cls-44,.cls-51,.cls-54,.cls-55,.cls-67,.cls-73,.cls-83,.cls-84,.cls-88,.cls-96{stroke-linecap:round;}.cls-14,.cls-19,.cls-26,.cls-27,.cls-28,.cls-29,.cls-31,.cls-39,.cls-44,.cls-54,.cls-55,.cls-67,.cls-88,.cls-90,.cls-96{stroke-miterlimit:10;}.cls-15{fill:#fff;}.cls-16,.cls-24{fill:#3b1a2f;}.cls-17,.cls-34,.cls-53,.cls-83,.cls-92{opacity:0.3;}.cls-18{opacity:0.05;}.cls-19{stroke:#e0c09b;stroke-width:8px;}.cls-21{fill:#7e2d17;}.cls-22{fill:#e5e1df;}.cls-23{fill:#d4ceca;}.cls-25{fill:#dfdede;}.cls-26,.cls-27{fill:#bcb2aa;}.cls-26,.cls-27,.cls-39{stroke:#5a4e47;}.cls-26,.cls-36{stroke-width:1.55px;}.cls-27{stroke-width:2.59px;}.cls-28{stroke:#938276;stroke-width:3.13px;}.cls-29{stroke:#4b413b;}.cls-29,.cls-31{stroke-width:4.66px;}.cls-30{fill:#43337d;}.cls-31{stroke:#045172;}.cls-32,.cls-34{fill:#4b413b;}.cls-33{fill:#5c6fb3;}.cls-36{stroke:#d1ac88;}.cls-36,.cls-51,.cls-73,.cls-83,.cls-84{stroke-linejoin:round;}.cls-37{fill:#61554d;}.cls-38{fill:#443b35;}.cls-39{fill:#b4a8a0;stroke-width:3.05px;}.cls-40{fill:#c4bbb5;}.cls-41{clip-path:url(#clip-path-2);}.cls-44{stroke:#ffedd9;stroke-width:10.06px;}.cls-45{fill:#f4ca94;}.cls-46{fill:#fadfbf;}.cls-47{fill:#b298d7;}.cls-48{fill:#ffedd9;}.cls-49{fill:#f1be8a;}.cls-50{fill:#ff7bac;}.cls-51{stroke:#d8ba9a;stroke-width:1.89px;}.cls-52{fill:#6550a7;}.cls-54{stroke:#83919c;stroke-width:1.06px;}.cls-55{stroke:#ac2e3d;stroke-width:3.18px;}.cls-56{fill:#83919c;}.cls-57{fill:gray;}.cls-58{fill:#333;}.cls-59{clip-path:url(#clip-path-3);}.cls-60{fill-opacity:0.15;}.cls-61{fill:#720f22;}.cls-62{fill:#1a1a1a;}.cls-63{clip-path:url(#clip-path-4);}.cls-64{fill:#685b53;}.cls-65{clip-path:url(#clip-path-5);}.cls-66{clip-path:url(#clip-path-6);}.cls-67{stroke:#9b6741;stroke-width:7.52px;}.cls-68{fill:#9b6741;}.cls-69{fill:#fdefb2;}.cls-70{fill:#e68e63;}.cls-71{fill:#e38159;}.cls-72{fill:#9b3f25;}.cls-73{stroke:#915c37;stroke-width:1.88px;}.cls-74{fill:#755641;}.cls-75{fill:#fae3a8;}.cls-76{fill:#ac2e3d;}.cls-77{clip-path:url(#clip-path-7);}.cls-78{clip-path:url(#clip-path-8);}.cls-79{fill:#bd906b;}.cls-80{fill:#e06572;}.cls-81{fill:#ddd8d4;}.cls-82,.cls-86{opacity:0.06;}.cls-83,.cls-84{stroke:#685b53;stroke-width:2.03px;}.cls-85{clip-path:url(#clip-path-9);}.cls-87{fill:#353232;}.cls-88,.cls-96{stroke:#3b1a2f;}.cls-88{stroke-width:2.59px;}.cls-89{clip-path:url(#clip-path-10);}.cls-90{stroke:#942130;stroke-width:0.41px;}.cls-91{fill-rule:evenodd;}.cls-93{fill:#de5765;}.cls-94{fill:#efefef;}.cls-95{opacity:0.15;}.cls-96{stroke-width:3.68px;}.cls-97{clip-path:url(#clip-path-11);}.cls-98{fill:#ddecf7;}</style><clipPath id="clip-path"><rect class="cls-1" x="3.04" y="6" width="2196.06" height="298.09"/></clipPath><linearGradient id="linear-gradient" x1="1101.07" y1="306" x2="1101.07" y2="44.86" gradientUnits="userSpaceOnUse"><stop offset="0" stop-color="#e2f0cf"/><stop offset="0.3" stop-color="#deeec9"/><stop offset="0.72" stop-color="#d3e9b7"/><stop offset="0.9" stop-color="#cde6ad"/></linearGradient><clipPath id="clip-path-2"><path class="cls-1" d="M1284,103.8h34.26a2.52,2.52,0,0,1,2.51,2.51v1.2a2.48,2.48,0,0,1-.19.95,5.45,5.45,0,0,1,.19,1.41v10.77a19.84,19.84,0,1,1-37,10V110a2.5,2.5,0,0,1-2.3-2.49v-1.2A2.51,2.51,0,0,1,1284,103.8Z"/></clipPath><clipPath id="clip-path-3"><path class="cls-3" d="M766.31,124.37a43.06,43.06,0,0,1-86.12,0Z"/></clipPath><clipPath id="clip-path-4"><rect class="cls-4" x="721" y="120.29" width="32.25" height="3.48" rx="1.74" transform="translate(13.7 -64.79) rotate(5.08)"/></clipPath><clipPath id="clip-path-5"><rect class="cls-4" x="703.79" y="121.73" width="32.25" height="3.48" rx="1.74" transform="translate(13.76 -63.26) rotate(5.08)"/></clipPath><clipPath id="clip-path-6"><rect class="cls-4" x="692.98" y="123.78" width="32.25" height="3.48" rx="1.74" transform="translate(13.9 -62.29) rotate(5.08)"/></clipPath><clipPath id="clip-path-7"><path class="cls-2" d="M1514.14,142.82l-27.48,2.44a1,1,0,0,1-1-1.63l11.34-16.27a1,1,0,0,1,1.53-.2L1514.73,141A1,1,0,0,1,1514.14,142.82Z"/></clipPath><clipPath id="clip-path-8"><path class="cls-2" d="M1472.09,145.41l-27.58-.49a1,1,0,0,1-.77-1.72l13-15a1,1,0,0,1,1.55,0l14.58,15.47A1,1,0,0,1,1472.09,145.41Z"/></clipPath><clipPath id="clip-path-9"><path class="cls-5" d="M1039.63,83.58l-24.55-5.92a2.55,2.55,0,0,0-3.12,2l-3.68,19.61a2.57,2.57,0,0,0,2.25,3l23.43,2.47a2.55,2.55,0,0,0,2.72-1.81l4.81-16.17A2.56,2.56,0,0,0,1039.63,83.58Z"/></clipPath><clipPath id="clip-path-10"><ellipse class="cls-6" cx="1133.45" cy="98.97" rx="14.02" ry="23.79" transform="translate(870.85 1206.02) rotate(-81.65)"/></clipPath><clipPath id="clip-path-11"><path class="cls-2" d="M753.08,91.42l31.37,2.79a1.19,1.19,0,0,0,1.08-1.87L772.59,73.76a1.19,1.19,0,0,0-1.75-.22L752.41,89.33A1.19,1.19,0,0,0,753.08,91.42Z"/></clipPath></defs><g class="cls-7"><g id="Layer_1" data-name="Layer 1"><g class="cls-8"><path class="cls-9" d="M1100,44.86C352.27,44.86,1,306,1,306H2201.16S1779.83,44.86,1100,44.86Z"/><path class="cls-10" d="M676.71,277.12c-.43-5.73-1.06-11.49-2-17.18-.44-2.85-1-5.69-1.63-8.5a43.1,43.1,0,0,0-2.66-8.22,42.79,42.79,0,0,1,3.29,8.05c.88,2.77,1.63,5.58,2.29,8.42s1.27,5.67,1.81,8.53,1,5.72,1.47,8.62Z"/><path class="cls-10" d="M671.92,278.77c-.89-3-1.82-6.07-2.8-9.09s-2-6-3.23-8.95c1.65,2.72,3,5.6,4.45,8.46s2.73,5.76,4,8.68Z"/><path class="cls-10" d="M683,277.51c.34-3.15.65-6.31.91-9.47s.5-6.33.46-9.51c.48,3.15.66,6.34.85,9.52s.31,6.37.4,9.57Z"/><path class="cls-10" d="M675.32,276.78c1.39-4.19,2.63-8.47,3.67-12.78.52-2.15,1-4.33,1.29-6.52a25,25,0,0,0,.32-6.63,25.38,25.38,0,0,1,.22,6.69c-.16,2.23-.42,4.46-.77,6.67-.69,4.43-1.58,8.81-2.65,13.18Z"/><path class="cls-10" d="M1463.3,316c.43-2.9.93-5.75,1.47-8.62s1.14-5.7,1.81-8.53,1.41-5.65,2.29-8.42a42.79,42.79,0,0,1,3.29-8.05,41.83,41.83,0,0,0-2.66,8.23c-.67,2.8-1.2,5.64-1.64,8.49-.89,5.7-1.53,11.46-1.95,17.18Z"/><path class="cls-10" d="M1468.23,317c1.32-2.92,2.66-5.8,4-8.68s2.79-5.74,4.45-8.46c-1.27,2.92-2.24,5.94-3.24,8.95s-1.91,6.06-2.8,9.09Z"/><path class="cls-10" d="M1457,316.76c.09-3.2.22-6.38.4-9.57s.37-6.37.85-9.52c0,3.18.21,6.34.46,9.51s.56,6.32.91,9.47Z"/><path class="cls-10" d="M1465.22,316.54c-1.07-4.38-2-8.76-2.65-13.19-.35-2.21-.61-4.44-.78-6.67A25.82,25.82,0,0,1,1462,290a25.39,25.39,0,0,0,.31,6.63c.34,2.19.78,4.37,1.3,6.53,1,4.31,2.28,8.58,3.67,12.77Z"/><path class="cls-10" d="M498.43,251.57c-.33-4.37-.81-8.76-1.5-13.11-.33-2.17-.74-4.34-1.24-6.48a32.22,32.22,0,0,0-2-6.28,32.49,32.49,0,0,1,2.52,6.14c.67,2.12,1.24,4.27,1.74,6.43,1,4.32,1.84,8.68,2.5,13.09Z"/><path class="cls-10" d="M494.77,252.83c-.68-2.31-1.39-4.63-2.14-6.93s-1.5-4.61-2.46-6.84c1.26,2.08,2.32,4.28,3.39,6.46s2.09,4.4,3.09,6.62Z"/><path class="cls-10" d="M503.2,251.87c.26-2.4.5-4.82.7-7.23s.38-4.83.35-7.26c.37,2.41.5,4.85.65,7.27s.23,4.86.3,7.3Z"/><path class="cls-10" d="M497.36,251.31c1.06-3.19,2-6.46,2.8-9.75.4-1.64.73-3.3,1-5a19.56,19.56,0,0,0,.25-5.07,19.43,19.43,0,0,1,.16,5.11c-.12,1.7-.32,3.41-.59,5.09-.52,3.38-1.2,6.72-2,10.06Z"/><path class="cls-10" d="M1478.07,225.2c-.46-5.51-1.11-11-2-16.53-.45-2.74-1-5.47-1.64-8.17a40.93,40.93,0,0,0-2.63-7.9,41.47,41.47,0,0,1,3.11,7.77c.82,2.67,1.52,5.38,2.14,8.11,1.24,5.46,2.22,11,3,16.52Z"/><path class="cls-10" d="M1473.45,226.74c-.9-2.91-1.84-5.82-2.82-8.71s-2-5.78-3.24-8.57c1.56,2.64,2.86,5.42,4.17,8.19s2.54,5.58,3.77,8.4Z"/><path class="cls-10" d="M1484.09,225.62c.29-3,.55-6.08.75-9.13s.4-6.09.32-9.15c.41,3,.54,6.11.68,9.17s.21,6.12.25,9.19Z"/><path class="cls-10" d="M1476.68,225c1.3-4.05,2.47-8.18,3.43-12.34q.72-3.12,1.19-6.29a24.43,24.43,0,0,0,.26-6.39,24.71,24.71,0,0,1,.16,6.43q-.27,3.23-.8,6.41-1.05,6.38-2.66,12.65Z"/></g></g></g></svg>