<svg xmlns="http://www.w3.org/2000/svg" xmlns:xlink="http://www.w3.org/1999/xlink" width="2200" height="306" viewBox="0 0 2200 306"><defs><style>.cls-1,.cls-14,.cls-19,.cls-28,.cls-29,.cls-31,.cls-36,.cls-42,.cls-44,.cls-51,.cls-54,.cls-55,.cls-67,.cls-73,.cls-83,.cls-84,.cls-88,.cls-90,.cls-96{fill:none;}.cls-2{fill:#ffffde;}.cls-3,.cls-91{fill:#841827;}.cls-4{fill:#ceae95;}.cls-5{fill:#383535;}.cls-6{fill:#db4958;}.cls-7{isolation:isolate;}.cls-8{clip-path:url(#clip-path);}.cls-9{fill:url(#linear-gradient);}.cls-10{fill:#bbcc9b;}.cls-11{fill:#e0c09b;}.cls-12,.cls-17,.cls-18,.cls-20,.cls-35,.cls-92,.cls-95{fill:#f25e5a;}.cls-12,.cls-13,.cls-24,.cls-35,.cls-42,.cls-43{opacity:0.1;}.cls-12,.cls-13,.cls-17,.cls-18,.cls-34,.cls-42,.cls-86{mix-blend-mode:multiply;}.cls-13{fill:#a78dd5;}.cls-14{stroke:#fff;stroke-width:1.85px;}.cls-14,.cls-19,.cls-29,.cls-31,.cls-36,.cls-44,.cls-51,.cls-54,.cls-55,.cls-67,.cls-73,.cls-83,.cls-84,.cls-88,.cls-96{stroke-linecap:round;}.cls-14,.cls-19,.cls-26,.cls-27,.cls-28,.cls-29,.cls-31,.cls-39,.cls-44,.cls-54,.cls-55,.cls-67,.cls-88,.cls-90,.cls-96{stroke-miterlimit:10;}.cls-15{fill:#fff;}.cls-16,.cls-24{fill:#3b1a2f;}.cls-17,.cls-34,.cls-53,.cls-83,.cls-92{opacity:0.3;}.cls-18{opacity:0.05;}.cls-19{stroke:#e0c09b;stroke-width:8px;}.cls-21{fill:#7e2d17;}.cls-22{fill:#e5e1df;}.cls-23{fill:#d4ceca;}.cls-25{fill:#dfdede;}.cls-26,.cls-27{fill:#bcb2aa;}.cls-26,.cls-27,.cls-39{stroke:#5a4e47;}.cls-26,.cls-36{stroke-width:1.55px;}.cls-27{stroke-width:2.59px;}.cls-28{stroke:#938276;stroke-width:3.13px;}.cls-29{stroke:#4b413b;}.cls-29,.cls-31{stroke-width:4.66px;}.cls-30{fill:#43337d;}.cls-31{stroke:#045172;}.cls-32,.cls-34{fill:#4b413b;}.cls-33{fill:#5c6fb3;}.cls-36{stroke:#d1ac88;}.cls-36,.cls-51,.cls-73,.cls-83,.cls-84{stroke-linejoin:round;}.cls-37{fill:#61554d;}.cls-38{fill:#443b35;}.cls-39{fill:#b4a8a0;stroke-width:3.05px;}.cls-40{fill:#c4bbb5;}.cls-41{clip-path:url(#clip-path-2);}.cls-44{stroke:#ffedd9;stroke-width:10.06px;}.cls-45{fill:#f4ca94;}.cls-46{fill:#fadfbf;}.cls-47{fill:#b298d7;}.cls-48{fill:#ffedd9;}.cls-49{fill:#f1be8a;}.cls-50{fill:#ff7bac;}.cls-51{stroke:#d8ba9a;stroke-width:1.89px;}.cls-52{fill:#6550a7;}.cls-54{stroke:#83919c;stroke-width:1.06px;}.cls-55{stroke:#ac2e3d;stroke-width:3.18px;}.cls-56{fill:#83919c;}.cls-57{fill:gray;}.cls-58{fill:#333;}.cls-59{clip-path:url(#clip-path-3);}.cls-60{fill-opacity:0.15;}.cls-61{fill:#720f22;}.cls-62{fill:#1a1a1a;}.cls-63{clip-path:url(#clip-path-4);}.cls-64{fill:#685b53;}.cls-65{clip-path:url(#clip-path-5);}.cls-66{clip-path:url(#clip-path-6);}.cls-67{stroke:#9b6741;stroke-width:7.52px;}.cls-68{fill:#9b6741;}.cls-69{fill:#fdefb2;}.cls-70{fill:#e68e63;}.cls-71{fill:#e38159;}.cls-72{fill:#9b3f25;}.cls-73{stroke:#915c37;stroke-width:1.88px;}.cls-74{fill:#755641;}.cls-75{fill:#fae3a8;}.cls-76{fill:#ac2e3d;}.cls-77{clip-path:url(#clip-path-7);}.cls-78{clip-path:url(#clip-path-8);}.cls-79{fill:#bd906b;}.cls-80{fill:#e06572;}.cls-81{fill:#ddd8d4;}.cls-82,.cls-86{opacity:0.06;}.cls-83,.cls-84{stroke:#685b53;stroke-width:2.03px;}.cls-85{clip-path:url(#clip-path-9);}.cls-87{fill:#353232;}.cls-88,.cls-96{stroke:#3b1a2f;}.cls-88{stroke-width:2.59px;}.cls-89{clip-path:url(#clip-path-10);}.cls-90{stroke:#942130;stroke-width:0.41px;}.cls-91{fill-rule:evenodd;}.cls-93{fill:#de5765;}.cls-94{fill:#efefef;}.cls-95{opacity:0.15;}.cls-96{stroke-width:3.68px;}.cls-97{clip-path:url(#clip-path-11);}.cls-98{fill:#ddecf7;}</style><clipPath id="clip-path"><rect class="cls-1" x="3.04" y="6" width="2196.06" height="298.09"/></clipPath><linearGradient id="linear-gradient" x1="1101.07" y1="306" x2="1101.07" y2="44.86" gradientUnits="userSpaceOnUse"><stop offset="0" stop-color="#e2f0cf"/><stop offset="0.3" stop-color="#deeec9"/><stop offset="0.72" stop-color="#d3e9b7"/><stop offset="0.9" stop-color="#cde6ad"/></linearGradient><clipPath id="clip-path-2"><path class="cls-1" d="M1284,103.8h34.26a2.52,2.52,0,0,1,2.51,2.51v1.2a2.48,2.48,0,0,1-.19.95,5.45,5.45,0,0,1,.19,1.41v10.77a19.84,19.84,0,1,1-37,10V110a2.5,2.5,0,0,1-2.3-2.49v-1.2A2.51,2.51,0,0,1,1284,103.8Z"/></clipPath><clipPath id="clip-path-3"><path class="cls-3" d="M766.31,124.37a43.06,43.06,0,0,1-86.12,0Z"/></clipPath><clipPath id="clip-path-4"><rect class="cls-4" x="721" y="120.29" width="32.25" height="3.48" rx="1.74" transform="translate(13.7 -64.79) rotate(5.08)"/></clipPath><clipPath id="clip-path-5"><rect class="cls-4" x="703.79" y="121.73" width="32.25" height="3.48" rx="1.74" transform="translate(13.76 -63.26) rotate(5.08)"/></clipPath><clipPath id="clip-path-6"><rect class="cls-4" x="692.98" y="123.78" width="32.25" height="3.48" rx="1.74" transform="translate(13.9 -62.29) rotate(5.08)"/></clipPath><clipPath id="clip-path-7"><path class="cls-2" d="M1514.14,142.82l-27.48,2.44a1,1,0,0,1-1-1.63l11.34-16.27a1,1,0,0,1,1.53-.2L1514.73,141A1,1,0,0,1,1514.14,142.82Z"/></clipPath><clipPath id="clip-path-8"><path class="cls-2" d="M1472.09,145.41l-27.58-.49a1,1,0,0,1-.77-1.72l13-15a1,1,0,0,1,1.55,0l14.58,15.47A1,1,0,0,1,1472.09,145.41Z"/></clipPath><clipPath id="clip-path-9"><path class="cls-5" d="M1039.63,83.58l-24.55-5.92a2.55,2.55,0,0,0-3.12,2l-3.68,19.61a2.57,2.57,0,0,0,2.25,3l23.43,2.47a2.55,2.55,0,0,0,2.72-1.81l4.81-16.17A2.56,2.56,0,0,0,1039.63,83.58Z"/></clipPath><clipPath id="clip-path-10"><ellipse class="cls-6" cx="1133.45" cy="98.97" rx="14.02" ry="23.79" transform="translate(870.85 1206.02) rotate(-81.65)"/></clipPath><clipPath id="clip-path-11"><path class="cls-2" d="M753.08,91.42l31.37,2.79a1.19,1.19,0,0,0,1.08-1.87L772.59,73.76a1.19,1.19,0,0,0-1.75-.22L752.41,89.33A1.19,1.19,0,0,0,753.08,91.42Z"/></clipPath></defs><g class="cls-7"><g id="Layer_1" data-name="Layer 1"><g class="cls-8"><rect class="cls-11" x="1638.28" y="173.28" width="6.46" height="25.56"/><rect class="cls-12" x="1638.28" y="173.28" width="6.46" height="4.16"/><path class="cls-11" d="M1550.08,173.65a4,4,0,0,0,3.75,2.63,3.84,3.84,0,0,0,1.37-.24l18.4-6.68,5.74-2.09,6.88-2.5a4,4,0,0,0-2.73-7.51l-6,2.18-5.74,2.08-19.29,7A4,4,0,0,0,1550.08,173.65Z"/><polygon class="cls-12" points="1572.99 161.07 1574.83 168.9 1580.58 166.82 1578.73 158.98 1572.99 161.07"/><path class="cls-13" d="M1609.24,192.65h66.69a0,0,0,0,1,0,0v6.19a0,0,0,0,1,0,0h-66.69a3.09,3.09,0,0,1-3.09-3.09v0a3.09,3.09,0,0,1,3.09-3.09Z" transform="translate(3282.07 391.48) rotate(180)"/><path class="cls-14" d="M1618.93,87.73a10.15,10.15,0,0,0-11.09-8"/><path class="cls-14" d="M1628.1,86.7a10.15,10.15,0,0,0-11.09-8"/><rect class="cls-15" x="1566.63" y="109.53" width="27.36" height="21.06" rx="6.61" transform="translate(3164.13 62.54) rotate(173.58)"/><rect class="cls-11" x="1600.35" y="173.28" width="6.46" height="25.56" transform="translate(3207.16 372.12) rotate(-180)"/><path class="cls-16" d="M1635.76,192.64h2.52v-6.19h6.46v12.39h-12.57v-2.6A3.6,3.6,0,0,1,1635.76,192.64Z"/><path class="cls-16" d="M1597.83,192.64h2.52v-6.19h6.46v12.39h-12.57v-2.6A3.6,3.6,0,0,1,1597.83,192.64Z"/><path class="cls-11" d="M1572.66,133.21l2.15,19,89.93-10.13-2.14-19a46.45,46.45,0,0,0-1.63-8c-.35-1.14-.73-2.26-1.15-3.35a45.25,45.25,0,0,0-1.88-4.19l-.18-.35c-.52-1-1.08-2-1.67-2.92a43.2,43.2,0,0,0-2.86-4.08c-.69-.88-1.41-1.73-2.17-2.56l-.57-.61a45.12,45.12,0,0,0-11.93-9,45.26,45.26,0,0,0-37.1-2.15q-1.73.65-3.36,1.44a44.8,44.8,0,0,0-11.2,7.6l-.05,0-.57.54a44.37,44.37,0,0,0-4,4.42,45.23,45.23,0,0,0-3.58,5.2c-.71,1.2-1.37,2.43-2,3.69l-.3.64a42.78,42.78,0,0,0-1.58,4c-.08.2-.14.41-.21.61l-.18.57c-.25.79-.48,1.6-.68,2.42a44.8,44.8,0,0,0-.91,4.5c-.17,1.16-.29,2.33-.37,3.52A45.49,45.49,0,0,0,1572.66,133.21Z"/><path class="cls-17" d="M1600.48,151.81s9.4-.3,14.18-4l0,0-6.35.72-.14-1.3A15.1,15.1,0,0,0,1600.48,151.81Z"/><path class="cls-11" d="M1580.06,139.34c.91,8,10,13.64,20.42,12.47s18-8.64,17.14-16.7"/><rect class="cls-16" x="1604.79" y="118.68" width="3.86" height="6.87" rx="1.93" transform="translate(1548.29 -1488.18) rotate(83.58)"/><rect class="cls-16" x="1585.72" y="120.83" width="3.86" height="6.87" rx="1.93" transform="translate(1533.5 -1467.33) rotate(83.58)"/><path class="cls-18" d="M1645.4,92.42l9.17,81.52,8.3-.93a5.07,5.07,0,0,0,4.69-5.77l-2.83-25.11h0l-2.14-19a46.45,46.45,0,0,0-1.63-8c-.35-1.14-.73-2.26-1.15-3.35a45.25,45.25,0,0,0-1.88-4.19l-.18-.35c-.52-1-1.08-2-1.67-2.92a43.2,43.2,0,0,0-2.86-4.08c-.69-.88-1.41-1.73-2.17-2.56l-.57-.61A46.43,46.43,0,0,0,1645.4,92.42Z"/><circle class="cls-11" cx="1662.98" cy="127.14" r="5.76"/><circle class="cls-18" cx="1662.98" cy="127.14" r="5.76"/><rect class="cls-15" x="1640" y="101.27" width="27.36" height="21.06" rx="6.61" transform="translate(3309.48 37.87) rotate(173.58)"/><path class="cls-14" d="M1617,78.65a10.15,10.15,0,0,0-9,11.23"/><rect class="cls-11" x="1638.28" y="173.28" width="6.46" height="23.71"/><rect class="cls-11" x="1600.35" y="173.28" width="6.46" height="23.71" transform="translate(3207.16 370.28) rotate(-180)"/><path class="cls-14" d="M1607.84,79.68a10.17,10.17,0,0,0-9,11.24"/><path class="cls-19" d="M1659.15,150.87l17.06-2.25a3.69,3.69,0,0,1,1.61,6.81l-6.33,3.93a3.89,3.89,0,0,0,.72,7h0"/><path class="cls-20" d="M1557.66,169.07a5.2,5.2,0,0,1,5.19,5.19v1.79a2.16,2.16,0,0,1-4.31,0v-1.79a.89.89,0,1,0-1.77,0v24.58h-4.31V174.26A5.2,5.2,0,0,1,1557.66,169.07Z"/><circle class="cls-11" cx="1560.86" cy="170.46" r="2.83"/><rect class="cls-16" x="1551.84" y="196.21" width="5.56" height="2.63" rx="0.88" transform="translate(3109.23 395.04) rotate(-180)"/><path class="cls-21" d="M1664.73,142.12l2.83,25.12A5.2,5.2,0,0,1,1663,173l-13,1.47a3.11,3.11,0,0,0-2.76,3.09v6a2.93,2.93,0,0,1-2.93,2.93h-5.52a2.93,2.93,0,0,1-2.93-2.93v-4a3.11,3.11,0,0,0-3.46-3.09l-20.51,2.31a2.9,2.9,0,0,0-2.58,2.88v1.93a2.93,2.93,0,0,1-2.93,2.93h-5.52a2.93,2.93,0,0,1-2.93-2.93h0a2.89,2.89,0,0,0-3.22-2.87L1583.38,182a5.21,5.21,0,0,1-5.75-4.59l-2.83-25.12Z"/><rect class="cls-22" x="1575.4" y="147.14" width="90.5" height="15.74" transform="translate(-7.17 182.3) rotate(-6.42)"/><polygon class="cls-23" points="1621.81 147.03 1604.2 149.01 1610.99 153 1621.81 147.03"/><polygon class="cls-23" points="1578.71 151.81 1593.22 150.01 1589.45 155.01 1578.71 151.81"/><path class="cls-15" d="M1613.26,141.36s.18,12-10.86,23.2a3.13,3.13,0,0,1-4.27.18c-3.7-3.17-10.9-10.31-12.82-19.25-2.62-12.18,19.06-8.12,19.06-8.12Z"/><path class="cls-11" d="M1589.77,142.94l1.51,2.19a6.93,6.93,0,0,0,3.91,2.75h0a.8.8,0,0,0,1-.85l0-.33a1.06,1.06,0,0,1,.95-1.18l2.67-.28a1.36,1.36,0,0,1,1.5,1.21h0a1.35,1.35,0,0,0,1.49,1.21h0a6.71,6.71,0,0,0,3.65-2.73l2.1-3.19s-7.91-4.78-8.61-4.78-7.13,1.75-7.13,1.75l-1.87,1.54Z"/><path class="cls-15" d="M1596.78,134.76a6.09,6.09,0,0,1,11.5-2.84h0l3,4.71c1.36,2.11,3.62,3.21,5.77,4.52a.12.12,0,0,1,0,.23l-6.56.64a19.26,19.26,0,0,1-9.73-1.57h0c-.21-.08-.43-.18-.64-.28h0A6.1,6.1,0,0,1,1596.78,134.76Z"/><path class="cls-15" d="M1598.5,134.53a6.1,6.1,0,0,0-11.85.31h0l-1.67,5.34c-.75,2.4-2.64,4.06-4.37,5.89a.13.13,0,0,0,.12.21l6.49-1.12a19.29,19.29,0,0,0,9-4.09h0a5.85,5.85,0,0,0,.54-.45h0A6.07,6.07,0,0,0,1598.5,134.53Z"/><path class="cls-24" d="M1239.12,145.21h104.24a0,0,0,0,1,0,0v7.51a0,0,0,0,1,0,0H1239.12a3.76,3.76,0,0,1-3.76-3.76v0a3.76,3.76,0,0,1,3.76-3.76Z" transform="translate(2578.73 297.94) rotate(-180)"/><path class="cls-11" d="M1244.51,101.9a3.62,3.62,0,0,1-3.61,3.61h-6.81a2.05,2.05,0,0,0-1.41,3.54l5.89,5.61a6.3,6.3,0,0,1-4.34,10.86,3.61,3.61,0,0,1-1.8-6.74l-4.73-4.5a9.27,9.27,0,0,1,6.39-16h6.81a3.62,3.62,0,0,1,3.61,3.61Z"/><path class="cls-25" d="M1236.45,96.57a1.34,1.34,0,0,1,1.35-1.38h3.1a6.72,6.72,0,1,1,0,13.43h-2.85a1.36,1.36,0,0,1-1.35-1.32Z"/><circle class="cls-26" cx="1240.14" cy="149.36" r="5.3"/><circle class="cls-27" cx="1249.91" cy="131.52" r="16.85"/><rect class="cls-28" x="1244.54" y="129.9" width="44.08" height="18.97" rx="1.65" transform="translate(2533.16 278.77) rotate(180)"/><path class="cls-29" d="M1335.92,80h-2.73a14.46,14.46,0,0,0-14.42,14.42v36.17"/><rect class="cls-30" x="1241.44" y="125.52" width="55.23" height="16.27" rx="8.14" transform="translate(2538.12 267.31) rotate(-180)"/><path class="cls-31" d="M1287.74,80h-4.48a14.46,14.46,0,0,0-14.42,14.42v36.17"/><path class="cls-12" d="M1235.63,99.3v5.2a3.57,3.57,0,0,1-2.5,1h-2.79V98.29h2.79A3.62,3.62,0,0,1,1235.63,99.3Z"/><path class="cls-32" d="M1295.89,130.15h-4.49A14.46,14.46,0,0,0,1277,144.57v5.57h14.84l-.42-20"/><path class="cls-12" d="M1315.51,99.3v5.2a3.57,3.57,0,0,0,2.5,1h2.79V98.29H1318A3.62,3.62,0,0,0,1315.51,99.3Z"/><path class="cls-11" d="M1232.12,80V98.3h86.65V80a43.27,43.27,0,0,0-.7-7.77c-.2-1.12-.44-2.22-.73-3.31-.38-1.43-.83-2.83-1.34-4.19,0-.12-.09-.24-.13-.35-.39-1-.82-2-1.28-3a43.43,43.43,0,0,0-2.28-4.19l-.6-.94c-.39-.58-.78-1.16-1.19-1.72l-.48-.64A43,43,0,0,0,1299.65,44a43.44,43.44,0,0,0-35.06-6c-1.14.29-2.26.63-3.36,1a43.52,43.52,0,0,0-11.47,6l0,0-.61.46a43.88,43.88,0,0,0-4.24,3.7l-.07.07a43.1,43.1,0,0,0-4,4.57,39.25,39.25,0,0,0-2.26,3.3c-.12.19-.24.38-.35.57a40.44,40.44,0,0,0-1.93,3.62c-.1.19-.18.38-.27.56s-.16.35-.23.52c-.33.73-.63,1.47-.91,2.23a42.57,42.57,0,0,0-1.34,4.19c-.29,1.09-.53,2.19-.73,3.31A43.18,43.18,0,0,0,1232.12,80Z"/><path class="cls-33" d="M1232.11,98.29v24.2c0,2.94,2.6,5,5.52,5h76a4.85,4.85,0,0,0,5.08-5V98.29Z"/><path class="cls-25" d="M1232.11,98.29v13.64h86.55c.06,0,.1,0,.1,0V98.29Z"/><path class="cls-34" d="M1256.59,100.63s9,.72,13.92-2.33l0,0h-6.12V97A14.33,14.33,0,0,0,1256.59,100.63Z"/><path class="cls-11" d="M1238.5,86.57c0,7.76,8.1,14.06,18.09,14.06s18.1-6.3,18.1-14.06"/><rect class="cls-16" x="1263.67" y="69.59" width="3.89" height="6.91" rx="1.94"/><rect class="cls-16" x="1245.49" y="69.59" width="3.89" height="6.91" rx="1.94" transform="translate(2494.86 146.08) rotate(180)"/><path class="cls-35" d="M1305.69,48.93v78.55h8a4.85,4.85,0,0,0,5.08-5V98.3h0V80a44.4,44.4,0,0,0-.7-7.78c-.2-1.11-.45-2.22-.73-3.3-.38-1.43-.83-2.83-1.34-4.19l-.14-.36c-.39-1-.81-2-1.27-2.95a43.43,43.43,0,0,0-2.28-4.19c-.57-.91-1.16-1.8-1.79-2.66l-.48-.64A44.53,44.53,0,0,0,1305.69,48.93Z"/><path class="cls-16" d="M1263.46,14.59,1258.09,27a1.94,1.94,0,0,1-3.16.58h0a1.93,1.93,0,0,0-3.21.75l-6.85,21a33.39,33.39,0,0,1,10.64,7.48,3.41,3.41,0,0,0,4.81.1,37.74,37.74,0,0,1,51.39-.58l-13.57-27a1.93,1.93,0,0,0-3.18-.4l-1.27,1.46a1.93,1.93,0,0,1-3.09-.24l-6.17-9.84a1.93,1.93,0,0,0-3.21-.09l-4.09,5.76a1.93,1.93,0,0,1-3.22-.1l-7-11.46A1.93,1.93,0,0,0,1263.46,14.59Z"/><circle class="cls-11" cx="1318.69" cy="83.85" r="5.52"/><circle class="cls-12" cx="1318.69" cy="83.85" r="5.52"/><rect class="cls-12" x="1250.63" y="127.48" width="6.19" height="2.43" transform="translate(2507.46 257.38) rotate(-180)"/><path class="cls-16" d="M1244.63,85.18a7.82,7.82,0,0,1,5.56-2.3h11.71a7.82,7.82,0,0,1,5.56,2.3h0a7.86,7.86,0,0,1,2.3,5.56v.33a7.81,7.81,0,0,1-1.47,4.58l-5.17,7.22a19.87,19.87,0,0,1-4.52,4.54l-.82.59a3,3,0,0,1-3.47,0l-.82-.59a19.87,19.87,0,0,1-4.52-4.54l-5.17-7.22a7.81,7.81,0,0,1-1.47-4.58v-.33a7.82,7.82,0,0,1,2.3-5.56Z"/><path class="cls-11" d="M1262.69,92.77a24.39,24.39,0,0,1-13.29,0,2.08,2.08,0,0,1-1.6-2.65h0a2.25,2.25,0,0,1,2.69-1.19,20.36,20.36,0,0,0,11.11,0,2.25,2.25,0,0,1,2.69,1.19h0A2.09,2.09,0,0,1,1262.69,92.77Z"/><line class="cls-36" x1="1270.54" y1="71.61" x2="1275.44" y2="70.32"/><line class="cls-36" x1="1270.48" y1="74.59" x2="1275.5" y2="75.24"/><line class="cls-36" x1="1242.88" y1="74.72" x2="1237.98" y2="76.01"/><line class="cls-36" x1="1242.94" y1="71.73" x2="1237.92" y2="71.09"/><rect class="cls-16" x="1241.44" y="137.27" width="6.19" height="11.86" transform="translate(2489.08 286.4) rotate(-180)"/><path class="cls-16" d="M1235.59,143.2h12a0,0,0,0,1,0,0v1.39a4.54,4.54,0,0,1-4.54,4.54h-7.5a0,0,0,0,1,0,0V143.2A0,0,0,0,1,1235.59,143.2Z" transform="translate(2483.23 292.33) rotate(-180)"/><rect class="cls-16" x="1261.7" y="137.01" width="6.19" height="11.86" transform="translate(2529.59 285.88) rotate(-180)"/><path class="cls-16" d="M1255.85,142.94h12a0,0,0,0,1,0,0v1.39a4.54,4.54,0,0,1-4.54,4.54h-7.5a0,0,0,0,1,0,0v-5.93A0,0,0,0,1,1255.85,142.94Z" transform="translate(2523.74 291.81) rotate(-180)"/><path class="cls-33" d="M1259.9,139.5c.36-9.08,2.9-14.93,7.92-18.32,4.11-2.78,8.88-3.15,13.61-3.2a2.22,2.22,0,0,1,2.24,2.21v5.68a2.23,2.23,0,0,1-2.19,2.21c-3.27,0-6.21.25-8,1.47-2.07,1.4-3.23,4.81-3.47,10.15a2.21,2.21,0,0,1-2.21,2.09h-5.67A2.22,2.22,0,0,1,1259.9,139.5ZM1283.68,118v0Z"/><path class="cls-33" d="M1239.34,139.76c.35-9.08,2.89-14.93,7.91-18.32,4.11-2.77,8.88-3.15,13.62-3.2a2.21,2.21,0,0,1,2.23,2.21l0,2.83,0,2.85a2.2,2.2,0,0,1-2.18,2.21c-3.27,0-6.21.26-8,1.47-2.07,1.4-3.24,4.81-3.47,10.15a2.21,2.21,0,0,1-2.22,2.09h-5.66A2.21,2.21,0,0,1,1239.34,139.76Zm23.78-21.53v0Z"/><circle class="cls-26" cx="1277.09" cy="149.36" r="5.3"/><rect class="cls-37" x="1283.83" y="108.56" width="36.97" height="31.27" rx="5.45" transform="translate(2604.62 248.4) rotate(180)"/><rect class="cls-38" x="1281.53" y="107.96" width="39.27" height="6.21" rx="2.51" transform="translate(2602.33 222.13) rotate(180)"/><circle class="cls-39" cx="1303.67" cy="130.67" r="19.85"/><circle class="cls-40" cx="1304.5" cy="130.67" r="3.6"/><circle class="cls-40" cx="1276.98" cy="145.21" r="2.64"/><g class="cls-41"><path class="cls-42" d="M1305.69,78.86v78.55h8a4.85,4.85,0,0,0,5.08-5V128.24h0V109.88a44.29,44.29,0,0,0-.7-7.77c-.2-1.12-.45-2.22-.73-3.3a43.75,43.75,0,0,0-1.34-4.2c0-.11-.09-.23-.14-.35-.39-1-.81-2-1.27-3a42.28,42.28,0,0,0-2.28-4.19c-.57-.91-1.16-1.8-1.79-2.67l-.48-.64A45.45,45.45,0,0,0,1305.69,78.86Z"/><path class="cls-43" d="M1305.69,80.77v78.55H1323c6.37,0,11-2,11-5V130.15h0V111.79a21.38,21.38,0,0,0-1.5-7.77,26.34,26.34,0,0,0-1.6-3.3,31.23,31.23,0,0,0-2.9-4.2c-.11-.11-.19-.23-.3-.35a37.75,37.75,0,0,0-2.76-3,47.54,47.54,0,0,0-5-4.19c-1.22-.91-2.52-1.8-3.88-2.67l-1-.64A86.73,86.73,0,0,0,1305.69,80.77Z"/></g><path class="cls-11" d="M1313.77,97.89a3.6,3.6,0,0,0,3.61,3.61h6.81a2.05,2.05,0,0,1,1.41,3.54l-5.89,5.61a6.3,6.3,0,0,0,4.34,10.86,3.61,3.61,0,0,0,1.79-6.74l4.74-4.5a9.28,9.28,0,0,0-6.39-16h-6.81a3.6,3.6,0,0,0-3.61,3.61Z"/><path class="cls-25" d="M1321.57,103.29a1.34,1.34,0,0,1-1.34,1.32h-2.85a6.72,6.72,0,0,1,0-13.44h3.09a1.35,1.35,0,0,1,1.35,1.39Z"/><path class="cls-44" d="M530.23,128.75c-7.69,10.62-11.08,16.18-11.8,24.76"/><path class="cls-44" d="M624.17,127.35s19.19-14.37,38.28-15.08"/><path class="cls-45" d="M628.32,132.89a82,82,0,0,1,7.55-4.78l-3.3-7.8-2.13-5c-4,2.2-7.14,4.25-8.88,5.44-.88.61-1.41,1-1.54,1.1a6.92,6.92,0,0,0,8.3,11.07Z"/><circle class="cls-46" cx="628.05" cy="102.59" r="5.89"/><circle class="cls-46" cx="535.62" cy="102.59" r="5.89"/><rect class="cls-46" x="594.83" y="149.05" width="6.61" height="26.12"/><rect class="cls-47" x="594.83" y="162.5" width="6.61" height="12.67"/><rect class="cls-46" x="562.31" y="149.05" width="6.61" height="26.12" transform="translate(1131.23 324.21) rotate(-180)"/><rect class="cls-47" x="562.31" y="162.5" width="6.61" height="12.67" transform="translate(1131.23 337.67) rotate(-180)"/><path class="cls-32" d="M594.83,168.83H604a3.68,3.68,0,0,1,3.68,3.68v2.66a0,0,0,0,1,0,0H594.83a0,0,0,0,1,0,0v-6.33A0,0,0,0,1,594.83,168.83Z"/><path class="cls-32" d="M556.07,168.83h12.86a0,0,0,0,1,0,0v2.66a3.68,3.68,0,0,1-3.68,3.68h-9.18a0,0,0,0,1,0,0v-6.33A0,0,0,0,1,556.07,168.83Z" transform="translate(1124.99 344) rotate(-180)"/><path class="cls-48" d="M535.62,98.42V118h92.51V98.42a47.36,47.36,0,0,0-.74-8.3c-.22-1.19-.48-2.37-.79-3.53a44.74,44.74,0,0,0-1.43-4.47c-.21-.57-.44-1.15-.68-1.71s-.54-1.22-.82-1.82a42.17,42.17,0,0,0-2.44-4.48c-.6-1-1.23-1.91-1.9-2.84-.17-.23-.34-.46-.52-.68a46.25,46.25,0,0,0-23.33-16.38,45.62,45.62,0,0,0-9.33-1.84c-1.41-.13-2.83-.2-4.28-.2a46.19,46.19,0,0,0-27.46,9l-.64.48a46.5,46.5,0,0,0-4.61,4,48,48,0,0,0-4.23,4.88c-.85,1.13-1.66,2.31-2.4,3.52-.14.21-.26.41-.38.61-.74,1.26-1.44,2.54-2.06,3.87-.1.2-.2.4-.28.6-.45,1-.86,1.93-1.23,2.93-.12.34-.25.68-.36,1-.4,1.13-.76,2.28-1.07,3.45s-.57,2.34-.77,3.53A45.44,45.44,0,0,0,535.62,98.42Z"/><path class="cls-49" d="M541,118h81.77a5.31,5.31,0,0,1,5.31,5.31v25.84a0,0,0,0,1,0,0H535.62a0,0,0,0,1,0,0V123.44A5.43,5.43,0,0,1,541,118Z" transform="translate(1163.75 267.17) rotate(-180)"/><path class="cls-48" d="M580.17,105.49c0,8.29,8.65,15,19.31,15s19.32-6.72,19.32-15"/><path class="cls-16" d="M592.65,102.74a1.22,1.22,0,0,0-1.23,1.4,8.14,8.14,0,0,0,4.77,6.09,8.13,8.13,0,0,0,6.6,0,8.13,8.13,0,0,0,4.75-6,1.24,1.24,0,0,0-1.21-1.5Z"/><path class="cls-15" d="M596.08,104.88h6.82a1.53,1.53,0,0,0,1.53-1.54v-.6h-9.88v.6A1.53,1.53,0,0,0,596.08,104.88Z"/><path class="cls-50" d="M596.19,110.23a8.13,8.13,0,0,0,6.6,0,3.37,3.37,0,0,0-6.6,0Z"/><rect class="cls-16" x="607.24" y="88.79" width="3.95" height="7.02" rx="1.97"/><rect class="cls-16" x="587.15" y="88.79" width="3.95" height="7.02" rx="1.97"/><path class="cls-16" d="M599.43,48.29l-5.12-1.13a58,58,0,0,0-24.88,0l-5.11,1.13a2.32,2.32,0,0,0-1.83,2.27v8.91a1.94,1.94,0,0,0,1.94,1.94h34.89a1.93,1.93,0,0,0,1.93-1.94V50.56A2.32,2.32,0,0,0,599.43,48.29Z"/><line class="cls-51" x1="583.5" y1="90.48" x2="578.05" y2="89.64"/><line class="cls-51" x1="583.52" y1="94.3" x2="578.02" y2="94.62"/><path class="cls-52" d="M628.13,134.36v9.77a5,5,0,0,1-5,5H607.73a4.4,4.4,0,0,0-4.4,4.4v9a1.89,1.89,0,0,1-1.89,1.89h-6.61a1.89,1.89,0,0,1-1.88-1.89v-9a4.4,4.4,0,0,0-4.4-4.4H575.21a4.4,4.4,0,0,0-4.4,4.4v9a1.89,1.89,0,0,1-1.89,1.89h-6.61a1.89,1.89,0,0,1-1.88-1.89v-9a4.4,4.4,0,0,0-4.4-4.4H540.65a5,5,0,0,1-5-5v-9.77Z"/><line class="cls-51" x1="614.1" y1="94.41" x2="619.55" y2="95.25"/><line class="cls-51" x1="614.07" y1="90.59" x2="619.58" y2="90.27"/><g class="cls-53"><path class="cls-20" d="M524.81,127.68l7.81,11,10.24-6.6a7.43,7.43,0,0,0,3.28-4.74,5.5,5.5,0,0,0,.11-.67,7.32,7.32,0,0,0-1.14-3.13,7.53,7.53,0,0,0-10.43-2.25Z"/></g><path class="cls-45" d="M523.55,125.8l7.81,11,10.24-6.59a7.48,7.48,0,0,0,3.28-4.75c0-.22.09-.44.12-.67a7.56,7.56,0,0,0-11.58-5.38Z"/><path class="cls-54" d="M676.08,77.53l-14.93,31.81a2.31,2.31,0,0,0,3.28,3l31.78-19.11"/><path class="cls-55" d="M666.28,98.4l-5.13,10.94a2.31,2.31,0,0,0,3.28,3l9.74-5.85"/><path class="cls-56" d="M672.92,84.64c-.9-.39-.9-2.39,0-4.48s2.37-3.47,3.27-3.08"/><path class="cls-56" d="M696.5,93.16c.51.84-.65,2.48-2.59,3.66s-3.93,1.47-4.44.63"/><circle class="cls-48" cx="661.04" cy="112.84" r="2.99"/><rect class="cls-15" x="572.41" y="117.64" width="4.77" height="10.41"/><rect class="cls-15" x="613.15" y="117.64" width="3.2" height="11.12"/><path class="cls-15" d="M616.41,128.78v0a1.6,1.6,0,0,0-1.6-1.59H572.39a3,3,0,0,1,0,.31,11.5,11.5,0,0,1-10.09,11.41,1.55,1.55,0,0,0-1.39,1.53v17.09a3.28,3.28,0,0,0,3.28,3.28h57.42a3.28,3.28,0,0,0,3.29-3.28V140.42a1.56,1.56,0,0,0-1.08-1.47A10.67,10.67,0,0,1,616.41,128.78Z"/><path class="cls-24" d="M529.57,168.67h69.85a0,0,0,0,1,0,0v6.48a0,0,0,0,1,0,0H529.57a3.24,3.24,0,0,1-3.24-3.24v0a3.24,3.24,0,0,1,3.24-3.24Z"/><path class="cls-24" d="M686.82,211.16h69.85a0,0,0,0,1,0,0v6.48a0,0,0,0,1,0,0H686.82a3.24,3.24,0,0,1-3.24-3.24v0A3.24,3.24,0,0,1,686.82,211.16Z"/><path class="cls-24" d="M624.59,214h69.85a0,0,0,0,1,0,0v6.48a0,0,0,0,1,0,0H624.59a3.24,3.24,0,0,1-3.24-3.24v0A3.24,3.24,0,0,1,624.59,214Z"/><ellipse class="cls-57" cx="724.16" cy="181.57" rx="29.77" ry="5.35"/><rect class="cls-56" x="673.94" y="124.37" width="7.3" height="2.76" rx="1.38"/><rect class="cls-56" x="765.05" y="124.37" width="7.3" height="2.76" rx="1.38"/><rect class="cls-56" x="698.61" y="154.68" width="6.12" height="55.55" rx="3.06" transform="translate(61.53 -157.92) rotate(13.42)"/><rect class="cls-56" x="744.51" y="141.22" width="6.12" height="74.67" rx="3.06" transform="translate(-19.59 225.63) rotate(-16.94)"/><circle class="cls-58" cx="696.23" cy="208.49" r="12.92"/><circle class="cls-56" cx="696.23" cy="208.49" r="8.74"/><rect class="cls-58" x="752.86" y="206.22" width="9.41" height="11.04" rx="2.54" transform="translate(-29 218.57) rotate(-16.11)"/><path class="cls-3" d="M766.31,124.37a43.06,43.06,0,0,1-86.12,0Z"/><g class="cls-59"><path class="cls-60" d="M753.93,106.57c-1.59,14.94-2.53,53-34.55,67.7s98.58-2,98.58-2l12.83-76.19Z"/></g><circle class="cls-3" cx="672.4" cy="125.74" r="3.02"/><circle class="cls-3" cx="772.35" cy="125.74" r="3.02"/><ellipse class="cls-61" cx="723.14" cy="124.6" rx="43.28" ry="5.92"/><path class="cls-62" d="M726.14,129.93a274.68,274.68,0,0,1-32.56-1.32A54.13,54.13,0,0,1,685,127c-4.5-1.3-3.92-3.07,2.09-4.32A111.73,111.73,0,0,1,698.86,121c3.8-.37,7.74-.56,11.61-.82,2.61-.16,5.43-.16,8.16-.25,8.35-.26,16.45-.08,24.43.3a126.56,126.56,0,0,1,14.62,1.45c3.54.6,6.66,1.37,6.83,2.55s-2.7,2.2-6.63,3A108.85,108.85,0,0,1,745,129C739.11,129.48,733.1,129.75,726.14,129.93Zm6.08-.56,0-.12-42.6-1.73a41.81,41.81,0,0,0,8.12.83c9,.37,18,.76,27.09,1.12C727.26,129.57,729.76,129.42,732.22,129.37Zm26.25-3c1.11,0,1.76-.06,1.81-.24s-.83-.18-1.42-.2l-29.75-1a4.15,4.15,0,0,0-2.06.21c-.22.24.92.19,1.52.21q9.2.33,18.42.63Zm-2.78.75c.77,0,1.66-.09,1.76-.3s-.85-.14-1.37-.16l-23.3-.79c-2.09-.07-4.17-.15-6.27-.2-.72,0-1.59,0-1.7.23s.76.16,1.31.18l22.23.78Zm-1.76.36c-.37,0-.56,0-.77,0l-13.36-.49-15.25-.55c-.81,0-1.71,0-1.9.21s.82.17,1.39.19c8.76.34,17.54.67,26.29,1A12.69,12.69,0,0,0,753.93,127.46Zm7.83-2.63c.68,0,1.23,0,1.37-.22s-.47-.19-1-.22l-.7,0c-8.76-.27-17.57-.49-26.24-.84-.75,0-1.52,0-2.28,0a3.1,3.1,0,0,0-1.68.26c-.19.22.79.14,1.27.16q6.4.22,12.85.42Zm-.59.76c.37,0,.91,0,1-.2s-.47-.19-1-.2l-9.22-.31-15-.49-6.27-.2a2.54,2.54,0,0,0-1.4.21c-.19.19.54.16,1,.18,1.21,0,2.4.11,3.62.15q9.74.33,19.48.64Zm-12.7,2.59a8.2,8.2,0,0,0-1.67-.13l-16.59-.65c-2.77-.11-5.56-.2-8.34-.3a3.11,3.11,0,0,0-1.7.23c-.28.24.65.2,1.23.22l22.85.89A20.46,20.46,0,0,0,748.47,128.18Zm-62.88-4.1a4.06,4.06,0,0,0-1.53.17c-.27.2.54.17,1,.2.6,0,1.24.07,1.87.09l13.11.52c3.86.15,7.71.31,11.58.45.8,0,1.92,0,2.06-.23s-1-.16-1.63-.19l-18.65-.73C690.74,124.25,688.07,124.16,685.59,124.08Zm49.57-1.32c-.86,0-1.52.1-1.6.26s.76.13,1.2.14c3.52.13,7,.24,10.58.36l16.5.53a2.85,2.85,0,0,0,1-.06c.2-.09,0-.16-.19-.23a9.23,9.23,0,0,0-2.19-.19l-21-.67Zm17.18-1.25c-3.71-.71-28.44-1.48-33.4-1.08C729.92,120.86,741,121.11,752.34,121.51Zm-37.82,3.29c.47,0,1.13-.07,1.23-.24s-.68-.14-1.17-.16l-21.64-.82c-1.84-.07-3.68-.16-5.53-.22a3.58,3.58,0,0,0-1.65.2c-.28.22.7.16,1.18.18q8.26.35,16.56.67C707.07,124.55,710.67,124.66,714.52,124.8Zm-30.34,0c-.11,0-.64,0-.78.14s.17.21.65.25,1.11.07,1.69.09l23.61,1a4.06,4.06,0,0,0,1.94-.19c.3-.26-.83-.21-1.41-.23l-15.16-.62Zm4.14-1.86a5.7,5.7,0,0,0,1.4.13l23.16.91c1.15,0,2.33.06,3.49.09a3.19,3.19,0,0,0,1.49-.18c.27-.19-.61-.15-1-.18-.89,0-1.83-.08-2.75-.11l-22.28-.89A10.2,10.2,0,0,0,688.32,123Zm30,.46c1.05,0,1.63-.1,1.77-.27s-.44-.13-.84-.14l-24.79-.93a9.59,9.59,0,0,0-1.72.08c-.35,0-.87.08-.79.2s.52.08.86.1l22.54.83ZM707.68,127c.73,0,1.29-.08,1.41-.24s-.59-.17-1.08-.19L695.07,126l-9.86-.38c-.47,0-1.16-.08-1.37.1s.2.26.77.32c.41,0,.88.06,1.34.08l15.19.62C703.33,126.85,705.54,126.91,707.68,127Zm34.57,1.79-1-.08-21.48-.83a4,4,0,0,0-2,.25c-.27.22.78.19,1.31.21,5.59.24,11.2.44,16.76.69A54.94,54.94,0,0,0,742.25,128.78Zm-46.08-7.06a3.53,3.53,0,0,0,1.27.16l14.77.52c2.67.09,5.32.2,8,.3a4.08,4.08,0,0,0,1.93-.22c.19-.22-.83-.17-1.4-.19-6.42-.24-12.9-.42-19.26-.71A28.58,28.58,0,0,0,696.17,121.72Zm65.3,1.53a4.9,4.9,0,0,0-2.37-.48c-2.47,0-4.91-.12-7.35-.2-4.81-.15-9.61-.32-14.41-.48a3.24,3.24,0,0,0-1.61.2c-.28.21.5.19,1.07.21Zm-75.88,3.29a4.82,4.82,0,0,0,2.41.53l16.73.68a4.29,4.29,0,0,0,2.09-.22c.28-.27-1-.21-1.59-.24l-16.41-.65C687.81,126.6,686.84,126.5,685.59,126.54Zm15.83-5.26,16.43.58c1.5,0,3,.09,4.51.16a3.11,3.11,0,0,0,1.71-.19c.21-.21-.65-.17-1.15-.21s-.8,0-1.2-.05c-5.12-.2-10.33-.31-15.4-.57A24.23,24.23,0,0,0,701.42,121.28Zm57,1.14a13.75,13.75,0,0,0-3.83-.54l-14.14-.42c-.57,0-1.18,0-1.77,0s-1,.08-1,.21.57.1,1,.11l11,.36Zm-50-1.71a7.56,7.56,0,0,0,.82.13l15.26.53c.8,0,1.54,0,1.66-.24s-.77-.16-1.28-.18c-3.52-.13-7-.26-10.58-.37C712.43,120.53,710.6,120.6,708.34,120.71Zm1.7,6.75a4.08,4.08,0,0,0-1.87.26c-.26.23.68.18,1.14.2,1.58.09,3.2.15,4.8.22A6.35,6.35,0,0,0,716,128c.38-.11.46-.21-.2-.25Zm2.17-.75a2.58,2.58,0,0,0-1.61.3c-.13.2.79.14,1.3.17l2.57.1c1,0,2,.07,3,.08a2.66,2.66,0,0,0,1.36-.23c.2-.13-.19-.17-.63-.18Zm1.65-.73a3.15,3.15,0,0,0-1.1.25c-.15.07,0,.13.37.14l6.55.26a2.35,2.35,0,0,0,1.31-.25c.21-.12-.12-.17-.58-.19Zm9.74-.79a3.92,3.92,0,0,0,1.87-.28c.16-.21-.79-.13-1.26-.17-1.76-.13-3.73-.07-5.5-.2a2.89,2.89,0,0,0-1.41.2c-.26.13.09.18.52.21C719.79,125.05,721.87,125.05,723.6,125.19Zm4.5-1.43a4.57,4.57,0,0,0,1.65-.19c.21-.09.13-.18-.29-.19-2.29-.09-4.58-.17-6.9-.24a2,2,0,0,0-1,.22c-.18.13.31.16.7.17Zm-2.68-1.31a4.39,4.39,0,0,0-1.7.21c-.14.1.18.16.53.18,2.19.07,4.38.15,6.59.21a1.74,1.74,0,0,0,1.12-.23c.13-.16-.49-.15-.91-.18C729.22,122.51,727.23,122.53,725.42,122.45Zm-9,2.82a2.37,2.37,0,0,0-1.21.22c-.21.21.62.17,1.15.19l2.58.11c1,0,2.08.07,3.14.08a2.68,2.68,0,0,0,1.23-.21c.18-.11-.09-.16-.47-.17Zm18.39-3.59c.46,0,1.06,0,1.17-.18s-.45-.19-1-.21c-.76,0-1.53,0-2.28-.06l-3.43-.14a3.11,3.11,0,0,0-1.53.25c-.23.14.33.15.71.16C730.52,121.57,732.61,121.62,734.79,121.68Zm-2.24.67a3.27,3.27,0,0,0,1.35-.16c.27-.13-.08-.18-.51-.2-2.11-.09-4.22-.18-6.34-.25a2,2,0,0,0-1.18.22c-.2.15.38.17.82.19Zm-6.47,2.1a3.44,3.44,0,0,0,1.47-.2c.17-.11-.21-.16-.55-.17-2.19-.08-4.38-.16-6.59-.22a1.65,1.65,0,0,0-1,.21c-.12.11.29.13.64.14Z"/><rect class="cls-4" x="721" y="120.29" width="32.25" height="3.48" rx="1.74" transform="translate(13.7 -64.79) rotate(5.08)"/><g class="cls-63"><ellipse class="cls-64" cx="737.72" cy="120.4" rx="1.06" ry="13.83" transform="translate(547.6 843.3) rotate(-84.53)"/></g><rect class="cls-4" x="703.79" y="121.73" width="32.25" height="3.48" rx="1.74" transform="translate(13.76 -63.26) rotate(5.08)"/><g class="cls-65"><ellipse class="cls-64" cx="720.51" cy="121.85" rx="1.06" ry="13.83" transform="translate(530.59 827.47) rotate(-84.53)"/></g><rect class="cls-4" x="692.98" y="123.78" width="32.25" height="3.48" rx="1.74" transform="translate(13.9 -62.29) rotate(5.08)"/><g class="cls-66"><ellipse class="cls-64" cx="709.7" cy="123.89" rx="1.06" ry="13.83" transform="translate(518.78 818.56) rotate(-84.53)"/></g><rect class="cls-24" x="1423.81" y="175.62" width="76.1" height="6.3" rx="3.15" transform="translate(2923.72 357.54) rotate(180)"/><path class="cls-67" d="M1476.62,136a87.16,87.16,0,0,0,23.26,10.15"/><rect class="cls-68" x="1423.84" y="155.7" width="6.59" height="21.83"/><rect class="cls-69" x="1423.85" y="173.5" width="6.59" height="3.03"/><rect class="cls-68" x="1456.85" y="155.7" width="6.59" height="22.83"/><rect class="cls-69" x="1456.85" y="173.5" width="6.59" height="4.03"/><path class="cls-68" d="M1488.17,109.61v19.53h-92.23V109.61c0-.9,0-1.79.08-2.68a46.63,46.63,0,0,1,.66-5.59c.22-1.19.48-2.37.78-3.52a43.75,43.75,0,0,1,1.43-4.46c.45-1.2.95-2.37,1.49-3.52a44.64,44.64,0,0,1,2.44-4.46c.6-1,1.23-1.92,1.9-2.84l.51-.68c.46-.61.94-1.22,1.44-1.81.16-.19.32-.38.5-.57a45.46,45.46,0,0,1,9.12-8.11c1.19-.81,2.43-1.56,3.7-2.25a44.59,44.59,0,0,1,5.43-2.52,45.38,45.38,0,0,1,11.38-2.81,48,48,0,0,1,5.26-.29,45.81,45.81,0,0,1,7.91.68,44.33,44.33,0,0,1,7.21,1.86c1.36.47,2.71,1,4,1.61a45.93,45.93,0,0,1,8.24,4.85l.64.48a47.5,47.5,0,0,1,4.59,4,45.25,45.25,0,0,1,3.83,4.36l.39.5c.85,1.13,1.66,2.31,2.4,3.52.13.2.25.4.37.6a43.25,43.25,0,0,1,2.06,3.86c.1.19.19.39.28.59.44,1,.85,1.94,1.22,2.93.55,1.45,1,2.94,1.43,4.46.3,1.15.56,2.33.77,3.52A45.92,45.92,0,0,1,1488.17,109.61Z"/><path class="cls-70" d="M1395.94,129.14h92.23a0,0,0,0,1,0,0v21.37a5.3,5.3,0,0,1-5.3,5.3h-81.52a5.41,5.41,0,0,1-5.41-5.41V129.14A0,0,0,0,1,1395.94,129.14Z"/><rect class="cls-16" x="1464.83" y="94.37" width="3.94" height="7" rx="1.97"/><rect class="cls-16" x="1445.69" y="94.37" width="3.94" height="7" rx="1.97"/><path class="cls-70" d="M1453.4,134.78c0,7.06-5.73,8.4-12.79,8.4s-12.78-1.34-12.78-8.4a12.79,12.79,0,0,1,25.57,0Z"/><path class="cls-70" d="M1483.86,134.78c0,7.06-5.72,8.4-12.78,8.4s-12.78-1.34-12.78-8.4a12.78,12.78,0,1,1,25.56,0Z"/><rect class="cls-17" x="1423.84" y="155.81" width="6.59" height="2.58"/><rect class="cls-17" x="1456.85" y="155.81" width="6.59" height="2.58"/><path class="cls-71" d="M1488.17,143.54s.38,11.68,2.81,21.12a2.45,2.45,0,0,1-2.36,3.07H1395.5a2.45,2.45,0,0,1-2.36-3.07c2.43-9.44,2.8-21.12,2.8-21.12Z"/><path class="cls-16" d="M1450.87,107.09a1.23,1.23,0,0,0-1.23,1.4,8.15,8.15,0,0,0,4.76,6.08,8.11,8.11,0,0,0,6.59,0,8.14,8.14,0,0,0,4.73-6,1.25,1.25,0,0,0-1.21-1.5Z"/><path class="cls-15" d="M1454.29,109.23h6.8a1.53,1.53,0,0,0,1.53-1.53v-.6h-9.85v.6A1.53,1.53,0,0,0,1454.29,109.23Z"/><path class="cls-50" d="M1454.4,114.57a8.11,8.11,0,0,0,6.59,0,3.37,3.37,0,0,0-6.59,0Z"/><path class="cls-67" d="M1417.4,136a65.34,65.34,0,0,0,19.79,8.84c7.61,1.86,15.29,1.27,23,1.22h1"/><path class="cls-16" d="M1402.12,86.54c0-3.75,2.5-3.75,2.5-7.5s-2.5-3.75-2.5-7.5,2.5-3.75,2.5-7.5-2.5-3.75-2.5-7.5,2.5-3.76,2.5-7.51-2.5-3.75-2.5-7.5h0A5.92,5.92,0,0,1,1408,35.6h67.84a5.92,5.92,0,0,1,5.93,5.93h0c0,3.75-2.51,3.75-2.51,7.5s2.51,3.75,2.51,7.51-2.51,3.75-2.51,7.5,2.51,3.75,2.51,7.5-2.51,3.75-2.51,7.5,2.69,3.75,2.69,7.5L1447.67,75a1.74,1.74,0,0,0-2.17,2.32h0a1.75,1.75,0,0,1-2.13,2.34h0a39.69,39.69,0,0,0-25.8.93Z"/><path class="cls-72" d="M1466,175.43h-9.15v6.31h3v-3l3.43,3h6.4v-2.65A3.66,3.66,0,0,0,1466,175.43Z"/><path class="cls-72" d="M1433,175.43h-9.15v6.31H1427v-3l3.43,3h6.23v-2.65A3.66,3.66,0,0,0,1433,175.43Z"/><line class="cls-73" x1="1442.06" y1="96.32" x2="1435.95" y2="95"/><line class="cls-73" x1="1442.06" y1="99.52" x2="1435.95" y2="100.08"/><line class="cls-73" x1="1471.76" y1="99.93" x2="1477.87" y2="101.26"/><line class="cls-73" x1="1471.76" y1="96.73" x2="1477.87" y2="96.18"/><circle class="cls-74" cx="1439.81" cy="108.97" r="0.81"/><circle class="cls-74" cx="1472.63" cy="109.77" r="0.81"/><circle class="cls-74" cx="1473.43" cy="112.63" r="0.81"/><circle class="cls-74" cx="1475.97" cy="109.23" r="0.81"/><circle class="cls-74" cx="1435.12" cy="109.41" r="0.81"/><circle class="cls-74" cx="1438.2" cy="112.63" r="0.81"/><path class="cls-75" d="M1512.75,142.58,1485.27,145a1,1,0,0,1-1-1.63l11.34-16.28a1,1,0,0,1,1.53-.19l16.14,13.83A1,1,0,0,1,1512.75,142.58Z"/><rect class="cls-4" x="1481.25" y="137.18" width="37.26" height="4.02" rx="2.01" transform="translate(3006.2 145.04) rotate(174.92)"/><path class="cls-76" d="M1515.81,136.78l0-.08a.44.44,0,0,0-.2-.48c-.38-.29-.78-.74-1.28-.79a1.68,1.68,0,0,0-1.19.47c-.42.34-.63.8-1,1.16-.13.12-.07.12-.26.19a1.28,1.28,0,0,1-.69-.11l-1-.29c-1.33-.44-2.67-.87-4-1.18-.42-.1-1-.33-1.37-.07s-.6.92-1.23,1.08a7.32,7.32,0,0,1-1.69.09c-.75,0-1.5,0-2.25-.09s-1.26-.11-1.89-.18a5,5,0,0,0-1.81-.12c-.5.14-.62.65-1,.89s-1.2.12-1.76.27a4.48,4.48,0,0,0-1.28.79c-.76.5-1.31.07-2-.32a1.51,1.51,0,0,0-1.49-.18,2.87,2.87,0,0,0-.55.44c-.29.26-.37.21-.63,0a1,1,0,0,0-1-.38,2.25,2.25,0,0,0-1.22.61.42.42,0,0,0,.6.6c.28-.27.71-.5,1-.22s.48.52.93.5a1.51,1.51,0,0,0,.9-.48c.26-.24.49-.39.85-.22s.54.33.82.47a2.23,2.23,0,0,0,2.65-.39,3,3,0,0,1,1.66-.47,2.13,2.13,0,0,0,1.25-.5c.18-.17.28-.42.52-.52a1.55,1.55,0,0,1,.77,0c.66.08,1.33.15,2,.21a33.54,33.54,0,0,0,3.88.13,3.53,3.53,0,0,0,1.33-.21,1.56,1.56,0,0,0,.46-.29c.2-.18.38-.6.61-.72s1.31.24,1.67.34c.7.19,1.41.4,2.11.62s1.29.43,2,.62c.48.14,1.09.34,1.53,0s.61-.85,1-1.21.61-.6,1-.34.5.36.74.54l-.2-.48,0,.08a.43.43,0,0,0,.82.23Z"/><path class="cls-2" d="M1514.14,142.82l-27.48,2.44a1,1,0,0,1-1-1.63l11.34-16.27a1,1,0,0,1,1.53-.2L1514.73,141A1,1,0,0,1,1514.14,142.82Z"/><g class="cls-77"><path class="cls-69" d="M1516,142.66,1499.41,129a1.59,1.59,0,0,0-2.31.3l-11.48,16-4.86-2,5.25-24.24,12.92-2.32,11.73,10.35Z"/></g><path class="cls-75" d="M1470.73,145l-27.58-.5a1,1,0,0,1-.77-1.72l13-15a1.05,1.05,0,0,1,1.55,0l14.58,15.47A1,1,0,0,1,1470.73,145Z"/><rect class="cls-4" x="1439.67" y="138.28" width="37.26" height="4.02" rx="2.01" transform="matrix(-1, -0.02, 0.02, -1, 2913.85, 306.65)"/><path class="cls-76" d="M1474.37,139.64l0-.08a.42.42,0,0,0-.06-.51c-.35-.32-.74-.83-1.21-1a1.79,1.79,0,0,0-1.38.41c-.43.29-.69.79-1.11,1.07s-1.4-.33-1.84-.53c-1.27-.58-2.56-1.14-3.88-1.6-.4-.14-.88-.4-1.3-.2s-.74.9-1.45,1a8.88,8.88,0,0,1-1.63-.11,23.36,23.36,0,0,1-2.35-.35l-1.85-.38a4.41,4.41,0,0,0-1.67-.28c-.53.11-.72.66-1.21.81s-1.21-.07-1.8.08a7.76,7.76,0,0,0-1.35.68c-.75.34-1.32-.24-1.89-.65a1.44,1.44,0,0,0-1.39-.28,2.74,2.74,0,0,0-.59.36c-.33.23-.38.23-.63-.08a1.56,1.56,0,0,0-2.26,0c-.42.34.18.94.61.6a1.25,1.25,0,0,1,.54-.23c.28-.06.31,0,.47.19a1.1,1.1,0,0,0,.9.56,1.59,1.59,0,0,0,.93-.42c.6-.44,1,0,1.48.38a2.19,2.19,0,0,0,2.68.05,2.13,2.13,0,0,1,.9-.39,6.61,6.61,0,0,1,.77,0,2.36,2.36,0,0,0,1.38-.33c.18-.12.29-.31.46-.43s.58-.05.87,0c.65.15,1.3.29,2,.42a32.12,32.12,0,0,0,3.78.53,4.08,4.08,0,0,0,1.35,0c.54-.13.78-.5,1.19-.82.24-.19.37-.08.66,0s.59.2.88.32c.73.28,1.45.57,2.16.88s1.18.54,1.77.79,1.1.52,1.62.26.71-.73,1-1,.75-.62,1.08-.42a2.65,2.65,0,0,1,.21.26c.15.15.33.27.48.41l-.06-.52,0,.09c-.21.49.52.93.74.42Z"/><path class="cls-2" d="M1472.09,145.41l-27.58-.49a1,1,0,0,1-.77-1.72l13-15a1,1,0,0,1,1.55,0l14.58,15.47A1,1,0,0,1,1472.09,145.41Z"/><g class="cls-78"><path class="cls-69" d="M1473.9,145.45l-15-15.32a1.59,1.59,0,0,0-2.33.05l-13.12,14.72-4.62-2.5,7.79-23.55,13.11-.92,10.55,11.53Z"/></g><circle class="cls-68" cx="1497.32" cy="144.89" r="2.56"/><circle class="cls-68" cx="1463.91" cy="145.28" r="2.56"/><path class="cls-46" d="M1013.59,66.32a7.63,7.63,0,0,0,1.1.66,6.91,6.91,0,0,0,6-12.45,6.73,6.73,0,0,0-2.62-.67h0a6.91,6.91,0,0,0-4.48,12.46Z"/><path class="cls-79" d="M1013.59,66.32a7.63,7.63,0,0,0,1.1.66,6.91,6.91,0,0,0,6-12.45,6.73,6.73,0,0,0-2.62-.67h0a6.91,6.91,0,0,0-4.48,12.46Z"/><path class="cls-46" d="M973.44,101.09a4.68,4.68,0,0,0,6.53.82c9.24-7.19,19.6-8.55,26.93-8.37a47.49,47.49,0,0,1,7.53.78c1.32.25,2.07.46,2.11.47a4.65,4.65,0,0,0,2.59-8.94c-.2,0-1.28-.36-3-.69a57.94,57.94,0,0,0-7.52-.88c-9-.45-22.29,1-34.3,10.28A4.65,4.65,0,0,0,973.44,101.09Z"/><path class="cls-12" d="M1006.9,92.3a47.49,47.49,0,0,1,7.53.78l1.65-9.16a57.94,57.94,0,0,0-7.52-.88Z"/><path class="cls-20" d="M1073.37,95.16a4,4,0,0,0,1.51,4.51,4,4,0,0,0,1.11.55l17.79,5.67,2.18-6.71.5-.9-18-5.74A4,4,0,0,0,1073.37,95.16Z"/><path class="cls-79" d="M1088.75,105.1l1.64.52,8.87,2.83,2.8.89.53.17,7,2.24,2.32.74,15.79,5a4,4,0,0,0,5-2.45l.06-.17s0-.09,0-.14a3.44,3.44,0,0,0,.12-.64,2.74,2.74,0,0,0,0-.64,1.66,1.66,0,0,0,0-.32,4,4,0,0,0-2.77-3.33l-1.69-.54-14-4.45h0l-7.54-2.41-2-.63-3.93-1.25-8.87-2.82-.74-.24-.5.9Z"/><polygon class="cls-12" points="1095.42 106.41 1104.29 109.24 1106.07 101.34 1097.2 98.52 1095.42 106.41"/><path class="cls-24" d="M1016.43,146.95H1070a0,0,0,0,1,0,0v6.24a0,0,0,0,1,0,0h-53.6a3.12,3.12,0,0,1-3.12-3.12v0A3.12,3.12,0,0,1,1016.43,146.95Z"/><path class="cls-5" d="M1075.12,140v6.61h2.68a3.84,3.84,0,0,1,3.84,3.84v2.78H1068.3V140Z"/><path class="cls-80" d="M1068.3,140h6.82V127a30.37,30.37,0,0,0-12.61-24.6L1057,98.4l-4,5.54,5.49,4A23.53,23.53,0,0,1,1068.3,127Z"/><path class="cls-80" d="M1030.05,140h6.82V127a30.43,30.43,0,0,0-.89-7.32,3.42,3.42,0,0,0-4.56-2.36h0a3.38,3.38,0,0,0-2.08,3.94,23.5,23.5,0,0,1,.71,5.74Z"/><path class="cls-5" d="M1036.87,140v6.61h2.68a3.84,3.84,0,0,1,3.84,3.84v2.78h-13.34V140Z"/><path class="cls-5" d="M1125.6,107.82a2.23,2.23,0,0,0-1.5-2.65l-20.91-6.36-3.92-1.25-11.53-3.67-1,1.75-.52.92-.11.21-3,9.31,37.12,11.52.54.17a2.22,2.22,0,0,0,2.85-1.61Z"/><path class="cls-43" d="M1013.59,66.32a7.63,7.63,0,0,0,1.1.66,6.91,6.91,0,0,0,6-12.45,6.73,6.73,0,0,0-2.62-.67h0c-.37.71-.72,1.43-1.06,2.16-.53,1.13-1,2.29-1.45,3.47A47.94,47.94,0,0,0,1013.59,66.32Z"/><path class="cls-79" d="M1013.31,81l18.06,3.21L1103.17,97l2.37-13.37a46.67,46.67,0,0,0,.72-8.19c0-1.2-.06-2.38-.16-3.56a46.25,46.25,0,0,0-.61-4.6c0-.13,0-.26-.08-.39-.22-1.11-.48-2.21-.78-3.29a45.2,45.2,0,0,0-1.59-4.77c-.43-1-.88-2.08-1.37-3.09l-.38-.76a45.66,45.66,0,0,0-30.38-23.77c-.76-.18-1.54-.34-2.32-.48a45.79,45.79,0,0,0-11.52-.58c-1.22.1-2.45.24-3.65.44a45.17,45.17,0,0,0-13,4.15s0,0-.06,0c-.23.11-.47.23-.7.36a42.5,42.5,0,0,0-5.17,3.12,45.09,45.09,0,0,0-5,4c-1,1-2,2-3,3-.16.18-.31.36-.47.53-.94,1.08-1.83,2.22-2.67,3.4a6.3,6.3,0,0,0-.37.53l-.35.49c-.47.7-.91,1.42-1.35,2.15a44.32,44.32,0,0,0-2.16,4.1c-.5,1.06-1,2.16-1.37,3.29a45.59,45.59,0,0,0-2.15,7.93Z"/><rect class="cls-16" x="1086.93" y="64.05" width="6.92" height="3.89" rx="1.95" transform="translate(834.87 1128.08) rotate(-79.94)"/><rect class="cls-16" x="1067.42" y="60.59" width="6.92" height="3.89" rx="1.95" transform="translate(822.18 1106.01) rotate(-79.94)"/><path class="cls-81" d="M1012.67,117.93l11.77,2.09,67.08,11.91a5.12,5.12,0,0,0,6.19-4.24l2.39-13.48L1103.17,97l-71.8-12.74L1013.31,81l-3.15,17.75-2.31,13C1007.31,114.79,1009.63,117.39,1012.67,117.93Z"/><circle class="cls-46" cx="986.55" cy="92.15" r="3.07"/><polyline class="cls-46" points="987.84 94.94 991.14 93.09 989.65 91.31 987.28 92.13"/><polygon class="cls-46" points="985.03 89.49 989.11 87.99 989.98 89.44 986.85 92.11 985.03 89.49"/><path class="cls-3" d="M1007.85,111.73l2.53-14.19,89.72,16.69-2.4,13.48a5.1,5.1,0,0,1-6.18,4.23l-13.1-2.33a1.75,1.75,0,0,0-2.06,1.72v1.73a1.24,1.24,0,0,1-1.24,1.24h-7a1.23,1.23,0,0,1-1.24-1.24v-4a1.75,1.75,0,0,0-1.45-1.72l-52.8-9.39C1009.63,117.37,1007.31,114.77,1007.85,111.73Z"/><path class="cls-3" d="M1029.88,120.21h7a1.24,1.24,0,0,1,1.24,1.24V134.3a0,0,0,0,1,0,0h-9.43a0,0,0,0,1,0,0V121.45A1.24,1.24,0,0,1,1029.88,120.21Z" transform="translate(2066.71 254.51) rotate(-180)"/><path class="cls-3" d="M1041.17,123s-3.1-.31-3.1,3.44-4-.23-4-1.39,2.7-7.34,2.7-7.34,1.78-2.47,3.4.39,1.47,3.32,1.47,3.32Z"/><path class="cls-3" d="M1028.64,125.12s-.52-4.46-4.19-5.11.8-3.7.8-3.7l6.17,1,.39,3.86Z"/><path class="cls-82" d="M1012.67,117.93l11.77,2.09,6.35-33.08c.17-.92.36-1.83.58-2.73a80.09,80.09,0,0,1,31.83-47.59l7.71-5.46c-.76-.18-1.54-.34-2.32-.48a45.79,45.79,0,0,0-11.52-.58c-1.22.1-2.45.24-3.65.44a45.17,45.17,0,0,0-13,4.15s0,0-.06,0c-.23.11-.47.23-.7.36a42.5,42.5,0,0,0-5.17,3.12,45.09,45.09,0,0,0-5,4c-1,1-2,2-3,3-.16.18-.31.36-.47.53-.94,1.08-1.83,2.22-2.67,3.4a6.3,6.3,0,0,0-.37.53l-.35.49c-.47.7-.91,1.42-1.35,2.15a44.32,44.32,0,0,0-2.16,4.1c-.5,1.06-1,2.16-1.37,3.29a45.59,45.59,0,0,0-2.15,7.93L1013.31,81l-3.15,17.75-2.31,13C1007.31,114.79,1009.63,117.39,1012.67,117.93Z"/><line class="cls-83" x1="1064.39" y1="63.32" x2="1059.74" y2="63.32"/><g class="cls-53"><line class="cls-84" x1="1096.08" y1="65.96" x2="1100.05" y2="66.79"/><line class="cls-84" x1="1095.71" y1="69.85" x2="1099.24" y2="71.81"/></g><circle class="cls-81" cx="1054.42" cy="92.13" r="9.71"/><circle class="cls-81" cx="1082.17" cy="97.74" r="9.71"/><path class="cls-43" d="M1100.21,95.62l-5-.88a2.26,2.26,0,0,0-2.53,1.4l-7.08,18.49a2.21,2.21,0,0,0,1.64,2.93l9.18,2a2.25,2.25,0,0,0,2.72-1.84l2.89-19.56A2.23,2.23,0,0,0,1100.21,95.62Z"/><path class="cls-5" d="M1039.63,83.58l-24.55-5.92a2.55,2.55,0,0,0-3.12,2l-3.68,19.61a2.57,2.57,0,0,0,2.25,3l23.43,2.47a2.55,2.55,0,0,0,2.72-1.81l4.81-16.17A2.56,2.56,0,0,0,1039.63,83.58Z"/><g class="cls-85"><path class="cls-86" d="M1011.13,117.93,1022.9,120l6.35-33.08c.17-.92.36-1.83.58-2.73a80.09,80.09,0,0,1,31.83-47.59l7.71-5.46c-.76-.18-1.54-.34-2.32-.48a45.74,45.74,0,0,0-11.51-.58c-1.23.1-2.45.24-3.66.44a45.17,45.17,0,0,0-13,4.15l-.06,0c-.23.11-.47.23-.7.36a42.5,42.5,0,0,0-5.17,3.12,45.09,45.09,0,0,0-5,4c-1,1-2,2-3,3-.16.18-.31.36-.47.53-.94,1.08-1.83,2.22-2.67,3.4a6.3,6.3,0,0,0-.37.53c-.12.16-.23.32-.34.49-.48.7-.92,1.42-1.36,2.15-.78,1.32-1.5,2.68-2.16,4.1-.5,1.06-.95,2.16-1.37,3.29a46.5,46.5,0,0,0-2.15,7.93L1011.77,81l-3.15,17.75-2.31,13C1005.77,114.79,1008.09,117.39,1011.13,117.93Z"/></g><path class="cls-16" d="M1079.72,8.81l5,14.39a2.17,2.17,0,0,0,3.49.92h0a2.18,2.18,0,0,1,3.55,1.13l5.87,24.15A37.37,37.37,0,0,0,1085,56.89a3.86,3.86,0,0,1-5.42-.31,42.54,42.54,0,0,0-57.74-5.13l17.61-29.17a2.17,2.17,0,0,1,3.61-.16l1.29,1.75a2.19,2.19,0,0,0,3.51,0l7.8-10.53a2.17,2.17,0,0,1,3.61.18l4.09,6.83a2.18,2.18,0,0,0,3.64.17l8.91-12.28A2.18,2.18,0,0,1,1079.72,8.81Z"/><path class="cls-79" d="M973.44,101.09a4.68,4.68,0,0,0,6.53.82c9.24-7.19,19.6-8.55,26.93-8.37a47.49,47.49,0,0,1,7.53.78c1.32.25,2.07.46,2.11.47a4.65,4.65,0,0,0,2.59-8.94c-.2,0-1.28-.36-3-.69a57.94,57.94,0,0,0-7.52-.88c-9-.45-22.29,1-34.3,10.28A4.65,4.65,0,0,0,973.44,101.09Z"/><path class="cls-87" d="M977.46,89.08a54.37,54.37,0,0,1,28.15-7.58c1,0,2.06,0,3.09.08a59.93,59.93,0,0,1,7.88.92c1.65.31,2.76.6,3.31.76a7.36,7.36,0,0,1,5,9.11,7.38,7.38,0,0,1-7.06,5.31,7.52,7.52,0,0,1-2.05-.29h0c-.1,0-.74-.2-1.83-.4a45,45,0,0,0-7.1-.74l-1.15,0a39.81,39.81,0,0,0-20.9,5.64Z"/><line class="cls-83" x1="1065.63" y1="58.57" x2="1060.98" y2="57.33"/><path class="cls-5" d="M1102.14,94.71l-5-.91a2.25,2.25,0,0,0-2.52,1.44l-7.08,19a2.26,2.26,0,0,0,1.64,3l9.17,2a2.27,2.27,0,0,0,2.72-1.89L1104,97.26A2.27,2.27,0,0,0,1102.14,94.71Z"/><circle class="cls-79" cx="1033.36" cy="148.77" r="1.04"/><circle class="cls-79" cx="1071.49" cy="148.77" r="1.04"/><ellipse class="cls-79" cx="1129.56" cy="114.41" rx="3.34" ry="3.24"/><path class="cls-88" d="M1075.22,71.2a6.44,6.44,0,0,0,7.47,2"/><ellipse class="cls-6" cx="1133.45" cy="98.97" rx="14.02" ry="23.79" transform="translate(870.85 1206.02) rotate(-81.65)"/><g class="cls-89"><path class="cls-90" d="M1160.09,99.42c-.92,6.3-13.38,9.69-27.82,7.57s-25.39-8.95-24.46-15.25"/><path class="cls-43" d="M1107.88,105.64c18.62,3.45,45.87,7.79,55.64-9l7.52,29-49.48,10.74Z"/></g><rect class="cls-15" x="1129.32" y="83.86" width="1.26" height="1.72" rx="0.4" transform="translate(24.3 -163.27) rotate(8.35)"/><rect class="cls-15" x="1132.19" y="83.93" width="1.26" height="1.72" rx="0.4" transform="translate(24.34 -163.69) rotate(8.35)"/><rect class="cls-15" x="1135.04" y="84.17" width="1.26" height="1.72" rx="0.4" transform="matrix(0.99, 0.15, -0.15, 0.99, 24.41, -164.1)"/><rect class="cls-15" x="1137.83" y="84.76" width="1.26" height="1.72" rx="0.4" transform="translate(24.52 -164.5) rotate(8.35)"/><rect class="cls-15" x="1140.6" y="85.52" width="1.26" height="1.72" rx="0.4" transform="translate(24.66 -164.9) rotate(8.35)"/><path class="cls-91" d="M1128.2,92.59c-.11-.06,0-.14,0-.2s.49-.21.57-.37a.76.76,0,0,1,.41-.34c.14-.05.51-.18.62-.24s.36-.41.59-.54.22,0,.23.07a.84.84,0,0,1-.36.73c.06.1.35.59.43.75a.32.32,0,0,0,.29.18,1.17,1.17,0,0,0,.59-.16,4.64,4.64,0,0,1,3.39-.77,4.41,4.41,0,0,1,2.62,2.13c1.22,2.53-.45,5,1.92,6.37.18.1.12.22-.09.16-2.66-.75-1.73-3.54-2.56-5.34a.18.18,0,0,0-.24-.11,4.3,4.3,0,0,1-1.18.21c-.17,0-.29.07-.37.33a2.67,2.67,0,0,0,.22,2.47.38.38,0,0,1-.07.49l-1.75,1.64a.6.6,0,0,1-.71.09s0,0,0-.09a4.28,4.28,0,0,1,1.37-1.34.79.79,0,0,0,.3-.84,8.68,8.68,0,0,0-.34-1.53,11.55,11.55,0,0,1-.64-1.39.32.32,0,0,0-.36-.26,4.2,4.2,0,0,1-1,0,3.32,3.32,0,0,0,.1.92.71.71,0,0,0,.67.41c.38,0,.13.52-.25.47a1,1,0,0,1-.83-.75c0-.16-.1-.9-.43-1.07a2.68,2.68,0,0,1-1.2-.8c-.41-.54-.55-.86-.74-.89a3.71,3.71,0,0,0-.54-.08C1128.72,92.87,1128.18,92.84,1128.2,92.59Z"/><path class="cls-68" d="M930.63,115a25,25,0,0,1-33,2l-1.68-1.31-5.15-4a4.51,4.51,0,0,1,5.15-7.39l.4.28,4.53,3.55,2.3,1.79a16,16,0,0,0,21.12-1.25,4.5,4.5,0,1,1,6.35,6.39Z"/><path class="cls-17" d="M900.86,108v11a25,25,0,0,1-3.25-2.15l-1.68-1.31V104.19l.4.28Z"/><path class="cls-68" d="M902.83,84.62a6.07,6.07,0,0,1-6,6,4.91,4.91,0,0,1-.86-.07,6,6,0,0,1,0-11.94,6.07,6.07,0,0,1,3.88.75A6,6,0,0,1,902.83,84.62Z"/><path class="cls-92" d="M899.81,79.39V89.83a6,6,0,0,1-3,.82,4.91,4.91,0,0,1-.86-.07V78.64a6.07,6.07,0,0,1,3.88.75Z"/><path class="cls-68" d="M803.17,115.17c-8.75,0-26.63-2.48-37.67-21.07a4.51,4.51,0,1,1,7.75-4.6c11.66,19.61,33.44,16.47,33.65,16.43a4.51,4.51,0,1,1,1.39,8.91A33.94,33.94,0,0,1,803.17,115.17Z"/><path class="cls-15" d="M918.44,112.7a2.81,2.81,0,0,0-3.07-1.64,14.39,14.39,0,0,1-2.37.2,14,14,0,0,1-8.65-3L897.54,103a5.54,5.54,0,0,0-.62-.44,6.45,6.45,0,0,0-7.33,10.58l6.83,5.33a25.87,25.87,0,0,0,3.5,2.32A27,27,0,0,0,913,124.14a27.3,27.3,0,0,0,6.54-.79,2.76,2.76,0,0,0,1.83-3.76Z"/><path class="cls-15" d="M808.59,116.76a39,39,0,0,1-5.3.34h-.12c-.64,0-1.32,0-2,0a45.28,45.28,0,0,1-26.36-9.31,2.43,2.43,0,0,1-.35-3.44l5.18-6.25a2.43,2.43,0,0,1,3.32-.39,32.85,32.85,0,0,0,18.21,6.48c.76,0,1.48.07,2.15.07h0a23.43,23.43,0,0,0,3.33-.19,6.3,6.3,0,0,1,1-.08,6.45,6.45,0,0,1,1,12.82Z"/><path class="cls-24" d="M808.59,116.76a39,39,0,0,1-5.3.34h-.12c-.64,0-1.32,0-2,0a45.28,45.28,0,0,1-26.36-9.31,2.43,2.43,0,0,1-.35-3.44l5.18-6.25a2.43,2.43,0,0,1,3.32-.39,32.85,32.85,0,0,0,18.21,6.48c.76,0,1.48.07,2.15.07h0a23.43,23.43,0,0,0,3.33-.19,6.3,6.3,0,0,1,1-.08,6.45,6.45,0,0,1,1,12.82Z"/><rect class="cls-68" x="830.64" y="132.22" width="6.77" height="26.77" transform="translate(1668.04 291.2) rotate(-180)"/><rect class="cls-68" x="863.96" y="132.22" width="6.77" height="26.77"/><path class="cls-68" d="M898.08,80.34v20.08H803.29V80.34a48.68,48.68,0,0,1,.76-8.5c.23-1.22.49-2.43.81-3.61a46.28,46.28,0,0,1,1.46-4.59c.46-1.23,1-2.44,1.54-3.61a45.14,45.14,0,0,1,2.5-4.59c.62-1,1.27-2,2-2.91l.52-.71a47.35,47.35,0,0,1,66-9.61l.66.49a47.71,47.71,0,0,1,9,9.12l.77,1.06c.6.83,1.16,1.69,1.7,2.56.13.2.26.42.38.62q1.15,1.94,2.12,4c.1.2.2.4.29.61.45,1,.87,2,1.25,3a46.28,46.28,0,0,1,1.46,4.59c.32,1.18.58,2.39.8,3.61a47.08,47.08,0,0,1,.76,7.38C898.07,79.59,898.08,80,898.08,80.34Z"/><path class="cls-15" d="M898.08,100.41v26.48a3.31,3.31,0,0,1,0,.44c-.24,3-3,5-6,5H808.86a5.3,5.3,0,0,1-5.55-5c0-.14,0-.29,0-.43V100.41Z"/><rect class="cls-16" x="845.74" y="69.19" width="4.05" height="7.19" rx="2.02"/><rect class="cls-16" x="867.04" y="69.19" width="4.05" height="7.19" rx="2.02"/><path class="cls-16" d="M818.42,52.65a6.31,6.31,0,0,1,1.07,7.14A14.23,14.23,0,0,0,818.08,66,14.32,14.32,0,0,1,814,76.09l-7.21,7.31s-1.55-.71-3.45-1.68V80.35a47.84,47.84,0,0,1,.76-8.51c.23-1.22.49-2.43.81-3.61a46.28,46.28,0,0,1,1.46-4.59c.46-1.23,1-2.43,1.54-3.61a46.23,46.23,0,0,1,2.5-4.59c.62-1,1.27-2,2-2.91.17-.24.34-.47.52-.7.75-1,1.54-2,2.37-2.9A47.29,47.29,0,0,0,818.42,52.65Z"/><path class="cls-16" d="M898.08,80.34l-4.41-4.47a14.06,14.06,0,0,1-3.91-9.9,14.29,14.29,0,0,0-1.38-6.1,6.39,6.39,0,0,1,.93-7c.6.83,1.16,1.69,1.7,2.56.13.2.26.42.38.62q1.15,1.94,2.12,4c.1.2.2.4.29.61.45,1,.87,2,1.25,3a46.28,46.28,0,0,1,1.46,4.59c.32,1.18.58,2.39.8,3.61a47.08,47.08,0,0,1,.76,7.38C898.07,79.59,898.08,80,898.08,80.34Z"/><circle class="cls-68" cx="803.37" cy="84.61" r="6.03"/><rect class="cls-16" x="830.64" y="146" width="6.77" height="12.98" transform="translate(1668.04 304.99) rotate(-180)"/><rect class="cls-16" x="863.96" y="146" width="6.77" height="12.98"/><path class="cls-16" d="M824.24,152.49h13.17a0,0,0,0,1,0,0v2.72a3.77,3.77,0,0,1-3.77,3.77h-9.4a0,0,0,0,1,0,0v-6.49A0,0,0,0,1,824.24,152.49Z" transform="translate(1661.64 311.48) rotate(-180)"/><path class="cls-16" d="M864,152.49h9.4a3.77,3.77,0,0,1,3.77,3.77V159a0,0,0,0,1,0,0H864a0,0,0,0,1,0,0v-6.49A0,0,0,0,1,864,152.49Z"/><path class="cls-93" d="M854.68,103.53l1.12,4.57a1.49,1.49,0,0,0,1.45,1.14h2.28A1.51,1.51,0,0,0,861,108l1.35-6.51-.9-4.28-6.77-.56s-2.11,1.61-2.19,1.77S854.68,103.53,854.68,103.53Z"/><path class="cls-94" d="M803.3,100.41,846,111.52a3.82,3.82,0,0,0,4.36-1.36l8-7.2,6.75,6.59a3.82,3.82,0,0,0,5,1.33l28-10.47Z"/><path class="cls-68" d="M877.86,87.59c0,8.49-8.86,15.37-19.79,15.37s-19.8-6.88-19.8-15.37"/><path class="cls-16" d="M803.29,120.08v7.14a5.11,5.11,0,0,0,5.11,5.11l15.8-.09a4.87,4.87,0,0,1,4.9,4.87v11.2a2.27,2.27,0,0,0,2.27,2.27h5.25a2.27,2.27,0,0,0,2.27-2.27V137.09a4.87,4.87,0,0,1,4.87-4.87h13.82a4.87,4.87,0,0,1,4.87,4.87v11.22a2.27,2.27,0,0,0,2.27,2.27H870a2.27,2.27,0,0,0,2.27-2.27v-11.2a4.88,4.88,0,0,1,4.9-4.87l15.82.09a5.1,5.1,0,0,0,5.1-5.11v-7.14Z"/><path class="cls-93" d="M857.28,109.24l-2.58,15.13a1,1,0,0,0,.3.9l2.34,2.27a1,1,0,0,0,1.43,0l2.35-2.39a1,1,0,0,0,.28-.84l-1.84-15.05Z"/><path class="cls-24" d="M801.09,152.5h69.85a0,0,0,0,1,0,0V159a0,0,0,0,1,0,0H801.09a3.24,3.24,0,0,1-3.24-3.24v0a3.24,3.24,0,0,1,3.24-3.24Z"/><path class="cls-95" d="M801.14,104.14v12.91c.71,0,1.39,0,2,0h.12V104.21Z"/><polygon class="cls-95" points="898.09 119.64 898.09 103.39 900.24 105.07 900.24 120.92 898.09 119.64"/><path class="cls-96" d="M852.64,86.11a9.38,9.38,0,0,0,10.54,0"/><path class="cls-75" d="M754.67,91.14,786,93.93a1.18,1.18,0,0,0,1.08-1.86L774.18,73.49a1.19,1.19,0,0,0-1.75-.23L754,89.06A1.18,1.18,0,0,0,754.67,91.14Z"/><rect class="cls-4" x="748.09" y="84.98" width="42.54" height="4.59" rx="2.3" transform="translate(10.75 -67.78) rotate(5.08)"/><path class="cls-76" d="M752.11,84.26l0-.09-.23.55c.23-.17.48-.31.7-.49s.41-.36.78-.13a5.3,5.3,0,0,1,1.32,1.43c.75,1,2,.37,3,.06,1.47-.48,2.94-1,4.45-1.33a6.31,6.31,0,0,1,.86-.2c.39,0,.45.22.69.51a2.28,2.28,0,0,0,1.41.82,18,18,0,0,0,4,0q1.08-.06,2.16-.18l1.19-.13a5.47,5.47,0,0,1,1.06-.12c.36,0,.45.35.67.58a2,2,0,0,0,.59.41,5,5,0,0,0,1.68.3c.76.07,1.17.57,1.79.94a2.08,2.08,0,0,0,1.66.26c.66-.18,1.17-.71,1.81-.9s.94.61,1.46.79a1.18,1.18,0,0,0,1.32-.33c.18-.2.18-.35.47-.32a1.49,1.49,0,0,1,.79.42.49.49,0,0,0,.69-.69c-.6-.6-1.78-1.07-2.45-.35-.13.14-.21.39-.44.38s-.4-.31-.54-.44a1.57,1.57,0,0,0-1.47-.42,11.36,11.36,0,0,0-1.55.8c-.94.42-1.45-.22-2.18-.7a3.29,3.29,0,0,0-1.65-.44,2.89,2.89,0,0,1-.92-.14c-.37-.16-.5-.49-.77-.75a1.51,1.51,0,0,0-1.39-.33c-.85.11-1.69.2-2.54.28a38.76,38.76,0,0,1-4.57.14,1.89,1.89,0,0,1-1.68-.76c-.34-.43-.57-.73-1.14-.67a23.8,23.8,0,0,0-4.45,1.2,21.41,21.41,0,0,1-2.69.83c-.35,0-.42,0-.61-.31a10.51,10.51,0,0,0-.73-.92A2.64,2.64,0,0,0,753,83c-.64,0-1.17.56-1.64.92a.5.5,0,0,0-.22.55l0,.09a.49.49,0,0,0,.94-.26Z"/><path class="cls-2" d="M753.08,91.42l31.37,2.79a1.19,1.19,0,0,0,1.08-1.87L772.59,73.76a1.19,1.19,0,0,0-1.75-.22L752.41,89.33A1.19,1.19,0,0,0,753.08,91.42Z"/><g class="cls-97"><path class="cls-69" d="M751,91.24,769.9,75.66a1.82,1.82,0,0,1,2.64.35l13.1,18.3L791.19,92l-6-27.67-14.76-2.65L757.05,73.53Z"/></g><rect class="cls-16" x="919.14" y="93.56" width="16.17" height="25.9" rx="3.24" transform="translate(50.44 -213.39) rotate(13.49)"/><rect class="cls-98" x="921.71" y="96.61" width="11.76" height="16.68" transform="translate(50.08 -213.51) rotate(13.49)"/><circle class="cls-98" cx="924.89" cy="116.26" r="1.17"/></g></g></g></svg>