<svg id="Layer_1" data-name="Layer 1" xmlns="http://www.w3.org/2000/svg" width="2200" height="254.5" viewBox="0 0 2200 254.5"><defs><style>.cls-1{opacity:0.2;}.cls-2{fill:#b39ddb;}.cls-3{fill:#d3b8db;}.cls-4{fill:#9eb7af;}.cls-5,.cls-9{opacity:0.5;}.cls-6{fill:#9c82d4;}.cls-7,.cls-9{fill:#866dd1;}.cls-8{fill:#bda3d8;}.cls-10{fill:#f9f1db;}.cls-11{fill:#eeb280;}</style></defs><g class="cls-1"><path class="cls-2" d="M1427.37,52.56a8.86,8.86,0,0,0,3.08,4.75,9,9,0,0,0-2.69-10.39A8.81,8.81,0,0,0,1427.37,52.56Z"/><path class="cls-3" d="M1473.5,29.41l-.94-.65-.2.2c-.12.13-.29.32-.53.56s-.51.52-.85.84-.71.68-1.12,1.07l-.65.59-.71.63c-.49.43-1,.87-1.56,1.33l-.84.69-.86.69c-.59.47-1.18.93-1.79,1.39s-1.21.92-1.8,1.37l-.13.1c.49-1.14.93-2.25,1.32-3.31s.82-2.25,1.2-3.28l1.92-5.31-4.2-1.53-1.94,5.3-1.19,3.25c-.42,1.11-.88,2.26-1.4,3.45a70.08,70.08,0,0,1-3.85,7.46c-.37.64-.78,1.29-1.18,1.91l-1.31,2c-.45.7-.91,1.4-1.34,2.14s-.89,1.46-1.29,2.23a73.54,73.54,0,0,0-4,8.38l.46-37.15-4.9-.06-.14,11.84c-.36-.63-.72-1.27-1.09-1.9s-.76-1.31-1.16-1.95l-.57-.95-.58-.93c-.37-.6-.75-1.18-1.11-1.73s-.7-1.07-1-1.54-.63-.91-.89-1.29l-.71-1c-.4-.54-.64-.84-.64-.84l-.71.36s.11.38.32,1c.1.32.23.71.38,1.15s.33.94.53,1.48l.65,1.73c.24.61.49,1.25.76,1.91l.41,1,.43,1,.89,2.09c.3.69.62,1.38.93,2.06s.62,1.35.91,2,.59,1.27.87,1.85l.79,1.65c.18.37.35.71.5,1l-.2,16.33a73.51,73.51,0,0,0-3.5-7.73c-.38-.77-.82-1.52-1.23-2.26s-.86-1.46-1.29-2.17-.85-1.37-1.26-2.05-.77-1.29-1.13-1.94a69,69,0,0,1-3.66-7.55c-.49-1.2-.93-2.37-1.32-3.49s-.76-2.25-1.11-3.27l-1.81-5.35-4.24,1.42c.5,1.49,1.1,3.29,1.8,5.36l1.11,3.31c.38,1.11.81,2.28,1.29,3.47l-.3-.23c-.58-.47-1.18-.93-1.77-1.41s-1.18-1-1.75-1.44l-.85-.72-.81-.7c-.54-.47-1-.93-1.53-1.37l-.69-.64-.64-.62c-.4-.39-.78-.76-1.1-1.09s-.59-.63-.82-.86l-.52-.57-.19-.21-1.2.78.12.26c.08.17.2.42.36.73.08.16.18.33.28.52s.22.38.34.59.26.44.41.67l.48.72c.17.25.35.51.54.77s.39.53.6.8.43.55.66.83l.71.85c.24.28.49.57.75.85l.79.86c.55.56,1.1,1.13,1.68,1.68.28.28.57.55.86.82l.87.79c.59.51,1.16,1,1.74,1.49s1.12.93,1.66,1.35l1.52,1.16c.24.17.46.35.69.49s.37.2.56.29c.15.3.3.59.47.89.38.7.77,1.39,1.2,2.11.21.36.41.68.62,1l.6,1c.4.68.8,1.36,1.17,2.06s.77,1.41,1.12,2.14a68.41,68.41,0,0,1,3.81,9.23c.14.4.27.81.4,1.21s.24.82.36,1.23l.36,1.24.32,1.25.3,1.25.26,1.27c.08.42.18.84.26,1.27l.21,1.27c.16.85.26,1.71.38,2.56s.19,1.71.27,2.56c.16,1.71.24,3.43.27,5.08,0,.21,0,.4,0,.62v.59l-.06,1.28c0,.46,0,.91,0,1.36l0,1.3c-.06,1.72-.12,3.43-.17,5.11-.12,3.35-.24,6.59-.34,9.67s-.24,6-.35,8.66-.23,5.15-.33,7.33-.19,4.08-.27,5.64c-.17,3.13-.26,4.92-.26,4.92h.06l8.1.1h.07s0-1.79-.14-4.92c0-1.57-.08-3.47-.13-5.65s-.11-4.65-.15-7.33-.09-5.6-.13-8.67-.07-6.32-.1-9.68c0-1.68,0-3.38,0-5.11,0-.43,0-.87,0-1.3s0-.9,0-1.36l0-1.28v-.59c0-.22,0-.42,0-.63.07-1.64.19-3.35.39-5.06.11-.85.19-1.7.34-2.55s.26-1.71.44-2.55l.25-1.27c.08-.42.19-.84.28-1.26l.3-1.26.33-1.25.35-1.24c.13-.41.26-.82.38-1.22s.25-.82.4-1.23l.42-1.2a68.61,68.61,0,0,1,4-9.13c.36-.73.77-1.42,1.17-2.11s.81-1.37,1.22-2l.63-1c.21-.34.42-.65.64-1,.44-.7.86-1.38,1.26-2.07l.54-1,.39-.19c.23-.14.46-.3.7-.48.48-.34,1-.71,1.55-1.12s1.11-.84,1.69-1.3,1.18-1,1.77-1.45l.89-.77.89-.79c.59-.54,1.16-1.09,1.71-1.64l.82-.84.77-.83.73-.83.68-.82c.22-.26.42-.53.62-.78s.38-.51.56-.76.34-.48.49-.71.3-.45.43-.65l.36-.59.29-.51c.17-.31.29-.56.38-.73h0A.31.31,0,0,0,1473.5,29.41Z"/><path class="cls-2" d="M1432.17,46.57a3.5,3.5,0,0,0,1.71-.65.25.25,0,0,0,0-.43,3.55,3.55,0,0,0-1.81-.31,3.6,3.6,0,0,0-1.71.65.25.25,0,0,0,0,.43A3.41,3.41,0,0,0,1432.17,46.57Z"/><path class="cls-2" d="M1416.07,58.56a29.85,29.85,0,0,1,4.59-9.29,6.31,6.31,0,0,1,5.07-2.34h.14l0,.13a6.25,6.25,0,0,1-1.35,5.41,29.5,29.5,0,0,1-8.28,6.24A.14.14,0,0,1,1416.07,58.56Z"/><path class="cls-2" d="M1412,46.44a7.2,7.2,0,0,1,3.92-3.36c3-1.11,7.45-1.41,9.65,1.38l.24.31.07.11-.08.09a5.52,5.52,0,0,1-4.55,1.84,18.37,18.37,0,0,1-3.23-.58h-.13a7.91,7.91,0,0,0-5.56.57A.25.25,0,0,1,1412,46.44Z"/><path class="cls-4" d="M1417,42.72h0Z"/><path class="cls-2" d="M1480,22.24h0a3.72,3.72,0,0,0-3.67-3.76l-8.22-.1a1.87,1.87,0,0,1-1.85-1.89l0-1.57a5.93,5.93,0,0,0-5.86-6L1426,8.48a5.93,5.93,0,0,0-6,5.86l0,1.57a1.87,1.87,0,0,1-1.89,1.85l-8.37-.11a3.57,3.57,0,0,0-3.61,3.53v.47a1.86,1.86,0,0,1-1.89,1.84l-3.69,0a4.3,4.3,0,0,0-4.36,4.25l0,1.49a4.24,4.24,0,0,0,4.19,4.29l10.74.13a1.87,1.87,0,0,0,1.9-1.84v-.32a1.87,1.87,0,0,1,1.89-1.85l11.56.14a2.63,2.63,0,0,0,2.68-2.61h0a2.65,2.65,0,0,1,2.69-2.62l22.52.28a2.66,2.66,0,0,1,2.62,2.68h0a2.64,2.64,0,0,0,2.61,2.68l9.48.12a1.87,1.87,0,0,1,1.85,1.89h0a1.87,1.87,0,0,0,1.84,1.9l12.88.16a4.24,4.24,0,0,0,4.29-4.19l0-2.08a3.73,3.73,0,0,0-3.68-3.76l-4.32-.05A1.88,1.88,0,0,1,1480,22.24Z"/><path class="cls-2" d="M1456.71,38.55v-.47a2.56,2.56,0,0,0-2.52-2.59l-16.94-.21a2.57,2.57,0,0,0-2.59,2.53l-.05,3.83a2.57,2.57,0,0,0,2.53,2.59l7.33.09a2.57,2.57,0,0,1,2.53,2.59h0a2.56,2.56,0,0,0,2.52,2.59l14.31.17a2.56,2.56,0,0,0,2.59-2.52l0-3.37a2.56,2.56,0,0,0-2.53-2.59l-4.7-.06A2.55,2.55,0,0,1,1456.71,38.55Z"/><path class="cls-2" d="M1431.75,63.05a26.69,26.69,0,0,1,8.85-2.85,5.62,5.62,0,0,1,4.67,1.8l.09.1a.36.36,0,0,0-.07.1,5.59,5.59,0,0,1-4.33,2.51,26.52,26.52,0,0,1-9.19-1.43A.12.12,0,0,1,1431.75,63.05Z"/><path class="cls-2" d="M1447.78,57.76a6.09,6.09,0,0,1,0,3.2.44.44,0,0,1-.73.2,6.13,6.13,0,0,1-1.6-6,.44.44,0,0,1,.73-.2A6.05,6.05,0,0,1,1447.78,57.76Z"/><path class="cls-2" d="M1456.36,73.37a24,24,0,0,0-3.54-7.63,5.1,5.1,0,0,0-4.06-2h-.11l0,.1a5.07,5.07,0,0,0,1,4.42,24.08,24.08,0,0,0,6.6,5.23A.11.11,0,0,0,1456.36,73.37Z"/><path class="cls-2" d="M1463.5,63.58a7.77,7.77,0,0,0-4.1-3.7c-3.17-1.25-7.92-1.69-10.34,1.22-.09.11-.17.22-.25.34l-.08.11.08.09a5.87,5.87,0,0,0,4.81,2.09,19.16,19.16,0,0,0,3.46-.53h.08l.06,0a8.52,8.52,0,0,1,5.92.76A.26.26,0,0,0,1463.5,63.58Z"/><path class="cls-4" d="M1458.22,59.47h0Z"/><path class="cls-2" d="M1445.52,71.08a3.84,3.84,0,0,0,1.85-2c.64-1.58.88-3.93-.57-5.15l-.16-.13-.06,0,0,0a3,3,0,0,0-1,2.39,9.91,9.91,0,0,0,.25,1.72V68a4.22,4.22,0,0,1-.4,2.94A.13.13,0,0,0,1445.52,71.08Z"/><path class="cls-4" d="M1447.58,68.47v0Z"/><path class="cls-2" d="M1432.3,39.78a3.85,3.85,0,0,0-2.68.61c-1.41.94-2.94,2.75-2.44,4.57l.06.2,0,.06h.06a2.9,2.9,0,0,0,2.21-1.37,8.38,8.38,0,0,0,.77-1.56v-.06a4.2,4.2,0,0,1,2-2.2A.13.13,0,0,0,1432.3,39.78Z"/><path class="cls-4" d="M1429.12,40.76h0Z"/></g><g class="cls-5"><path class="cls-6" d="M746.63,104q.35-9,.66-18.1l-6.67-.28,0-1.07-.88,0,0-1-2.61-.1c0,.32,0,.64,0,1l-3-.11,0,1.07-2-.07q-.23,11-.51,22l-2.17-.07q.39-16.71.68-33.43l-1.8,0c0-1,0-2.07,0-3.1-2.34-.07-4.67-.13-7-.18l0,3.11q-6.2-.14-12.4-.21,0,14.43,0,28.85l-2,0V97.48c-1.43,0-2.87,0-4.3,0,0-1,0-1.89,0-2.84l-4.57-2.06L698,82.22h-4.73c0-.53,0-1.06,0-1.59l-4.39-1.11c-3.27,0-6.55.07-9.82.12,0,.91,0,1.82.07,2.72l-4.71.09q.35,11.36.66,22.69l-1.71,0L673,96c-1.54,0-3.07.07-4.6.12l.18,5.42-1.84,0q-.57-16-1.22-32Q657.3,67.4,649,65.31q1,17.37,1.86,34.74l-2.74.13-.33-6.24.59,0c0-.41,0-.83-.07-1.24l-2.08.1c0-.42-.05-.83-.07-1.24-3.06.14-6.11.3-9.17.47,0,.41.06.83.08,1.24l-2.08.12.09,1.24.59,0,.45,6.91q-4.65.27-9.28.57c-.16.43-.33.86-.49,1.28l.78,0q.24,3.28.47,6.55l-1.72.12q-.83-11.3-1.69-22.59l.66,0-.12-1.63-6.71.47c0-.42-.07-.84-.11-1.26-2.61.19-5.22.4-7.83.61,0,.42.07.84.11,1.25l-2.5.21.15,1.62.66-.06q.56,6.12,1.1,12.24l-2.07.17q-.85-9.41-1.74-18.79l-1.44.12c-.06-.6-.11-1.2-.17-1.8l-1,.08c-.08-.78-.15-1.57-.23-2.36q-3.15-2.39-6.31-4.74-2.64,2.89-5.23,5.8c.08.79.17,1.57.25,2.36l-1,.1c.07.6.13,1.2.2,1.8l-1.44.14q1.3,11.86,2.55,23.72l-1.68.17q-.51-4.77-1-9.54l-3.45.35-1.46-1.17-4.92.53c0,.44.11.87.16,1.31l-4.91.55c.33,2.68.65,5.36,1,8.05l-1.3.14-.45-3.72c-2.6.3-5.19.61-7.79.93.17,1.24.33,2.48.49,3.72l-1.29.16q.43,3.42.89,6.82l-1.41.18q-1.54-11.77-3.14-23.56l-2.2.28-1.53-2.34q-6,.78-11.91,1.61l-.81,2.66-2.2.31q1.51,9.89,3,19.77l-2.19.32Q541.41,99.44,539,84l.83-.12-.21-1.31-2,.28c0-.2-.06-.41-.1-.61l-1.44.21q-1-6.12-2-12.25l.48-.07c-.06-.36-.12-.71-.17-1.06l-3,.45-.1-.59-.6.09-.12-.67-1.27.2q-1.1-5.07-2.21-10.12l1.2,10.27-1.28.2.12.67-.61.09.1.59-3,.47.18,1.05.47-.07,2.07,12.23-1.44.23.1.62-2,.31c.08.44.15.88.23,1.32l.82-.13q2,11.85,4,23.73l-2.63.42q-1.71-10.08-3.45-20.17l-2.46.41-.24-1.34-3.69.62c-.08-.41-.15-.81-.22-1.21l-3.25.55c.08.4.15.81.22,1.21l-1.1.19.24,1.33-5.64,1q2.79,14.86,5.51,29.72l-1.9.34c-.49-2.64-1-5.29-1.48-7.93L509,115l-1-1.32q-5.36,1-10.69,2-.78-4-1.58-8l.68-.13c-.09-.48-.18-1-.28-1.44l-2.4.46c-.09-.48-.19-1-.28-1.44q-5.28,1-10.55,2.08l.3,1.44-2.38.48.3,1.43.68-.14q1.37,6.45,2.71,12.88l-1.76.36q3.21,15.17,6.34,30.33a1034.1,1034.1,0,0,1,257.44-20q.66-15,1.24-29.92Z"/><path class="cls-7" d="M623.32,27.6l-2,.09c-.33-2.39-.66-4.79-1-7.18l-3.48.16-.54-9.17a1.08,1.08,0,0,0,.56-1,1.22,1.22,0,0,0-1.33-1.06,1.17,1.17,0,0,0-1.19,1.17,1.09,1.09,0,0,0,.67.92l.54,9.16-3.4.17c-.08,2.41-.15,4.82-.23,7.23l-2,.11c.42,2.59.83,5.17,1.24,7.76l4.57-.22q2,34.21,3.76,68.44l2.58-.12q-1.68-34.23-3.6-68.45l3.9-.17Q622.81,31.54,623.32,27.6Z"/></g><g class="cls-5"><path class="cls-8" d="M1490.86,125.61s10.41-31.31,30.05-29.75,9.67-11.89,29.38-10,22.3,3.71,30.6,12.16,9.12,1.59,18,12.5,7.91,8.87,11.48,15.74-6.18,7.43-6.18,7.43-53.66-4.65-72.83-5.71S1490.86,125.61,1490.86,125.61Z"/><path class="cls-6" d="M1638.14,148.62c-26.39-4.27-37.89-1.85-50.64-12.07-3.41-2.73-6.77-5.56-9.88-8.23-6.51-5.58-11.88-10.49-14.07-12.52l-1.06-1s.09-.27.26-.75c2-5.74,15.94-42.63,37.57-43.71,19.55-1,5.07-15.47,27.13-16.63a102,102,0,0,1,18.18,1.12c47.38,6.31,44.19,3.45,56.86,22s31.36,9.34,43.19,22.4,32.89,35,36.71,47.4S1664.53,152.89,1638.14,148.62Z"/><path class="cls-9" d="M1631.07,126.94l-4.4,10.23L1590,135.53l-12.4-7.21-11.28-6.55-2.79-6-.8-1.74c2-5.74,15.94-42.63,37.57-43.71,19.55-1,5.07-15.47,27.13-16.63l-2.83,22.56a11,11,0,0,1-5.73,8.33h0a11,11,0,0,0-2.5,17.55,9.58,9.58,0,0,1,1.83,2c0,.39.27,3.9.52,6.81a11,11,0,0,0,3.19,6.82Z"/></g><path class="cls-10" d="M1100,99.79c657,0,957.46,74.39,999,80.71a481.42,481.42,0,0,0,100,11c1,0,1,63,1,63L.12,254.53s-.09-63,0-63c45.37,0,99.88-11,99.88-11C201.94,165.49,425,99.79,1100,99.79Z"/><path class="cls-11" d="M554.78,242.67c-.27-4.36-.7-8.76-1.33-13.11-.32-2.18-.69-4.35-1.17-6.5a33.31,33.31,0,0,0-2-6.3,33.05,33.05,0,0,1,2.59,6.13c.69,2.11,1.29,4.26,1.82,6.41,1.07,4.33,1.94,8.67,2.66,13.09Z"/><path class="cls-11" d="M551.15,244c-.63-2.33-1.3-4.67-2-7s-1.41-4.64-2.33-6.89c1.31,2.05,2.42,4.23,3.54,6.4s2.18,4.36,3.24,6.57Z"/><path class="cls-11" d="M559.56,242.92c.31-2.39.6-4.81.85-7.22s.49-4.82.5-7.25c.42,2.4.61,4.84.81,7.27s.33,4.86.45,7.31Z"/><path class="cls-11" d="M553.56,242.24c1.14-3.15,2.16-6.4,3-9.66q.66-2.45,1.11-4.94a19.87,19.87,0,0,0,.36-5,19.94,19.94,0,0,1,.29,5.12c-.09,1.71-.25,3.42-.47,5.12-.45,3.41-1.06,6.77-1.8,10.15Z"/><path class="cls-11" d="M1449.63,143.12q.72-5.69,1.88-11.27c.39-1.86.84-3.71,1.37-5.54a28.05,28.05,0,0,1,2-5.32,27.88,27.88,0,0,0-1.61,5.42q-.58,2.78-.94,5.59c-.5,3.73-.83,7.51-1,11.26Z"/><path class="cls-11" d="M1452.87,143.72c.82-1.93,1.65-3.84,2.52-5.74s1.74-3.8,2.78-5.6c-.78,1.92-1.38,3.92-2,5.9s-1.16,4-1.7,6Z"/><path class="cls-11" d="M1445.54,143.72c0-2.09,0-4.17.11-6.26s.15-4.17.42-6.24c0,2.08.23,4.15.44,6.21s.47,4.13.74,6.18Z"/><path class="cls-11" d="M1450.89,143.45c-.76-2.84-1.41-5.69-1.93-8.58-.26-1.44-.47-2.89-.61-4.35a16.89,16.89,0,0,1,0-4.38,17,17,0,0,0,.31,4.33c.26,1.43.58,2.85,1,4.25.74,2.8,1.62,5.58,2.59,8.3Z"/><path class="cls-11" d="M778.89,151.64c.35-3,.79-5.92,1.35-8.85.28-1.47.6-2.92,1-4.37a23.31,23.31,0,0,1,1.46-4.21,22.64,22.64,0,0,0-1.15,4.29c-.28,1.45-.49,2.92-.66,4.39-.35,2.93-.57,5.9-.71,8.84Z"/><path class="cls-11" d="M781.2,152.13q.87-2.28,1.8-4.53c.63-1.49,1.25-3,2-4.43-.55,1.52-1,3.08-1.39,4.64s-.81,3.13-1.19,4.7Z"/><path class="cls-11" d="M776,152.1c0-1.65,0-3.29.09-4.93s.12-3.28.31-4.91c0,1.64.18,3.26.33,4.89s.35,3.25.55,4.87Z"/><path class="cls-11" d="M779.8,151.87c-.55-2.25-1-4.49-1.37-6.76q-.27-1.7-.42-3.42a14.57,14.57,0,0,1,0-3.43,14.89,14.89,0,0,0,.22,3.4c.19,1.13.41,2.24.68,3.35.53,2.21,1.17,4.41,1.87,6.56Z"/><path class="cls-11" d="M1509.6,248.53c.36-2.91.79-5.78,1.27-8.65s1-5.73,1.61-8.58,1.28-5.67,2.09-8.46a42.5,42.5,0,0,1,3.11-8.13,42,42,0,0,0-2.47,8.29c-.6,2.82-1.07,5.67-1.44,8.53-.77,5.71-1.26,11.48-1.56,17.21Z"/><path class="cls-11" d="M1514.56,249.44q1.86-4.41,3.84-8.76c1.33-2.9,2.66-5.81,4.25-8.57-1.2,2.95-2.1,6-3,9s-1.77,6.1-2.59,9.15Z"/><path class="cls-11" d="M1503.35,249.45c0-3.2.07-6.38.17-9.57s.22-6.38.63-9.54c0,3.18.37,6.34.68,9.49s.72,6.32,1.13,9.45Z"/><path class="cls-11" d="M1511.53,249c-1.17-4.35-2.16-8.71-3-13.12q-.6-3.3-.92-6.65a25.83,25.83,0,0,1,.06-6.69,25.8,25.8,0,0,0,.47,6.62c.39,2.18.88,4.35,1.45,6.49,1.14,4.28,2.48,8.53,4,12.69Z"/><path class="cls-11" d="M1677.58,153.72c-.15-2.33-.38-4.68-.72-7-.16-1.16-.37-2.32-.62-3.47a17.23,17.23,0,0,0-1-3.36,16.79,16.79,0,0,1,1.38,3.27c.38,1.13.7,2.27,1,3.43.57,2.31,1,4.63,1.42,7Z"/><path class="cls-11" d="M1675.63,154.43c-.33-1.24-.69-2.49-1.06-3.73s-.75-2.48-1.24-3.68c.7,1.1,1.29,2.26,1.89,3.42s1.17,2.33,1.73,3.51Z"/><path class="cls-11" d="M1680.13,153.85c.16-1.28.32-2.57.45-3.85s.26-2.58.27-3.88c.23,1.28.32,2.59.43,3.89s.18,2.59.25,3.9Z"/><path class="cls-11" d="M1676.93,153.49c.6-1.68,1.15-3.42,1.61-5.16.24-.87.43-1.75.59-2.64a10.19,10.19,0,0,0,.2-2.7,10.4,10.4,0,0,1,.15,2.73c0,.92-.13,1.84-.25,2.74-.24,1.82-.56,3.62-1,5.43Z"/></svg>