<svg xmlns="http://www.w3.org/2000/svg" xmlns:xlink="http://www.w3.org/1999/xlink" id="Layer_1" data-name="Layer 1" width="903" height="264" viewBox="0 0 903 264"><defs><style>.cls-1{fill:#fae3a8;}.cls-14,.cls-17,.cls-2,.cls-22,.cls-4{fill:none;}.cls-2{opacity:0.8;}.cls-3{fill:#efaaba;}.cls-5{clip-path:url(#clip-path);}.cls-23,.cls-6{opacity:0.1;}.cls-7{clip-path:url(#clip-path-2);}.cls-8{clip-path:url(#clip-path-3);}.cls-9{fill:#fff;}.cls-10{fill:#c9e3f2;}.cls-11{fill:#99d2b6;}.cls-12{fill:#fdefb2;}.cls-13,.cls-25{fill:#e6818b;}.cls-14{stroke:#b6dbee;stroke-width:3px;opacity:0.4;}.cls-14,.cls-17,.cls-22{stroke-linecap:round;}.cls-14,.cls-22{stroke-linejoin:round;}.cls-15{fill:#f1be8a;}.cls-16{clip-path:url(#clip-path-4);}.cls-17{stroke:#ad7d59;stroke-miterlimit:10;stroke-width:2.41px;}.cls-18,.cls-23{fill:#3b1a2f;}.cls-19{clip-path:url(#clip-path-5);}.cls-20{fill:#cb404f;}.cls-21{clip-path:url(#clip-path-6);}.cls-22{stroke:#3b1a2f;stroke-width:6.65px;}.cls-24{fill:#5c499d;}.cls-25{opacity:0.9;}.cls-26{fill:#b6dbee;}</style><clipPath id="clip-path"><path class="cls-1" d="M495.47,247.82c155.63,0,128.48-102.19,118.31-113.64,0,0-17.39-44.11-109-47.07s-136.54,47.07-143.33,64S356.39,247.83,495.47,247.82ZM441.62,152c.42-7.62,34.66-13.56,51.73-12.72s40.71,5.94,44.1,17c0,0-26.71,17.05-51.31,15.78S441.19,159.62,441.62,152Z"/></clipPath><clipPath id="clip-path-2"><path class="cls-2" d="M495.47,247.82c155.63,0,128.48-102.19,118.31-113.64,0,0-17.39-44.11-109-47.07s-136.54,47.07-143.33,64S356.39,247.83,495.47,247.82ZM441.62,152c.42-7.62,34.66-13.56,51.73-12.72s40.71,5.94,44.1,17c0,0-26.71,17.05-51.31,15.78S441.19,159.62,441.62,152Z"/></clipPath><clipPath id="clip-path-3"><path class="cls-3" d="M617.65,182c-16.6,1.8-35.92-7.68-46.13,3.24-5.51,5.9-3.84,12.9-10.51,17-7.73,4.74-17.17-.23-25.9-2.43-22.38-5.64-33.31,8.63-59.07,13.76-25.24,5-26.85-6.25-86.58-16.18-45.75-7.61-54.17-2.55-63.12-12.14-19.82-21.25-6.42-76.06,21-110.86C407.29-1.55,532,20.47,547.25,23.38,560.14,25.84,672,47.2,676.72,104.3,679.36,136.38,648.1,178.69,617.65,182Z"/></clipPath><clipPath id="clip-path-4"><path class="cls-4" d="M589.76,99.93l-14,48-37,7s-37.33,21-50.67,20-52.33-21-53.33-22-5-14-5-14l77-25Z"/></clipPath><clipPath id="clip-path-5"><path class="cls-4" d="M545.76-16.07l112,75,35,53-97,51s-52-8-53-8-9,5-9,5-35.67,16-51.33,15-26.67-10-32.67-17-23-30.87-28-56.93-3-88.07,12-101.07S545.76-16.07,545.76-16.07Z"/></clipPath><clipPath id="clip-path-6"><path class="cls-4" d="M537.72,104.5l31.86-7.7L562.39,67a73.42,73.42,0,0,0-4.19-12.34S531.52,89.44,537.72,104.5Z"/></clipPath></defs><path class="cls-26" d="M689.21,180.17a15.93,15.93,0,0,0,6.44,4.19,17.26,17.26,0,0,0,7,.82,12.26,12.26,0,0,0,5.94-2.17,15.46,15.46,0,0,0,2.5-2.11,16.23,16.23,0,0,0,1.1-1.24l.49-.65.38-.56,3.48-5,2.53,5.22a6,6,0,0,0,.31.58c.13.22.27.44.42.65.28.44.6.87.91,1.28a15.8,15.8,0,0,0,2.1,2.21,9.94,9.94,0,0,0,2.4,1.53,12.06,12.06,0,0,0,1.31.48l.69.14a2.94,2.94,0,0,0,.74.09,11.3,11.3,0,0,0,3.12-.1,12.78,12.78,0,0,0,3.15-1,20.35,20.35,0,0,0,5.94-4.36,12.87,12.87,0,0,1-1.48,3.74,14,14,0,0,1-6.19,5.79,12.31,12.31,0,0,1-2.13.77,12.46,12.46,0,0,1-2.25.45,6.51,6.51,0,0,1-1.18.07c-.4,0-.8,0-1.21,0a12.11,12.11,0,0,1-2.39-.43,14.71,14.71,0,0,1-2.28-.82,17.2,17.2,0,0,1-2-1.2,18.58,18.58,0,0,1-4.81-4.83c-.22-.3-.42-.62-.62-.95s-.38-.62-.62-1.09l6,.22c-.3.49-.49.78-.74,1.13s-.49.64-.75.94a22.51,22.51,0,0,1-1.62,1.76,20.11,20.11,0,0,1-3.86,2.88,15.88,15.88,0,0,1-9.47,2,17.15,17.15,0,0,1-8.52-3.27,13.91,13.91,0,0,1-3.07-3.25,14.68,14.68,0,0,1-1.06-1.89A9.37,9.37,0,0,1,689.21,180.17Z"/><path class="cls-26" d="M751.47,188.3a15.86,15.86,0,0,0,6.44,4.2,17.25,17.25,0,0,0,7,.81,12.25,12.25,0,0,0,5.94-2.16,17.91,17.91,0,0,0,3.6-3.35l.49-.66.38-.55,3.48-5,2.53,5.22c0,.09.19.37.31.57s.27.44.42.66c.28.44.6.86.91,1.28a15.71,15.71,0,0,0,2.1,2.2,9.69,9.69,0,0,0,2.4,1.54c.42.22.87.3,1.31.48l.69.14a2.94,2.94,0,0,0,.74.09,11.7,11.7,0,0,0,3.12-.1,13.69,13.69,0,0,0,3.15-1,20,20,0,0,0,5.93-4.37,12.62,12.62,0,0,1-1.47,3.74,14.41,14.41,0,0,1-2.57,3.3,13.79,13.79,0,0,1-3.62,2.49,13.23,13.23,0,0,1-2.13.78,12.43,12.43,0,0,1-2.25.44,6.5,6.5,0,0,1-1.18.08c-.4,0-.8,0-1.21,0a13.76,13.76,0,0,1-2.39-.43,14.71,14.71,0,0,1-2.28-.82,17.2,17.2,0,0,1-2-1.2,18,18,0,0,1-3.43-3.06,16.81,16.81,0,0,1-1.38-1.77c-.22-.31-.42-.63-.62-1s-.38-.62-.62-1.1l6,.22c-.3.5-.49.78-.74,1.13s-.49.65-.75,1a20.72,20.72,0,0,1-1.62,1.75,19.75,19.75,0,0,1-3.86,2.89,16,16,0,0,1-9.47,2,17.23,17.23,0,0,1-8.52-3.26,14.1,14.1,0,0,1-3.07-3.25,15.38,15.38,0,0,1-1.06-1.89A9.63,9.63,0,0,1,751.47,188.3Z"/><path class="cls-26" d="M721.46,209a15.89,15.89,0,0,0,6.45,4.2,17.42,17.42,0,0,0,7,.81,12.35,12.35,0,0,0,5.94-2.16,16,16,0,0,0,2.49-2.11,16.51,16.51,0,0,0,1.11-1.25c.17-.21.33-.43.49-.65l.38-.55,3.48-5,2.53,5.22c0,.09.19.37.31.57s.27.44.41.66c.29.44.61.86.92,1.28a15.71,15.71,0,0,0,2.1,2.2,9.37,9.37,0,0,0,2.4,1.53,12.12,12.12,0,0,0,1.31.49l.69.13a2.94,2.94,0,0,0,.74.1,12.13,12.13,0,0,0,3.12-.1,13.84,13.84,0,0,0,3.15-1A20,20,0,0,0,772.4,209a12.73,12.73,0,0,1-1.47,3.74,14.41,14.41,0,0,1-2.57,3.3,13.79,13.79,0,0,1-3.62,2.49,13,13,0,0,1-2.14.78,12.16,12.16,0,0,1-2.24.44,6.5,6.5,0,0,1-1.18.08c-.4,0-.8,0-1.21,0a13.76,13.76,0,0,1-2.39-.43,14.23,14.23,0,0,1-2.29-.83,17.37,17.37,0,0,1-2-1.19,18.6,18.6,0,0,1-3.42-3.06,16.81,16.81,0,0,1-1.38-1.77c-.22-.31-.42-.63-.62-1s-.38-.62-.63-1.1l6,.22c-.3.5-.49.78-.74,1.13s-.49.64-.75,1a22.37,22.37,0,0,1-1.62,1.75,20,20,0,0,1-3.86,2.89,16,16,0,0,1-9.47,2,17.23,17.23,0,0,1-8.52-3.26,14.09,14.09,0,0,1-3.07-3.25,14.87,14.87,0,0,1-1.07-1.9A10.62,10.62,0,0,1,721.46,209Z"/><path class="cls-26" d="M873.29,187.18a10.1,10.1,0,0,0,3.64,2.15,5.94,5.94,0,0,0,3.14.11,4.18,4.18,0,0,0,1-.48,6.53,6.53,0,0,0,.89-.81,10.26,10.26,0,0,0,.91-1.15c.15-.2.28-.43.42-.66l.19-.33a2.63,2.63,0,0,1,.13-.24l6.3.2c0,.08.17.4.27.61s.23.47.35.69c.24.44.5.85.74,1.21a9.12,9.12,0,0,0,.69.8,1.7,1.7,0,0,0,.66.46,3.15,3.15,0,0,0,1.19.16,5.25,5.25,0,0,0,1.52-.41,15.31,15.31,0,0,0,3.46-2.31,7.77,7.77,0,0,1-1.17,4.68,7.17,7.17,0,0,1-1.91,2,7,7,0,0,1-2.89,1.15,6.76,6.76,0,0,1-3.44-.38,8.8,8.8,0,0,1-2.7-1.69,11.7,11.7,0,0,1-1.84-2.13c-.26-.37-.48-.76-.7-1.15a11,11,0,0,1-.61-1.31l6.3.2c-.17.35-.26.51-.38.74s-.24.42-.37.62a12.55,12.55,0,0,1-2.95,3.21,9.71,9.71,0,0,1-2.87,1.46,7.94,7.94,0,0,1-3.35.24,8.14,8.14,0,0,1-5-2.83A6.84,6.84,0,0,1,873.29,187.18Z"/><path class="cls-26" d="M265.65,176.05a11,11,0,0,1-2.08,4,15.4,15.4,0,0,1-3.42,3.16,19.78,19.78,0,0,1-8.92,3.07,18,18,0,0,1-9.78-1.81,21,21,0,0,1-4.17-2.76c-.62-.56-1.23-1.13-1.79-1.74-.29-.31-.57-.62-.84-1a12.25,12.25,0,0,1-.83-1.14l5.72-.22c-.28.49-.46.77-.7,1.12s-.46.65-.7,1a18.52,18.52,0,0,1-1.55,1.77,18.3,18.3,0,0,1-3.73,3,14.69,14.69,0,0,1-4.52,1.84,15.34,15.34,0,0,1-2.43.37,17.22,17.22,0,0,1-2.4-.09,15.58,15.58,0,0,1-8.36-3.48,14.7,14.7,0,0,1-4.71-7,19.88,19.88,0,0,0,6.4,4.3,14.39,14.39,0,0,0,6.81,1.05,12.66,12.66,0,0,0,1.59-.23,12.88,12.88,0,0,0,1.49-.47,11.14,11.14,0,0,0,2.71-1.51,15.88,15.88,0,0,0,2.39-2.19c.35-.42.7-.85,1-1.29.17-.22.32-.44.47-.67a5.9,5.9,0,0,0,.35-.58l2.45-4.44,3.28,4.22.44.57c.17.22.36.44.56.66.38.44.81.85,1.24,1.26a17.14,17.14,0,0,0,2.82,2.09,15,15,0,0,0,6.63,2.12,21.17,21.17,0,0,0,7.57-.75A16.57,16.57,0,0,0,265.65,176.05Z"/><path class="cls-26" d="M198.18,184a11,11,0,0,1-2.08,4,15.17,15.17,0,0,1-3.42,3.16,19.66,19.66,0,0,1-8.92,3.07A17.91,17.91,0,0,1,174,192.4a20.52,20.52,0,0,1-4.17-2.76,22.72,22.72,0,0,1-1.8-1.74c-.28-.3-.56-.62-.83-1s-.5-.64-.84-1.15l5.73-.22c-.28.49-.47.77-.7,1.12s-.46.65-.7,1a18.7,18.7,0,0,1-1.55,1.77,18.28,18.28,0,0,1-3.73,3,14.94,14.94,0,0,1-4.52,1.84,15.32,15.32,0,0,1-2.43.36,17.19,17.19,0,0,1-2.4-.08,15.64,15.64,0,0,1-8.36-3.49,14.65,14.65,0,0,1-4.71-7,19.91,19.91,0,0,0,6.4,4.31,14.26,14.26,0,0,0,6.81,1,11.28,11.28,0,0,0,1.59-.22c.5-.18,1-.25,1.48-.47a11.05,11.05,0,0,0,2.72-1.52,14.8,14.8,0,0,0,2.38-2.18c.36-.43.71-.85,1-1.29l.47-.67c.13-.2.3-.49.35-.58l2.45-4.45,3.28,4.23.44.56a7,7,0,0,0,.56.66,17,17,0,0,0,4.06,3.35,14.85,14.85,0,0,0,6.63,2.12,21.17,21.17,0,0,0,7.57-.75A16.57,16.57,0,0,0,198.18,184Z"/><path class="cls-26" d="M230.69,204.19a10.8,10.8,0,0,1-2.08,4,15.17,15.17,0,0,1-3.42,3.16,19.66,19.66,0,0,1-8.92,3.07,18,18,0,0,1-9.78-1.81,21,21,0,0,1-4.17-2.76,22.59,22.59,0,0,1-1.79-1.74c-.29-.31-.57-.62-.84-1s-.49-.64-.83-1.15l5.72-.22c-.28.49-.46.77-.7,1.12s-.46.65-.7,1a18.6,18.6,0,0,1-1.54,1.77,18,18,0,0,1-3.74,2.95,14.69,14.69,0,0,1-4.52,1.84,14.27,14.27,0,0,1-2.43.37,17.29,17.29,0,0,1-2.4-.08,15.67,15.67,0,0,1-8.36-3.49,14.56,14.56,0,0,1-4.7-7,19.93,19.93,0,0,0,6.39,4.31,14.53,14.53,0,0,0,6.81,1,11.08,11.08,0,0,0,1.59-.22,15.21,15.21,0,0,0,1.49-.48,11.39,11.39,0,0,0,2.72-1.51,15.27,15.27,0,0,0,2.38-2.19c.35-.42.7-.85,1-1.29.17-.22.32-.44.47-.66s.31-.49.36-.58l2.44-4.45,3.28,4.22.44.57c.17.22.36.44.56.66.39.44.81.86,1.24,1.26a17.14,17.14,0,0,0,2.82,2.09,14.89,14.89,0,0,0,6.63,2.12,21.17,21.17,0,0,0,7.57-.75A16.51,16.51,0,0,0,230.69,204.19Z"/><path class="cls-26" d="M33.36,198.64A6.24,6.24,0,0,1,31,203a10.12,10.12,0,0,1-4.79,2.11,9.9,9.9,0,0,1-5.68-.82,12.24,12.24,0,0,1-2.43-1.55,10.68,10.68,0,0,1-1-1c-.16-.18-.33-.36-.48-.55a7.57,7.57,0,0,1-.53-.72l5.74-.22c-.2.35-.29.48-.44.7s-.27.37-.41.55a9.56,9.56,0,0,1-.9,1,10,10,0,0,1-2.21,1.67,8.36,8.36,0,0,1-5.56,1,8.26,8.26,0,0,1-4.57-2.35,6.75,6.75,0,0,1-1.93-4.19,11.13,11.13,0,0,0,3.62,1.47,6.74,6.74,0,0,0,3-.09,4.57,4.57,0,0,0,2-1.12,8.35,8.35,0,0,0,.85-.91l.39-.52c.06-.09.12-.18.17-.27l.09-.15,5.74-.22.11.14.22.26c.15.17.31.34.48.5a7.43,7.43,0,0,0,1.07.89,6.8,6.8,0,0,0,2.53,1.13,11.91,11.91,0,0,0,3.45.21A9.07,9.07,0,0,0,33.36,198.64Z"/></svg>