<svg xmlns="http://www.w3.org/2000/svg" xmlns:xlink="http://www.w3.org/1999/xlink" id="Layer_1" data-name="Layer 1" width="903" height="264" viewBox="0 0 903 264"><defs><style>.cls-1{fill:#fae3a8;}.cls-14,.cls-17,.cls-2,.cls-22,.cls-4{fill:none;}.cls-2{opacity:0.8;}.cls-3{fill:#efaaba;}.cls-5{clip-path:url(#clip-path);}.cls-23,.cls-6{opacity:0.1;}.cls-7{clip-path:url(#clip-path-2);}.cls-8{clip-path:url(#clip-path-3);}.cls-9{fill:#fff;}.cls-10{fill:#c9e3f2;}.cls-11{fill:#99d2b6;}.cls-12{fill:#fdefb2;}.cls-13,.cls-25{fill:#e6818b;}.cls-14{stroke:#b6dbee;stroke-width:3px;opacity:0.4;}.cls-14,.cls-17,.cls-22{stroke-linecap:round;}.cls-14,.cls-22{stroke-linejoin:round;}.cls-15{fill:#f1be8a;}.cls-16{clip-path:url(#clip-path-4);}.cls-17{stroke:#ad7d59;stroke-miterlimit:10;stroke-width:2.41px;}.cls-18,.cls-23{fill:#3b1a2f;}.cls-19{clip-path:url(#clip-path-5);}.cls-20{fill:#cb404f;}.cls-21{clip-path:url(#clip-path-6);}.cls-22{stroke:#3b1a2f;stroke-width:6.65px;}.cls-24{fill:#5c499d;}.cls-25{opacity:0.9;}.cls-26{fill:#b6dbee;}</style><clipPath id="clip-path"><path class="cls-1" d="M495.47,247.82c155.63,0,128.48-102.19,118.31-113.64,0,0-17.39-44.11-109-47.07s-136.54,47.07-143.33,64S356.39,247.83,495.47,247.82ZM441.62,152c.42-7.62,34.66-13.56,51.73-12.72s40.71,5.94,44.1,17c0,0-26.71,17.05-51.31,15.78S441.19,159.62,441.62,152Z"/></clipPath><clipPath id="clip-path-2"><path class="cls-2" d="M495.47,247.82c155.63,0,128.48-102.19,118.31-113.64,0,0-17.39-44.11-109-47.07s-136.54,47.07-143.33,64S356.39,247.83,495.47,247.82ZM441.62,152c.42-7.62,34.66-13.56,51.73-12.72s40.71,5.94,44.1,17c0,0-26.71,17.05-51.31,15.78S441.19,159.62,441.62,152Z"/></clipPath><clipPath id="clip-path-3"><path class="cls-3" d="M617.65,182c-16.6,1.8-35.92-7.68-46.13,3.24-5.51,5.9-3.84,12.9-10.51,17-7.73,4.74-17.17-.23-25.9-2.43-22.38-5.64-33.31,8.63-59.07,13.76-25.24,5-26.85-6.25-86.58-16.18-45.75-7.61-54.17-2.55-63.12-12.14-19.82-21.25-6.42-76.06,21-110.86C407.29-1.55,532,20.47,547.25,23.38,560.14,25.84,672,47.2,676.72,104.3,679.36,136.38,648.1,178.69,617.65,182Z"/></clipPath><clipPath id="clip-path-4"><path class="cls-4" d="M589.76,99.93l-14,48-37,7s-37.33,21-50.67,20-52.33-21-53.33-22-5-14-5-14l77-25Z"/></clipPath><clipPath id="clip-path-5"><path class="cls-4" d="M545.76-16.07l112,75,35,53-97,51s-52-8-53-8-9,5-9,5-35.67,16-51.33,15-26.67-10-32.67-17-23-30.87-28-56.93-3-88.07,12-101.07S545.76-16.07,545.76-16.07Z"/></clipPath><clipPath id="clip-path-6"><path class="cls-4" d="M537.72,104.5l31.86-7.7L562.39,67a73.42,73.42,0,0,0-4.19-12.34S531.52,89.44,537.72,104.5Z"/></clipPath></defs><path class="cls-1" d="M495.47,247.82c155.63,0,128.48-102.19,118.31-113.64,0,0-17.39-44.11-109-47.07s-136.54,47.07-143.33,64S356.39,247.83,495.47,247.82ZM441.62,152c.42-7.62,34.66-13.56,51.73-12.72s40.71,5.94,44.1,17c0,0-26.71,17.05-51.31,15.78S441.19,159.62,441.62,152Z"/><g class="cls-5"><path class="cls-6" d="M447,42.39c-55,127.18-76.31,166.72-12.93,202.47S252.24,190,252.24,190L237.66,46.25,447,42.39"/></g><g class="cls-7"><path class="cls-3" d="M617.65,182c-16.6,1.8-35.92-7.68-46.13,3.24-5.51,5.9-3.84,12.9-10.51,17-7.73,4.74-17.17-.23-25.9-2.43-22.38-5.64-33.31,8.63-59.07,13.76-25.24,5-26.85-6.25-86.58-16.18-45.75-7.61-54.17-2.55-63.12-12.14-19.82-21.25-6.42-76.06,21-110.86C407.29-1.55,532,20.47,547.25,23.38,560.14,25.84,672,47.2,676.72,104.3,679.36,136.38,648.1,178.69,617.65,182Z"/><g class="cls-8"><path class="cls-6" d="M446.91,44.85C392,172,370.61,211.57,434,247.32s-181.86-54.83-181.86-54.83L237.54,48.72l209.37-3.87"/></g></g><path class="cls-9" d="M607,154.1a1.17,1.17,0,0,0,.73-.25,1.21,1.21,0,0,0,.24-1.7c-2.84-3.76-8.72-7.19-12.34-7.19a1.22,1.22,0,0,0,0,2.43c2.83,0,8.08,3.14,10.4,6.22A1.21,1.21,0,0,0,607,154.1Z"/><path class="cls-9" d="M527,185.49a1.14,1.14,0,0,0,.73-.24,1.2,1.2,0,0,0,.24-1.7c-2.84-3.76-8.72-7.19-12.33-7.19a1.22,1.22,0,1,0,0,2.43c2.82,0,8.07,3.14,10.39,6.22A1.21,1.21,0,0,0,527,185.49Z"/><path class="cls-9" d="M386.6,173.38a1.2,1.2,0,0,0,.3-.71,1.23,1.23,0,0,0-1.12-1.31c-4.7-.35-11.16,1.8-13.55,4.51a1.21,1.21,0,1,0,1.82,1.61c1.87-2.12,7.7-4,11.55-3.69A1.23,1.23,0,0,0,386.6,173.38Z"/><path class="cls-10" d="M485.74,187a1.18,1.18,0,0,0,.3-.71,1.21,1.21,0,0,0-1.12-1.3c-4.7-.36-11.16,1.79-13.55,4.51a1.22,1.22,0,0,0,.11,1.71,1.2,1.2,0,0,0,1.71-.11c1.87-2.12,7.7-4,11.55-3.69A1.2,1.2,0,0,0,485.74,187Z"/><path class="cls-11" d="M481.19,107.83a1.22,1.22,0,0,0-.82-2c-4.7-.35-11.16,1.8-13.55,4.51a1.21,1.21,0,1,0,1.82,1.61c1.87-2.12,7.7-4,11.55-3.7A1.22,1.22,0,0,0,481.19,107.83Z"/><path class="cls-10" d="M540.16,102.38a1.22,1.22,0,0,0,1.06-.62,1.2,1.2,0,0,0-.47-1.65,13.23,13.23,0,0,0-6-2,1.22,1.22,0,0,0,0,2.43,11.15,11.15,0,0,1,4.84,1.64A1.26,1.26,0,0,0,540.16,102.38Z"/><path class="cls-10" d="M416.13,153.25a1.22,1.22,0,0,0,.6-2.28,13.35,13.35,0,0,0-6-1.94,1.22,1.22,0,1,0,0,2.43,11.11,11.11,0,0,1,4.83,1.63A1.16,1.16,0,0,0,416.13,153.25Z"/><path class="cls-12" d="M577.59,135.22a1.22,1.22,0,0,0,.49-.58,1.2,1.2,0,0,0-.67-1.58,20.9,20.9,0,0,0-8.11-1.25,1.21,1.21,0,1,0,.08,2.42,18.53,18.53,0,0,1,7.12,1.08A1.26,1.26,0,0,0,577.59,135.22Z"/><path class="cls-11" d="M432.39,174.14a1.19,1.19,0,0,0,.19-.75,1.22,1.22,0,0,0-1.29-1.13,21.1,21.1,0,0,0-7.85,2.42,1.21,1.21,0,0,0,1.13,2.15,18.42,18.42,0,0,1,6.88-2.14A1.22,1.22,0,0,0,432.39,174.14Z"/><path class="cls-12" d="M456.62,200.12a1.23,1.23,0,0,0,.2-.75,1.22,1.22,0,0,0-1.29-1.13,21.2,21.2,0,0,0-7.85,2.41,1.21,1.21,0,0,0-.51,1.64,1.2,1.2,0,0,0,1.63.51,18.78,18.78,0,0,1,6.89-2.14A1.21,1.21,0,0,0,456.62,200.12Z"/><path class="cls-13" d="M416.76,131.62a1.19,1.19,0,0,0,.5-.58,1.22,1.22,0,0,0-.67-1.58,21.11,21.11,0,0,0-8.12-1.25,1.22,1.22,0,0,0,.08,2.43,18.4,18.4,0,0,1,7.13,1.07A1.2,1.2,0,0,0,416.76,131.62Z"/><path class="cls-13" d="M530.79,119.86a1.17,1.17,0,0,0,.5-.59,1.22,1.22,0,0,0-.67-1.58,21.12,21.12,0,0,0-8.12-1.24,1.21,1.21,0,1,0,.08,2.42,18.55,18.55,0,0,1,7.13,1.08A1.23,1.23,0,0,0,530.79,119.86Z"/><path class="cls-13" d="M580,161.36a1.27,1.27,0,0,0,.5-.59,1.22,1.22,0,0,0-.67-1.58A21.15,21.15,0,0,0,571.7,158a1.21,1.21,0,0,0-1.18,1.25,1.22,1.22,0,0,0,1.26,1.17,18.82,18.82,0,0,1,7.13,1.07A1.21,1.21,0,0,0,580,161.36Z"/><path class="cls-11" d="M578.52,118.23a1.18,1.18,0,0,0,.73-.24,1.22,1.22,0,0,0,.24-1.7,21.08,21.08,0,0,0-6.32-5.25,1.21,1.21,0,0,0-1.18,2.12,18.57,18.57,0,0,1,5.56,4.59A1.2,1.2,0,0,0,578.52,118.23Z"/><path class="cls-11" d="M556.5,188.27a1.25,1.25,0,0,0,.73-.24,1.22,1.22,0,0,0,.24-1.7,21.08,21.08,0,0,0-6.32-5.25A1.21,1.21,0,0,0,550,183.2a18.57,18.57,0,0,1,5.56,4.59A1.2,1.2,0,0,0,556.5,188.27Z"/><path class="cls-12" d="M438.4,118.23a1.14,1.14,0,0,0,.73-.24,1.2,1.2,0,0,0,.24-1.7,21.08,21.08,0,0,0-6.32-5.25,1.21,1.21,0,1,0-1.18,2.12,18.45,18.45,0,0,1,5.56,4.59A1.21,1.21,0,0,0,438.4,118.23Z"/><path class="cls-14" d="M645,191.78a158.76,158.76,0,0,1-84.91,61.41"/><path class="cls-14" d="M493.1,255.47a9.6,9.6,0,0,1-3.49.69,191.3,191.3,0,0,1-63.45-6.37"/><path class="cls-14" d="M657.93,197.45a14.24,14.24,0,0,1-9.19,11"/><path class="cls-14" d="M411.47,259.23a14.21,14.21,0,0,1-12.87-6.29"/><path class="cls-15" d="M572.27,109.58l-140.61,34L421.78,101a73,73,0,0,1-1.93-12.89c-.11-1.9-.13-3.78-.09-5.65a68.15,68.15,0,0,1,.52-7.33c0-.21.05-.41.08-.62.23-1.79.55-3.54.91-5.29a69.27,69.27,0,0,1,2.06-7.7c.56-1.7,1.18-3.37,1.86-5l.53-1.23a72.48,72.48,0,0,1,67.53-43.59c2,0,3.91.14,5.83.34a72,72,0,0,1,21,5.3l.08,0,1.16.5a70.31,70.31,0,0,1,8.47,4.44A72,72,0,0,1,538,28.12c1.73,1.43,3.38,2.91,5,4.48.27.26.53.54.79.8a63.24,63.24,0,0,1,4.55,5.12c.23.25.45.52.66.8l.58.75c.81,1.06,1.6,2.15,2.34,3.25a69.78,69.78,0,0,1,3.83,6.29c.89,1.64,1.71,3.33,2.48,5.07A73.62,73.62,0,0,1,562.39,67Z"/><g class="cls-16"><path class="cls-15" d="M583.67,156.93l-20.85,5a519.28,519.28,0,0,1-71.56,12.08l-45.42,4.44a6.49,6.49,0,0,1-6.95-4.93l-7.31-30.06,140.89-33.94,8.06,35.36Z"/></g><path class="cls-17" d="M500.58,75.65a7.28,7.28,0,1,1-6.39-11.87"/><rect class="cls-18" x="540.75" y="51.68" width="7.15" height="17.59" rx="1.85" transform="translate(5.18 156.75) rotate(-16.46)"/><g class="cls-19"><path class="cls-20" d="M561.76,148.93l-12,4-6,3c-23.53,5.69-28.4,15.77-52.5,18.12l-45.42,4.44a6.49,6.49,0,0,1-6.95-4.93l-2.23-9.18L547,137.78l.12,0,16.38-3.94,1-.22,12.78-3.1.25,1.09,1.08,4.77,2,8.56-10.77,3Z"/></g><g class="cls-21"><path class="cls-22" d="M594.16,74c-9.26,8.38-23.2,10.72-36.88,6.68"/></g><path class="cls-23" d="M538,28.12l-6.58,6.49a31,31,0,0,1-18.65,8.71l-25.17,2.46A30.87,30.87,0,0,0,462.86,63a30.94,30.94,0,0,1-24,17.13l-19.1,2.35a68.15,68.15,0,0,1,.52-7.33c0-.21.05-.41.08-.62.23-1.79.55-3.54.91-5.29a69.27,69.27,0,0,1,2.06-7.7c.56-1.7,1.18-3.37,1.86-5l.53-1.23a72.48,72.48,0,0,1,67.53-43.59c2,0,3.91.14,5.83.34a72,72,0,0,1,21,5.3l.08,0,1.16.5a70.31,70.31,0,0,1,8.47,4.44A72,72,0,0,1,538,28.12Z"/><path class="cls-24" d="M519.3,18.75a6.44,6.44,0,0,1-7.89,3.68,63.92,63.92,0,0,0-13.08-2.66c-1.69-.17-3.43-.26-5.21-.29a64.66,64.66,0,0,0-48.65,21l-.05,0a6.47,6.47,0,0,1-9.35.35L433.14,39a6.44,6.44,0,0,1-.31-8.91l.12-.13A80.28,80.28,0,0,1,493.37,3.87c2.2,0,4.38.16,6.48.37a79.93,79.93,0,0,1,16.5,3.39,6.45,6.45,0,0,1,4,8.63Z"/><path class="cls-25" d="M543,153.69S510.85,172,486.14,170.31c-32.71-2.29-53.43-19.17-53.43-19.17s20.74,26,51.69,26S543,153.69,543,153.69Z"/><path class="cls-15" d="M505.83,137.32l5.49,6.27,12.78,14.58L531,166a12.19,12.19,0,0,0,10.15,4.17,7.16,7.16,0,0,1,7.69,6.57,6.87,6.87,0,0,1,0,1.36,7.13,7.13,0,0,1-6.54,6.32,26.55,26.55,0,0,1-22.06-9l-6.56-7.5L501.1,153.62l-6-6.87a7.15,7.15,0,1,1,10.75-9.43Z"/></svg>