<svg xmlns="http://www.w3.org/2000/svg" xmlns:xlink="http://www.w3.org/1999/xlink" id="Layer_2" data-name="Layer 2" width="235" height="203" viewBox="0 0 235.5 203.5"><defs><style>.cls-1{fill:#fff;}.cls-2{fill:#81d4fa;}.cls-3{fill:#b3e5fc;}.cls-4{fill:#ddecf7;}.cls-5{fill:#263238;}.cls-6{clip-path:url(#clip-path);}.cls-7{clip-path:url(#clip-path-2);}.cls-8{fill:none;stroke:#263238;stroke-linecap:round;stroke-miterlimit:10;stroke-width:3.55763px;}.cls-9{clip-path:url(#clip-path-3);}.cls-10{fill:#00415e;opacity:0.1;}</style><clipPath id="clip-path"><rect id="_Rectangle_" data-name="&lt;Rectangle&gt;" class="cls-1" x="23.65255" y="20.80948" width="178.88342" height="126.45621" rx="53.03082" ry="53.03082"/></clipPath><clipPath id="clip-path-2"><rect id="_Rectangle_2" data-name="&lt;Rectangle&gt;" class="cls-2" x="49.07225" y="51.48199" width="125.48989" height="59.78392" rx="29.89193" ry="29.89193"/></clipPath><clipPath id="clip-path-3"><path id="_Clipping_Path_" data-name="&lt;Clipping Path&gt;" class="cls-3" d="M95.28079,111.16868l-10.733,10.8025a1.38855,1.38855,0,0,1-2.37356-.97868v-9.90872Z"/></clipPath></defs><title>Artboard 32</title><g id="_Group_" data-name="&lt;Group&gt;"><g id="_Group_2" data-name="&lt;Group&gt;"><path id="_Rectangle_3" data-name="&lt;Rectangle&gt;" class="cls-4" d="M27.76289,86.51907h0a9.67627,9.67627,0,0,1,9.67627,9.67627v29.77687a9.67627,9.67627,0,0,1-9.67627,9.67627h0a9.67627,9.67627,0,0,1-9.67627-9.67627V96.19535A9.67628,9.67628,0,0,1,27.76289,86.51907Z" transform="translate(39.21578 -2.84258) rotate(19.77293)"/><g id="_Group_3" data-name="&lt;Group&gt;"><path id="_Path_" data-name="&lt;Path&gt;" class="cls-5" d="M117.68749,22.18014,115.25542,11.634a2.15962,2.15962,0,0,0-4.07863,0l-2.43207,10.54617a1.57707,1.57707,0,0,0,1.48922,2.09609h5.96432A1.57707,1.57707,0,0,0,117.68749,22.18014Z"/><circle id="_Ellipse_" data-name="&lt;Ellipse&gt;" class="cls-5" cx="113.09426" cy="10.19376" r="5.60329"/></g><g id="_Clip_Group_" data-name="&lt;Clip Group&gt;"><rect id="_Rectangle_4" data-name="&lt;Rectangle&gt;" class="cls-1" x="23.65255" y="20.80948" width="178.88342" height="126.45621" rx="53.03082" ry="53.03082"/><g class="cls-6"><path id="_Path_2" data-name="&lt;Path&gt;" class="cls-4" d="M203.17423,87.86444v20.39421a53.31585,53.31585,0,0,1-53.1683,53.04813H77.18062c-29.16969,0-54.0064-23.87819-54.0064-53.04813V87.86444c0,29.02907,24.93673,51.44233,54.0064,51.44233h72.82531C179.0756,139.30677,203.17423,116.89351,203.17423,87.86444Z"/></g></g><g id="_Group_4" data-name="&lt;Group&gt;"><g id="_Clip_Group_2" data-name="&lt;Clip Group&gt;"><rect id="_Rectangle_5" data-name="&lt;Rectangle&gt;" class="cls-2" x="49.07225" y="51.48199" width="125.48989" height="59.78392" rx="29.89193" ry="29.89193"/><g class="cls-7"><rect id="_Rectangle_6" data-name="&lt;Rectangle&gt;" class="cls-3" x="48.07054" y="53.48541" width="125.48989" height="59.78392" rx="29.89193" ry="29.89193"/></g></g><circle id="_Path_3" data-name="&lt;Path&gt;" class="cls-5" cx="72.66005" cy="78.68893" r="4.38244" transform="translate(-13.25075 142.64802) rotate(-83.94817)"/><circle id="_Path_4" data-name="&lt;Path&gt;" class="cls-5" cx="147.61704" cy="80.91742" r="4.38244" transform="translate(51.58761 219.18081) rotate(-83.94817)"/><path id="_Path_5" data-name="&lt;Path&gt;" class="cls-8" d="M129.63211,83.33764a19.75554,19.75554,0,0,1-13.01844,3.89092"/></g><g id="_Clip_Group_3" data-name="&lt;Clip Group&gt;"><path id="_Clipping_Path_2" data-name="&lt;Clipping Path&gt;" class="cls-3" d="M95.28079,111.16868l-10.733,10.8025a1.38855,1.38855,0,0,1-2.37356-.97868v-9.90872Z"/><g class="cls-9"><rect id="_Rectangle_7" data-name="&lt;Rectangle&gt;" class="cls-2" x="86.25633" y="108.65863" width="1.93351" height="20.60227" transform="translate(62.77712 264.43035) rotate(-134.21129)"/></g></g><path id="_Rectangle_9" data-name="&lt;Rectangle&gt;" class="cls-1" d="M209.20073,58.77293h0a9.67628,9.67628,0,0,1,9.67628,9.67628V98.22607a9.67628,9.67628,0,0,1-9.67628,9.67628h0a9.67627,9.67627,0,0,1-9.67627-9.67627V68.4492a9.67627,9.67627,0,0,1,9.67627-9.67627Z" transform="translate(275.78232 298.45854) rotate(-128.91816)"/></g></g></svg>