<svg id="Layer_1" data-name="Layer 1" xmlns="http://www.w3.org/2000/svg" xmlns:xlink="http://www.w3.org/1999/xlink" width="2200" height="538.5" viewBox="0 0 2200 538.5"><defs><style>.cls-1{fill:none;}.cls-2{clip-path:url(#clip-path);}.cls-3{opacity:0.5;}.cls-4{fill:#fff;opacity:0.4;isolation:isolate;}.cls-5{fill:#cde6ad;}.cls-6{fill:#caddac;}.cls-7{fill:#c4d36e;}.cls-8{fill:#f1eec5;}.cls-9{fill:url(#linear-gradient);}.cls-10{fill:#c1e096;}</style><clipPath id="clip-path"><rect class="cls-1" width="2200" height="537"/></clipPath><linearGradient id="linear-gradient" x1="7865" y1="1688.8" x2="7865" y2="1830.8" gradientTransform="translate(8965 2229) rotate(180)" gradientUnits="userSpaceOnUse"><stop offset="0" stop-color="#e2f0cf"/><stop offset="0.3" stop-color="#deeec9"/><stop offset="0.72" stop-color="#d3e9b7"/><stop offset="0.9" stop-color="#cde6ad"/></linearGradient></defs><g id="Design"><g class="cls-2"><g class="cls-3"><path class="cls-4" d="M696.4,192.3H751a11.5,11.5,0,0,1,11.5,11.5h0A11.5,11.5,0,0,1,751,215.3H657.3a6.91,6.91,0,0,0-6.9,6.9v.8a6.91,6.91,0,0,0,6.9,6.9h16.6a8.6,8.6,0,0,1,8.6,8.6h0a8.6,8.6,0,0,1-8.6,8.6h-6.2a6.91,6.91,0,0,0-6.9,6.9h0a6.91,6.91,0,0,0,6.9,6.9H699a7.13,7.13,0,0,1,7.1,7.1h0a7.13,7.13,0,0,1-7.1,7.1H634a7.13,7.13,0,0,1-7.1-7.1h0a7.13,7.13,0,0,1,7.1-7.1h7.3a6.91,6.91,0,0,0,6.9-6.9h0a6.91,6.91,0,0,0-6.9-6.9H573.4a8.6,8.6,0,0,1-8.6-8.6h0a8.6,8.6,0,0,1,8.6-8.6h36a6.91,6.91,0,0,0,6.9-6.9v-.8a6.91,6.91,0,0,0-6.9-6.9h0a10.93,10.93,0,0,1-10.9-10.9v-1.2a10.93,10.93,0,0,1,10.9-10.9h87Z"/><path class="cls-4" d="M1502.3,192.2h45.2a8.6,8.6,0,0,1,8.6,8.6h0a8.6,8.6,0,0,1-8.6,8.6h-9.7a7.79,7.79,0,0,0-7.7,7.8v.2a7.55,7.55,0,0,0,7.5,7.5h70.9a11.14,11.14,0,0,1,11.1,11.1h0a11.14,11.14,0,0,1-11.1,11.1H1470.7a11.14,11.14,0,0,1-11.1-11.1h0a11.14,11.14,0,0,1,11.1-11.1h2.3a7.7,7.7,0,0,0,7.7-7.7h0a7.7,7.7,0,0,0-7.7-7.7h-31.8a8.6,8.6,0,0,1-8.6-8.6h0a8.6,8.6,0,0,1,8.6-8.6h61.1Z"/></g></g><g class="cls-2"><path class="cls-5" d="M2200,540.1c-230.4,374.8-1422,566.8-1750,373C395.8,881.1,40.4,667.9,0,543.8c85,0,178.6-62.5,297.5-120.2C343.6,401.3,428,368.3,648,370.2c444.9,3.9,571.2,116.2,732.1,22.5,50-29.1,103.8-77.6,209-103.5,51.8-12.7,193.9-41.9,322.4,26.1C2026.9,376.4,2096,525.9,2200,540.1Z"/></g><g class="cls-2"><path id="SVGID" class="cls-6" d="M1671.5,888.7C1375.2,1279.6,357.4,1064,266,764.2c-30.2-99.3,10.5-181.5,10.5-181.5,8.8-17.8,45.8-85.5,232.5-150,70.8-24.4,202.5-62,402-66,202.4-4.1,205.9,31.8,328.5,6,118.3-24.9,155.5-66.9,262.5-63,31.3,1.1,142.4,5.1,207,69C1817.1,485.4,1780.6,744.7,1671.5,888.7Z"/></g><g class="cls-2"><path class="cls-7" d="M1711.2,439.6c5.2,2.7,25.1,16.3,8.1,22.6-21,7.8-77.2,4-92.9,3.3-36.5-1.5-98.3-10.4-106.9-27.6-4.7-9.6,8.2-19.5,9.5-20.5,3.8-2.9,8.1-6.1,14.8-6.1,11.5,0,15.9,9.2,28.7,10.1,14,.9,20.1-9.3,31.4-7.9,11.5,1.4,11.9,12.6,24.2,14,9.3,1,14.4-4.9,23.2-3.4s8.2,8.1,16.9,9.4c8.5,1.3,15.9-4.2,20.9-2.6,3.6,1.1.5,4.2,4.9,6.5C1699.2,440.1,1707.9,437.9,1711.2,439.6Z"/></g><g class="cls-2"><path class="cls-8" d="M1611.2,427.5c4.3,2.3,20.6,13.4,6.7,18.6-17.3,6.4-63.5,3.2-76.4,2.7-30-1.3-80.9-8.5-87.9-22.7-3.9-7.9,6.7-16.1,7.8-16.9,3.2-2.4,6.7-5,12.2-5,9.4,0,13.1,7.6,23.6,8.3,11.5.8,16.5-7.6,25.8-6.5s9.8,10.4,19.9,11.5c7.7.9,11.9-4,19.1-2.8s6.8,6.7,13.9,7.7,13.1-3.5,17.2-2.2c3,.9.4,3.4,4,5.3C1601.4,427.7,1608.5,425.9,1611.2,427.5Z"/></g><g class="cls-2"><path class="cls-8" d="M604.5,429c3.8.8,19,5.9,9.3,13-12,8.9-48.7,16.6-58.9,19-23.7,5.7-64.9,11.2-73.5,1.7-4.8-5.3,1.6-14.1,2.3-14.9,1.9-2.6,4.1-5.4,8.4-6.6,7.3-2.1,11.8,3.1,20.2,1.3,9.1-1.9,11.2-9.5,18.7-10.7s9.9,6,18,4.6c6.2-1,8.4-5.7,14.3-6.4s6.7,3.7,12.5,2.9,9.4-5.6,12.9-5.5c2.5.1,1,2.7,4.3,3.3C596.8,431.5,601.9,428.5,604.5,429Z"/></g><g class="cls-2"><path class="cls-7" d="M661.2,427.9c3.8.8,19,5.9,9.3,13-12,8.9-48.7,16.6-58.9,19-23.7,5.7-64.9,11.2-73.5,1.7-4.8-5.3,1.6-14.1,2.3-14.9,1.9-2.6,4.1-5.4,8.4-6.6,7.3-2.1,11.8,3.1,20.2,1.3,9.1-1.9,11.2-9.5,18.7-10.7s9.9,6,18,4.6c6.2-1,8.4-5.7,14.3-6.4s6.7,3.7,12.5,2.9,9.4-5.6,12.9-5.5c2.5.1,1,2.7,4.3,3.3C653.6,430.4,658.7,427.4,661.2,427.9Z"/></g><g class="cls-2"><path class="cls-9" d="M2200,536.9h-45c-81.5.1-159.9-34.4-240.9-46.7-159-29-458.7-92-814-92S441,459,286,490.2C198,507.7,126.5,537.1,45,537H0v3.2H2200Z"/></g><g class="cls-2"><path class="cls-10" d="M1647.9,490c.6-3.9,1.4-7.8,2.3-11.6.5-1.9,1-3.8,1.6-5.7a36.49,36.49,0,0,1,2.3-5.4,22.86,22.86,0,0,0-1.8,5.6,57.24,57.24,0,0,0-1.1,5.7c-.6,3.8-1,7.7-1.3,11.6Z"/><path class="cls-10" d="M1651.2,490.5c.9-1.9,1.8-3.9,2.8-5.8s2-3.9,3.1-5.7c-.8,2-1.4,4.1-2.1,6.1s-1.2,4.1-1.8,6.2Z"/><path class="cls-10" d="M1643.7,490.5c.1-2.2.2-4.3.3-6.5s.3-4.3.6-6.4c0,2.1.2,4.3.4,6.4s.4,4.3.7,6.4Z"/><path class="cls-10" d="M1649.4,490.3a87.62,87.62,0,0,1-1.8-8.9c-.2-1.5-.4-3-.5-4.5a17,17,0,0,1,.2-4.5,17,17,0,0,0,.2,4.5,34.35,34.35,0,0,0,.9,4.4,84.67,84.67,0,0,0,2.5,8.6Z"/></g><g class="cls-2"><path class="cls-10" d="M1543.2,484.3a67.72,67.72,0,0,1,2.2-7.7,23.88,23.88,0,0,1,1.5-3.7,14.84,14.84,0,0,1,2.1-3.4,16.58,16.58,0,0,0-1.8,3.5c-.4,1.3-.8,2.5-1.1,3.8a65.28,65.28,0,0,0-1.4,7.7Z"/><path class="cls-10" d="M1546.5,484.7c.9-1.3,1.8-2.6,2.7-3.8a32.64,32.64,0,0,1,2.9-3.6c-.8,1.3-1.5,2.6-2.2,4s-1.4,2.7-2,4.1Z"/><path class="cls-10" d="M1538.9,484.7c0-1.5.1-2.9.2-4.3a30.06,30.06,0,0,1,.5-4.2,29.66,29.66,0,0,0,.3,4.2l.6,4.2Z"/><path class="cls-10" d="M1544.5,484.6a55.75,55.75,0,0,1-1.8-5.8,15.94,15.94,0,0,1-.6-3,7.59,7.59,0,0,1,.1-3,7.62,7.62,0,0,0,.2,3c.3,1,.6,2,.9,2.9a53.8,53.8,0,0,0,2.4,5.5Z"/></g></g></svg>