<svg id="Layer_1" data-name="Layer 1" xmlns="http://www.w3.org/2000/svg" width="1282.5" height="270.5" viewBox="0 0 1282.5 270.5"><defs><style>.cls-1{opacity:0.2;}.cls-2{fill:#b39ddb;}.cls-3{fill:#d3b8db;}.cls-4{fill:#9eb7af;}.cls-5,.cls-9{opacity:0.5;}.cls-6{fill:#9c82d4;}.cls-7,.cls-9{fill:#866dd1;}.cls-8{fill:#bda3d8;}.cls-10{fill:#f9f1db;}.cls-11{fill:#eeb280;}</style></defs><g class="cls-1"><path class="cls-2" d="M862.08,75.06a8.86,8.86,0,0,0,3.08,4.75,9,9,0,0,0-2.7-10.39A8.87,8.87,0,0,0,862.08,75.06Z"/><path class="cls-3" d="M908.21,51.91l-.94-.65-.2.2-.53.56c-.24.23-.51.52-.85.84s-.71.68-1.12,1.07l-.66.59c-.22.21-.46.42-.71.63l-1.55,1.33-.84.69-.86.69c-.59.47-1.18.93-1.79,1.39s-1.21.92-1.81,1.37l-.12.1c.49-1.14.93-2.25,1.32-3.31s.82-2.25,1.2-3.28l1.92-5.31-4.2-1.53-1.94,5.3-1.19,3.25c-.42,1.11-.88,2.26-1.4,3.45a70.08,70.08,0,0,1-3.85,7.46c-.38.64-.78,1.29-1.18,1.91l-1.31,2c-.45.7-.91,1.4-1.34,2.14s-.89,1.46-1.29,2.23a73.54,73.54,0,0,0-4,8.38l.46-37.15-4.9-.06-.14,11.84c-.36-.63-.72-1.27-1.09-1.9s-.76-1.31-1.16-1.95l-.57-1-.58-.93c-.37-.6-.75-1.18-1.11-1.73s-.7-1.07-1-1.54-.63-.91-.89-1.29l-.71-1c-.4-.54-.64-.84-.64-.84l-.71.36s.11.38.32,1c.1.32.23.71.38,1.15s.33.94.53,1.48.42,1.11.65,1.73.49,1.25.76,1.91l.41,1,.43,1,.89,2.09c.3.69.62,1.38.93,2.06s.62,1.35.91,2,.59,1.27.87,1.85l.79,1.65c.18.37.35.71.5,1l-.2,16.33a73.51,73.51,0,0,0-3.5-7.73c-.38-.77-.82-1.52-1.23-2.26s-.86-1.46-1.29-2.17-.85-1.37-1.26-2-.77-1.29-1.13-1.94A69,69,0,0,1,862,58.92c-.49-1.2-.93-2.37-1.32-3.49s-.76-2.25-1.11-3.27l-1.81-5.35-4.24,1.42c.5,1.49,1.1,3.29,1.8,5.36l1.11,3.31c.38,1.11.81,2.28,1.29,3.47l-.3-.23c-.58-.47-1.18-.93-1.77-1.41s-1.18-1-1.75-1.44l-.85-.72-.81-.7c-.54-.47-1-.93-1.53-1.37l-.69-.64-.64-.62c-.4-.39-.78-.76-1.1-1.09s-.59-.63-.82-.86l-.52-.57-.19-.21-1.2.78.12.26c.08.17.2.42.36.73.08.16.18.33.28.52s.21.38.34.59.26.44.41.67l.48.72c.17.25.35.51.54.77s.39.53.6.8.43.55.66.83l.71.85c.24.28.49.57.75.85l.79.86c.55.56,1.1,1.13,1.68,1.68.28.28.57.55.86.82L855,63c.59.51,1.16,1,1.74,1.49s1.12.93,1.66,1.35L859.94,67c.23.17.46.35.69.49s.37.2.56.29c.15.3.3.59.47.89.38.7.77,1.39,1.2,2.11.21.36.41.68.62,1l.6,1c.4.68.8,1.36,1.17,2.06s.77,1.41,1.12,2.14a68.41,68.41,0,0,1,3.81,9.23c.14.4.27.81.4,1.21s.24.82.36,1.23L871.3,90l.31,1.25.31,1.25.26,1.27c.08.42.18.84.26,1.27l.21,1.27c.16.85.26,1.71.38,2.56s.19,1.71.27,2.56c.16,1.71.24,3.43.27,5.08,0,.21,0,.4,0,.62v.59l-.06,1.28c0,.46,0,.91,0,1.36l-.05,1.3c-.06,1.72-.12,3.43-.17,5.11-.12,3.35-.24,6.59-.34,9.67s-.24,6-.35,8.66-.23,5.15-.33,7.33S872,146.48,872,148c-.17,3.13-.26,4.92-.26,4.92h.06l8.1.1h.07s0-1.79-.14-4.92c0-1.57-.08-3.47-.14-5.65s-.11-4.65-.14-7.33-.09-5.6-.13-8.67-.07-6.32-.1-9.68c0-1.68,0-3.38,0-5.11,0-.43,0-.87,0-1.3s0-.9,0-1.36l0-1.28v-.59c0-.22,0-.42,0-.63.07-1.64.19-3.35.39-5.06.11-.85.19-1.7.34-2.55s.26-1.71.44-2.55l.25-1.27c.08-.42.19-.84.28-1.26l.3-1.26.33-1.25.35-1.24c.13-.41.26-.82.38-1.22s.25-.82.4-1.23l.42-1.2a68.61,68.61,0,0,1,4-9.13c.36-.73.77-1.42,1.17-2.11s.81-1.37,1.22-2l.62-1c.22-.34.43-.65.65-1,.44-.7.86-1.38,1.25-2.07l.55-1,.39-.19c.23-.14.46-.3.7-.48.48-.34,1-.71,1.55-1.12s1.11-.84,1.69-1.3,1.17-1,1.77-1.45l.89-.77.89-.79c.58-.54,1.16-1.09,1.71-1.64l.82-.84.77-.83.73-.83.68-.82c.22-.26.42-.53.62-.78s.38-.51.56-.76.34-.48.49-.71.3-.45.43-.65l.36-.59.29-.51c.17-.31.29-.56.38-.73h0A.31.31,0,0,0,908.21,51.91Z"/><path class="cls-2" d="M866.88,69.07a3.5,3.5,0,0,0,1.71-.65.25.25,0,0,0,0-.43,3.55,3.55,0,0,0-1.81-.31,3.6,3.6,0,0,0-1.71.65.25.25,0,0,0,0,.43A3.46,3.46,0,0,0,866.88,69.07Z"/><path class="cls-2" d="M850.78,81.06a29.85,29.85,0,0,1,4.59-9.29,6.31,6.31,0,0,1,5.07-2.34h.14l0,.13A6.25,6.25,0,0,1,859.26,75,29.5,29.5,0,0,1,851,81.22.14.14,0,0,1,850.78,81.06Z"/><path class="cls-2" d="M846.68,68.94a7.2,7.2,0,0,1,3.92-3.36c3-1.11,7.45-1.41,9.65,1.38l.24.31.07.11-.08.09a5.52,5.52,0,0,1-4.55,1.84,18.37,18.37,0,0,1-3.23-.58h-.13a7.91,7.91,0,0,0-5.56.57A.25.25,0,0,1,846.68,68.94Z"/><path class="cls-4" d="M851.72,65.22h0Z"/><path class="cls-2" d="M914.75,44.74h0A3.72,3.72,0,0,0,911.08,41l-8.22-.1A1.87,1.87,0,0,1,901,39l0-1.57a5.93,5.93,0,0,0-5.86-6L860.7,31a5.93,5.93,0,0,0-6,5.86l0,1.57a1.87,1.87,0,0,1-1.89,1.85l-8.37-.11a3.57,3.57,0,0,0-3.61,3.53v.47A1.86,1.86,0,0,1,838.9,46l-3.69,0a4.3,4.3,0,0,0-4.36,4.25l0,1.49A4.24,4.24,0,0,0,835,56l10.74.13a1.87,1.87,0,0,0,1.9-1.84V54a1.87,1.87,0,0,1,1.89-1.85l11.56.14a2.63,2.63,0,0,0,2.68-2.61h0A2.65,2.65,0,0,1,866.48,47l22.52.28A2.66,2.66,0,0,1,891.62,50h0a2.64,2.64,0,0,0,2.61,2.68l9.48.12a1.86,1.86,0,0,1,1.84,1.89h0a1.88,1.88,0,0,0,1.85,1.9l12.88.16a4.24,4.24,0,0,0,4.29-4.19l0-2.08a3.73,3.73,0,0,0-3.68-3.76l-4.32,0A1.88,1.88,0,0,1,914.75,44.74Z"/><path class="cls-2" d="M891.42,61.05v-.47A2.56,2.56,0,0,0,888.9,58L872,57.78a2.57,2.57,0,0,0-2.59,2.53l0,3.83a2.57,2.57,0,0,0,2.53,2.59l7.33.09a2.56,2.56,0,0,1,2.52,2.59h0A2.57,2.57,0,0,0,884.23,72l14.31.17a2.56,2.56,0,0,0,2.59-2.52l0-3.37a2.57,2.57,0,0,0-2.53-2.59l-4.7-.06A2.55,2.55,0,0,1,891.42,61.05Z"/><path class="cls-2" d="M866.46,85.55a26.69,26.69,0,0,1,8.85-2.85A5.62,5.62,0,0,1,880,84.5l.09.1a.36.36,0,0,0-.07.1,5.59,5.59,0,0,1-4.33,2.51,26.52,26.52,0,0,1-9.19-1.43A.12.12,0,0,1,866.46,85.55Z"/><path class="cls-2" d="M882.49,80.26a6.09,6.09,0,0,1,0,3.2.44.44,0,0,1-.73.2,6.07,6.07,0,0,1-1.6-6,.44.44,0,0,1,.73-.2A6.05,6.05,0,0,1,882.49,80.26Z"/><path class="cls-2" d="M891.07,95.87a24,24,0,0,0-3.54-7.63,5.1,5.1,0,0,0-4.06-2h-.12a.44.44,0,0,1,0,.1,5.07,5.07,0,0,0,1,4.42,24.08,24.08,0,0,0,6.6,5.23A.11.11,0,0,0,891.07,95.87Z"/><path class="cls-2" d="M898.21,86.08a7.77,7.77,0,0,0-4.1-3.7c-3.17-1.25-7.92-1.69-10.34,1.22-.09.11-.17.22-.25.34l-.08.11.08.09a5.87,5.87,0,0,0,4.81,2.09,19.16,19.16,0,0,0,3.46-.53h.08l.06,0a8.52,8.52,0,0,1,5.92.76A.26.26,0,0,0,898.21,86.08Z"/><path class="cls-4" d="M892.93,82h0Z"/><path class="cls-2" d="M880.23,93.58a3.84,3.84,0,0,0,1.85-2c.64-1.58.87-3.93-.57-5.15l-.16-.13-.06,0,0,0a3,3,0,0,0-1,2.39,9.91,9.91,0,0,0,.25,1.72v.07a4.22,4.22,0,0,1-.4,2.94A.13.13,0,0,0,880.23,93.58Z"/><path class="cls-4" d="M882.29,91v0Z"/><path class="cls-2" d="M867,62.28a3.85,3.85,0,0,0-2.68.61c-1.41.94-2.94,2.75-2.44,4.57l.06.2,0,.06H862a2.9,2.9,0,0,0,2.21-1.37,9,9,0,0,0,.77-1.56v-.06a4.2,4.2,0,0,1,2-2.2A.13.13,0,0,0,867,62.28Z"/><path class="cls-4" d="M863.83,63.26h0Z"/></g><g class="cls-5"><path class="cls-6" d="M455.3,105.77q.34-9,.66-18.09c-2.22-.11-4.45-.2-6.67-.29l0-1.07-.88,0c0-.32,0-.65,0-1l-2.61-.1c0,.32,0,.65,0,1l-3-.1,0,1.06-2-.06q-.23,11-.51,22l-2.17-.07q.39-16.71.68-33.42l-1.8,0c0-1,0-2.07,0-3.11-2.33-.07-4.66-.12-7-.18l0,3.11q-6.19-.14-12.4-.2,0,14.41,0,28.84l-2,0V99.25l-4.3,0c0-1,0-1.89,0-2.84l-4.57-2.06L406.63,84H401.9c0-.53,0-1.06,0-1.59l-4.39-1.11c-3.27,0-6.55.07-9.82.12,0,.91.05,1.82.07,2.73q-2.36,0-4.71.09.35,11.34.66,22.69L382,107l-.27-9.18-4.6.11.18,5.42-1.84.06q-.57-16-1.22-32-8.26-2.2-16.58-4.3,1,17.37,1.86,34.74l-2.74.12q-.16-3.12-.34-6.24l.6,0c0-.42,0-.83-.07-1.25l-2.08.1c0-.41-.05-.83-.07-1.24-3.06.14-6.11.3-9.17.47,0,.42.06.83.08,1.24l-2.08.12c0,.41.06.83.08,1.24l.6,0,.45,6.92q-4.65.26-9.28.57c-.16.42-.33.85-.49,1.28l.78-.06c.16,2.19.32,4.37.47,6.56l-1.72.11q-.82-11.3-1.69-22.59l.66,0-.12-1.62c-2.24.15-4.48.3-6.71.47,0-.42-.07-.84-.11-1.26q-3.92.28-7.83.6c0,.42.07.84.11,1.26l-2.5.2.15,1.62.66,0q.56,6.1,1.1,12.23l-2.07.17q-.85-9.39-1.74-18.79L313,84c-.06-.6-.11-1.2-.17-1.8l-1,.09c-.08-.79-.15-1.58-.23-2.37-2.1-1.58-4.2-3.16-6.32-4.74-1.75,1.93-3.49,3.87-5.22,5.8.08.79.17,1.58.25,2.36l-1,.1c.07.6.13,1.2.2,1.8l-1.44.15q1.31,11.85,2.55,23.72l-1.68.16q-.51-4.77-1-9.54l-3.45.36L293,99l-4.92.53c0,.44.1.88.16,1.31l-4.91.56c.33,2.68.65,5.36,1,8l-1.3.15-.45-3.73c-2.6.3-5.19.61-7.79.93.16,1.24.33,2.48.49,3.73l-1.29.16c.29,2.27.59,4.54.88,6.82l-1.4.17q-1.55-11.78-3.14-23.56l-2.2.28L266.54,92c-4,.52-8,1-11.91,1.61l-.81,2.66-2.2.31q1.51,9.89,3,19.78l-2.19.31q-2.34-15.45-4.76-30.9l.83-.12-.21-1.32-2,.29c0-.21-.06-.41-.1-.62l-1.44.22q-1-6.14-2-12.26l.48-.07c-.06-.35-.12-.7-.17-1.06l-3,.45L240,70.7l-.61.09c0-.23-.07-.45-.11-.68l-1.27.2q-1.09-5.07-2.21-10.12L237,70.46l-1.28.2.12.67-.61.1c0,.19.07.39.1.58l-3,.47.18,1,.47-.07q1.05,6.12,2.08,12.24l-1.45.23c0,.2.07.41.11.61l-2,.32c.08.43.15.87.23,1.31l.82-.13q2,11.86,4,23.73l-2.63.43q-1.71-10.1-3.45-20.17l-2.46.4-.24-1.34-3.7.62-.21-1.21-3.25.55c.08.41.15.81.22,1.21l-1.1.19.24,1.34q-2.82.48-5.64,1,2.79,14.85,5.51,29.71l-1.91.34c-.48-2.64-1-5.28-1.47-7.93l.91-.16-1-1.32q-5.35,1-10.69,2c-.53-2.67-1-5.33-1.58-8l.68-.13c-.09-.48-.19-1-.28-1.44l-2.4.46c-.09-.48-.19-1-.28-1.43q-5.28,1-10.55,2.08l.3,1.43-2.39.49c.11.47.21,1,.31,1.43l.68-.14q1.37,6.43,2.71,12.88l-1.76.36q3.21,15.15,6.34,30.32a1034.1,1034.1,0,0,1,257.44-20q.66-15,1.24-29.92Z"/><path class="cls-7" d="M332,29.38l-2,.08q-.49-3.59-1-7.18l-3.48.16-.54-9.17a1.08,1.08,0,0,0,.56-1,1.22,1.22,0,0,0-1.33-1.05A1.17,1.17,0,0,0,323,12.42a1.09,1.09,0,0,0,.66.91c.19,3.06.37,6.11.55,9.17l-3.4.16c-.08,2.41-.15,4.83-.23,7.24l-2,.1q.63,3.89,1.24,7.77l4.57-.23q2,34.21,3.76,68.44l2.57-.11Q329,71.64,327.08,37.41l3.89-.17Z"/></g><g class="cls-5"><path class="cls-8" d="M799.86,148.11s10.41-31.31,30-29.75,9.67-11.89,29.38-10,22.3,3.71,30.6,12.16,9.12,1.59,18.05,12.5,7.91,8.87,11.48,15.74-6.18,7.43-6.18,7.43-53.66-4.65-72.83-5.71S799.86,148.11,799.86,148.11Z"/><path class="cls-6" d="M947.14,171.12c-26.39-4.27-37.89-1.85-50.64-12.07-3.41-2.73-6.77-5.56-9.88-8.23-6.51-5.58-11.88-10.49-14.07-12.52l-1.06-1s.09-.27.26-.75c2-5.74,15.94-42.63,37.57-43.71,19.55-1,5.07-15.47,27.13-16.63a102,102,0,0,1,18.18,1.12c47.38,6.31,44.19,3.45,56.86,22s31.36,9.34,43.19,22.4,32.89,35,36.71,47.4S973.53,175.39,947.14,171.12Z"/><path class="cls-9" d="M940.07,149.44l-4.4,10.23L899,158l-12.4-7.21-11.28-6.55-2.79-6-.8-1.74c2-5.74,15.94-42.63,37.57-43.71,19.55-1,5.07-15.47,27.13-16.63l-2.83,22.56a11,11,0,0,1-5.73,8.33h0a11,11,0,0,0-2.5,17.55,9.58,9.58,0,0,1,1.83,2c0,.39.27,3.9.52,6.81a11,11,0,0,0,3.19,6.82Z"/></g><path class="cls-10" d="M513.19,123.7c39.73-.75,80-1.41,120.79-1.41,185.95,0,361.92,10,518.71,27.74,44.92,5.09,91.31,17.15,129.81,17.15V272H.5V167.18c49.5,0,214.32-28.77,334-36C334.51,131.17,465.84,124.59,513.19,123.7Z"/><path class="cls-11" d="M348.28,265.17c-.27-4.36-.7-8.76-1.33-13.11-.31-2.18-.69-4.35-1.17-6.5a33.31,33.31,0,0,0-2-6.3,33.05,33.05,0,0,1,2.59,6.13c.69,2.11,1.29,4.26,1.82,6.41,1.07,4.33,1.94,8.67,2.66,13.09Z"/><path class="cls-11" d="M344.65,266.51c-.63-2.33-1.3-4.67-2-7s-1.41-4.64-2.33-6.89c1.31,2.05,2.42,4.23,3.54,6.4s2.18,4.36,3.24,6.57Z"/><path class="cls-11" d="M353.06,265.42c.31-2.39.6-4.81.85-7.22s.49-4.82.5-7.25c.42,2.4.61,4.84.81,7.27s.33,4.86.45,7.31Z"/><path class="cls-11" d="M347.06,264.74c1.14-3.15,2.16-6.4,3-9.66q.66-2.45,1.11-4.94a19.42,19.42,0,0,0,.36-5,19.94,19.94,0,0,1,.29,5.12c-.09,1.71-.25,3.42-.47,5.12-.45,3.41-1.06,6.77-1.8,10.15Z"/><path class="cls-11" d="M572.39,174.14c.35-3,.79-5.92,1.35-8.85.28-1.47.6-2.92,1-4.37a23.31,23.31,0,0,1,1.46-4.21A22.64,22.64,0,0,0,575,161c-.28,1.45-.49,2.92-.66,4.39-.35,2.93-.57,5.9-.71,8.84Z"/><path class="cls-11" d="M574.7,174.63q.87-2.28,1.8-4.53c.63-1.49,1.25-3,2-4.43-.55,1.52-1,3.08-1.39,4.64s-.81,3.13-1.19,4.7Z"/><path class="cls-11" d="M569.49,174.6c0-1.65,0-3.29.09-4.93s.12-3.28.31-4.91c0,1.64.18,3.26.33,4.89s.35,3.25.55,4.87Z"/><path class="cls-11" d="M573.3,174.37c-.55-2.25-1-4.49-1.37-6.76q-.27-1.7-.42-3.42a14.57,14.57,0,0,1,0-3.43,14.89,14.89,0,0,0,.22,3.4c.19,1.13.41,2.24.68,3.35.53,2.21,1.17,4.41,1.87,6.56Z"/></svg>