<svg id="Layer_2" data-name="Layer 2" xmlns="http://www.w3.org/2000/svg" xmlns:xlink="http://www.w3.org/1999/xlink" preserveAspectRatio="none slice" width="1108" height="176" viewBox="0 0 1108.55023 176"><defs><style>.cls-1,.cls-2{opacity:0.6;}.cls-1{fill:url(#linear-gradient);}.cls-2{fill:url(#linear-gradient-2);}</style><linearGradient id="linear-gradient" x1="151.22569" y1="156.3007" x2="151.22569" y2="38.56034" gradientUnits="userSpaceOnUse"><stop offset="0" stop-color="#fff" stop-opacity="0"/><stop offset="0.08626" stop-color="#fff" stop-opacity="0.04703"/><stop offset="0.24237" stop-color="#fff" stop-opacity="0.17219"/><stop offset="0.4506" stop-color="#fff" stop-opacity="0.37529"/><stop offset="0.7032" stop-color="#fff" stop-opacity="0.65643"/><stop offset="0.98309" stop-color="#fff"/></linearGradient><linearGradient id="linear-gradient-2" x1="956.51279" y1="118.35156" x2="956.51279" y2="19.62232" xlink:href="#linear-gradient"/></defs><title>Artboard 34 copy 2</title><g id="_Group_" data-name="&lt;Group&gt;"><path id="_Path_" data-name="&lt;Path&gt;" class="cls-1" d="M257.74107,85.11373v0A11.48177,11.48177,0,0,0,246.2593,73.63193H191.70288a6.88906,6.88906,0,0,1-6.88906-6.88906v-.835a6.88906,6.88906,0,0,1,6.88906-6.88906h17.788a10.22921,10.22921,0,0,0,10.22921-10.22921v0a10.22921,10.22921,0,0,0-10.22921-10.22921H54.93951A10.22921,10.22921,0,0,0,44.7103,48.78955v0A10.22921,10.22921,0,0,0,54.93951,59.01878h49.766a6.88906,6.88906,0,0,1,6.88906,6.88906v.835a6.88906,6.88906,0,0,1-6.88906,6.88906h0A10.88167,10.88167,0,0,0,93.82383,84.51361v1.20022A10.88167,10.88167,0,0,0,104.7055,96.5955h0a6.88906,6.88906,0,0,1,6.88906,6.88906v.835a6.88906,6.88906,0,0,1-6.88906,6.88906h-35.961a8.55913,8.55913,0,0,0-8.55913,8.55913v0a8.55913,8.55913,0,0,0,8.55913,8.55913h67.89629a6.88906,6.88906,0,0,1,6.88906,6.88906h0a6.88906,6.88906,0,0,1-6.88906,6.88906H129.312a7.0978,7.0978,0,0,0-7.0978,7.0978h0a7.0978,7.0978,0,0,0,7.0978,7.0978h65.0073a7.0978,7.0978,0,0,0,7.0978-7.0978h0a7.0978,7.0978,0,0,0-7.0978-7.0978H163.00562a6.88906,6.88906,0,0,1-6.88906-6.88906h0a6.88906,6.88906,0,0,1,6.88906-6.88906h6.21809a8.55913,8.55913,0,0,0,8.55913-8.55913v0a8.55913,8.55913,0,0,0-8.55913-8.55913H152.66748a6.88906,6.88906,0,0,1-6.88906-6.88906v-.835a6.88906,6.88906,0,0,1,6.88906-6.88906H246.2593A11.48177,11.48177,0,0,0,257.74107,85.11373Z"/><path id="_Path_2" data-name="&lt;Path&gt;" class="cls-2" d="M862.95388,72.03531v0a8.6457,8.6457,0,0,0,8.6457,8.6457h31.80389a7.71936,7.71936,0,0,1,7.71936,7.71936v0a7.71936,7.71936,0,0,1-7.71936,7.71936h-2.26a11.11589,11.11589,0,0,0-11.11588,11.11589v0a11.11589,11.11589,0,0,0,11.11588,11.11589h137.81235a11.11587,11.11587,0,0,0,11.11587-11.11587v0a11.11587,11.11587,0,0,0-11.1159-11.11587l-70.9406.00018a7.48807,7.48807,0,0,1-7.4884-7.488v-.19373A7.72738,7.72738,0,0,1,968.246,80.681l9.67213,0a8.64455,8.64455,0,0,0,8.64437-8.64569v0a8.64569,8.64569,0,0,0-8.64569-8.64569h-3.495A7.10183,7.10183,0,0,1,967.32,56.28778h0a7.10183,7.10183,0,0,1,7.10183-7.10183H997.197a5.24918,5.24918,0,0,0,5.24918-5.24918h0a5.24918,5.24918,0,0,0-5.24918-5.24918h-41.65a4.901,4.901,0,0,1-4.901-4.901h0a4.901,4.901,0,0,1,4.901-4.901h3.0901a4.63164,4.63164,0,0,0,4.63164-4.63164h0a4.63164,4.63164,0,0,0-4.63164-4.63164H881.789a4.63164,4.63164,0,0,0-4.63165,4.63164h0a4.63164,4.63164,0,0,0,4.63165,4.63164h46.97355a4.901,4.901,0,0,1,4.901,4.901h0a4.901,4.901,0,0,1-4.901,4.901h-8.78383a5.24918,5.24918,0,0,0-5.24918,5.24918h0a5.24918,5.24918,0,0,0,5.24918,5.24918h12.75847a7.10183,7.10183,0,0,1,7.10183,7.10183h0a7.10183,7.10183,0,0,1-7.10183,7.10183H871.59958A8.6457,8.6457,0,0,0,862.95388,72.03531Z"/></g></svg>