<svg id="Layer_2" data-name="Layer 2" xmlns="http://www.w3.org/2000/svg" width="1813" height="491" viewBox="0 0 1813.73954 491.18722"><defs><style>.cls-1{fill:#cde6ad;}.cls-2{fill:#caddac;}</style></defs><title>Artboard 34</title><g id="_Group_" data-name="&lt;Group&gt;"><g id="_Group_2" data-name="&lt;Group&gt;"><path id="_Path_" data-name="&lt;Path&gt;" class="cls-1" d="M1813.73955,491.37444c-9.856-44.11035-24-76.007-92.5918-135.32172-38.68832-33.45568-95.23975-77.25342-372.34229-70.49609C904.02763,296.40331,777.6082,401.78319,616.69072,308.05516c-49.92285-29.07812-103.70459-77.6333-208.95166-103.49463-51.78125-12.72363-139.03662-34.16406-194.812-1.5-70.2876,41.16284-156.75293,162.296-175.895,288.3139Z"/></g><g id="_Group_3" data-name="&lt;Group&gt;"><path id="_Path_2" data-name="&lt;Path&gt;" class="cls-2" d="M1716.65751,491.37444c-14.01318-24.45111-60.59424-85.21747-228.938-143.32025-70.81055-24.43994-202.5293-61.99414-401.98-65.99707-202.39063-4.062-205.90283,31.81494-328.4834,6-118.32178-24.918-155.48486-66.86084-262.48682-62.99707-31.28125,1.12939-142.35205,5.14014-206.98975,68.99658-54.72949,54.068-131.57324,123.37677-179.90674,197.31781Z"/></g></g></svg>